<svg width="282" height="182" viewBox="0 0 282 182" fill="none" xmlns="http://www.w3.org/2000/svg">
<path d="M214.082 73.0784C215.359 73.7078 216.758 74.0512 218.182 74.0848C218.261 74.0757 218.339 74.0507 218.409 74.0114C218.479 73.9722 218.541 73.9193 218.59 73.8559C218.64 73.7926 218.677 73.72 218.698 73.6424C218.719 73.5648 218.725 73.4838 218.714 73.404C218.596 72.4716 217.545 73.2708 214.63 71.924L214.778 70.8288C214.852 70.518 214.482 70.0148 214.082 70.1628C213.682 70.3108 213.579 70.7844 213.46 71.6428C213.342 72.5012 213.283 72.6788 214.082 73.0784ZM59.5996 77.2816C61.3805 76.7974 63.0531 75.9787 64.528 74.8692C65.1052 74.4252 64.9128 73.3892 64.75 72.7972C64.7036 72.6436 64.6022 72.5126 64.4652 72.4292C64.3282 72.3458 64.1652 72.3158 64.0075 72.3452C63.8497 72.3745 63.7084 72.4611 63.6105 72.5882C63.5127 72.7153 63.4652 72.8741 63.4772 73.034C63.5053 73.3548 63.5648 73.6721 63.6548 73.9812C60.1472 76.5416 58.7856 75.9052 58.9928 76.9412C59.0388 77.0595 59.1245 77.1581 59.2352 77.2202C59.3458 77.2823 59.4747 77.304 59.5996 77.2816ZM55.574 74.5436C58.534 74.5436 57.5276 72.7972 56.7284 73.0636L55.5888 73.2412C54.612 68.6088 55.3964 67.632 54.5528 67.6024C54.4256 67.5942 54.3002 67.636 54.2034 67.719C54.1066 67.802 54.0461 67.9195 54.0348 68.0464C53.9303 69.8765 54.0646 71.7123 54.4344 73.5076C54.5972 74.3068 54.8932 74.5436 55.574 74.5436ZM141.518 71.998C142.361 71.998 146.801 71.036 147.556 70.9176C148.666 70.7252 149.983 70.3848 150.072 69.186C150.072 68.446 149.539 67.5876 148.932 68.0316C148.806 68.1202 148.713 68.2483 148.667 68.3956C148.622 68.543 148.627 68.7013 148.681 68.8456C148.903 69.4228 148.429 69.3784 141.281 70.9324C141.149 70.9731 141.038 71.0616 140.969 71.1806C140.9 71.2995 140.878 71.4401 140.908 71.5744C140.938 71.7087 141.017 71.8268 141.13 71.9053C141.243 71.9838 141.381 72.0169 141.518 71.998ZM44.178 35.7676C44.5036 36.1376 45.3028 35.7676 45.066 35.2052C43.586 31.594 40.8628 27.5684 39.146 23.602C38.8796 22.9656 38.3468 21.8852 37.8288 21.826C37.7639 21.8169 37.6978 21.8259 37.6377 21.852C37.5776 21.8781 37.5259 21.9204 37.4884 21.974C37.1628 22.418 37.6364 23.6464 37.8584 24.1644C38.5392 25.6296 41.8396 33.0888 44.178 35.7676ZM92.1596 29.522C92.1873 29.6376 92.2448 29.7439 92.3263 29.8303C92.4079 29.9167 92.5106 29.9803 92.6244 30.0147C92.7381 30.0492 92.8589 30.0532 92.9747 30.0265C93.0904 29.9998 93.1972 29.9432 93.2844 29.8624C94.5063 28.7498 95.6166 27.5205 96.5996 26.192C101.04 40.4 101.04 40.9032 101.735 40.9032C101.835 40.9005 101.933 40.8763 102.022 40.8323C102.112 40.7883 102.191 40.7256 102.254 40.6484C102.317 40.5712 102.363 40.4813 102.388 40.3848C102.414 40.2883 102.418 40.1875 102.401 40.0892C100.744 34.85 98.9972 29.7292 97.4876 24.5048C97.4537 24.375 97.3823 24.258 97.2822 24.1687C97.1821 24.0793 97.0579 24.0215 96.925 24.0025C96.7922 23.9835 96.6567 24.0042 96.5356 24.062C96.4145 24.1198 96.3132 24.2121 96.2444 24.3272C95.3945 25.664 94.402 26.9046 93.2844 28.0272C92.3964 23.972 90.3244 14.7072 90.3244 14.7072C90.2871 14.5581 90.1921 14.4298 90.0602 14.3507C89.9284 14.2716 89.7705 14.2481 89.6214 14.2854C89.4722 14.3227 89.344 14.4177 89.2649 14.5496C89.1858 14.6814 89.1623 14.8393 89.1996 14.9884C89.7028 17.2824 91.8488 28.5008 92.1596 29.522ZM15.0664 106.512C10.3008 104.232 6.05317 101.894 1.16917 99.3188C0.221971 98.8156 -0.429229 100.547 1.05077 100.947C5.31488 103.608 9.86176 105.788 14.6076 107.444C15.1996 107.607 15.614 106.837 15.0664 106.512ZM18.8552 72.3384C18.9569 72.4284 19.0837 72.4852 19.2187 72.5011C19.3536 72.5169 19.4901 72.4912 19.61 72.4272C20.5868 71.9536 19.3288 70.7844 19.8024 63.7544C31.8052 78.2436 31.1392 77.8736 31.6424 77.8736C31.7466 77.8801 31.8504 77.8567 31.9418 77.8061C32.0331 77.7556 32.1081 77.6799 32.1578 77.5882C32.2076 77.4964 32.2301 77.3923 32.2227 77.2882C32.2153 77.1841 32.1782 77.0842 32.116 77.0004C30.2364 74.6324 22.0076 64.4056 19.8172 61.6232C19.7348 61.5189 19.6242 61.4403 19.4986 61.3968C19.3729 61.3533 19.2375 61.3468 19.1082 61.3779C18.9789 61.4091 18.8613 61.4766 18.7693 61.5726C18.6772 61.6685 18.6146 61.7888 18.5888 61.9192C18.2879 64.6221 18.2384 67.3472 18.4408 70.0592C14.0008 66.078 9.75317 61.86 5.26877 57.9824C5.13301 57.8735 4.96319 57.8159 4.78916 57.8197C4.61513 57.8236 4.44804 57.8887 4.31726 58.0036C4.18648 58.1185 4.10038 58.2758 4.0741 58.4478C4.04782 58.6199 4.08304 58.7957 4.17357 58.9444C5.91997 61.6528 15.7768 69.5412 18.8552 72.3384ZM135.598 17.4452C135.598 17.5905 135.655 17.7297 135.758 17.8324C135.861 17.9351 136 17.9928 136.145 17.9928C136.29 17.9928 136.43 17.9351 136.532 17.8324C136.635 17.7297 136.693 17.5905 136.693 17.4452C136.946 12.0091 136.719 6.56119 136.012 1.16523C135.997 1.02286 135.941 0.88796 135.85 0.776892C135.76 0.665824 135.639 0.583355 135.503 0.539488C135.367 0.495622 135.22 0.492242 135.082 0.529755C134.944 0.567268 134.82 0.644063 134.724 0.750831C134.058 1.60923 135.657 4.31763 135.598 17.4452ZM175.646 43.1528C186.909 24.1496 186.302 25.0968 186.214 24.7564C185.962 23.898 185.252 24.3124 179.554 26.0292C181.034 20.7752 182.884 15.166 184.112 9.85283C184.137 9.68102 184.098 9.50589 184.001 9.36186C183.904 9.21783 183.756 9.11533 183.587 9.07452C183.419 9.0337 183.241 9.05752 183.088 9.1413C182.936 9.22507 182.821 9.36274 182.765 9.52723C181.093 15.4472 179.435 21.234 177.837 26.9172C177.811 27.0347 177.815 27.1568 177.85 27.2721C177.884 27.3874 177.947 27.4921 178.033 27.5764C178.118 27.6607 178.224 27.7219 178.34 27.7541C178.456 27.7864 178.578 27.7887 178.695 27.7608C178.695 27.7608 182.617 26.5472 184.201 26.0292L174.744 42.6496C174.688 42.7684 174.679 42.9039 174.719 43.0288C174.759 43.1538 174.845 43.2588 174.96 43.3227C175.075 43.3866 175.209 43.4046 175.337 43.3731C175.464 43.3415 175.575 43.2628 175.646 43.1528ZM281.466 86.5612C280.697 86.1912 266.459 95.0416 266.311 95.1452C265.793 95.5152 266.311 96.4328 266.844 96.1516C267.702 95.7668 281.304 88.204 281.762 87.39C281.797 87.3162 281.818 87.2362 281.822 87.1545C281.826 87.0729 281.814 86.9912 281.786 86.9142C281.759 86.8372 281.716 86.7664 281.661 86.7059C281.607 86.6453 281.54 86.5961 281.466 86.5612ZM243.786 69.6448C243.786 69.6448 258.053 58.7668 260.717 56.6948C261.294 56.236 260.717 55.2148 260.036 55.2888C257.35 55.3529 254.676 55.655 252.044 56.1916C255.864 52.1161 259.247 47.6518 262.138 42.8716C262.626 42.0724 261.442 41.2436 260.968 42.0576C257.708 47.3765 253.828 52.2899 249.41 56.6948C248.936 57.1536 249.232 58.2784 250.002 58.1748C252.614 57.5096 255.277 57.0641 257.964 56.8428C257.964 56.8428 246.657 65.9448 243.164 68.8308C243.105 68.9252 243.077 69.0352 243.082 69.1463C243.087 69.2573 243.126 69.3641 243.194 69.4525C243.261 69.5408 243.354 69.6065 243.46 69.6409C243.565 69.6753 243.679 69.6766 243.786 69.6448ZM223.376 26.7988C232.464 11.1404 234.047 8.86123 232.523 8.47643C231.872 8.31363 231.901 8.37283 222.355 26.2364C222.31 26.3681 222.313 26.5113 222.364 26.641C222.414 26.7707 222.508 26.8786 222.63 26.9457C222.752 27.0128 222.893 27.0348 223.03 27.008C223.166 26.9811 223.289 26.9071 223.376 26.7988Z" fill="white"/>
<path d="M265.319 123.4C259.28 104.352 244.022 89.7 223.42 83.2176C223.406 82.8404 223.367 82.4646 223.302 82.0928C228.926 79.636 230.184 71.1852 228.94 63.8296C230.021 62.0684 232.892 53.0108 230.776 54.254L226.913 56.5332C226.365 55.0532 225.729 53.6768 225.048 52.3152C225.196 49.9472 223.035 45.7144 219.232 42.9468C215.739 40.4012 209.73 38.122 200.968 41.7628C194.131 44.6044 186.42 50.8796 185.251 59.9964C183.771 71.8364 187.693 77.5788 180.367 88.5752C172.272 84.9098 163.643 82.5616 154.807 81.6192C154.808 80.9559 154.763 80.2933 154.674 79.636C158.448 77.7268 159.247 71.5108 159.41 69.4832C163.85 65.6352 164.368 57.9688 160.89 57.7912C161.784 52.2989 162.126 46.7311 161.911 41.1708C161.719 37.7224 160.239 36.9528 159.558 36.8048C159.078 36.7139 158.581 36.7601 158.126 36.9381C157.67 37.1161 157.274 37.4186 156.983 37.8112C155.873 35.5468 153.742 35.828 152.543 37.5448C152.425 36.9354 152.119 36.3785 151.667 35.9527C151.216 35.5269 150.642 35.2539 150.027 35.172C149.412 35.0902 148.786 35.2039 148.239 35.4968C147.692 35.7898 147.251 36.2474 146.978 36.8048C146.691 36.1938 146.229 35.6819 145.65 35.3341C145.072 34.9864 144.403 34.8185 143.729 34.8518C143.055 34.8851 142.406 35.1181 141.864 35.5212C141.323 35.9243 140.913 36.4793 140.688 37.1156C139.208 33.904 135.434 34.644 134.59 37.9C133.48 35.3988 130.446 35.4136 129.396 38.3144C126.628 36.272 124.452 38.3144 124.008 41.674C123.74 47.3867 123.977 53.112 124.719 58.7828C119.702 57.658 123.609 69.4092 126.598 69.6904C127.116 74.1304 128.952 79.0144 132.518 80.1984C132.518 80.7904 132.43 81.3972 132.43 81.9892C122.86 83.5173 113.651 86.7826 105.257 91.624C100.639 88.368 90.368 83.9428 80.4964 84.7568C78.7077 80.9778 77.3619 77.0048 76.4856 72.9168C75.8344 69.35 77.5068 67.944 77.492 64.8656C79.4082 61.0039 79.8857 56.5858 78.8388 52.404C74.1768 37.604 46.0124 43.228 46.8116 59.4784C46.9152 61.3284 47.078 63.1784 47.2408 64.614C43.7628 65.6648 44.2808 65.9164 45.2428 70.1492C45.7608 72.458 46.3528 74.3672 48.78 73.864C49.89 78.674 52.6872 86.3552 59.288 86.3552C59.6876 86.3552 59.288 86.1036 59.658 88.59C43.0968 95.7976 22.3028 109.31 16.9156 132.99C15.6132 138.703 14.8288 146.813 18.5584 152.94C22.658 159.763 29.91 160.192 35.1196 159.852C33.9002 166.552 33.5075 173.377 33.9504 180.172C33.9531 180.267 33.9818 180.36 34.0335 180.439C34.0851 180.519 34.1577 180.583 34.2432 180.624C34.3288 180.666 34.424 180.682 34.5185 180.673C34.6131 180.664 34.7032 180.629 34.7792 180.572C35.5784 180.098 34.0096 179.595 36.5108 159.748C50.4524 158.461 63.7428 152.467 76.0268 146.162C78.0544 147.642 80.0672 149.122 82.154 150.454C83.8697 153.923 86.4988 156.859 89.7586 158.945C93.0183 161.031 96.7852 162.189 100.654 162.294C100.284 168.524 100.284 174.771 100.654 181.001C100.66 181.076 100.68 181.15 100.715 181.217C100.749 181.284 100.797 181.344 100.855 181.392C100.913 181.44 100.98 181.477 101.052 181.498C101.125 181.52 101.201 181.527 101.276 181.519C102.548 181.401 100.906 180.764 101.912 162.279C114.226 162.279 124.334 154.243 134.472 148.101C146.401 153.562 175.646 163.73 191.112 160.799C191.822 167.104 191.718 173.083 192.325 179.181C192.345 179.29 192.402 179.389 192.487 179.461C192.573 179.532 192.68 179.571 192.791 179.571C192.903 179.571 193.01 179.532 193.095 179.461C193.181 179.389 193.238 179.29 193.258 179.181C193.646 172.95 193.393 166.697 192.503 160.518C203.233 157.972 209.819 150.41 211.565 138.658C212.276 138.185 213.045 137.652 213.844 137.045C223.006 140.701 241.964 149.596 251.229 149.921C250.8 156.803 250.193 164.07 250.09 171.204C250.11 171.324 250.173 171.433 250.266 171.512C250.36 171.591 250.478 171.634 250.6 171.634C250.722 171.634 250.841 171.591 250.934 171.512C251.028 171.433 251.09 171.324 251.111 171.204C251.318 169.235 252.665 152.437 252.591 149.877C267.42 149.536 269.759 137.4 265.319 123.4ZM159.706 60.1444C160.106 59.6116 160.328 58.99 160.905 59.1676C162.977 59.7744 161.319 64.9248 159.588 67.2188C159.736 64.8656 159.78 62.4828 159.706 60.1444ZM124.378 60.1444C124.852 60.1444 124.793 60.3516 125.858 60.5588L126.45 67.87C124.26 65.8424 122.676 60.174 124.378 60.174V60.1444ZM227.209 58.6644C227.272 58.4563 227.414 58.2818 227.606 58.1791C227.798 58.0764 228.022 58.054 228.23 58.1168C228.438 58.1796 228.613 58.3224 228.715 58.514C228.818 58.7055 228.84 58.9299 228.778 59.138C228.26 60.9732 227.86 62.3052 227.52 63.578C227.432 63.7363 227.309 63.8722 227.16 63.975C227.011 64.0777 226.84 64.1444 226.661 64.17C225.359 64.2144 226.75 59.9964 227.209 58.6348V58.6644ZM202.3 64.5844C203.144 63.948 204.165 64.762 204.328 64.7768C205.719 65.6648 207.288 64.3772 206.888 64.0072L206.592 63.7704C205.497 62.912 203.248 61.136 203.721 59.9224C204.076 59.0048 205.527 59.138 206.474 59.0936C206.508 59.0925 206.541 59.0839 206.57 59.0683C206.6 59.0526 206.626 59.0304 206.646 59.0034C206.666 58.9763 206.679 58.945 206.686 58.9119C206.692 58.8788 206.69 58.8448 206.681 58.8124C206.533 58.3388 206.356 57.8652 206.178 57.3324C211.771 54.5584 217.904 53.0429 224.145 52.8924C224.782 54.3724 225.329 55.7784 225.818 57.1696C223.968 58.2204 221.866 59.3748 221.378 61.4764C220.938 61.4217 220.492 61.4665 220.071 61.6074C219.651 61.7483 219.268 61.9817 218.95 62.2904C216.627 59.4932 207.007 59.73 205.068 59.804C202.567 59.9076 209.168 64.9544 210.988 66.3752C217.1 71.126 221.096 67.8552 219.572 63.5188C219.786 63.2567 220.067 63.0577 220.385 62.943C220.703 62.8283 221.046 62.8022 221.378 62.8676C221.433 63.1488 221.522 63.4221 221.644 63.6816C221.57 63.6451 221.489 63.626 221.407 63.626C221.325 63.626 221.244 63.6451 221.17 63.6816C220.564 64.0664 221.17 64.5844 222.562 67.056C222.39 67.2305 222.207 67.3937 222.014 67.5444C221.452 67.9588 221.94 69.7644 223.82 67.5444C224.101 67.204 223.568 66.2124 222.976 65.3392C223.69 65.8261 224.547 66.0613 225.41 66.0077C226.272 65.9541 227.093 65.6148 227.742 65.0432C228.389 69.0166 228.022 73.0891 226.676 76.8832C225.196 80.5092 221.481 80.7164 222.236 82.0928C222.431 86.9723 222.034 91.8574 221.052 96.6412C217.248 95.8124 209.76 86.5328 206.77 82.226C207.08 78.6273 206.615 75.0039 205.408 71.5996C204.417 69.8828 202.448 69.0984 201.93 67.1596C201.728 66.7272 201.656 66.2456 201.721 65.7728C201.787 65.3001 201.988 64.8565 202.3 64.4956V64.5844ZM224.737 62.1128C224.574 62.6012 224.471 63.282 223.938 63.282C223.405 63.282 223.139 62.6604 223.198 62.1276C223.257 61.5948 223.405 60.3664 223.968 60.0408C224.076 59.9873 224.195 59.9594 224.315 59.9594C224.436 59.9594 224.555 59.9873 224.663 60.0408C225.359 60.2332 224.989 61.2692 224.737 62.024V62.1128ZM216.76 65.5168C216.597 65.9164 216.434 66.6416 215.961 66.8636C215.878 66.9041 215.787 66.9252 215.694 66.9252C215.602 66.9252 215.511 66.9041 215.428 66.8636C214.54 66.538 215.517 63.2376 216.316 62.6012C216.386 62.5301 216.472 62.4779 216.568 62.4491C216.663 62.4204 216.764 62.4162 216.861 62.4368C216.959 62.4575 217.049 62.5024 217.125 62.5673C217.2 62.6322 217.258 62.7151 217.293 62.8084C217.604 63.4892 216.849 65.206 216.76 65.428V65.5168ZM213.519 64.0812C213.326 64.466 213.238 64.8212 212.734 64.8212C212.616 64.8294 212.497 64.8084 212.389 64.7601C212.281 64.7118 212.186 64.6377 212.113 64.5442C212.04 64.4507 211.991 64.3407 211.97 64.2238C211.949 64.107 211.958 63.9868 211.994 63.874C212.157 63.3856 212.335 62.2756 212.927 61.9796C213.021 61.9362 213.122 61.9126 213.226 61.9102C213.329 61.9077 213.432 61.9265 213.527 61.9653C213.623 62.0042 213.71 62.0623 213.782 62.136C213.854 62.2097 213.911 62.2975 213.948 62.394C214.155 62.8824 213.815 63.5484 213.519 64.0812ZM206.119 83.0548C210.322 90.3068 221.392 100.815 222.251 97.2924C223.219 93.111 223.666 88.8259 223.583 84.5348C243.859 91.698 257.623 104.826 263.617 122.541C259.278 120.47 254.511 119.456 249.705 119.581C249.498 114.712 242.823 105.299 240.262 102.472C239.744 101.895 238.782 102.635 239.345 103.212C243.184 107.559 246.121 112.625 247.988 118.116C240.736 112.655 226.128 105.033 206.104 111.308C200.909 102.441 193.323 95.2141 184.215 90.4548C190.769 86.1682 198.308 83.6215 206.119 83.0548ZM128.937 49.666C137.837 47.2367 147.188 46.9678 156.213 48.8816C156.061 51.3897 156.141 53.9064 156.45 56.4H156.184C154.955 50.7464 147.082 49 144.432 54.92C143.079 54.461 141.612 54.461 140.259 54.92C137.698 49.592 130.284 51.3088 128.922 56.5776H128.641C128.952 54.2877 129.051 51.974 128.937 49.666ZM149.065 61.8464C149.331 61.0916 151.729 55.4972 153.283 55.3344C153.412 55.3327 153.54 55.3619 153.656 55.4196C153.772 55.4772 153.872 55.5616 153.949 55.6657C154.025 55.7699 154.076 55.8908 154.097 56.0185C154.117 56.1462 154.107 56.277 154.067 56.4C152.746 58.282 151.569 60.261 150.545 62.32C150.175 63.2376 148.724 62.8824 149.065 61.8464ZM146.919 59.7744C146.741 60.2184 145.942 60.4848 145.661 59.9668C145.38 59.4488 146.06 57.4804 147.984 54.5944C148.473 53.8692 148.932 53.514 149.331 53.5732C149.461 53.6103 149.58 53.6787 149.678 53.7724C149.775 53.8661 149.848 53.9822 149.891 54.1107C149.933 54.2391 149.943 54.376 149.921 54.5093C149.898 54.6426 149.843 54.7684 149.76 54.8756C148.634 56.3978 147.681 58.0409 146.919 59.7744ZM134.043 62.2312C134.679 60.84 135.39 59.434 136.07 58.0576C136.143 57.9248 136.25 57.814 136.38 57.7369C136.51 57.6597 136.659 57.619 136.81 57.619C136.962 57.619 137.11 57.6597 137.24 57.7369C137.371 57.814 137.478 57.9248 137.55 58.0576C137.643 58.198 137.693 58.3627 137.693 58.5312C137.693 58.6996 137.643 58.8643 137.55 59.0048C136.899 60.2924 136.233 61.6392 135.523 62.9416C134.96 63.6816 133.599 63.1192 134.043 62.2312ZM132.252 60.3664L132.163 60.47C131.704 61.136 130.55 60.7068 130.861 59.8632C131.715 57.5892 132.807 55.4115 134.117 53.366C134.753 52.5964 136.041 53.2624 135.597 54.1652C134.546 56.2668 133.258 58.2352 132.252 60.3664ZM126.968 60.4996C127.916 60.1 128.182 59.0196 128.448 58.0872L128.759 57.9984C128.682 59.0251 128.808 60.0571 129.13 61.0349C129.453 62.0128 129.966 62.9173 130.639 63.6964C131.437 64.4803 132.437 65.027 133.528 65.2756C134.619 65.5241 135.757 65.4647 136.816 65.1041C137.876 64.7434 138.814 64.0955 139.526 63.2329C140.238 62.3702 140.697 61.3265 140.851 60.2184C140.698 61.6437 140.634 63.0771 140.658 64.5104C140.658 65.3984 140.451 66.5084 141.546 66.5824H143.026C143.796 66.5824 144.003 65.2504 143.115 65.2356H142.02C141.934 62.5986 142.077 59.9592 142.449 57.3472C142.553 56.622 141.502 56.5184 141.354 57.1992C140.703 60.3812 141.354 58.5608 140.777 56.2076C141.81 55.837 142.94 55.837 143.974 56.2076C143.648 57.3941 143.584 58.6373 143.785 59.8511C143.987 61.0649 144.45 62.2204 145.143 63.2376C145.67 63.9208 146.338 64.4827 147.102 64.8852C147.865 65.2878 148.706 65.5215 149.568 65.5706C150.43 65.6197 151.292 65.4831 152.096 65.1699C152.901 64.8568 153.628 64.3744 154.23 63.7556C155.684 62.133 156.458 60.0132 156.391 57.8356H156.672C156.85 59.1232 157.116 60.8992 158.478 60.7956C158.33 65.8572 158.774 74.53 154.763 77.6972C154.245 78.1116 153.653 78.5852 153.579 79.0588C153.394 80.627 153.394 82.2117 153.579 83.78C154.008 87.8796 146.83 95.99 143.115 99.4532C135.952 89.7148 133.895 88.7528 133.91 80.2132C133.91 79.3548 133.806 79.2216 133.214 78.9256C127.22 76.0248 127.768 67.6628 126.968 60.4996ZM132.504 83.2916C132.666 87.8352 136.233 93.9772 142.523 100.593C143.796 102.25 155.044 88.442 154.822 85.4524V82.9512C185.118 86.518 206.829 103.952 210.292 127.455C197.712 124.983 181.817 127.884 179.124 128.402C177.968 121.041 175.792 113.878 172.656 107.12C172.603 106.988 172.5 106.883 172.369 106.827C172.239 106.772 172.092 106.771 171.96 106.824C171.829 106.877 171.724 106.98 171.668 107.11C171.613 107.241 171.611 107.388 171.664 107.519C174.386 114.19 176.371 121.138 177.584 128.239C169.8 120.04 157.96 116.399 141.458 117.139C131.525 117.6 121.658 119.002 111.991 121.328C112.764 116.814 114.606 112.552 117.363 108.896C117.424 108.785 117.442 108.657 117.415 108.534C117.387 108.411 117.316 108.303 117.215 108.229C117.114 108.154 116.989 108.12 116.863 108.131C116.738 108.142 116.621 108.198 116.534 108.289C113.425 112.131 111.383 116.726 110.614 121.609C99.8841 124.183 89.4635 127.909 79.5344 132.724C80.896 103.73 107.699 88.1904 132.504 83.2916ZM68.316 55.882C68.3008 57.2872 68.3849 58.6918 68.5676 60.0852C63.2396 60.2184 54.774 62.2904 48.4692 64.244C48.3064 62.9416 47.9364 60.5736 47.9216 59.1676C54.2655 56.1441 61.3435 55.0038 68.316 55.882ZM63.6096 63.8296C60.6496 68.8616 61.286 69.7496 60.2944 69.7496C60.1831 69.7563 60.0719 69.7363 59.97 69.6911C59.8681 69.6459 59.7785 69.5768 59.7089 69.4898C59.6393 69.4027 59.5916 69.3002 59.5698 69.1909C59.5481 69.0816 59.553 68.9686 59.584 68.8616C60.9308 63.7704 62.2184 62.8232 62.8696 62.7048C63.0116 62.6758 63.1589 62.6901 63.2927 62.7457C63.4265 62.8013 63.5405 62.8958 63.6201 63.0168C63.6998 63.1378 63.7413 63.2799 63.7394 63.4248C63.7376 63.5697 63.6923 63.7106 63.6096 63.8296ZM59.0364 64.9396C58.4888 65.8424 58.3556 67.1004 57.5564 66.908C56.7572 66.7156 57.3344 64.91 57.808 63.948C58.2816 62.986 58.696 62.9712 58.9772 63.0452C59.1357 63.0883 59.2766 63.18 59.3802 63.3074C59.4837 63.4349 59.5447 63.5916 59.5544 63.7556C59.4964 64.191 59.3169 64.6014 59.0364 64.9396ZM48.0252 67.8996C47.8624 68.2844 47.8476 69.4684 47.0484 69.4684C46.8929 69.4744 46.7398 69.4281 46.6137 69.3369C46.4876 69.2457 46.3957 69.1148 46.3528 68.9652C46.2745 67.9298 46.6037 66.9048 47.2704 66.1088C47.4079 65.9859 47.5807 65.9097 47.7642 65.8911C47.9476 65.8725 48.1322 65.9124 48.2916 66.0052C48.6468 66.242 48.5728 66.8636 48.0252 67.8552V67.8996ZM48.5728 71.348C49.9196 66.5084 50.6892 65.798 51.148 65.6944C51.2423 65.6726 51.3408 65.6777 51.4324 65.7091C51.5239 65.7405 51.6049 65.7969 51.666 65.872C51.8672 66.1051 51.9682 66.4083 51.9472 66.7156L49.9936 71.7624C49.9328 71.9508 49.7996 72.1073 49.6233 72.1975C49.4471 72.2877 49.2422 72.3042 49.0538 72.2434C48.8654 72.1825 48.7089 72.0493 48.6187 71.8731C48.5284 71.6968 48.512 71.492 48.5728 71.3036V71.348ZM50.0528 73.5828C52.8944 72.754 53.812 72.9908 53.5012 68.6692C53.3976 67.4408 53.1608 64.6436 54.404 64.688C55.4104 64.688 55.44 69.3648 56.9348 70.8152C58.4296 72.2656 60.3684 71.2444 61.9964 70.8152C66.4364 69.6016 65.4596 67.7072 65.134 61.8316L68.8636 61.5356C70.536 70.2084 72.7856 63.7112 74.2952 62.7344C75.2572 62.1276 76.086 63.4596 76.2636 64.4808C76.604 66.6712 74.7836 69.0688 75.1684 72.2804C76.0406 76.9288 77.5339 81.4388 79.6084 85.6892C76.3672 91.846 67.058 97.5292 62.914 99.7788C61.1676 93.4444 61.0196 85.1268 59.954 85.1564C55.0404 85.186 51.814 81.4712 49.9936 73.5384L50.0528 73.5828ZM59.7912 90.0108C60.0576 92.2456 61.1528 101.851 62.7512 101.052C66.7768 99.1572 79.0312 91.106 80.7776 85.926C83.3676 86.518 91.4484 84.9492 103.999 92.512C94.7374 98.0439 87.3058 106.175 82.6276 115.896C70.6544 114.416 55.8396 112.566 43.3928 119.137C47.1964 110.168 49.4756 109.28 48.3952 108.57C48.3393 108.532 48.2762 108.505 48.2097 108.492C48.1433 108.479 48.0748 108.479 48.0085 108.493C47.9421 108.507 47.8793 108.534 47.8236 108.572C47.768 108.611 47.7208 108.661 47.6848 108.718C47.3 109.295 41.898 118.22 41.7648 120.04C39.678 121.313 35.2232 124.569 33.8912 127.129C28.4503 127.235 23.1482 128.866 18.588 131.836C23.0872 114.416 37.31 99.9564 59.732 89.9664L59.7912 90.0108ZM21.4148 154.642C15.7612 148.722 16.9748 138.821 18.144 133.39C32.5888 123.903 51.6808 127.958 74.9168 145.466C67.1024 148.811 32.9588 166.616 21.4148 154.642ZM35.386 127.1C47.1372 114.09 64.1276 114.919 82.0208 117.124C77.4328 127.706 77.0332 138.88 80.8664 147.997C67.5464 138.022 51.814 127.055 35.386 127.055V127.1ZM101.808 161.14C87.2304 161.14 79.4012 148.338 79.6084 134.13C100.328 124.82 118.429 120.055 138.261 118.678C156.376 117.42 168.571 120.721 176.563 129.038C137.521 137.785 121.404 161.095 101.808 161.095V161.14ZM191.319 159.512C176.83 162.782 152.839 154.228 135.789 147.405C162.962 131.362 187.412 125.309 210.485 128.905C212.305 145.437 205.497 156.3 191.319 159.512ZM211.846 137.104C212.615 128.546 210.806 119.954 206.652 112.433C222.547 108.318 235.97 110.716 247.633 119.744C232.315 120.884 216.878 132.842 211.832 137.104H211.846ZM252.102 148.604C243.045 148.604 223.982 139.724 215.206 136.142C224.589 129.038 235.704 121.505 249.083 120.972C254.31 120.65 259.523 121.793 264.135 124.273C268.101 137.652 266.118 148.515 252.088 148.604H252.102Z" fill="white"/>
</svg>
