<svg width="352" height="173" viewBox="0 0 352 173" fill="none" xmlns="http://www.w3.org/2000/svg">
<g style="mix-blend-mode:soft-light" opacity="0.1">
<path d="M332.295 133.133C321.486 133.149 312.705 141.929 312.689 152.739C312.705 163.54 321.486 172.328 332.295 172.344C343.105 172.328 351.885 163.548 351.901 152.739C351.885 141.929 343.105 133.149 332.295 133.133ZM341.107 161.551C338.83 163.828 335.722 165.218 332.295 165.218C328.868 165.218 325.76 163.82 323.483 161.551C321.206 159.274 319.816 156.166 319.816 152.739C319.816 149.311 321.214 146.203 323.483 143.926C325.76 141.649 328.868 140.259 332.295 140.259C335.722 140.259 338.83 141.657 341.107 143.926C343.384 146.203 344.774 149.311 344.774 152.739C344.774 156.166 343.376 159.274 341.107 161.551Z" fill="white"/>
<path d="M287.994 133.133C277.185 133.149 268.405 141.929 268.389 152.739C268.405 163.54 277.185 172.328 287.994 172.344C298.804 172.328 307.584 163.548 307.6 152.739C307.584 141.929 298.804 133.149 287.994 133.133ZM296.807 161.551C294.53 163.828 291.422 165.218 287.994 165.218C284.567 165.218 281.459 163.82 279.182 161.551C276.905 159.274 275.515 156.166 275.515 152.739C275.515 149.311 276.913 146.203 279.182 143.926C281.459 141.649 284.567 140.259 287.994 140.259C291.422 140.259 294.53 141.657 296.807 143.926C299.084 146.203 300.474 149.311 300.474 152.739C300.474 156.166 299.076 159.274 296.807 161.551Z" fill="white"/>
<path d="M243.662 133.133C232.853 133.149 224.073 141.929 224.057 152.739C224.073 163.54 232.853 172.328 243.662 172.344C254.472 172.328 263.252 163.548 263.268 152.739C263.252 141.929 254.472 133.149 243.662 133.133ZM252.475 161.551C250.198 163.828 247.09 165.218 243.662 165.218C240.235 165.218 237.127 163.82 234.85 161.551C232.573 159.274 231.183 156.166 231.183 152.739C231.183 149.311 232.581 146.203 234.85 143.926C237.127 141.649 240.235 140.259 243.662 140.259C247.09 140.259 250.198 141.657 252.475 143.926C254.752 146.203 256.142 149.311 256.142 152.739C256.142 156.166 254.744 159.274 252.475 161.551Z" fill="white"/>
<path d="M199.362 133.133C188.552 133.149 179.772 141.929 179.756 152.739C179.772 163.54 188.552 172.328 199.362 172.344C210.171 172.328 218.951 163.548 218.967 152.739C218.951 141.929 210.171 133.149 199.362 133.133ZM208.174 161.551C205.897 163.828 202.789 165.218 199.362 165.218C195.934 165.218 192.826 163.82 190.549 161.551C188.272 159.274 186.882 156.166 186.882 152.739C186.882 149.311 188.28 146.203 190.549 143.926C192.826 141.649 195.934 140.259 199.362 140.259C202.789 140.259 205.897 141.657 208.174 143.926C210.451 146.203 211.841 149.311 211.841 152.739C211.841 156.166 210.443 159.274 208.174 161.551Z" fill="white"/>
<path d="M152.991 133.133C142.181 133.149 133.401 141.929 133.385 152.739C133.401 163.54 142.181 172.328 152.991 172.344C163.8 172.328 172.58 163.548 172.596 152.739C172.58 141.929 163.8 133.149 152.991 133.133ZM161.803 161.551C159.526 163.828 156.418 165.218 152.991 165.218C149.563 165.218 146.455 163.82 144.178 161.551C141.901 159.274 140.511 156.166 140.511 152.739C140.511 149.311 141.909 146.203 144.178 143.926C146.455 141.649 149.563 140.259 152.991 140.259C156.418 140.259 159.526 141.657 161.803 143.926C164.08 146.203 165.47 149.311 165.47 152.739C165.47 156.166 164.072 159.274 161.803 161.551Z" fill="white"/>
<path d="M64.3577 133.133C53.5482 133.149 44.7679 141.929 44.752 152.739C44.7679 163.54 53.5482 172.328 64.3577 172.344C75.1673 172.328 83.9476 163.548 83.9635 152.739C83.9476 141.929 75.1673 133.149 64.3577 133.133ZM73.17 161.551C70.893 163.828 67.7852 165.218 64.3577 165.218C60.9303 165.218 57.8225 163.82 55.5455 161.551C53.2686 159.274 51.8784 156.166 51.8784 152.739C51.8784 149.311 53.2766 146.203 55.5455 143.926C57.8225 141.649 60.9303 140.259 64.3577 140.259C67.7852 140.259 70.893 141.657 73.17 143.926C75.4469 146.203 76.8369 149.311 76.8369 152.739C76.8369 156.166 75.4389 159.274 73.17 161.551Z" fill="white"/>
<path d="M20.0648 133.133C9.25525 133.149 0.474963 141.929 0.458984 152.739C0.474963 163.54 9.25525 172.328 20.0648 172.344C30.8743 172.328 39.6544 163.548 39.6704 152.739C39.6544 141.929 30.8743 133.149 20.0648 133.133ZM28.877 161.551C26.6001 163.828 23.4922 165.218 20.0648 165.218C16.6374 165.218 13.5295 163.82 11.2525 161.551C8.9756 159.274 7.58539 156.166 7.58539 152.739C7.58539 149.311 8.98358 146.203 11.2525 143.926C13.5295 141.649 16.6374 140.259 20.0648 140.259C23.4922 140.259 26.6001 141.657 28.877 143.926C31.154 146.203 32.544 149.311 32.544 152.739C32.544 156.166 31.146 159.274 28.877 161.551Z" fill="white"/>
<path d="M332.295 88.7539C321.486 88.7699 312.705 97.5502 312.689 108.36C312.705 119.161 321.486 127.95 332.295 127.965C343.105 127.95 351.885 119.169 351.901 108.36C351.885 97.5502 343.105 88.7699 332.295 88.7539ZM341.107 117.172C338.83 119.449 335.722 120.839 332.295 120.839C328.868 120.839 325.76 119.441 323.483 117.172C321.206 114.895 319.816 111.787 319.816 108.36C319.816 104.932 321.214 101.824 323.483 99.5475C325.76 97.2705 328.868 95.8804 332.295 95.8804C335.722 95.8804 338.83 97.2785 341.107 99.5475C343.384 101.824 344.774 104.932 344.774 108.36C344.774 111.787 343.376 114.895 341.107 117.172Z" fill="white"/>
<path d="M243.662 88.7539C232.853 88.7699 224.073 97.5502 224.057 108.36C224.073 119.169 232.853 127.95 243.662 127.965C254.472 127.95 263.252 119.169 263.268 108.36C263.252 97.5502 254.472 88.7699 243.662 88.7539ZM252.475 117.172C250.198 119.449 247.09 120.839 243.662 120.839C240.235 120.839 237.127 119.441 234.85 117.172C232.573 114.895 231.183 111.787 231.183 108.36C231.183 104.932 232.581 101.824 234.85 99.5475C237.127 97.2705 240.235 95.8804 243.662 95.8804C247.09 95.8804 250.198 97.2785 252.475 99.5475C254.752 101.824 256.142 104.932 256.142 108.36C256.142 111.787 254.744 114.895 252.475 117.172Z" fill="white"/>
<path d="M199.362 88.7539C188.552 88.7699 179.772 97.5502 179.756 108.36C179.772 119.169 188.552 127.95 199.362 127.965C210.171 127.95 218.951 119.169 218.967 108.36C218.951 97.5502 210.171 88.7699 199.362 88.7539ZM208.174 117.172C205.897 119.449 202.789 120.839 199.362 120.839C195.934 120.839 192.826 119.441 190.549 117.172C188.272 114.895 186.882 111.787 186.882 108.36C186.882 104.932 188.28 101.824 190.549 99.5475C192.826 97.2705 195.934 95.8804 199.362 95.8804C202.789 95.8804 205.897 97.2785 208.174 99.5475C210.451 101.824 211.841 104.932 211.841 108.36C211.841 111.787 210.443 114.895 208.174 117.172Z" fill="white"/>
<path d="M152.998 88.7539C142.189 88.7699 133.409 97.5502 133.393 108.36C133.409 119.161 142.189 127.95 152.998 127.965C163.808 127.95 172.588 119.169 172.604 108.36C172.588 97.5502 163.808 88.7699 152.998 88.7539ZM161.811 117.172C159.534 119.449 156.426 120.839 152.998 120.839C149.571 120.839 146.463 119.441 144.186 117.172C141.909 114.895 140.519 111.787 140.519 108.36C140.519 104.932 141.917 101.824 144.186 99.5475C146.463 97.2705 149.571 95.8804 152.998 95.8804C156.426 95.8804 159.534 97.2785 161.811 99.5475C164.088 101.824 165.478 104.932 165.478 108.36C165.478 111.787 164.08 114.895 161.811 117.172Z" fill="white"/>
<path d="M108.698 88.7539C97.8881 88.7699 89.1078 97.5502 89.0918 108.36C89.1078 119.161 97.8881 127.95 108.698 127.965C119.507 127.95 128.287 119.169 128.303 108.36C128.287 97.5502 119.507 88.7699 108.698 88.7539ZM117.51 117.172C115.233 119.449 112.125 120.839 108.698 120.839C105.27 120.839 102.162 119.441 99.8854 117.172C97.6084 114.895 96.2182 111.787 96.2182 108.36C96.2182 104.932 97.6164 101.824 99.8854 99.5475C102.162 97.2705 105.27 95.8804 108.698 95.8804C112.125 95.8804 115.233 97.2785 117.51 99.5475C119.787 101.824 121.177 104.932 121.177 108.36C121.177 111.787 119.779 114.895 117.51 117.172Z" fill="white"/>
<path d="M64.3577 88.7539C53.5482 88.7699 44.7679 97.5502 44.752 108.36C44.7679 119.161 53.5482 127.95 64.3577 127.965C75.1673 127.95 83.9476 119.169 83.9635 108.36C83.9476 97.5502 75.1673 88.7699 64.3577 88.7539ZM73.17 117.172C70.893 119.449 67.7852 120.839 64.3577 120.839C60.9303 120.839 57.8225 119.441 55.5455 117.172C53.2686 114.895 51.8784 111.787 51.8784 108.36C51.8784 104.932 53.2766 101.824 55.5455 99.5475C57.8225 97.2705 60.9303 95.8804 64.3577 95.8804C67.7852 95.8804 70.893 97.2785 73.17 99.5475C75.4469 101.824 76.8369 104.932 76.8369 108.36C76.8369 111.787 75.4389 114.895 73.17 117.172Z" fill="white"/>
<path d="M332.295 44.3789C321.486 44.3949 312.705 53.1751 312.689 63.9846C312.705 74.7862 321.486 83.5744 332.295 83.5904C343.105 83.5744 351.885 74.7941 351.901 63.9846C351.885 53.1751 343.105 44.3949 332.295 44.3789ZM341.107 72.7968C338.83 75.0738 335.722 76.4639 332.295 76.4639C328.868 76.4639 325.76 75.0658 323.483 72.7968C321.206 70.5199 319.816 67.412 319.816 63.9846C319.816 60.5572 321.214 57.4494 323.483 55.1725C325.76 52.8955 328.868 51.5053 332.295 51.5053C335.722 51.5053 338.83 52.9035 341.107 55.1725C343.384 57.4494 344.774 60.5572 344.774 63.9846C344.774 67.412 343.376 70.5199 341.107 72.7968Z" fill="white"/>
<path d="M287.994 44.3789C277.185 44.3949 268.405 53.1751 268.389 63.9846C268.405 74.7941 277.185 83.5744 287.994 83.5904C298.804 83.5744 307.584 74.7941 307.6 63.9846C307.584 53.1751 298.804 44.3949 287.994 44.3789ZM296.807 72.7968C294.53 75.0738 291.422 76.4639 287.994 76.4639C284.567 76.4639 281.459 75.0658 279.182 72.7968C276.905 70.5199 275.515 67.412 275.515 63.9846C275.515 60.5572 276.913 57.4494 279.182 55.1725C281.459 52.8955 284.567 51.5053 287.994 51.5053C291.422 51.5053 294.53 52.9035 296.807 55.1725C299.084 57.4494 300.474 60.5572 300.474 63.9846C300.474 67.412 299.076 70.5199 296.807 72.7968Z" fill="white"/>
<path d="M243.662 44.3789C232.853 44.3949 224.073 53.1751 224.057 63.9846C224.073 74.7941 232.853 83.5744 243.662 83.5904C254.472 83.5744 263.252 74.7941 263.268 63.9846C263.252 53.1751 254.472 44.3949 243.662 44.3789ZM252.475 72.7968C250.198 75.0738 247.09 76.4639 243.662 76.4639C240.235 76.4639 237.127 75.0658 234.85 72.7968C232.573 70.5199 231.183 67.412 231.183 63.9846C231.183 60.5572 232.581 57.4494 234.85 55.1725C237.127 52.8955 240.235 51.5053 243.662 51.5053C247.09 51.5053 250.198 52.9035 252.475 55.1725C254.752 57.4494 256.142 60.5572 256.142 63.9846C256.142 67.412 254.744 70.5199 252.475 72.7968Z" fill="white"/>
<path d="M199.362 44.3789C188.552 44.3949 179.772 53.1751 179.756 63.9846C179.772 74.7941 188.552 83.5744 199.362 83.5904C210.171 83.5744 218.951 74.7941 218.967 63.9846C218.951 53.1751 210.171 44.3949 199.362 44.3789ZM208.174 72.7968C205.897 75.0738 202.789 76.4639 199.362 76.4639C195.934 76.4639 192.826 75.0658 190.549 72.7968C188.272 70.5199 186.882 67.412 186.882 63.9846C186.882 60.5572 188.28 57.4494 190.549 55.1725C192.826 52.8955 195.934 51.5053 199.362 51.5053C202.789 51.5053 205.897 52.9035 208.174 55.1725C210.451 57.4494 211.841 60.5572 211.841 63.9846C211.841 67.412 210.443 70.5199 208.174 72.7968Z" fill="white"/>
<path d="M152.998 44.3789C142.189 44.3949 133.409 53.1751 133.393 63.9846C133.409 74.7862 142.189 83.5744 152.998 83.5904C163.808 83.5744 172.588 74.7941 172.604 63.9846C172.588 53.1751 163.808 44.3949 152.998 44.3789ZM161.811 72.7968C159.534 75.0738 156.426 76.4639 152.998 76.4639C149.571 76.4639 146.463 75.0658 144.186 72.7968C141.909 70.5199 140.519 67.412 140.519 63.9846C140.519 60.5572 141.917 57.4494 144.186 55.1725C146.463 52.8955 149.571 51.5053 152.998 51.5053C156.426 51.5053 159.534 52.9035 161.811 55.1725C164.088 57.4494 165.478 60.5572 165.478 63.9846C165.478 67.412 164.08 70.5199 161.811 72.7968Z" fill="white"/>
<path d="M64.3577 44.3789C53.5482 44.3949 44.7679 53.1751 44.752 63.9846C44.7679 74.7862 53.5482 83.5744 64.3577 83.5904C75.1673 83.5744 83.9476 74.7941 83.9635 63.9846C83.9476 53.1751 75.1673 44.3949 64.3577 44.3789ZM73.17 72.7968C70.893 75.0738 67.7852 76.4639 64.3577 76.4639C60.9303 76.4639 57.8225 75.0658 55.5455 72.7968C53.2686 70.5199 51.8784 67.412 51.8784 63.9846C51.8784 60.5572 53.2766 57.4494 55.5455 55.1725C57.8225 52.8955 60.9303 51.5053 64.3577 51.5053C67.7852 51.5053 70.893 52.9035 73.17 55.1725C75.4469 57.4494 76.8369 60.5572 76.8369 63.9846C76.8369 67.412 75.4389 70.5199 73.17 72.7968Z" fill="white"/>
<path d="M20.0648 44.3789C9.25525 44.3949 0.474963 53.1751 0.458984 63.9846C0.474963 74.7941 9.25525 83.5744 20.0648 83.5904C30.8743 83.5744 39.6544 74.7941 39.6704 63.9846C39.6544 53.1751 30.8743 44.3949 20.0648 44.3789ZM28.877 72.7968C26.6001 75.0738 23.4922 76.4639 20.0648 76.4639C16.6374 76.4639 13.5295 75.0658 11.2525 72.7968C8.9756 70.5199 7.58539 67.412 7.58539 63.9846C7.58539 60.5572 8.98358 57.4494 11.2525 55.1725C13.5295 52.8955 16.6374 51.5053 20.0648 51.5053C23.4922 51.5053 26.6001 52.9035 28.877 55.1725C31.154 57.4494 32.544 60.5572 32.544 63.9846C32.544 67.412 31.146 70.5199 28.877 72.7968Z" fill="white"/>
<path d="M332.295 39.2115C343.105 39.1955 351.885 30.4153 351.901 19.6058C351.885 8.79626 343.105 0.0159786 332.295 0C321.486 0.0159786 312.705 8.79626 312.689 19.6058C312.705 30.4073 321.486 39.1955 332.295 39.2115ZM323.483 10.7936C325.76 8.51661 328.868 7.1265 332.295 7.1265C335.722 7.1265 338.83 8.5246 341.107 10.7936C343.384 13.0705 344.774 16.1784 344.774 19.6058C344.774 23.0332 343.376 26.141 341.107 28.4179C338.83 30.6949 335.722 32.0851 332.295 32.0851C328.868 32.0851 325.76 30.6869 323.483 28.4179C321.206 26.141 319.816 23.0332 319.816 19.6058C319.816 16.1784 321.214 13.0705 323.483 10.7936Z" fill="white"/>
<path d="M243.662 0C232.853 0.0159786 224.073 8.79626 224.057 19.6058C224.073 30.4153 232.853 39.1955 243.662 39.2115C254.472 39.1955 263.252 30.4153 263.268 19.6058C263.252 8.79626 254.472 0.0159786 243.662 0ZM252.475 28.4179C250.198 30.6949 247.09 32.0851 243.662 32.0851C240.235 32.0851 237.127 30.6869 234.85 28.4179C232.573 26.141 231.183 23.0332 231.183 19.6058C231.183 16.1784 232.581 13.0705 234.85 10.7936C237.127 8.51661 240.235 7.1265 243.662 7.1265C247.09 7.1265 250.198 8.5246 252.475 10.7936C254.752 13.0705 256.142 16.1784 256.142 19.6058C256.142 23.0332 254.744 26.141 252.475 28.4179Z" fill="white"/>
<path d="M199.362 0C188.552 0.0159786 179.772 8.79626 179.756 19.6058C179.772 30.4153 188.552 39.1955 199.362 39.2115C210.171 39.1955 218.951 30.4153 218.967 19.6058C218.951 8.79626 210.171 0.0159786 199.362 0ZM208.174 28.4179C205.897 30.6949 202.789 32.0851 199.362 32.0851C195.934 32.0851 192.826 30.6869 190.549 28.4179C188.272 26.141 186.882 23.0332 186.882 19.6058C186.882 16.1784 188.28 13.0705 190.549 10.7936C192.826 8.51661 195.934 7.1265 199.362 7.1265C202.789 7.1265 205.897 8.5246 208.174 10.7936C210.451 13.0705 211.841 16.1784 211.841 19.6058C211.841 23.0332 210.443 26.141 208.174 28.4179Z" fill="white"/>
<path d="M152.998 0C142.189 0.0159786 133.409 8.79626 133.393 19.6058C133.409 30.4073 142.189 39.1955 152.998 39.2115C163.808 39.1955 172.588 30.4153 172.604 19.6058C172.588 8.79626 163.808 0.0159786 152.998 0ZM161.811 28.4179C159.534 30.6949 156.426 32.0851 152.998 32.0851C149.571 32.0851 146.463 30.6869 144.186 28.4179C141.909 26.141 140.519 23.0332 140.519 19.6058C140.519 16.1784 141.917 13.0705 144.186 10.7936C146.463 8.51661 149.571 7.1265 152.998 7.1265C156.426 7.1265 159.534 8.5246 161.811 10.7936C164.088 13.0705 165.478 16.1784 165.478 19.6058C165.478 23.0332 164.08 26.141 161.811 28.4179Z" fill="white"/>
<path d="M108.698 0C97.8881 0.0159786 89.1078 8.79626 89.0918 19.6058C89.1078 30.4153 97.8881 39.1955 108.69 39.2115C119.499 39.1955 128.279 30.4153 128.295 19.6058C128.279 8.79626 119.499 0.0159786 108.69 0H108.698ZM117.51 28.4179C115.233 30.6949 112.125 32.0851 108.698 32.0851C105.27 32.0851 102.162 30.687 99.8854 28.41C97.6084 26.1331 96.2182 23.0252 96.2182 19.5978C96.2182 16.1704 97.6164 13.0625 99.8854 10.7856C102.162 8.50861 105.27 7.1185 108.698 7.1185C112.125 7.1185 115.233 8.5166 117.51 10.7856C119.787 13.0625 121.177 16.1704 121.177 19.5978C121.177 23.0252 119.779 26.1331 117.51 28.41V28.4179Z" fill="white"/>
<path d="M64.3577 0C53.5482 0.0159786 44.7679 8.79626 44.752 19.6058C44.7679 30.4153 53.5482 39.1955 64.3577 39.2035C75.1673 39.1875 83.9476 30.4073 83.9635 19.6058C83.9476 8.79626 75.1673 0.0159786 64.3577 0ZM73.17 28.41C70.893 30.679 67.7852 32.0771 64.3577 32.0771C60.9303 32.0771 57.8225 30.679 55.5455 28.41C53.2686 26.1331 51.8784 23.0332 51.8784 19.5978C51.8784 16.1704 53.2766 13.0625 55.5455 10.7856C57.8225 8.50861 60.9303 7.1185 64.3577 7.1185C67.7852 7.1185 70.893 8.5166 73.17 10.7856C75.4469 13.0625 76.8369 16.1704 76.8369 19.5978C76.8369 23.0252 75.4389 26.1331 73.17 28.41Z" fill="white"/>
<path d="M20.0648 0C9.25525 0.0159786 0.474963 8.79626 0.458984 19.6058C0.474963 30.4153 9.25525 39.1955 20.0648 39.2035C30.8663 39.1875 39.6544 30.4073 39.6704 19.6058C39.6544 8.79626 30.8743 0.0159786 20.0648 0ZM28.877 28.41C26.6001 30.679 23.4922 32.0771 20.0648 32.0771C16.6374 32.0771 13.5295 30.679 11.2525 28.41C8.9756 26.1331 7.58539 23.0332 7.58539 19.5978C7.58539 16.1704 8.98358 13.0625 11.2525 10.7856C13.5295 8.50861 16.6374 7.1185 20.0648 7.1185C23.4922 7.1185 26.6001 8.5166 28.877 10.7856C31.154 13.0625 32.544 16.1704 32.544 19.5978C32.544 23.0252 31.146 26.1331 28.877 28.41Z" fill="white"/>
</g>
</svg>
