<svg width="133" height="130" viewBox="0 0 133 130" fill="none" xmlns="http://www.w3.org/2000/svg">
<g style="mix-blend-mode:soft-light">
<path d="M27.0715 86.4702C37.0031 84.3898 44.4634 75.5781 44.4634 65.0303C44.4634 52.9256 34.651 43.1133 22.553 43.1133C10.4549 43.1133 0.642578 52.9256 0.642578 65.0303C0.642578 75.5847 8.10284 84.3898 18.0344 86.4702C8.10284 88.5506 0.642578 97.3627 0.642578 107.91C0.642578 120.015 10.4483 129.821 22.553 129.821C34.6577 129.821 44.4634 120.015 44.4634 107.91C44.4634 97.3561 37.0031 88.5506 27.0715 86.4702ZM6.55249 65.0303C6.55249 56.2052 13.7279 49.0231 22.5596 49.0231C31.3913 49.0231 38.5667 56.2052 38.5667 65.0303C38.5667 73.8554 31.3847 81.0375 22.5596 81.0375C13.7345 81.0375 6.55249 73.8621 6.55249 65.0303ZM22.5596 123.917C13.7345 123.917 6.55249 116.742 6.55249 107.91C6.55249 99.0787 13.7279 91.9032 22.5596 91.9032C31.3913 91.9032 38.5667 99.0787 38.5667 107.91C38.5667 116.742 31.3847 123.917 22.5596 123.917Z" fill="white" fill-opacity="0.2"/>
<path d="M114.72 43.5845C124.652 41.5041 132.112 32.6924 132.112 22.1446C132.112 10.0399 122.306 0.234375 110.201 0.234375C98.0967 0.234375 88.291 10.0399 88.291 22.1446C88.291 32.699 95.7513 41.5041 105.683 43.5845C95.7513 45.6649 88.291 54.4769 88.291 65.0312C88.291 77.1359 98.1033 86.9415 110.201 86.9415C122.299 86.9415 132.112 77.1359 132.112 65.0312C132.112 54.4769 124.652 45.6715 114.72 43.5845ZM94.2009 22.1446C94.2009 13.3195 101.383 6.13744 110.208 6.13744C119.033 6.13744 126.215 13.3129 126.215 22.1446C126.215 30.9764 119.04 38.1518 110.208 38.1518C101.376 38.1518 94.2009 30.9764 94.2009 22.1446ZM110.208 81.0384C101.383 81.0384 94.2009 73.8629 94.2009 65.0312C94.2009 56.1995 101.383 49.024 110.208 49.024C119.033 49.024 126.215 56.2061 126.215 65.0312C126.215 73.8563 119.04 81.0384 110.208 81.0384Z" fill="white" fill-opacity="0.2"/>
<path opacity="0.5" d="M70.8918 43.5845C80.8234 41.5041 88.2836 32.6924 88.2836 22.1446C88.2836 10.0399 78.478 0.234375 66.3733 0.234375C54.2685 0.234375 44.4629 10.0399 44.4629 22.1446C44.4629 32.699 51.9231 41.5041 61.8547 43.5845C51.9231 45.6649 44.4629 54.4768 44.4629 65.0312C44.4629 75.5855 51.9231 84.3907 61.8547 86.4711C51.9231 88.5515 44.4629 97.3636 44.4629 107.911C44.4629 120.016 54.2752 129.822 66.3733 129.822C78.4713 129.822 88.2836 120.016 88.2836 107.911C88.2836 97.3569 80.8234 88.5515 70.8918 86.4711C80.8234 84.3907 88.2836 75.5789 88.2836 65.0312C88.2836 54.4835 80.8234 45.6715 70.8918 43.5845ZM50.3728 22.1446C50.3728 13.3195 57.5548 6.13744 66.3799 6.13744C75.205 6.13744 82.387 13.3129 82.387 22.1446C82.387 30.9764 75.2116 38.1518 66.3799 38.1518C57.5482 38.1518 50.3728 30.9764 50.3728 22.1446ZM82.3804 107.918C82.3804 116.743 75.205 123.925 66.3733 123.925C57.5415 123.925 50.3662 116.749 50.3662 107.918C50.3662 99.086 57.5482 91.9106 66.3733 91.9106C75.1984 91.9106 82.3804 99.086 82.3804 107.918ZM66.3733 81.0384C57.5482 81.0384 50.3662 73.8629 50.3662 65.0312C50.3662 56.1995 57.5482 49.024 66.3733 49.024C75.1984 49.024 82.3804 56.2061 82.3804 65.0312C82.3804 73.8563 75.205 81.0384 66.3733 81.0384Z" fill="white"/>
</g>
</svg>
