<svg width="305" height="358" viewBox="0 0 305 358" fill="none" xmlns="http://www.w3.org/2000/svg">
<g style="mix-blend-mode:overlay" opacity="0.3">
<path d="M192.436 325.094L168.047 329.911L166.494 329.253L162.957 327.711L157.508 325.312L135.713 327.27L130.736 325.111L124.729 322.485L109.203 322.51L104.581 321.151L100.364 319.966L95.3854 318.44L92.8233 316.99L90.7425 315.55L86.5535 312.475L86.4139 312.38L82.9941 310.823L79.9949 309.447L77.4535 308.343L75.599 307.387L71.4473 303.883L64.5478 298.07L58.2294 292.744L57.9716 292.522L55.5531 291.364L54.4791 290.804L48.1855 283.532L41.4431 275.742L38.2924 272.106L38.2077 272.008L29.3474 257.177L25.4385 250.631M208.531 57.5697L204.603 55.9486L197.565 55.8342L190.016 52.9765L177.762 55.6572L167.445 52.1203L151.065 58.0048L139.311 54.4436L120.406 63.8229L108.83 60.8596M108.83 60.8596L89.266 73.827L71.5137 90.5817L56.2188 110.587L43.9331 133.186L35.1065 157.599L30.0504 182.98L28.924 208.432L31.737 233.071M108.83 60.8596L129.527 52.0443L150.643 47.5823L171.496 47.5222L175.384 48.3475L177 48.7483L178.959 49.2153L184.731 50.4254L191.578 51.8236L194.134 52.3892L197.295 53.3135L200.827 54.5079L204.618 55.9398M108.83 60.8596L100.006 59.3509L94.1316 59.3089L91.306 60.6879L74.2462 70.7387L72.8015 71.7502L54.3501 87.891M31.737 233.071L23.6335 229.781L19.771 204.991L20.087 179.564L24.594 154.359L33.1456 130.222L45.4521 107.97M31.737 233.071L38.3451 256.067L47.5162 260.068L55.5958 279.878L64.312 283.788L72.505 299.188L79.2948 302.258L86.4213 312.372L90.1481 314.053L90.1731 314.075L93.9507 317.388L95.3844 318.424L100.502 319.895L103.931 321.214L108.13 322.495L112.141 323.779L112.245 323.812L130.735 325.096L150.292 322.102L157.515 325.296L179.482 318.997L186.332 322.149L190.671 324.188L192.435 325.078L215.635 316.073L236.92 303.144L255.621 286.704L271.156 267.269L283.047 245.453L290.935 221.941L294.586 197.459L293.454 194.35L288.477 189.583L279.679 183.252M290.927 221.949L289.681 219.045L284.404 214.391L275.092 208.059L261.923 200.213L245.223 191.077L225.516 180.952L203.47 170.201L179.897 159.226L155.697 148.454L131.811 138.296L109.151 129.139L88.5497 121.312L70.7231 115.066L56.2266 110.587L45.4521 107.97M45.4521 107.97L38.6209 107.227L35.7851 108.306L30.1545 118.358L24.2958 128.81L23.6764 129.914M45.4521 107.97L61.0769 88.3402L79.4749 71.9655L89.2739 73.8265L102.246 77.3382L118.033 82.4352L136.145 88.9651L155.954 96.7208L176.75 105.437L197.751 114.788L218.177 124.419M54.3501 87.891L51.4251 89.1891L42.7818 99.7376L36.8118 107.028L35.7689 108.299M54.3501 87.891L61.0686 88.3328L71.5132 90.5738L85.4703 94.6032L102.549 100.334L122.218 107.608L143.803 116.189L166.512 125.77L189.48 135.999L211.834 146.479L232.727 156.809L251.398 166.601L267.209 175.514L279.679 183.252M54.3501 87.891L38.6126 107.22L26.3726 129.136L23.6759 129.906L20.2268 139.795L15.5008 153.356L11.5307 177.921L11.8931 202.833L14.1574 214.67L16.5809 227.32L20.1844 236.785L25.4454 250.615L27.1961 251.284L31.515 253.111L38.3447 256.059L48.4584 276.663L48.4594 276.679L61.1801 293.578L61.6768 294.236L61.7934 294.339L69.9026 301.526L77.1795 307.98L77.5043 308.269L78.4824 308.937L80.8804 310.279L83.8959 311.797L87.2476 313.531L90.6928 315.379L93.9631 317.332L95.3918 318.416L100.232 319.998L103.938 321.206L107.46 322.488L111.128 323.722L114.403 324.829L116.58 325.646L116.773 325.714L121.956 326.43L130.921 327.669L139.529 328.859L162.97 327.671L186.338 322.125L208.868 312.338L229.796 298.578L248.399 281.282L264.04 261.01L276.178 238.452L284.41 214.367L288.484 189.567L288.286 164.897L280.211 158.8L276.733 135.56L266.677 128.894L261.009 108.568L250.419 102.186L237.987 95.3464L234.314 80.7883L228.207 69.933L221.008 66.2244L216.343 61.1307L212.505 59.2908M200.811 54.501L190.015 52.9608L183.006 50.5765L167.444 52.1046L158.311 49.3896L139.31 54.4279L129.518 52.0291L121.975 50.8465L99.9975 59.3357L79.4583 71.9507L73.0538 71.7508L70.127 73.1517L57.586 83.8951L53.036 87.7961L51.4167 89.1817M197.279 53.2987L192.558 52.397L184.71 50.6084L178.114 48.9106L176.991 48.7251L158.303 49.3822L150.634 47.5591L144.661 46.6773L121.975 50.8386L116.862 50.8852L94.1228 59.2936L72.7927 71.7349L70.1265 73.1439M194.125 52.366L191.706 51.8633L191.431 51.7376L184.718 50.6079L183.006 50.5686L176.771 48.7305L171.494 47.4986L167.336 46.895L154.37 46.7655L147.011 46.6941L144.661 46.6694L140.543 46.7352L116.861 50.8773M278.934 123.004L277.583 120.857L276.433 119.021L266.138 102.616L263.348 99.4728L261.787 97.7726L260.21 96.0496L256.642 92.1624L248.031 82.7853L244.755 80.0818L240.264 76.9691L234.691 73.5502L233.551 72.6861M16.5878 227.304L18.5748 227.84L23.6482 229.764L31.4638 252.917L31.5302 253.102L43.1181 274.234L43.1348 274.249L53.6195 287.125L57.9938 292.497L61.6995 294.219L66.5872 296.462L66.6792 296.551L75.8165 305.367L80.0166 309.414L80.8774 310.097L84.1892 312.087L87.5726 313.954L90.8834 315.794L92.8578 316.909L95.4066 318.399L98.0838 317.567L102.564 312.642L108.785 303.615L116.596 290.634L125.773 274.016L136.023 254.266L146.984 232.056L158.24 208.191L169.365 183.592L179.919 159.209L189.503 135.974L197.773 114.763L204.444 96.3115L209.322 81.2157L212.298 69.8855L213.347 62.5516L205.451 59.043L197.595 55.8087L188.949 59.8769L178.924 68.1613L167.805 80.542L155.969 96.712L143.826 116.18L131.834 138.287L120.448 162.222L110.119 187.082L101.238 211.902L94.1274 235.746L89.0323 257.723L86.0888 277.073L85.3463 293.177L86.7469 305.595L90.1633 314.044L94.0843 315.808L98.0774 317.591L102.013 319.338L110.414 316.162L120.409 308.827L131.704 297.424L143.946 282.218L156.71 263.652L169.531 242.35L181.91 219.082L193.373 194.723L203.478 170.208L211.841 146.478L218.177 124.419M283.069 245.436L281.684 242.84L276.194 238.452L266.613 232.341L253.105 224.65L236.017 215.608L215.878 205.501L193.387 194.69L169.364 183.584L144.735 172.617L120.455 162.206L97.4541 152.745L76.5805 144.587L58.5599 137.997L43.9631 133.16L33.1673 130.189L26.3952 129.119M218.177 124.419L222.303 104.817L224.125 88.3002L223.661 75.3433L221.01 66.248L213.34 62.5757L212.506 59.3145L208.554 57.5604L205.444 59.0671L200.581 64.702L194.058 74.4593L186.037 88.1554L176.759 105.444L166.528 125.777L155.714 148.461L144.722 172.649L133.985 197.415L123.911 221.801L114.886 244.875L107.228 265.781L101.193 283.799L96.946 298.375L94.5727 309.116L94.0769 315.816L95.3928 318.432L100.294 319.986L103.665 321.254L107.461 322.504L111.129 323.737L113.984 324.814L116.369 325.675L117.899 326.207L118.084 326.267L128.704 327.889L136.277 329.046L141.941 329.915L142.053 329.932L166.501 329.245L190.68 324.195L213.807 314.91L235.128 301.663L253.934 284.861L269.619 265.046L281.669 242.864L289.696 219.044L293.462 194.357L292.865 169.609L287.968 145.578L287.273 143.841L281.864 130.312L278.951 123.027L275.463 119.15L274.642 117.817L265.619 103.169L263.365 99.5033L258.631 95.6229L252.078 91.1169L243.888 86.1244L234.307 80.8046L223.653 75.3358L212.275 69.9027L200.573 64.6946L188.941 59.8852L177.778 55.6484L164.419 62.6237M218.177 124.419L237.266 133.973L254.328 143.095L268.791 151.472L280.212 158.815L279.679 183.252M164.419 62.6237L150.383 73.8125M164.419 62.6237L178.909 68.1701L194.049 74.444L209.299 81.2329L224.116 88.285L237.98 95.3547L239.009 113.257L237.258 133.965L232.726 156.793L225.516 180.944L215.863 205.518L204.115 229.586L190.721 252.227L176.197 272.605L161.108 289.998L146.009 303.835L131.439 313.728M164.419 62.6237L151.072 57.9965L134.406 68.1738M150.383 73.8125L136.152 88.9568L122.233 107.599L109.158 129.123L97.4315 152.763L87.5128 177.629L79.7707 202.776L74.4796 227.262L71.8059 250.183L71.7804 270.741L74.3394 288.267L85.3389 293.185L96.9455 298.367L108.77 303.639L120.4 308.82L131.439 313.728M150.383 73.8125L167.798 80.5425L186.036 88.1396L204.429 96.3282L222.302 104.801L239.016 113.256L253.976 121.382L266.677 128.901L268.797 151.456L267.216 175.497L261.93 200.196L253.09 224.658L240.991 248.004L226.071 269.386L208.882 288.043L190.064 303.337L170.307 314.79L159.028 309.683L146.017 303.827L131.703 297.408L116.589 290.643L101.2 283.783L86.0883 277.065L71.7878 270.733L58.792 264.994L56.194 243.408L56.6932 219.716L60.3388 194.737L67.036 169.384L76.5575 144.597L88.5483 121.289L102.555 100.318L118.032 82.4194L134.406 68.1738M150.383 73.8125L134.406 68.1738M131.439 313.728L117.879 319.459L110.405 316.154L102.55 312.667L94.5723 309.108L86.7391 305.596L79.3022 302.249L74.3389 288.259L64.319 283.771L58.7841 264.994L47.5231 260.052L42.6923 237.645L41.3439 213.376L43.591 188.078L49.3847 162.645L58.5368 138.006L70.7222 115.05L85.4771 94.587L102.245 77.3224L120.413 63.8067L134.406 68.1738M131.439 313.728L141.513 318.204L150.3 322.102L170.3 314.807L179.49 318.996L200.888 308.479L220.979 294.034L239.039 276.114L254.429 255.321L266.591 232.366L275.1 208.059L279.679 183.252M26.3873 129.119L18.0523 152.926L13.9073 177.857L14.0844 203.097L18.5743 227.832L27.203 251.268L36.0077 266.355L39.6811 272.655L39.7233 272.7L46.9324 281.173L55.5748 291.331L56.0305 291.698L60.0183 294.968L72.2139 304.967L74.3696 306.734L74.5818 306.856L75.7775 307.472L77.4826 308.302L80.8853 310.097L83.5746 311.302L87.2707 313.522L90.8277 315.656L93.9716 317.474L95.4149 318.407L102.02 319.314L105.776 320.969L117.902 319.442L124.751 322.452L141.536 318.187L159.043 309.682L176.677 297.108L193.81 280.817L209.807 261.33L224.059 239.325L236.025 215.608L245.253 191.051L251.428 166.575L254.358 143.077L254 121.373L250.45 102.192L243.919 86.1068L234.723 73.5561L228.231 69.9316L227.5 69.3195L220.128 63.124L219.979 62.9986L216.367 61.1372M294.625 197.441L293.945 172.761L292.895 169.584L288.318 164.896L283.912 141.166L276.765 135.566L269.464 114.279L261.041 108.574L252.109 91.1071L251.413 90.2796L240.289 76.9914L238.516 75.6912L233.614 72.4215L226.919 67.6474L223.227 64.8424L219.964 63.0153M293.93 172.777L292.827 167.406L288.965 148.647L287.976 145.569L283.897 141.175L283.448 140.009L275.478 119.142L269.456 114.28L268.893 113.31L258.654 95.6136L257.649 94.4886L248.734 84.5133L244.779 80.0961L241.647 77.8186L239.965 76.5919L239.38 76.1608L233.581 72.0046L226.519 66.889L226.065 66.5606M226.065 66.5606L223.242 64.8257M226.065 66.5606L228.352 68.1461L233.487 71.8759M271.194 267.259L269.649 265.028L264.072 261.024L254.468 255.311L241.015 248.011L224.068 239.34L204.146 229.576L181.933 219.064L158.248 208.199L134 197.398L110.127 187.074L87.5359 177.62L67.0596 169.383L49.4079 162.635L35.137 157.582L24.624 154.333L18.0764 152.933L15.5395 153.346M255.622 286.719L253.926 284.861L248.393 281.314L239.04 276.122L226.057 269.411L209.777 261.364L190.714 252.243L169.516 242.358L146.962 232.081L123.896 221.802L101.207 211.912L79.7555 202.785L60.3241 194.754L43.5757 188.086L30.0426 182.98L20.0792 179.564L13.893 177.881L11.5233 177.929M236.921 303.16L235.121 301.664L229.79 298.609L220.979 294.042L208.868 288.068L193.781 280.85L176.19 272.621L156.695 263.661L136.001 254.299L114.871 244.884L94.1048 235.764L74.4731 227.286L56.6794 219.749L41.3375 213.4L28.9245 208.44L19.7715 204.999L14.071 203.137L11.8866 202.857M215.636 316.088L213.8 314.918L208.863 312.378L200.89 308.503L190.051 303.377L176.648 297.157L161.102 290.03L143.931 282.242L125.752 274.064L107.221 265.797L89.018 257.748L71.7995 250.208L56.1803 243.441L42.6863 237.677L31.738 233.087M100.095 320.078L95.3858 318.448M100.835 319.796L105.747 321.01L109.204 322.517L112.247 323.836L114.795 324.924L124.73 326.041L135.721 327.278L139.523 328.898L142.046 329.948L143.231 330.391L162.882 330.015L168.055 329.918M54.4958 290.819L55.1669 291.363L56.4186 292.386L60.6613 295.83L72.4446 305.396L73.7537 306.455L74.2758 306.748L74.341 306.783L75.7572 307.528L78.4926 308.976L80.8907 310.318L84.3115 312.285L87.6379 314.124L90.9085 315.951L92.8252 317.021L93.9423 317.642L95.3942 318.455L100.118 320.076L103.596 321.29L107.186 322.528L110.68 323.733L113.827 324.824M83.3871 311.069L83.0106 310.838L81.9126 309.616L72.5393 299.234L72.5139 299.204L66.5817 296.502L55.613 279.9L48.4751 276.678L43.1195 274.258L39.6835 272.694L38.2317 272.015M84.361 312.322L87.6875 314.161L90.9247 315.958L93.9497 317.633M114.665 324.868L114.81 324.915L116.775 325.737L118.108 326.274L118.22 326.314L118.768 326.503L135.184 329.096L140.667 329.96L143.062 330.337L143.237 330.366" stroke="white" stroke-width="1.08501" stroke-linecap="round" stroke-linejoin="round"/>
</g>
</svg>
