<?xml version="1.0" encoding="UTF-8"?>
<svg width="16" height="16" viewBox="0 0 16 16" fill="none" xmlns="http://www.w3.org/2000/svg">
  <path d="M8 1C9.1 1 10.1 1.2 11 1.7C10.4 2.1 10 2.8 10 3.5C10 4.9 11.1 6 12.5 6C13.2 6 13.9 5.6 14.3 5C14.8 5.9 15 6.9 15 8C15 11.9 11.9 15 8 15C4.1 15 1 11.9 1 8C1 4.1 4.1 1 8 1ZM10 11C10.6 11 11 11.4 11 12C11 12.6 10.6 13 10 13C9.4 13 9 12.6 9 12C9 11.4 9.4 11 10 11ZM5 10C5.6 10 6 10.4 6 11C6 11.6 5.6 12 5 12C4.4 12 4 11.6 4 11C4 10.4 4.4 10 5 10ZM8 7C8.6 7 9 7.4 9 8C9 8.6 8.6 9 8 9C7.4 9 7 8.6 7 8C7 7.4 7.4 7 8 7ZM4 5C4.6 5 5 5.4 5 6C5 6.6 4.6 7 4 7C3.4 7 3 6.6 3 6C3 5.4 3.4 5 4 5Z" fill="#FF3141"/>
</svg>