<?xml version="1.0" encoding="UTF-8"?>
<svg width="16" height="16" viewBox="0 0 16 16" fill="none" xmlns="http://www.w3.org/2000/svg">
  <path d="M8 1C4.13401 1 1 4.13401 1 8C1 11.866 4.13401 15 8 15C11.866 15 15 11.866 15 8C15 4.13401 11.866 1 8 1ZM8 3C10.7614 3 13 5.23858 13 8C13 10.7614 10.7614 13 8 13C5.23858 13 3 10.7614 3 8C3 5.23858 5.23858 3 8 3ZM8 5C6.34315 5 5 6.34315 5 8C5 9.65685 6.34315 11 8 11C8.79565 11 9.55871 10.6839 10.1213 10.1213L9.41421 9.41421C9.05228 9.77614 8.55228 10 8 10C6.89543 10 6 9.10457 6 8C6 6.89543 6.89543 6 8 6C8.55228 6 9.05228 6.22386 9.41421 6.58579L10.1213 5.87868C9.55871 5.31607 8.79565 5 8 5Z" fill="#FF3141"/>
</svg>