<svg id="Layer_1" xmlns="http://www.w3.org/2000/svg" width="184.5" height="56" viewBox="0 0 184.5 56"><style>.st0{fill:#fff}</style><path class="st0" d="M71.6 15.7c-.9-.4-2.2-.6-3.1-.6-2.8 0-4.4 1.9-4.4 4.4s1.5 4.3 4.1 4.3c.7 0 1.2-.1 1.6-.2v-3.2h-2.6v-1.9h4.9v6.6c-1.3.3-2.6.6-3.9.6-3.9 0-6.7-2-6.7-6.1 0-4.2 2.5-6.5 6.7-6.5 1.4 0 2.5.2 3.6.5l-.2 2.1zm6.6.6c2.7 0 4.7 1.8 4.7 4.8 0 2.6-1.7 4.6-4.7 4.6s-4.7-2.1-4.7-4.6c0-3 2-4.8 4.7-4.8zm0 7.6c1.8 0 2.3-1.6 2.3-3.1 0-1.4-.7-2.7-2.3-2.7-1.5 0-2.2 1.3-2.2 2.7-.1 1.5.4 3.1 2.2 3.1zm5.1-7.4h2.5L88 23l2.2-6.5h2.3l-3.3 9h-2.6l-3.3-9zm17.5 8.5c-.9.5-1.8.7-3.1.7-3 0-4.7-1.7-4.7-4.7 0-2.6 1.4-4.8 4.2-4.8 3.3 0 4.3 2.3 4.3 5.4h-6.2c.1 1.4 1.1 2.3 2.6 2.3 1.1 0 2.1-.4 3-.9v2h-.1zm-1.5-4.9c-.1-1.1-.6-2.1-1.9-2.1-1.3 0-2 .9-2.1 2.1h4zm3.7-3.6h2.1v2c.1-.8 1.1-2.3 2.5-2.3.2 0 .5 0 .7.1v2.4c-.2-.1-.6-.2-1-.2-1.9 0-1.9 2.4-1.9 3.7v3.3H103v-9zm6.5 0h2.2v1.2c.7-1 1.7-1.4 3-1.4 2.1 0 3.1 1.5 3.1 3.5v5.7h-2.3v-4.8c0-1.1 0-2.6-1.5-2.6-1.7 0-2.1 1.8-2.1 3v4.4h-2.3l-.1-9zm10.2 0h2.2v1.3c.7-1.1 1.8-1.5 2.7-1.5 1.3 0 2.1.5 2.7 1.6.5-1.1 1.7-1.6 2.8-1.6 2.2 0 2.8 1.5 2.8 3.5v5.7h-2.3v-5.4c0-.8 0-2-1.3-2-1.6 0-1.7 1.9-1.7 3v4.4h-2.3v-5.4c0-.8 0-2-1.3-2-1.6 0-1.7 1.9-1.7 3v4.4H120v-9h-.3zm22.4 8.5c-.9.5-1.8.7-3.1.7-3 0-4.7-1.7-4.7-4.7 0-2.6 1.4-4.8 4.2-4.8 3.3 0 4.3 2.3 4.3 5.4h-6.2c.1 1.4 1.1 2.3 2.6 2.3 1.1 0 2.1-.4 3-.9v2h-.1zm-1.6-4.9c-.1-1.1-.6-2.1-1.9-2.1-1.3 0-2 .9-2.1 2.1h4zm3.6-3.6h2.2v1.2c.7-1 1.7-1.4 3-1.4 2.1 0 3.1 1.5 3.1 3.5v5.7h-2.3v-4.8c0-1.1 0-2.6-1.5-2.6-1.7 0-2.1 1.8-2.1 3v4.4h-2.3l-.1-9zm11.1 1.7h-1.7v-1.7h1.7v-1.8l2.3-.7v2.5h2.1v1.7h-2.1v4.2c0 .8.2 1.5 1.1 1.5.4 0 .8-.1 1.1-.2l.1 1.9c-.5.1-1 .2-1.7.2-1.8 0-2.8-1.1-2.8-2.9v-4.7h-.1zm14.1-1.9c2.7 0 4.7 1.8 4.7 4.8 0 2.6-1.7 4.6-4.7 4.6s-4.7-2.1-4.7-4.6c0-3 2.1-4.8 4.7-4.8zm0 7.6c1.8 0 2.3-1.6 2.3-3.1 0-1.4-.7-2.7-2.3-2.7-1.5 0-2.2 1.3-2.2 2.7 0 1.5.4 3.1 2.2 3.1zm7-5.7h-1.7v-1.7h1.7v-1.3c0-1.8 1-3.1 2.9-3.1.6 0 1.3.1 1.7.2l-.2 1.9c-.2-.1-.5-.3-1-.3-.8 0-1 .7-1 1.4v1.1h2v1.7h-2v7.3h-2.3l-.1-7.2zM68.6 33c-.8-.3-1.6-.5-2.5-.5-.8 0-1.9.4-1.9 1.7 0 2.1 5.3 1.2 5.3 5.3 0 2.7-2.1 3.7-4.6 3.7-1.3 0-1.9-.2-3.1-.5l.2-2.2c.8.5 1.8.8 2.8.8.9 0 2.2-.5 2.2-1.6 0-2.3-5.3-1.4-5.3-5.4 0-2.7 2.1-3.7 4.3-3.7 1 0 2 .1 2.9.4l-.3 2zm6.7.8c2.7 0 4.7 1.8 4.7 4.8 0 2.6-1.7 4.6-4.7 4.6s-4.7-2.1-4.7-4.6c0-3 2-4.8 4.7-4.8zm0 7.6c1.8 0 2.3-1.6 2.3-3.1 0-1.4-.7-2.7-2.3-2.7-1.5 0-2.3 1.3-2.3 2.7 0 1.5.5 3.1 2.3 3.1zM89.7 43h-2.2v-1.2c-.7.9-1.7 1.4-3 1.4-2.1 0-3.1-1.5-3.1-3.5V34h2.3v4.8c0 1.1 0 2.6 1.5 2.6 1.7 0 2.1-1.8 2.1-3V34h2.3l.1 9zm2.7-7.3h-1.7V34h1.7v-1.8l2.3-.7V34h2.1v1.7h-2.1v4.2c0 .8.2 1.5 1.1 1.5.4 0 .8-.1 1.1-.2L97 43c-.5.1-1 .2-1.7.2-1.8 0-2.8-1.1-2.8-2.9l-.1-4.6zm5.6-5.8h2.3v5.3c.6-.9 1.6-1.4 2.8-1.4 2.1 0 3.1 1.5 3.1 3.5V43H104v-4.8c0-1.1 0-2.6-1.5-2.6-1.7 0-2.1 1.8-2.1 3V43H98V29.9zm18.4.9h2.8L124 43h-2.7l-1-2.8h-4.9l-1.1 2.8h-2.5l4.6-12.2zm1.4 2.4l-1.8 5h3.6l-1.8-5zm15.4 9.8H131v-1.2c-.7.9-1.7 1.4-3 1.4-2.1 0-3.1-1.5-3.1-3.5V34h2.3v4.8c0 1.1 0 2.6 1.5 2.6 1.7 0 2.1-1.8 2.1-3V34h2.3l.1 9zm7.3-7.1c-.7-.2-1.2-.4-2.1-.4-.6 0-1.4.2-1.4 1 0 1.4 4.1.5 4.1 3.8 0 2.1-1.9 2.9-3.8 2.9-.9 0-1.8-.2-2.7-.4l.1-1.9c.7.4 1.5.6 2.3.6.6 0 1.5-.2 1.5-1.1 0-1.8-4.1-.6-4.1-3.8 0-1.9 1.7-2.8 3.5-2.8 1.1 0 1.8.2 2.5.3l.1 1.8zm2.8-.2h-1.7V34h1.7v-1.8l2.3-.7V34h2.1v1.7h-2.1v4.2c0 .8.2 1.5 1.1 1.5.4 0 .8-.1 1.1-.2l.1 1.9c-.5.1-1 .2-1.7.2-1.8 0-2.8-1.1-2.8-2.9v-4.7h-.1zm5.6-1.7h2.1v2c.1-.8 1.1-2.3 2.5-2.3.2 0 .5 0 .7.1v2.4c-.2-.1-.6-.2-1-.2-1.9 0-1.9 2.4-1.9 3.7V43H149v-9h-.1zm6.7.5c.9-.4 2.1-.7 3.1-.7 2.7 0 3.9 1.1 3.9 3.8v3.5c0 .7.1 1.3.1 2h-2.1c-.1-.5-.1-1.1-.1-1.3-.5 1-1.7 1.6-2.8 1.6-1.6 0-3.1-1-3.1-2.7 0-1.3.6-2.1 1.5-2.6.9-.4 2-.5 3-.5h1.3c0-1.5-.6-1.9-2-1.9-1 0-2 .4-2.8 1v-2.2zm2.8 7c.7 0 1.3-.3 1.6-.8.4-.5.5-1.2.5-1.8h-1c-1 0-2.6.2-2.6 1.6 0 .7.6 1 1.5 1zm6.2-11.6h2.3V43h-2.3V29.9zm4.4.2h2.3v2.2H169v-2.2zm0 3.9h2.3v9H169v-9zm4.8.5c.9-.4 2.1-.7 3.1-.7 2.7 0 3.9 1.1 3.9 3.8v3.5c0 .7.1 1.3.1 2h-2.1c-.1-.5-.1-1.1-.1-1.3-.5 1-1.7 1.6-2.8 1.6-1.6 0-3.1-1-3.1-2.7 0-1.3.6-2.1 1.5-2.6.9-.4 2-.5 3-.5h1.3c0-1.5-.6-1.9-2-1.9-1 0-2 .4-2.8 1v-2.2zm2.7 7c.7 0 1.3-.3 1.6-.8.4-.5.5-1.2.5-1.8h-1c-1 0-2.6.2-2.6 1.6.1.7.7 1 1.5 1zM26.2 14.8c-7.3.3-12.9 6.4-12.7 13.6.3 7.3 6.4 12.9 13.6 12.7 7.3-.3 12.9-6.4 12.7-13.6-.2-7.3-6.3-12.9-13.6-12.7zm0-.4c7.5-.3 13.8 5.6 14 13.1.3 7.5-5.6 13.8-13 14-7.5.3-13.8-5.6-14-13.1-.3-7.4 5.5-13.7 13-14z"/><path class="st0" d="M37.7 27.3c-.1-.1-.1-.2 0-.3.3-.1.6-.3.9-.5-.1-.2-.4-.3-.5-.5-.2-.2-.5-.2-.6-.4.1-.4.5-.5.8-.8-.1-.1-.2-.2-.3-.2-.2-.1-.5-.1-.8-.4.2-.2.5-.3.7-.7-.2-.2-.5-.2-.8-.3-.2 0-.5.2-.6 0 .2-.3.5-.5.7-1-.4-.1-.9 0-1.2.2-.2.1-.4.3-.6 0 .2-.3.6-.6.9-.8.2-.1.4-.3.2-.6-.8.1-1.5.6-2.1 1-.1 0-.2.2-.3.1 0-.1.1-.3.2-.4.4-.2.8-.6.9-1 .1-.4.5-.6.4-1.1-.6.3-1.3.6-1.7 1.3-.1.2-.3.3-.5.4-.1-.2 0-.3.1-.4.2-.4.3-.8.7-1.1 0-.2.2-.5.3-.7 0-.1.1-.3-.3-.4-.6.4-1 1-1.4 1.6-.1.1-.2.3-.3.2-.1-.2-.1-.5 0-.7.1-.3.3-.5.3-.7 0-.4.1-.8 0-1.3-.6.3-.7 1-1 1.5-.1-.5-.1-1-.1-1.5-.1-.3-.1-.6-.4-.8-.3.3-.3.8-.5 1.4-.1-.1-.2-.3-.3-.2-.1 1.8.1 3.6.2 5.5-.3.7-.4 1.5-.5 2.2 0 .7-.4 1.2-1 1.8 0 .1-.1.1-.1.2-.3-.1-.7.1-.8-.2 0 0 0-.1-.1-.1-.1-.6-.3-1-.7-1.5-.7-.6-1.5-.9-2.3-1.1-.2 0-.4-.1-.5.1.3.1.6.4.9.8-.2 0-.4-.1-.7-.1-.1 0-.2-.1-.3.1.3.3.6.4.9.6.2.1.2.4.3.6 0 .3-.1.5-.2.7l-.1.1c-.2.2-.4 0-.6-.1-.1-.1-.2-.1-.3 0h-.3s-.1 0-.1-.1c-.1-.5-.5-.8-.8-1.2 0-.6-.2-1.1-.5-1.5-.2-.8-.5-1.8-.1-2.5l.3-2.1c0-.2.1-.4 0-.6V19c-.1-.2 0-.4-.1-.6-.3 0-.3.4-.5.4-.1-.2 0-.4-.1-.6 0-.3 0-.8-.1-1.1h-.1c-.3.3-.5.7-.4 1.2s0 1 0 1.5c-.1.2.2.5-.1.5-.1-.1-.1-.3-.2-.4-.1-.4-.2-.8-.4-1.2-.2-.2-.2-.6-.6-.7-.1.4-.1.7 0 1.1 0 .3.1.5.2.8.1.2.2.4-.2.5-.2-.5-.6-.9-.9-1.3-.2-.1-.3-.3-.4-.2 0 .3 0 .6.2.9.3.4.4 1 .6 1.6-.6-.5-1.3-.9-2.1-1.3 0 .7.8 1.1.9 1.8-.6-.3-1.1-.8-1.9-.8 0 .5.4.9.7 1.3-.3 0-.7-.2-1.1-.1-.1 0-.3 0-.3.1.2.3.5.5.7 1-.4.2-.9 0-1.3.2.1.3.4.5.5.9-.3.1-.6.2-.9.4.2.3.4.4.6.7.1.1.2.2.1.3-.3.2-.5.4-.7.8.2.3.6.4.7.7-.2.3-.5.4-.7.8v.1c-.1.2.3.2.4.3.1.1.4.1.5.2-.1.2-.4.4-.3.7.1.1.3.2.5.2.3.1.7-.2.8.2-.1.2-.2.5-.2.8.1.2.3.1.5.2.2 0 .4-.1.6.1.1.1-.1.2-.1.4s-.2.3-.1.5c.3.1.7 0 1.1-.1.2 0 .2.2.2.3v.2c.2.1.4 0 .7 0 .2.1.2.3.4.5.1.1.2 0 .4 0 .4-.3.5.2.8.4.2 0 .3-.2.4-.1.2 0 .3.3.4.4.2.2.3-.2.5-.3.3-.1.4.2.6.3.2.2.3-.1.5-.2s.4.1.6.1c.1-.1.2-.3.3-.5.1-.2 0-.5.1-.8 0-.1.1-.3.3-.4l.1.4H25c0-.1 0-.1-.1-.2v-.4c.1-.4.3-.7.3-1.1.1-.2.1-.3.1-.5 0-.4.2-.8.1-1.2.1-.3.5-.1.7-.2s.3-.1.5-.3c.2-.2.4-.5.4-.8 0-.2 0-.4.2-.5.2 0 .4.2.5.4 0 .1.1.2.1.3 0 .2.1.4.1.5v.6c-.1.6-.1 1.2.1 1.8 0 .3.2.4.2.7.2.2.1.5.1.7 0 .1-.1.2-.1.4-.2.6-.3 1-.6 1.4-.1.2 0 .2 0 .4-.1.4-.3.8-.6 1.2-.1.1-.2.5-.5.4-.6-.4-.8-1.1-1-1.7.1-.2.2 0 .2-.1-.1-.1-.2-.3-.3-.4-.2-.3-.3-.7-.2-1.1-.1-.1-.2.1-.2 0-.1-.1-.1-.3-.1-.4h-.2l.2.9c.1.3-.1.6-.2 1-.4.5-.9.8-1.3 1.2-.3.4-.8.1-1.3.2-.4.4-1.1 0-1.5.3-.1.1-.1.1-.1.2v.3c.2.4.7.3 1.1.3.2.1.4.3.6.1.2-.3.4 0 .6 0s.3-.2.7-.1c-.2.3-.4.6-.6 1-.1.3.4.3.3.6.1.3.5.1.5.5.1.2.3.1.5.1s.2.3.4.4h.4c.2 0 .3.2.4.3l.4-.1c.3 0 .3.3.5.4.3.1.4-.3.6-.3l.5.2c.2-.1.2-.3.3-.4h.4c.2.1.2-.2.3-.3h.4c.1-.1.1-.2.2-.4s.3-.2.4-.2c.1-.2.3-.3.5-.4 0-.3-.2-.5-.3-.7-.1-.2-.2-.4-.2-.7.2 0 .3.1.4.2.2.1.4 0 .5-.2.2-.1.2.1.4.2.1.1.3 0 .5-.1.2-.3.7 0 .9-.3.1-.1.1-.2.1-.3h-.1.1c-.2-.4-.7-.3-1.1-.3-.4-.4-1 0-1.4-.3-.5-.5-1.1-1.1-1.5-1.7-.3-.5.1-1 .1-1.5 0-.1.1-.2.4 0v.1c.1.5.1 1.1.6 1.4.2 0 .3-.2.5-.2.2.1.2.2.4.3.2 0 .3-.2.4-.3.2-.1.4.2.6.2.1-.1.2-.2.3-.4.2 0 .4.2.5.2.2-.1.2-.4.3-.5.2 0 .3 0 .5.1.3.1.2-.3.4-.4.2-.3.6 0 .9-.1.1-.1.2-.1.2-.3v-.1c.1-.4.6-.2.9-.3.2-.3-.1-.6.3-.8.3 0 .6 0 1-.1.2-.1 0-.2 0-.4s-.4-.4-.1-.6c.3 0 .6 0 1.1-.2 0-.2-.1-.3-.2-.5-.1-.1-.3-.3-.3-.4.2-.2.4-.2.6-.3.1-.1.4-.1.4-.3.1-.6-.1-.7-.3-.9zm-15-5.8c.1.2.1.3.1.5 0 .4 0 .8-.2 1.1-.1-.4-.2-.7-.3-1.1 0-.2.1-.5.4-.5zm-.7.7c.2 0 .1.2.2.4 0 .4.2.6.1.8-.3-.3-.4-.6-.5-.8.1-.2.1-.3.2-.4zm-.5 1.6c0-.1 0-.3.1-.3s.1.2.2.2c0-.2-.4-.5-.1-.7l.2.2c.1.3.4.5.3.8-.2.5-.1 1-.1 1.5-.3.2-.5 0-.7-.1 0-.1 0-.2-.1-.4.3 0 .4.1.5 0l-.6-.6c.3-.2.4-.1.6 0 0-.3-.2-.4-.3-.6zm.4 3.7c0-.1.1-.2.2-.3.1 0 .3-.1.4-.2-.4-.2-.5-.4-.5-.6 0-.1.2-.1.3-.1.2 0 .3.2.5.2.1-.1-.1-.2-.1-.3-.1-.1-.2-.3-.1-.4.2 0 .3.2.4.2 0-.1-.1-.3 0-.4.3.2.2.6.3.9.1.4.4.6.7.9 0 .1.1.3.2.4.1.2.1.4 0 .6s-.3.4-.5.4c-.1-.1-.1-.2-.1-.3-.1-.1-.2.1-.4.1-.3-.4-.1-.5 0-.6-.2 0-.4.3-.6.2-.1 0-.2-.1-.1-.3v-.1c0-.1.1-.2.2-.3-.3 0-.6.2-.8 0zm4.5-1.5l.2.1c-.2.3-.2.2-.3.2 0-.3 0-.3.1-.3zm-1.3.1c.1-.1.3-.1.4-.1s.2.1.3 0c.1-.4-.3-.5-.5-.8.2-.1.4 0 .6.2.1.3.2.6 0 .8-.2.4-.5 0-.8-.1zm.2 7.8c.2 0 .2.3.3.5 0 .1 0 .2-.1.3-.2.1-.4.3-.6.4-.4 0-.9.1-1.3 0 .5-.8 1.2-.8 1.7-1.2zM21 35.8c-.1-.1-.1-.2-.1-.2v-.1c.2-.3.7-.1 1-.2l.2.1v.1c0 .1 0 .2-.1.2-.2.2-.6.2-1 .1zm1.4-.1c0-.1 0-.1.1-.2 0-.1.1-.2.2-.2.2 0 .4 0 .5.1v.1c0 .1-.1.2-.2.3-.2 0-.4.1-.6-.1zm1.4-.2h-.1.1c0-.1.1-.1.2-.2.1 0 .4-.1.5 0l-.1.1h.1-.1c-.2.2-.3.5-.6.4-.1-.1-.1-.2 0-.3zm.2 1.1c-.2-.2-.1-.3 0-.4.2-.2.5-.4.8-.7.2-.2.5-.4.7-.5h.1c0 .1-.1.2-.2.3l-.2.2h.1-.1c-.3.3-.7.5-.9.9-.1 0-.1.2-.3.2zm.9.8c-.3-.1-.2-.2-.2-.3.3-.5.7-1 1.1-1.6h-.2c-.1.1-.2.3-.3.4-.2.3-.6.5-.8.8-.1.1-.1.4-.4.3-.1-.3.2-.5.3-.6l.9-.9.3-.3h.1c0 .1-.1.2-.2.3h.2l.2-.2.1.1v.2c-.2.5-.5.9-.8 1.3-.1.1-.2.3-.3.5zm.7.3c-.3 0-.4-.2-.3-.3.1-.2.2-.5.3-.7l.6-1.2c0-.1.1-.1.1-.2l.1.1v.1c-.1.5-.3.9-.4 1.4-.3.2-.4.5-.4.8zm1-.4c-.1.2-.3.3-.5.5-.3-.3-.1-.5-.1-.8.1-.5.3-.9.4-1.3l.1.1c.1.4.1.9.1 1.5zm.4.3c-.5-.3-.2-1.1-.3-1.6 0-.1 0-.3.1-.4l.2.1c.2.6.3 1.2.4 1.9-.3.2-.3.1-.4 0zm.8-.3c-.2-.6-.6-1.1-.7-1.7.1-.1.1-.1.2 0s.1.2.1.3c.2.6.8 1.1.8 1.8-.4 0-.4-.3-.4-.4zm.5-.3c-.4-.5-.7-1-1-1.5 0-.1 0-.1-.1-.2.1 0 .1.1.2.2h.1-.1c.4.4.6.9 1 1.3.2.2.4.4.3.7-.2-.1-.2-.3-.4-.5zm1 .3c-.6-.7-1.2-1.1-1.5-1.8-.1-.1-.3-.3-.2-.4.2.1.4.3.6.5.2.2.3.3.4.5.3.4.6.6.9 1-.1 0-.2.1-.2.2zm2.3-2c.2 0 .5 0 .7.1v.3c-.3.3-.7.2-1.2.2 0-.2.1-.3.1-.4.2-.1.3-.2.4-.2zm-1.4.2c.4-.2.7-.3.8 0 0 .1-.2.2-.2.3-.2.1-.4.1-.5 0-.1 0-.1-.1-.1-.3h-.5c0 .2 0 .3-.1.3-.3.2-.5-.2-.7-.3h-.4c.4.3.7.7 1 1.1-.3.1-.3-.1-.5-.2-.3-.3-.6-.6-.8-.9h-.1.1c-.2-.2-.3-.4-.5-.5h.1c.2.2.4.4.6.5h.4l-.1-.1.9-.1v.2h.6zm-1.1-1.2c.3.2.5.4.7.7l-1.4.1c-.2-.2-.5-.3-.6-.5 0-.3.2-.5.2-.8.2-.1.2.1.4.1.2.1.5.1.7.4zm2.3-8.9c.1-.3.4-.6.6-.4-.1.4-.4.5-.6.4zm.9-1c0 .2-.1.3-.1.4-.2.1-.5.2-.7.2-.1-.1 0-.2.1-.2.1-.2.3-.4.7-.4zm-.1-.5l-.7.7c-.2-.3 0-.4 0-.5.1-.2.4-.4.6-.5.1-.1 0 .1.1.3zm-.3-1l.1.1c.1.2-.1.3-.2.4l-.3.5c-.2-.1-.1-.2-.1-.2 0-.3.3-.5.5-.8zm-.9-1c.2.1.3.1.3.3.1.3-.2.5-.2.8.2-.1.2-.5.4-.4.1.1 0 .2.1.2-.2.3-.2.6-.5.9-.2-.7-.2-1.2-.1-1.8zm-.7 4.9c.1-.3.2-.7.3-1h.1c0 .1-.1.2 0 .3.1-.1.2-.3.4-.2.1.1 0 .2 0 .3-.1.2-.4.2-.2.4.2 0 .4-.3.6-.1-.1.4-.3.4-.3.5.3 0 .6.1.7.4-.4.3-.6.1-.8.2.1.1.2.1.2.2.1.1.2.2.2.4-.4.1-.6-.1-.8-.2.1.2.3.4.2.6-.1.2-.3 0-.4 0-.1-.1-.2-.3-.3-.2 0 .2.3.3.1.4-.2 0-.4-.1-.6-.3 0-.1-.1-.3-.1-.4s.1-.2.1-.3c.2-.3.5-.7.6-1zm-21.8 4l-.2-1.5 1.9.5-1.7 1zm-.2.1l-.9.5c-.1.1-.3.2-.4.2-.4 0-.2-.5-.4-.5-.1 0-.1.1-.1.1 0 .3.1.6.1.9 0 .3.1.6.1.9 0 .1 0 .1.1.1.2 0-.1-.3.3-.6l3.3-2c.9-.5 1.2-.6 1.2-.7s-.1 0-.5-.2c-.5-.1-.5-.3-.6-.3s-.2.2-.3.2-.4-.1-2.7-.7c-.5-.1-1-.3-1.1-.5-.1 0 0-.3-.2-.3-.1 0-.1 0-.1.1 0 .3.1.5.1.7.1.5.1.7.1.8 0 .1 0 .1.1.1.2 0-.1-.6.7-.7.2 0 .4 0 1 .2l.2 1.7zm.7 4.3c-.8.4-1 1.3-.4 2.5.5 1 1.4 1.2 2.3.7l2-1.1c.6-.3 1-.2 1.2 0l.2.2c.1 0 .1-.1 0-.2-.1-.2-.2-.4-.4-.7-.1-.3-.2-.5-.3-.7l-.1-.1c-.1 0 0 .1 0 .3.1.3-.1.7-.7 1l-2.1 1.1c-.8.4-1.5.3-1.9-.5-.4-.7-.2-1.4.5-1.8l2.8-1.5c.4-.2.5.4.7.3.1 0 .1-.1 0-.2l-.4-.8-.4-.8c0 .1 0 0-.1.1-.2.1.3.5-.1.7L9 35.2zm3.2 7.3c0 .1 0 .1 0 0 .1.2.2-.1.4.1.1.1.3.7.7 1 .9.8 1.9.5 2.4-.1 1.2-1.4-1.2-2.8-.3-3.8.3-.4.8-.4 1.2-.1.6.5.5 1.3.1 2.2 0 .1-.1.2 0 .2h.1c.1-.1.4-.5 1-1.4 0-.1.1-.1 0-.1-.1-.1-.2.2-.4 0s-.2-.6-.7-1c-.6-.5-1.6-.5-2.1.1-1.2 1.4 1.3 2.7.3 3.8-.3.4-.9.5-1.4.1-.7-.6-.4-1.6.1-2.4.1-.1.1-.2.1-.2h-.1l-1.4 1.6zm9.8.3c.7.2 1.1 1.1 1.1 1.7 0 .2 0 .3.1.3h.1c0-.1 0-.3.1-.4l.2-1.2V43h-.4l-3-1c-.1 0-.2-.1-.2-.1s0-.1-.1-.1-.1.1-.1.1l-.7 1.1c-.1.1-.2.3-.2.4v.1l.2-.2c.5-.5 1.3-.9 2-.7l-1.4 4.1c-.2.5-.8 0-.8.2 0 .1 0 .1.1.2.3.1.5.2.9.3s.6.2.9.3c.1 0 .2.1.2 0 .1-.2-.7-.2-.5-.7l1.5-4.2zm5.4.8h.4c.7-.1 1.1.2 1.2 1.1.1.9-.3 1.2-1.1 1.3h-.3l-.2-2.4zm-.5 4.4c0 .5-.6.3-.6.5 0 .1.1.1.2.1.3 0 .4-.1.9-.1.4 0 .6 0 .9-.1.1 0 .2 0 .1-.1 0-.2-.6.1-.6-.4l-.2-1.8h.1c.6 0 .7.1 1.3 1l.7 1.2c.6-.1 1.1-.1 1.2-.1s.1 0 .1-.1c0-.2-.5.1-.9-.5l-.5-.8c-.3-.7-.6-.8-1.3-.8 1-.2 1.7-.7 1.6-1.5-.1-.6-.7-1.3-2.1-1.2-.3 0-.6.1-1 .1s-.6 0-.9.1c-.1 0-.2 0-.2.1 0 .2.6-.1.6.4l.6 4zm8.4-3.6L34 45l-.2-2 1.5 1.4zm.2.1l.8.7c.1.1.3.2.3.3.2.4-.4.4-.3.6 0 .1.1.1.1 0 .3-.1.5-.3.8-.4.3-.1.5-.2.8-.4.1 0 .1-.1.1-.1-.1-.1-.3.2-.7-.1l-2.9-2.5c-.8-.7-.9-.9-1-.9s0 .1 0 .5c0 .5-.1.5-.1.6s.3.1.3.2 0 .4.2 2.8c0 .5 0 1-.1 1.2-.1.3-.4.3-.3.4 0 .1.1.1.1 0 .2-.1.4-.2.7-.3.4-.2.6-.3.7-.3.1 0 .1 0 .1-.1-.1-.2-.5.3-.9-.4-.1-.2-.1-.4-.2-1l1.5-.8zm4.9-2c.4.3-.2.6-.1.8.1.1.1 0 .2 0 .2-.2.3-.3.6-.7 1.1-1.2 1.5-1.6 1.9-2.1l-1-1.4c-.1-.1-.1-.1-.1-.2h-.1v.2c.4.7.6 1.8-.1 2.6-.3.3-.5.3-.8 0l-2.8-2.6c-.4-.3.2-.6.1-.8-.1-.1-.1 0-.2 0-.2.2-.3.3-.6.7l-.6.6c-.1.1-.1.1 0 .2s.4-.5.7-.1l2.9 2.8zm4.3-5.9c.5.2 0 .7.2.7.1 0 .1 0 .2-.1l.4-.8.4-.8c0-.1.1-.2 0-.2-.2-.1-.2.6-.7.4l-3.6-1.7c-.5-.2 0-.7-.2-.7-.1 0-.1 0-.2.1l-.4.8-.4.8c0 .1-.1.2 0 .2.2.1.2-.6.7-.4l3.6 1.7zm.4-6.9l-.2 1.5-1.8-.9 2-.6zm.2 0l1-.3c.1 0 .4-.1.4-.1.4 0 .1.5.3.6.1 0 .1 0 .1-.1 0-.3.1-.6.1-.9s.1-.6.1-.9c0-.1 0-.1-.1-.1-.2 0 0 .4-.5.5L43 29.5c-1 .3-1.3.3-1.3.4s.1.1.4.3c.4.3.4.4.5.4s.3-.1.3-.1c.1 0 .3.2 2.5 1.3.5.3.8.5 1 .8.2.2 0 .5.2.5.1 0 .1 0 .1-.1 0-.3 0-.5.1-.7.1-.5.1-.7.1-.8 0-.1 0-.1-.1-.1-.2 0-.1.6-.8.5-.2 0-.4-.1-1-.4l.3-1.8zm-30.8-11c.1.1.1 0 .1 0 .1-.1-.2-.2 0-.4.1-.1.7-.3 1.1-.7.8-.9.6-1.9.1-2.4-1.3-1.2-2.9 1.1-3.9.2-.3-.3-.4-.8 0-1.2.6-.6 1.4-.4 2.2 0 .1 0 .2.1.2.1v-.1c-.1-.1-.5-.4-1.3-1-.1-.1-.1-.1-.1 0-.1.1.1.2 0 .4-.2.2-.6.2-1.1.7-.6.6-.6 1.6 0 2.1 1.4 1.3 2.8-1.2 3.9-.2.4.4.5.9 0 1.5-.7.7-1.6.4-2.4-.2-.1-.1-.2-.1-.2-.1v.1l1.4 1.2zm3.8-9.4c-1.2.5-2.1 2-1.4 3.5s2.4 1.9 3.6 1.3c1.2-.5 2.1-2 1.4-3.5-.8-1.5-2.5-1.9-3.6-1.3zm2.6 1.7c.7 1.6.4 2.6-.5 3s-1.9 0-2.6-1.6-.4-2.6.5-3c.9-.4 1.9.1 2.6 1.6zm3.7.3c0 .8.7 1.5 2.1 1.5 1.2 0 1.8-.6 1.8-1.7V8.8c0-.6.3-1 .5-1 .2-.1.3 0 .3-.1s0-.1-.2-.1h-1.6c-.1 0-.2 0-.2.1s.1.1.3.1c.3.1.6.4.6 1v2.3c0 .9-.4 1.4-1.3 1.4-.8 0-1.4-.4-1.4-1.2l-.1-3.2c0-.5.6-.3.6-.5 0-.1 0-.1-.2-.1H24c-.1 0-.2 0-.2.1 0 .2.6-.1.6.4l.2 3.3zm10-2c.7.3 1.1 1.2 1.1 1.8 0 .2 0 .3.1.3h.1c0-.1.1-.3.1-.4l.2-1.2v-.2h-.4l-3-1.2c-.1-.1-.2-.1-.2-.2 0 0 0-.1-.1-.1s-.1.1-.1.1l-.7 1.1c-.1.1-.2.3-.2.4v.1s.1-.1.3-.2c.4-.5 1.2-.9 1.9-.6l-1.6 4.1c-.2.5-.8 0-.9.1 0 .1 0 .1.1.2.3.1.5.2.9.4s.6.3.9.4c.1 0 .2.1.2 0 .1-.2-.7-.2-.5-.7l1.8-4.2zm5.5 6.7l-1.4 1.5c-.3.4-.6-.2-.8-.1-.1.1 0 .1 0 .2.2.2.3.3.7.6l.6.6c.1.1.1.1.2 0s-.5-.4-.1-.8l2.8-2.9c.4-.4.6.2.8.1.1-.1 0-.1 0-.2-.2-.2-.3-.3-.7-.6l-.6-.6c-.1-.1-.1-.1-.2 0s.5.4.1.8l-1.2 1.3-1.6-1.5 1.2-1.3c.4-.4.6.2.8.1.1-.1 0-.1 0-.2-.2-.2-.3-.3-.7-.6l-.6-.6c-.1-.1-.1-.1-.2 0s.5.4.1.8l-2.8 2.9c-.3.4-.6-.2-.8-.1-.1.1 0 .1 0 .2.2.2.3.3.7.6l.6.6c.1.1.1.1.2 0s-.5-.4-.1-.8l1.4-1.5 1.6 1.5z"/><path class="st0" d="M26 5.7c-10.5.4-19.1 8-21.1 17.9l-2.3-.4C4.9 11.9 14.8 3.4 26.8 3.4c11.8 0 21.7 8.3 24.1 19.4l-2.3.5C46.4 12.9 37 5.3 26 5.7zm23.1 23.7c0-.7.1-1.4 0-2.2 0-1.2-.2-2.4-.4-3.5l2.3-.5c.3 1.6.5 3.2.5 4.8v1.5l-2.4-.1zm-.3 2.4c.1-.6.2-1.3.2-1.9l2.3.2c-.1.7-.1 1.5-.3 2.2l-2.2-.5zm-43.9.8c2.2 10.5 11.6 18.2 22.7 17.8 10.6-.4 19.3-8.2 21.1-18.2l2.3.4C48.9 44 38.8 52.7 26.8 52.7 14.9 52.7 4.9 44.3 2.6 33l2.3-.4zm-.3-2.4c.1.7.2 1.3.3 2l-2.3.4c-.1-.7-.2-1.5-.3-2.2l2.3-.2zm.2-6.1c-.3 1.6-.4 3.2-.3 4.8 0 .3 0 .6.1.9l-2.4.2c0-.6-.1-1.3-.1-2 0-1.5.1-3 .4-4.4l2.3.5z"/></svg>