<svg xmlns="http://www.w3.org/2000/svg" xmlns:xlink="http://www.w3.org/1999/xlink" width="555.642" height="401.63" viewBox="0 0 555.642 401.63">
  <defs>
    <linearGradient id="linear-gradient" x1="-31.752" y1="6.535" x2="-31.634" y2="7.855" gradientUnits="objectBoundingBox">
      <stop offset="0" stop-color="#677d7c"/>
      <stop offset="1" stop-color="#57f"/>
    </linearGradient>
    <linearGradient id="linear-gradient-2" x1="-6.991" y1="28.18" x2="-7.14" y2="31.425" xlink:href="#linear-gradient"/>
    <clipPath id="clip-path">
      <path id="path22" d="M2408.827-2305.643A29.037,29.037,0,0,1,2441.675-2281a29.036,29.036,0,0,1-24.638,32.85,29.037,29.037,0,0,1-32.85-24.641A29.038,29.038,0,0,1,2408.827-2305.643Zm-31.922,43.779a38.842,38.842,0,0,0,5.521,9.317l-3.283,6.884,6.63,4.973,6.628,4.971,5.692-5.079a38.7,38.7,0,0,0,10.487,2.694l2.546,7.185,8.2-1.17,8.2-1.173.433-7.608a38.862,38.862,0,0,0,9.314-5.521l6.886,3.283,4.971-6.63,4.973-6.628-5.079-5.693a38.783,38.783,0,0,0,2.694-10.487l7.185-2.546-1.173-8.2-1.171-8.2-7.61-.432a38.733,38.733,0,0,0-5.521-9.314l3.283-6.886-6.628-4.971-6.63-4.973-5.69,5.079a38.765,38.765,0,0,0-10.49-2.693l-2.545-7.185-8.2,1.173-8.2,1.171-.432,7.61a38.75,38.75,0,0,0-9.316,5.521l-6.884-3.283-4.973,6.628-4.971,6.631,5.079,5.689a38.687,38.687,0,0,0-2.693,10.49l-7.185,2.543,1.17,8.2,1.173,8.2Z" transform="translate(-2366.954 2322.875)"/>
    </clipPath>
    <linearGradient id="linear-gradient-3" x1="-4.537" y1="4.453" x2="-4.537" y2="4.453" gradientUnits="objectBoundingBox">
      <stop offset="0" stop-color="#677d7c"/>
      <stop offset="1" stop-color="#ffd255"/>
    </linearGradient>
    <clipPath id="clip-path-2">
      <path id="path40" d="M2854.691-2383.539a10.874,10.874,0,0,1,12.3,9.23,10.873,10.873,0,0,1-9.227,12.3,10.874,10.874,0,0,1-12.3-9.227A10.873,10.873,0,0,1,2854.691-2383.539Zm-11.954,16.4a14.584,14.584,0,0,0,2.066,3.488l-1.229,2.581,2.482,1.861,2.484,1.862,2.13-1.9a14.531,14.531,0,0,0,3.93,1.008l.952,2.691,3.072-.439,3.074-.437.16-2.851a14.489,14.489,0,0,0,3.49-2.068l2.578,1.229,1.861-2.482,1.864-2.482-1.9-2.131a14.43,14.43,0,0,0,1.009-3.927l2.691-.954-.437-3.072-.439-3.072-2.851-.162a14.588,14.588,0,0,0-2.066-3.488l1.229-2.578-2.482-1.864-2.484-1.862-2.132,1.9a14.586,14.586,0,0,0-3.927-1.009l-.952-2.691-3.072.44-3.074.439-.162,2.848a14.524,14.524,0,0,0-3.488,2.069l-2.578-1.229-1.861,2.482-1.863,2.482,1.9,2.131a14.519,14.519,0,0,0-1.01,3.928l-2.689.954.437,3.072.44,3.072Z" transform="translate(-2839.009 2389.993)"/>
    </clipPath>
    <linearGradient id="linear-gradient-4" x1="-14.533" y1="12.234" x2="-14.532" y2="12.234" gradientUnits="objectBoundingBox">
      <stop offset="0" stop-color="#ff3241"/>
      <stop offset="1" stop-color="#ffd255"/>
    </linearGradient>
    <clipPath id="clip-path-3">
      <path id="path68" d="M2349.991-1897.326s34.319,40.693,12.548,67.043-27.76.512-27.76.512-13.028,2.421,9.54-30.537c10.635-15.533,5.671-37.017,5.671-37.017" transform="translate(-2331.039 1897.326)"/>
    </clipPath>
    <linearGradient id="linear-gradient-5" x1="-10.608" y1="4.24" x2="-10.608" y2="4.24" gradientUnits="objectBoundingBox">
      <stop offset="0" stop-color="#40d5e6"/>
      <stop offset="1" stop-color="#57f"/>
    </linearGradient>
    <clipPath id="clip-path-4">
      <path id="path86" d="M2658.23-2005.586v-39.424a14.044,14.044,0,0,0-.79-4.661c9.493-9.594,21.51-18.965,36.636-27.771,0,0,18.067,26.673-2.7,60.971-10.158,2.6-21.278,5.559-33.146,10.884" transform="translate(-2657.44 2077.441)"/>
    </clipPath>
    <linearGradient id="linear-gradient-6" x1="0.764" y1="0.098" x2="0.018" y2="1" gradientUnits="objectBoundingBox">
      <stop offset="0" stop-color="#ff3241"/>
      <stop offset="1" stop-color="#8f686c" stop-opacity="0.969"/>
    </linearGradient>
    <clipPath id="clip-path-5">
      <path id="path104" d="M2698.86-1756.285a17.568,17.568,0,0,0-16.783-12.377H2661.92v-21.465c11.869-5.326,22.988-8.287,33.146-10.884,14.612-3.737,27.235-6.713,37.233-14.863,0,0-4.719,33.788-33.44,59.59" transform="translate(-2661.92 1815.875)"/>
    </clipPath>
    <linearGradient id="linear-gradient-7" y1="0.5" x2="1" y2="0.5" gradientUnits="objectBoundingBox">
      <stop offset="0" stop-color="#677d7c"/>
      <stop offset="1" stop-color="#ff3241" stop-opacity="0.259"/>
    </linearGradient>
    <clipPath id="clip-path-6">
      <path id="path122" d="M1182.067-1407.282H1180.5v-47.335c.511.416,1.036.834,1.569,1.253v46.082m0-88.308a9.465,9.465,0,0,0-1.569-.926v-75.325h1.569v51.991c-.476.515-.725.837-.786.914v10.95c.024-.028.286-.362.786-.928v13.324" transform="translate(-1180.499 1571.841)"/>
    </clipPath>
    <linearGradient id="linear-gradient-8" x1="-132.663" y1="1.684" x2="-132.648" y2="1.684" gradientUnits="objectBoundingBox">
      <stop offset="0" stop-color="#602f80"/>
      <stop offset="1" stop-color="#5770ff"/>
    </linearGradient>
    <clipPath id="clip-path-7">
      <path id="path166" d="M1184.941-1412.744v-10.95c.06-.077.309-.4.786-.914,1.908-2.068,7.468-7.258,19.146-12.266a77.271,77.271,0,0,1,30.622-6,95.811,95.811,0,0,1,13.867,1.032v7.545a84.248,84.248,0,0,0-12.5-.954c-30.222,0-47.379,17.338-51.131,21.583-.5.566-.762.9-.786.928m298.075-6.2v-9.19c16.772-10.856,33.235-19.524,49.57-24.21a96.218,96.218,0,0,1,26.619-3.876,88.6,88.6,0,0,1,38.679,8.959,109.651,109.651,0,0,1,19.056,11.738v9.829a111.892,111.892,0,0,0-24.42-15.105,80.653,80.653,0,0,0-33.029-7.126c-25.179,0-50.172,11.711-76.476,28.981" transform="translate(-1184.941 1456.217)"/>
    </clipPath>
    <linearGradient id="linear-gradient-9" x1="-0.484" y1="5.905" x2="-0.483" y2="5.905" gradientUnits="objectBoundingBox">
      <stop offset="0" stop-color="#ff3241"/>
      <stop offset="1" stop-color="#ff3241" stop-opacity="0.196"/>
    </linearGradient>
    <clipPath id="clip-path-8">
      <path id="path192" d="M823.852-1175.651h-5.359v14.518h5.359Z" transform="translate(-818.493 1175.651)"/>
    </clipPath>
    <linearGradient id="linear-gradient-10" x1="-26.924" y1="14.275" x2="-26.919" y2="14.275" gradientUnits="objectBoundingBox">
      <stop offset="0" stop-color="#ff9f55"/>
      <stop offset="1" stop-color="#ffd255"/>
    </linearGradient>
    <clipPath id="clip-path-9">
      <path id="path208" d="M899.339-1209.1H893.98v20.415h5.359Z" transform="translate(-893.98 1209.103)"/>
    </clipPath>
    <linearGradient id="linear-gradient-11" x1="-29.405" y1="10.44" x2="-29.401" y2="10.44" xlink:href="#linear-gradient-10"/>
    <clipPath id="clip-path-10">
      <path id="path224" d="M974.827-1226.569h-5.359v23.494h5.359Z" transform="translate(-969.468 1226.569)"/>
    </clipPath>
    <linearGradient id="linear-gradient-12" x1="-31.888" y1="9.203" x2="-31.884" y2="9.203" xlink:href="#linear-gradient-10"/>
    <clipPath id="clip-path-11">
      <path id="path240" d="M1050.316-1233.836h-5.359v24.774h5.359Z" transform="translate(-1044.957 1233.836)"/>
    </clipPath>
    <linearGradient id="linear-gradient-13" x1="-34.373" y1="8.779" x2="-34.369" y2="8.779" xlink:href="#linear-gradient-10"/>
    <clipPath id="clip-path-12">
      <path id="path256" d="M1732.238-1713.12H1564.475a14.089,14.089,0,0,1-14.088-14.088v-74.19a85.047,85.047,0,0,0,11.594-3.953v81.276h111.226a17.486,17.486,0,0,0,11.467,4.261h59.557a14.079,14.079,0,0,1-11.994,6.694m-181.85-95.7v-149.453a14.094,14.094,0,0,1,11.594-13.869v158.89a75.388,75.388,0,0,1-11.594,4.432m195.938-88.564h-11.594v-74.758a14.1,14.1,0,0,1,10.8,9.208,14.04,14.04,0,0,1,.79,4.661v60.889" transform="translate(-1550.388 1972.137)"/>
    </clipPath>
    <clipPath id="clip-path-13">
      <path id="path278" d="M2266.814-1834.778h-50.936v-6.442h50.936Z" transform="translate(-2215.878 1841.221)"/>
    </clipPath>
    <clipPath id="clip-path-14">
      <path id="path296" d="M2262.635-1681.569h-46.757v-6.442h46.757Z" transform="translate(-2215.878 1688.011)"/>
    </clipPath>
    <linearGradient id="linear-gradient-14" x1="-8.354" y1="46.187" x2="-8.353" y2="46.187" gradientUnits="objectBoundingBox">
      <stop offset="0" stop-color="#677d7c" stop-opacity="0.725"/>
      <stop offset="1" stop-color="#57f"/>
    </linearGradient>
    <clipPath id="clip-path-15">
      <path id="path314" d="M2256.334-1758.167h-40.456v-6.442h40.456Z" transform="translate(-2215.878 1764.609)"/>
    </clipPath>
    <linearGradient id="linear-gradient-15" x1="-9.655" y1="48.285" x2="-9.654" y2="48.285" gradientUnits="objectBoundingBox">
      <stop offset="0" stop-color="#ff3242" stop-opacity="0.702"/>
      <stop offset="1" stop-color="#687d7c" stop-opacity="0.694"/>
    </linearGradient>
    <clipPath id="clip-path-16">
      <path id="path332" d="M1718.36-2059.924a38.048,38.048,0,0,0-38,38,38.1,38.1,0,0,0,22.3,34.618,37.673,37.673,0,0,0,15.7,3.387,37.674,37.674,0,0,0,15.7-3.387,38.1,38.1,0,0,0,22.3-34.618A38.048,38.048,0,0,0,1718.36-2059.924Zm0,78.124a39.787,39.787,0,0,1-16.581-3.575,40.233,40.233,0,0,1-23.541-36.547,40.167,40.167,0,0,1,40.122-40.12,40.167,40.167,0,0,1,40.122,40.12,40.233,40.233,0,0,1-23.541,36.547A39.786,39.786,0,0,1,1718.36-1981.8Z" transform="translate(-1678.238 2062.042)"/>
    </clipPath>
    <linearGradient id="linear-gradient-16" x1="-3.687" y1="4.53" x2="-3.686" y2="4.53" gradientUnits="objectBoundingBox">
      <stop offset="0" stop-color="#7db3e0"/>
      <stop offset="1" stop-color="#fff"/>
    </linearGradient>
    <clipPath id="clip-path-17">
      <path id="path360" d="M1609.8-1253.9c-33.012,0-61.923-13.55-91.728-28.319-1.6-.8-3.208-1.591-4.818-2.4-4.254-2.115-8.522-4.24-12.826-6.339v-8.306c5.429,2.62,10.8,5.293,16.149,7.953,3.988,1.979,7.956,3.951,11.925,5.878,26.443,12.87,52.6,23.853,81.678,23.853a115.545,115.545,0,0,0,24.173-2.562v7.965a118.622,118.622,0,0,1-24.554,2.27m-363.813-13c-22.1,0-34.351-6.588-39.908-10.99.06-3.892.27-6.844.27-6.844a7.272,7.272,0,0,0,.4-1.384c5.676,4.98,17.958,11.665,42.941,11.665h.682a60.333,60.333,0,0,0,16.4-2.35,75.378,75.378,0,0,0,11.594-4.433c7.8-3.695,15.312-8.572,23.35-13.784,19.677-12.765,41.967-27.224,78-30.909q1.9-.194,3.777-.348v7.5q-1.5.127-3.015.282c-34.242,3.5-55.728,17.449-74.688,29.743-9.077,5.89-17.89,11.4-27.426,15.416a85.086,85.086,0,0,1-11.594,3.953,76.106,76.106,0,0,1-16.363,2.4q-2.274.085-4.423.085" transform="translate(-1206.075 1326.287)"/>
    </clipPath>
    <radialGradient id="radial-gradient" cx="1.466" cy="0.446" r="3.58" gradientTransform="translate(-0.412 5.568) scale(0.169 1)" gradientUnits="objectBoundingBox">
      <stop offset="0" stop-color="#677d7c" stop-opacity="0.016"/>
      <stop offset="0.16" stop-color="#677d7c" stop-opacity="0.106"/>
      <stop offset="0.581" stop-color="#677d7c" stop-opacity="0.565"/>
      <stop offset="1" stop-color="#677d7c"/>
    </radialGradient>
    <clipPath id="clip-path-18">
      <path id="path386" d="M2661.92-1175.417v-9.4q5.828-4.407,11.587-8.663,4.069,1.685,8.066,3.462c-6.452,4.656-12.99,9.547-19.654,14.6" transform="translate(-2661.92 1193.477)"/>
    </clipPath>
    <linearGradient id="linear-gradient-17" x1="-23.874" y1="11.649" x2="-23.873" y2="11.649" gradientUnits="objectBoundingBox">
      <stop offset="0" stop-color="#fff8f2"/>
      <stop offset="1" stop-color="#fffcf2"/>
    </linearGradient>
    <clipPath id="clip-path-19">
      <path id="path408" d="M2661.92-1514.242v-33.8h20.156a17.568,17.568,0,0,1,16.783,12.377,106.067,106.067,0,0,1-36.94,21.423" transform="translate(-2661.92 1548.041)"/>
    </clipPath>
    <linearGradient id="linear-gradient-18" x1="-12.703" y1="8.073" x2="-12.702" y2="8.073" gradientUnits="objectBoundingBox">
      <stop offset="0" stop-color="#f3eff6"/>
      <stop offset="1" stop-color="#f2f4ff"/>
    </linearGradient>
    <clipPath id="clip-path-20">
      <path id="path426" d="M2775.784-1280.222q-4-1.829-8.066-3.582c6.407-4.606,12.76-9,19.068-13.084v9.19q-5.465,3.589-11,7.476" transform="translate(-2767.717 1296.888)"/>
    </clipPath>
    <linearGradient id="linear-gradient-19" x1="-25.586" y1="13.717" x2="-25.585" y2="13.717" xlink:href="#linear-gradient-17"/>
    <clipPath id="clip-path-21">
      <path id="path444" d="M2318.154-1370.476H2258.6a17.488,17.488,0,0,1-11.467-4.261h61.524V-1493.93q5.884,1.794,11.594,3.88v112.18a14.03,14.03,0,0,1-2.094,7.394m2.094-127.542q-5.711-2.009-11.594-3.751v-46.273h11.594v50.024" transform="translate(-2247.13 1548.041)"/>
    </clipPath>
    <linearGradient id="linear-gradient-20" x1="-5.418" y1="1.537" x2="-5.417" y2="1.537" gradientUnits="objectBoundingBox">
      <stop offset="0" stop-color="#f1fcfe"/>
      <stop offset="1" stop-color="#f2f5ff"/>
    </linearGradient>
    <clipPath id="clip-path-22">
      <path id="path466" d="M2329.477-1293.857c-5.947-2.9-11.956-5.749-18.064-8.456q-4.005-1.777-8.066-3.462-5.718-2.366-11.587-4.51-5.715-2.076-11.594-3.88a178.969,178.969,0,0,0-52.778-8.16q-7.252,0-14.842.637v-7.5q7.679-.631,15.009-.62a184.425,184.425,0,0,1,52.611,7.8q5.891,1.731,11.594,3.751c6.355,2.238,12.558,4.71,18.65,7.333q4.065,1.749,8.066,3.582,5.549,2.531,11,5.175v8.306" transform="translate(-2212.545 1329.807)"/>
    </clipPath>
    <radialGradient id="radial-gradient-2" cx="2.349" cy="2.086" r="5.702" gradientTransform="translate(-2.31 8.867) scale(0.307 1)" gradientUnits="objectBoundingBox">
      <stop offset="0" stop-color="#f7fbfe"/>
      <stop offset="0.16" stop-color="#f7fbfe"/>
      <stop offset="0.581" stop-color="#f1f9ff"/>
      <stop offset="1" stop-color="#f4f6ff"/>
    </radialGradient>
    <clipPath id="clip-path-23">
      <path id="path532" d="M938.988-908.186H950.8l-3.615-7.5H935.373Z" transform="translate(-935.373 915.684)"/>
    </clipPath>
    <linearGradient id="linear-gradient-21" x1="-10.688" y1="21.529" x2="-10.686" y2="21.529" xlink:href="#linear-gradient-10"/>
    <clipPath id="clip-path-24">
      <path id="path548" d="M907.632-908.186h2.815l-3.615-7.5h-2.815Z" transform="translate(-904.016 915.684)"/>
    </clipPath>
    <linearGradient id="linear-gradient-22" x1="-24.782" y1="21.529" x2="-24.778" y2="21.529" xlink:href="#linear-gradient-10"/>
    <clipPath id="clip-path-25">
      <path id="path564" d="M2093.294-2260.868h23.386v-4.235h-23.386Z" transform="translate(-2093.294 2265.103)"/>
    </clipPath>
    <linearGradient id="linear-gradient-23" x1="-15.778" y1="94.274" x2="-15.777" y2="94.274" xlink:href="#linear-gradient-10"/>
    <clipPath id="clip-path-26">
      <path id="path582" d="M2093.294-2275.52h23.386v-.8h-23.386Z" transform="translate(-2093.294 2276.317)"/>
    </clipPath>
    <linearGradient id="linear-gradient-24" x1="-15.778" y1="503.08" x2="-15.777" y2="503.08" xlink:href="#linear-gradient-10"/>
    <clipPath id="clip-path-27">
      <path id="path600" d="M1886.647-1915.184h-10.454v-43.967h10.454Z" transform="translate(-1876.193 1959.151)" fill="url(#linear-gradient)"/>
    </clipPath>
    <clipPath id="clip-path-28">
      <path id="path616" d="M1781.129-1853.644V-1864.1H1825.1v10.457Z" transform="translate(-1781.129 1864.1)" fill="url(#linear-gradient-2)"/>
    </clipPath>
    <clipPath id="clip-path-29">
      <path id="path658" d="M1182.067-1101.38c-.532-.418-1.057-.837-1.569-1.253v-41.9a9.473,9.473,0,0,1,1.569.926v3.218a8.378,8.378,0,0,1-.786-1.337V-1132a4.21,4.21,0,0,0,.786,1.093v29.531" transform="translate(-1180.499 1144.531)"/>
    </clipPath>
    <linearGradient id="linear-gradient-27" x1="-132.663" y1="4.675" x2="-132.648" y2="4.675" xlink:href="#linear-gradient-18"/>
    <clipPath id="clip-path-30">
      <path id="path674" d="M1188.666-1115.069a22.581,22.581,0,0,1-2.94-2.729,4.218,4.218,0,0,1-.786-1.093v-9.721a8.4,8.4,0,0,0,.786,1.337,21.689,21.689,0,0,0,3.614,3.977,7.271,7.271,0,0,1-.4,1.384s-.211,2.952-.27,6.844" transform="translate(-1184.941 1128.612)"/>
    </clipPath>
    <radialGradient id="radial-gradient-3" cx="66.697" cy="5.795" r="11.438" gradientTransform="translate(98.647 17.789) scale(3.078 1)" xlink:href="#radial-gradient-2"/>
  </defs>
  <g id="for_Researchers" data-name="for Researchers" transform="translate(-669.339 -276.674)">
    <g id="g18" transform="translate(991.334 288.505)">
      <g id="g20" transform="translate(0 0)" clip-path="url(#clip-path)">
        <g id="g26" transform="translate(0.002 0.001)">
          <path id="path34" d="M2408.835-2305.639A29.037,29.037,0,0,1,2441.683-2281a29.034,29.034,0,0,1-24.638,32.848,29.034,29.034,0,0,1-32.851-24.638A29.04,29.04,0,0,1,2408.835-2305.639Zm-31.923,43.779a38.814,38.814,0,0,0,5.523,9.315l-3.283,6.885,6.628,4.973,6.629,4.973,5.692-5.079a38.805,38.805,0,0,0,10.487,2.693l2.546,7.185,8.2-1.172,8.207-1.171.431-7.61a38.863,38.863,0,0,0,9.315-5.52l6.885,3.283,4.973-6.629,4.973-6.629-5.079-5.692a38.8,38.8,0,0,0,2.693-10.49l7.185-2.543-1.172-8.2-1.171-8.2-7.61-.434a38.778,38.778,0,0,0-5.523-9.316l3.283-6.885-6.625-4.97-6.632-4.973-5.689,5.079a38.663,38.663,0,0,0-10.49-2.693l-2.546-7.185-8.2,1.171-8.2,1.171-.434,7.61a38.766,38.766,0,0,0-9.315,5.52l-6.885-3.283-4.973,6.629-4.97,6.629,5.08,5.691a38.65,38.65,0,0,0-2.693,10.487l-7.185,2.546,1.172,8.2,1.171,8.2,7.607.431" transform="translate(-2366.962 2322.871)" fill="url(#linear-gradient-3)"/>
        </g>
      </g>
    </g>
    <g id="g36" transform="translate(1077.448 276.674)">
      <g id="g38" clip-path="url(#clip-path-2)">
        <g id="g44" transform="translate(-0.001 0.004)">
          <path id="path52" d="M2854.683-2383.521a10.873,10.873,0,0,1,12.3,9.228,10.871,10.871,0,0,1-9.228,12.3,10.868,10.868,0,0,1-12.3-9.228A10.873,10.873,0,0,1,2854.683-2383.521Zm-11.955,16.4a14.568,14.568,0,0,0,2.064,3.489l-1.228,2.576,2.481,1.864,2.484,1.86,2.129-1.9a14.506,14.506,0,0,0,3.932,1.008l.951,2.691,3.072-.439,3.075-.437.157-2.852a14.442,14.442,0,0,0,3.492-2.067l2.579,1.23,1.861-2.484,1.864-2.481-1.9-2.133a14.428,14.428,0,0,0,1.007-3.928l2.691-.952-.437-3.071-.44-3.075-2.851-.161a14.515,14.515,0,0,0-2.064-3.489l1.228-2.579-2.481-1.861-2.484-1.864-2.133,1.9a14.566,14.566,0,0,0-3.928-1.01l-.951-2.687-3.072.436-3.074.44-.161,2.848a14.648,14.648,0,0,0-3.488,2.067l-2.579-1.227-1.861,2.481-1.864,2.484,1.9,2.13a14.623,14.623,0,0,0-1.011,3.928l-2.687.955.437,3.072.44,3.071,2.851.164" transform="translate(-2839.001 2389.972)" fill="url(#linear-gradient-4)"/>
        </g>
      </g>
    </g>
    <path id="path54" d="M2066.233,1259.346h-1.57V1094.783h1.57v164.563" transform="translate(-1133.907 -656.799)" fill="#f3f3f3"/>
    <path id="path56" d="M2086.029,984.046H2069.12v-4.289h16.908v4.289" transform="translate(-1137.06 -570.779)" fill="#fff"/>
    <path id="path58" d="M2082.652,1029.026h-13.529v-4.289h13.529v4.289" transform="translate(-1137.168 -607.295)" fill="#fff"/>
    <g id="g60" transform="translate(932.928 620.323)">
      <path id="path62" d="M2091.344-577.327H2073.6v-5.721h17.743v5.721" transform="translate(-2073.601 583.048)" fill="#fff"/>
    </g>
    <g id="g64" transform="translate(982.075 370.852)">
      <g id="g66" clip-path="url(#clip-path-3)">
        <g id="g72" transform="translate(-0.001 0.003)">
          <path id="path80" d="M2349.984-1897.311s34.32,40.69,12.549,67.04-27.76.514-27.76.514-13.029,2.419,9.54-30.538c10.634-15.534,5.672-37.016,5.672-37.016" transform="translate(-2331.031 1897.311)" fill="url(#linear-gradient-5)"/>
        </g>
      </g>
    </g>
    <g id="g82" transform="translate(1043.761 331.77)">
      <g id="g84" clip-path="url(#clip-path-4)">
        <g id="g90" transform="translate(-0.001 0.002)">
          <path id="path98" d="M2658.224-2005.575V-2045a14.035,14.035,0,0,0-.789-4.662,174.72,174.72,0,0,1,36.634-27.77s18.069,26.673-2.7,60.97c-10.157,2.6-21.275,5.56-33.145,10.883" transform="translate(-2657.435 2077.429)" fill="url(#linear-gradient-6)"/>
        </g>
      </g>
    </g>
    <g id="g100" transform="translate(1046.009 385.902)">
      <g id="g102" clip-path="url(#clip-path-5)">
        <g id="g108" transform="translate(0.001 0)">
          <path id="path116" d="M2698.863-1756.282a17.568,17.568,0,0,0-16.784-12.377h-20.155v-21.466c11.868-5.324,22.988-8.287,33.145-10.884,14.613-3.736,27.236-6.712,37.234-14.863,0,0-4.721,33.789-33.439,59.59" transform="translate(-2661.924 1815.872)" fill="url(#linear-gradient-7)"/>
        </g>
      </g>
    </g>
    <g id="g118" transform="translate(759.445 437.993)">
      <g id="g120" transform="translate(0 0)" clip-path="url(#clip-path-6)">
        <path id="path132" d="M1182.067-1407.282H1180.5v-47.335c.511.416,1.036.834,1.569,1.253v46.082m0-88.308a9.465,9.465,0,0,0-1.569-.926v-75.325h1.569v51.991c-.476.515-.725.837-.786.914v10.95c.024-.028.286-.362.786-.928v13.324" transform="translate(-1180.499 1571.841)" fill="url(#linear-gradient-8)"/>
      </g>
    </g>
    <path id="path134" d="M1814.767,1259.346H1813.2V1094.783h1.568v164.563" transform="translate(-929.556 -656.799)" fill="#f3f3f3"/>
    <g id="g136" transform="translate(1002.178 437.984)">
      <path id="path138" d="M2447.449-1407.324h-1.569v-164.563h1.569v164.563" transform="translate(-2445.88 1571.888)" fill="#f3f3f3"/>
    </g>
    <path id="path140" d="M1211.693,984.05H1184.98v-4.289h26.713v4.289" transform="translate(-418.745 -570.783)" fill="#e0e0e0"/>
    <path id="path142" d="M1222.866,1029.026h-37.892v-4.289h37.892v4.289" transform="translate(-418.602 -607.295)" fill="#e0e0e0"/>
    <path id="path144" d="M1842.184,984.046h-31.361v-4.289h31.361v4.289" transform="translate(-926.859 -570.779)" fill="#fff"/>
    <path id="path146" d="M1830.883,1029.026H1810.83v-4.289h20.053v4.289" transform="translate(-927.165 -607.295)" fill="#fff"/>
    <g id="g148" transform="translate(1004.536 408.983)">
      <path id="path150" d="M2474.156-1682.595h-19.434v-4.288h19.434v4.288" transform="translate(-2454.722 1686.883)" fill="#fff"/>
    </g>
    <g id="g152" transform="translate(1004.666 417.447)">
      <path id="path154" d="M2477.366-1637.612h-22.654v-4.288h22.654v4.288" transform="translate(-2454.713 1641.9)" fill="#fff"/>
    </g>
    <path id="path156" d="M1835.4,2089.348h-17.743v-5.721H1835.4v5.721" transform="translate(-932.771 -1463.303)" fill="#fff"/>
    <g id="g158" transform="translate(1004.461 620.327)">
      <path id="path160" d="M2472.434-577.3h-17.744v-5.721h17.744v5.721" transform="translate(-2454.689 583.023)" fill="#fff"/>
    </g>
    <g id="g162" transform="translate(792.981 453.696)">
      <g id="g164" transform="translate(0 0)" clip-path="url(#clip-path-7)">
        <g id="g170" transform="translate(0 0)">
          <path id="path178" d="M1184.942-1412.742v-10.95c.06-.078.309-.4.786-.914,1.909-2.068,7.467-7.258,19.146-12.265a77.271,77.271,0,0,1,30.622-6,95.939,95.939,0,0,1,13.867,1.032v7.544a84.246,84.246,0,0,0-12.5-.953c-30.222,0-47.379,17.338-51.131,21.582-.5.566-.762.9-.786.928m298.077-6.2v-9.19c16.769-10.855,33.235-19.524,49.568-24.21a96.211,96.211,0,0,1,26.622-3.876,88.6,88.6,0,0,1,38.677,8.958,109.69,109.69,0,0,1,19.057,11.738v9.829a111.869,111.869,0,0,0-24.42-15.106,80.663,80.663,0,0,0-33.027-7.127c-25.179,0-50.174,11.712-76.477,28.983" transform="translate(-1184.942 1456.215)" fill="url(#linear-gradient-9)"/>
        </g>
      </g>
    </g>
    <path id="path180" d="M823.873,1442.07h-5.359v23.141h5.359V1442.07" transform="translate(-122.879 -945.356)" fill="#e0e0e0"/>
    <path id="path182" d="M899.362,1388.73H894v32.543h5.359V1388.73" transform="translate(-185.06 -901.706)" fill="#e0e0e0"/>
    <path id="path184" d="M974.852,1360.92h-5.359v37.446h5.359V1360.92" transform="translate(-247.243 -878.955)" fill="#e0e0e0"/>
    <path id="path186" d="M1050.338,1349.32h-5.359v39.491h5.359V1349.32" transform="translate(-309.423 -869.466)" fill="#e0e0e0"/>
    <g id="g188" transform="translate(695.631 505.593)">
      <g id="g190" transform="translate(0 0)" clip-path="url(#clip-path-8)">
        <path id="path202" d="M823.852-1175.651h-5.359v14.518h5.359v-14.518" transform="translate(-818.493 1175.651)" fill="url(#linear-gradient-10)"/>
      </g>
    </g>
    <g id="g204" transform="translate(708.938 499.526)">
      <g id="g206" clip-path="url(#clip-path-9)">
        <path id="path218" d="M899.339-1209.1H893.98v20.415h5.359V-1209.1" transform="translate(-893.98 1209.103)" fill="url(#linear-gradient-11)"/>
      </g>
    </g>
    <g id="g220" transform="translate(722.245 496.356)">
      <g id="g222" clip-path="url(#clip-path-10)">
        <path id="path234" d="M974.827-1226.569h-5.359v23.494h5.359v-23.494" transform="translate(-969.468 1226.569)" fill="url(#linear-gradient-12)"/>
      </g>
    </g>
    <g id="g236" transform="translate(735.552 495.037)">
      <g id="g238" transform="translate(0)" clip-path="url(#clip-path-11)">
        <path id="path250" d="M1050.316-1233.836h-5.359v24.774h5.359v-24.774" transform="translate(-1044.957 1233.836)" fill="url(#linear-gradient-13)"/>
      </g>
    </g>
    <g id="g252" transform="translate(840.206 375.458)">
      <g id="g254" transform="translate(0 0)" clip-path="url(#clip-path-12)">
        <g id="g260" transform="translate(0 0)">
          <path id="path268" d="M1732.236-1713.121H1564.474a14.089,14.089,0,0,1-14.088-14.088v-74.19a85.025,85.025,0,0,0,11.594-3.953v81.276h111.227a17.479,17.479,0,0,0,11.466,4.261h59.558a14.085,14.085,0,0,1-12,6.694m-181.849-95.695V-1958.27a14.1,14.1,0,0,1,11.594-13.87v158.89a75.406,75.406,0,0,1-11.594,4.432m195.938-88.564h-11.593v-74.759a14.113,14.113,0,0,1,10.8,9.209,14.044,14.044,0,0,1,.789,4.661v60.889" transform="translate(-1550.387 1972.139)"/>
        </g>
      </g>
    </g>
    <g id="g270" transform="translate(851.868 321.569)">
      <path id="path272" d="M1788.988-2135.307h-163.3c-5.222,0-9.459,4.621-9.459,10.321v291.626h172.758v-301.947" transform="translate(-1616.23 2135.307)" fill="#f5f5f5"/>
    </g>
    <g id="g274" transform="translate(960.878 379.978)">
      <g id="g276" clip-path="url(#clip-path-13)">
        <g id="g282" transform="translate(0.002 0)">
          <path id="path290" d="M2266.822-1834.781h-50.935v-6.442h50.935v6.442" transform="translate(-2215.888 1841.222)"/>
        </g>
      </g>
    </g>
    <g id="g292" transform="translate(960.712 408.819)">
      <g id="g294" transform="translate(0 0)" clip-path="url(#clip-path-14)">
        <g id="g300" transform="translate(-0.001 -0.001)">
          <path id="path308" d="M2262.63-1681.574h-46.758v-6.443h46.758v6.443" transform="translate(-2215.872 1688.017)" fill="url(#linear-gradient-14)"/>
        </g>
      </g>
    </g>
    <g id="g310" transform="translate(960.467 394.4)">
      <g id="g312" clip-path="url(#clip-path-15)">
        <g id="g318" transform="translate(-0.002 -0.001)">
          <path id="path326" d="M2256.325-1758.172h-40.457v-6.442h40.457v6.442" transform="translate(-2215.868 1764.615)" fill="url(#linear-gradient-15)"/>
        </g>
      </g>
    </g>
    <g id="g328" transform="translate(860.344 339.387)">
      <g id="g330" transform="translate(0 0)" clip-path="url(#clip-path-16)">
        <path id="path342" d="M1718.36-2059.924a38.048,38.048,0,0,0-38,38,38.1,38.1,0,0,0,22.3,34.618,37.673,37.673,0,0,0,15.7,3.387,37.674,37.674,0,0,0,15.7-3.387,38.1,38.1,0,0,0,22.3-34.618A38.048,38.048,0,0,0,1718.36-2059.924Zm0,78.124a39.787,39.787,0,0,1-16.581-3.575,40.233,40.233,0,0,1-23.541-36.547,40.167,40.167,0,0,1,40.122-40.12,40.167,40.167,0,0,1,40.122,40.12,40.233,40.233,0,0,1-23.541,36.547,39.786,39.786,0,0,1-16.581,3.575" transform="translate(-1678.238 2062.042)" fill="url(#linear-gradient-16)"/>
      </g>
    </g>
    <path id="path344" d="M1736.809,1157.158H1678.28v-5.744h58.529v5.744" transform="translate(-818.543 -710.093)" fill="#e0e0e0"/>
    <path id="path346" d="M1736.809,1244.827H1678.28v-5.746h58.529v5.746" transform="translate(-818.543 -781.259)" fill="#e0e0e0"/>
    <path id="path348" d="M1736.809,1332.508H1678.28v-5.744h58.529v5.744" transform="translate(-818.543 -852.438)" fill="#e0e0e0"/>
    <path id="path350" d="M2087.854,1157.158h-9.771v-5.744h9.771v5.744" transform="translate(-1144.564 -710.093)" fill="#4e7ed6"/>
    <path id="path352" d="M2087.854,1244.827h-9.771v-5.746h9.771v5.746" transform="translate(-1144.564 -781.259)" fill="#4e7ed6"/>
    <path id="path354" d="M2087.854,1332.508h-9.771v-5.744h9.771v5.744" transform="translate(-1144.564 -852.438)" fill="#4e7ed6"/>
    <g id="g356" transform="translate(796.706 479.672)">
      <g id="g358" transform="translate(0 0)" clip-path="url(#clip-path-17)">
        <g id="g364" transform="translate(0 0)">
          <path id="path376" d="M1609.8-1253.906c-33.011,0-61.921-13.55-91.728-28.319q-2.4-1.195-4.817-2.395c-4.254-2.115-8.524-4.24-12.826-6.339v-8.306c5.43,2.621,10.8,5.293,16.148,7.953,3.987,1.979,7.954,3.951,11.925,5.878,26.445,12.87,52.6,23.853,81.679,23.853a115.584,115.584,0,0,0,24.173-2.562v7.965a118.611,118.611,0,0,1-24.554,2.271m-363.813-13c-22.1,0-34.352-6.588-39.909-10.99.06-3.892.27-6.844.27-6.844a7.26,7.26,0,0,0,.4-1.384c5.676,4.98,17.958,11.665,42.941,11.665h.681a60.331,60.331,0,0,0,16.4-2.35,75.367,75.367,0,0,0,11.594-4.433c7.8-3.695,15.312-8.572,23.35-13.784,19.677-12.765,41.967-27.224,78-30.909q1.9-.193,3.777-.348v7.5q-1.5.127-3.015.282c-34.242,3.5-55.728,17.449-74.688,29.743-9.077,5.89-17.891,11.4-27.426,15.416a85.109,85.109,0,0,1-11.594,3.953,76.12,76.12,0,0,1-16.363,2.4q-2.274.084-4.423.085" transform="translate(-1206.076 1326.289)" fill="url(#radial-gradient)"/>
        </g>
      </g>
    </g>
    <g id="g378" transform="translate(1042.178 508.202)">
      <path id="path380" d="M2672.362-1099.521h-22.25a14.032,14.032,0,0,0,2.1-7.394v-89.613c6.662-5.051,13.2-9.942,19.654-14.6,6.108,2.708,12.117,5.559,18.064,8.457v85.584a17.564,17.564,0,0,1-17.564,17.564m-20.155-106.4V-1219.1q5.869,2.133,11.586,4.51-5.762,4.248-11.586,8.664" transform="translate(-2650.111 1219.098)" fill="#fff"/>
    </g>
    <g id="g382" transform="translate(1043.446 502.377)">
      <g id="g384" transform="translate(0 0)" clip-path="url(#clip-path-18)">
        <g id="g390" transform="translate(-0.002 0)">
          <path id="path398" d="M2661.911-1175.416v-9.4q5.831-4.407,11.589-8.663,4.068,1.685,8.065,3.462c-6.451,4.656-12.99,9.547-19.654,14.6" transform="translate(-2661.911 1193.476)" fill="url(#linear-gradient-17)"/>
        </g>
      </g>
    </g>
    <g id="g400" transform="translate(1044.313 449.977)">
      <path id="path402" d="M2699.721-1424.133q-5.459-2.634-11-5.175,5.542-3.885,11-7.476v12.652m-19.069-8.757c-6.093-2.623-12.295-5.1-18.649-7.333v-16.224a106.145,106.145,0,0,0,36.94-21.424,17.627,17.627,0,0,1,.778,5.186v26.71c-6.307,4.083-12.662,8.478-19.069,13.084" transform="translate(-2662.003 1477.872)" fill="#fff"/>
    </g>
    <g id="g404" transform="translate(1044.26 435.972)">
      <g id="g406" clip-path="url(#clip-path-19)">
        <g id="g412" transform="translate(0 0.001)">
          <path id="path420" d="M2661.92-1514.237v-33.8h20.154a17.566,17.566,0,0,1,16.784,12.377,106.1,106.1,0,0,1-36.938,21.424" transform="translate(-2661.92 1548.038)" fill="url(#linear-gradient-18)"/>
        </g>
      </g>
    </g>
    <g id="g422" transform="translate(1063.282 482.818)">
      <g id="g424" clip-path="url(#clip-path-20)">
        <g id="g430" transform="translate(-0.002 0.001)">
          <path id="path438" d="M2775.774-1280.217q-4-1.83-8.068-3.582c6.407-4.606,12.761-9,19.068-13.084v9.19q-5.463,3.589-11,7.476" transform="translate(-2767.706 1296.883)" fill="url(#linear-gradient-19)"/>
        </g>
      </g>
    </g>
    <g id="g440" transform="translate(967.721 450.216)">
      <g id="g442" clip-path="url(#clip-path-21)">
        <g id="g448" transform="translate(0.001 0)">
          <path id="path456" d="M2318.158-1370.476H2258.6a17.477,17.477,0,0,1-11.466-4.261h61.524v-119.193q5.881,1.794,11.593,3.881v112.18a14.035,14.035,0,0,1-2.093,7.394m2.093-127.542q-5.713-2.009-11.593-3.751v-46.273h11.593v50.024" transform="translate(-2247.134 1548.042)" fill="url(#linear-gradient-20)"/>
        </g>
      </g>
    </g>
    <g id="g458" transform="translate(960.959 450.204)">
      <path id="path460" d="M2280.263-1374.8h-61.526a17.521,17.521,0,0,1-6.1-13.3v-113.419q7.6-.649,14.844-.637a178.97,178.97,0,0,1,52.78,8.161v119.2m0-127.037a184.436,184.436,0,0,0-52.615-7.8q-7.324,0-15.01.62v-21.528a17.565,17.565,0,0,1,17.565-17.564h50.059v46.275" transform="translate(-2212.638 1548.111)" fill="#fff"/>
    </g>
    <g id="g462" transform="translate(963.319 477.349)">
      <g id="g464" clip-path="url(#clip-path-22)">
        <g id="g470" transform="translate(-0.001 0.001)">
          <path id="path482" d="M2329.47-1293.852c-5.946-2.9-11.955-5.749-18.063-8.457q-4.007-1.777-8.068-3.462-5.714-2.365-11.585-4.51-5.715-2.077-11.594-3.88a178.987,178.987,0,0,0-52.779-8.16q-7.25,0-14.842.637v-7.5q7.679-.632,15.009-.621a184.431,184.431,0,0,1,52.611,7.8q5.892,1.731,11.594,3.751c6.354,2.237,12.555,4.71,18.648,7.333q4.063,1.748,8.068,3.582,5.547,2.531,11,5.175v8.306" transform="translate(-2212.539 1329.803)" fill="url(#radial-gradient-2)"/>
        </g>
      </g>
    </g>
    <g id="g484" transform="translate(1030.327 450.839)">
      <path id="path486" d="M2611.517-1437.639a14.361,14.361,0,0,1-15.769-4.214,14.238,14.238,0,0,1-2.225-3.573c-.128-.292-.244-.592-.354-.9a14.279,14.279,0,0,1-.186-9.109,14.322,14.322,0,0,1,8.867-9.236,14.352,14.352,0,0,1,4.4-.836,14.353,14.353,0,0,1,13.942,9.516A14.352,14.352,0,0,1,2611.517-1437.639Zm13.189-19.96a19.149,19.149,0,0,0-18.6-12.693,19.127,19.127,0,0,0-5.874,1.115,19.124,19.124,0,0,0-11.827,12.318,19.077,19.077,0,0,0,.25,12.152c.146.4.3.8.473,1.192a18.983,18.983,0,0,0,2.966,4.766,19.152,19.152,0,0,0,21.032,5.62,19.141,19.141,0,0,0,11.577-24.47" transform="translate(-2587.535 1470.299)" fill="#e0e0e0"/>
    </g>
    <g id="g488" transform="translate(1030.337 450.066)">
      <path id="path490" d="M2597.09-1455.4l-4.573-1.428a19.112,19.112,0,0,1,11.827-12.319,19.112,19.112,0,0,1,5.873-1.114l.143,4.789a14.326,14.326,0,0,0-4.4.836,14.325,14.325,0,0,0-8.868,9.236" transform="translate(-2592.517 1470.262)" fill="#ff3241"/>
    </g>
    <g id="g492" transform="translate(1028.903 464.38)">
      <path id="path494" d="M2593.548-1382.629l-4.391,1.911c-.17-.388-.329-.788-.473-1.192a19.064,19.064,0,0,1-.25-12.152l4.573,1.428a14.3,14.3,0,0,0,.188,9.11c.111.3.227.6.354.9" transform="translate(-2587.56 1394.062)" fill="#677d7c"/>
    </g>
    <g id="g496" transform="translate(1030.613 476.377)">
      <path id="path498" d="M2599.509-1322.5a19.06,19.06,0,0,1-2.968-4.766l4.4-1.911a14.255,14.255,0,0,0,2.222,3.572l-3.649,3.1" transform="translate(-2596.541 1329.173)" fill="#46bbed"/>
    </g>
    <g id="g500" transform="translate(1038.295 583.529)">
      <path id="path502" d="M2646.989-768.158h-10.318v33.831h10.318v-33.831" transform="translate(-2636.671 768.158)" fill="#677d7c"/>
    </g>
    <g id="g504" transform="translate(1021.971 593.131)">
      <path id="path506" d="M2559.949-714.323h-10.318v24.342h10.318v-24.342" transform="translate(-2549.631 714.323)" fill="#677d7c"/>
    </g>
    <g id="g508" transform="translate(1054.131 567.649)">
      <path id="path510" d="M2731.43-857.111h-10.317V-807.6h10.317v-49.511" transform="translate(-2721.113 857.111)" fill="#ff3242"/>
    </g>
    <g id="g512" transform="translate(977.37 508.405)">
      <path id="path514" d="M2297.023-1106.315l-.9-.689,16.815-21.877,20.75,1.126,15.646-24.921,16.859-1.739,10.131-20.034,1.008.51-10.408,20.587L2350-1151.606l-15.709,25.015-20.819-1.128-16.451,21.4" transform="translate(-2296.126 1174.449)" fill="#46bbed"/>
    </g>
    <g id="g516" transform="translate(975.39 454.931)">
      <path id="path518" d="M2328.782-1436.387h-29.341a3.354,3.354,0,0,1-3.354-3.354,3.354,3.354,0,0,1,3.354-3.354h29.341a3.354,3.354,0,0,1,3.353,3.354,3.353,3.353,0,0,1-3.353,3.354" transform="translate(-2296.087 1443.096)" fill="#ff3241"/>
    </g>
    <g id="g520" transform="translate(975.39 467.429)">
      <path id="path522" d="M2328.782-1370h-29.341a3.354,3.354,0,0,1-3.354-3.354,3.354,3.354,0,0,1,3.354-3.354h29.341a3.353,3.353,0,0,1,3.353,3.354,3.353,3.353,0,0,1-3.353,3.354" transform="translate(-2296.087 1376.709)" fill="#e0e0e0"/>
    </g>
    <g id="g524" transform="translate(975.39 479.928)">
      <path id="path526" d="M2328.782-1303.609h-29.341a3.354,3.354,0,0,1-3.354-3.354,3.354,3.354,0,0,1,3.354-3.354h29.341a3.353,3.353,0,0,1,3.353,3.354,3.353,3.353,0,0,1-3.353,3.354" transform="translate(-2296.087 1310.316)" fill="#e0e0e0"/>
    </g>
    <g id="g528" transform="translate(716.235 554.257)">
      <g id="g530" clip-path="url(#clip-path-23)">
        <path id="path542" d="M938.988-908.186H950.8l-3.615-7.5H935.373l3.615,7.5" transform="translate(-935.373 915.684)" fill="url(#linear-gradient-21)"/>
      </g>
    </g>
    <g id="g544" transform="translate(710.707 554.257)">
      <g id="g546" clip-path="url(#clip-path-24)">
        <path id="path558" d="M907.632-908.186h2.815l-3.615-7.5h-2.815l3.616,7.5" transform="translate(-904.016 915.684)" fill="url(#linear-gradient-22)"/>
      </g>
    </g>
    <g id="g560" transform="translate(936.809 298.689)">
      <g id="g562" clip-path="url(#clip-path-25)">
        <g id="g568" transform="translate(-0.002 0.001)">
          <path id="path576" d="M2093.286-2260.865h23.387v-4.235h-23.387v4.235" transform="translate(-2093.286 2265.1)" fill="url(#linear-gradient-23)"/>
        </g>
      </g>
    </g>
    <g id="g578" transform="translate(936.809 296.713)">
      <g id="g580" clip-path="url(#clip-path-26)">
        <g id="g586" transform="translate(-0.001 0)">
          <path id="path594" d="M2093.287-2275.517h23.387v-.8h-23.387v.8" transform="translate(-2093.287 2276.314)" fill="url(#linear-gradient-24)"/>
        </g>
      </g>
    </g>
    <g id="g596" transform="translate(895.677 358.36)">
      <g id="g598" clip-path="url(#clip-path-27)">
        <path id="path610" d="M1886.647-1915.184h-10.454v-43.967h10.454v43.967" transform="translate(-1876.193 1959.151)" fill="url(#linear-gradient)"/>
      </g>
    </g>
    <g id="g612" transform="translate(878.725 375.74)">
      <g id="g614" clip-path="url(#clip-path-28)">
        <path id="path626" d="M1781.129-1853.644V-1864.1H1825.1v10.457h-43.969" transform="translate(-1781.129 1864.1)" fill="url(#linear-gradient-2)"/>
      </g>
    </g>
    <path id="path628" d="M877.4,963.567a18.684,18.684,0,0,1-23.757,9.4q-.579-.226-1.151-.5a18.7,18.7,0,1,1,24.908-8.905Zm-6.238-30.552a24.948,24.948,0,1,0-21.34,45.1c.507.24,1.02.461,1.534.665a24.949,24.949,0,0,0,19.806-45.769" transform="translate(-136.904 -529.796)" fill="#e0e0e0"/>
    <path id="path630" d="M843.924,1000.9l-5.531,2.9a24.983,24.983,0,0,1,3.933-28.693l4.545,4.282a18.729,18.729,0,0,0-2.948,21.51" transform="translate(-136.902 -566.424)" fill="#ff3241"/>
    <path id="path632" d="M866.986,1130.152l-2.287,5.813c-.514-.2-1.027-.425-1.534-.665a24.845,24.845,0,0,1-11.429-10.969l5.531-2.9a18.613,18.613,0,0,0,8.568,8.224q.571.272,1.151.5" transform="translate(-150.245 -685.508)" fill="#677d7c"/>
    <path id="path634" d="M932.4,1178.376a24.873,24.873,0,0,1-7.126-1.657l2.287-5.812a18.544,18.544,0,0,0,5.343,1.243l-.5,6.226" transform="translate(-210.819 -725.867)" fill="#5d96ff"/>
    <path id="path636" d="M715.926,1210.009H669.34v-.926H715v-19.736h.926v20.662" transform="translate(-0.001 -740.429)" fill="#5d96ff"/>
    <path id="path638" d="M693.861,1252.2H669.339v-5.554h24.522v5.554" transform="translate(0 -787.405)" fill="#e0e0e0"/>
    <path id="path640" d="M1482.865,1763.67h-38.078v2.261h38.078v-2.261" transform="translate(-629.52 -1207.274)" fill="#e2d2ca"/>
    <path id="path642" d="M1473.73,1912.658h3.338v-102.8h-3.338v102.8" transform="translate(-653.656 -1237.797)" fill="#706865"/>
    <path id="path644" d="M1653.45,1760.04h-26.468v3.227h26.468v-3.227" transform="translate(-777.695 -1204.282)" fill="#ccbdb7"/>
    <path id="path646" d="M1683.647,1634.239h-10.024V1603.8h10.024v30.442" transform="translate(-815.946 -1076.197)" fill="#998e89"/>
    <g id="g648" transform="translate(803.083 559.02)">
      <path id="path650" d="M1513.938-884.113H1367.293v-5.845h146.646v5.845" transform="translate(-1367.293 889.958)" fill="#b59074"/>
    </g>
    <path id="path652" d="M1161.976,1573.262s-7.112-4.684-13.208-9.467v-29.532a22.586,22.586,0,0,0,2.94,2.729c-.1,6.854.258,16.622,3.061,18.34,2.753,1.685,13.73,7.373,13.4,8.44s-6.2,9.491-6.2,9.491m-14.776-10.72c-3.716-3.025-6.738-5.927-6.988-7.542-.664-4.273,1.038-32.933,3.935-34.252a4.014,4.014,0,0,1,1.679-.418,3.345,3.345,0,0,1,1.374.313v41.9m5.183-33.779a21.7,21.7,0,0,1-3.614-3.977v-3.218c.43.3.9.646,1.43,1.039a5.892,5.892,0,0,1,2.184,6.155" transform="translate(-382.257 -1007.404)" fill="#fff"/>
    <g id="g654" transform="translate(759.445 512.768)">
      <g id="g656" clip-path="url(#clip-path-29)">
        <path id="path668" d="M1182.067-1101.38c-.532-.418-1.057-.837-1.569-1.253v-41.9a9.473,9.473,0,0,1,1.569.926v3.218a8.378,8.378,0,0,1-.786-1.337V-1132a4.21,4.21,0,0,0,.786,1.093v29.531" transform="translate(-1180.499 1144.531)" fill="url(#linear-gradient-27)"/>
      </g>
    </g>
    <g id="g670" transform="translate(760.228 514.419)">
      <g id="g672" transform="translate(0 0)" clip-path="url(#clip-path-30)">
        <path id="path688" d="M1188.666-1115.069a22.581,22.581,0,0,1-2.94-2.729,4.218,4.218,0,0,1-.786-1.093v-9.721a8.4,8.4,0,0,0,.786,1.337,21.689,21.689,0,0,0,3.614,3.977,7.271,7.271,0,0,1-.4,1.384s-.211,2.952-.27,6.844" transform="translate(-1184.941 1128.612)" fill="url(#radial-gradient-3)"/>
      </g>
    </g>
    <path id="path690" d="M1314.543,2310.649s-.656,4.553-.738,5.234-7.293-.4-7.293-.4l-.584-5.418s7.715-.057,8.615.585" transform="translate(-517.226 -1649.823)" fill="#424773"/>
    <path id="path692" d="M1308.612,2338.361a19.482,19.482,0,0,0,4.494,3.939c2.212,1.194,5.683,1.669,6.99,2.905.945.893,3.436,4.738-5.742,4.66s-13.6.543-14.588-.931,1.423-10.882,1.423-10.882,2.174.782,7.423.308" transform="translate(-511.845 -1672.88)" fill="#292c47"/>
    <path id="path694" d="M1576.667,2310.889s-.656,4.551-.738,5.234-7.293-.4-7.293-.4l-.583-5.419s7.712-.054,8.614.587" transform="translate(-730.202 -1650.019)" fill="#424773"/>
    <path id="path696" d="M1570.729,2338.6a19.508,19.508,0,0,0,4.494,3.937c2.212,1.2,10.344,2.176,11.651,3.415.943.893,2.513,4.487-10.4,4.151-9.176-.237-13.6.543-14.589-.931s1.424-10.882,1.424-10.882,2.047.837,7.422.311" transform="translate(-724.649 -1673.074)" fill="#292c47"/>
    <path id="path698" d="M1192.291,1867.43s26.22,4.435,32.14,5.366,38.034,8.92,42.048,11.355c3.2,1.939-1.676,48.483-2.813,66.24h-12.648l-.919-53.269c-15.176.381-26.006-3.549-37.058-1.871s-20.265,4.064-27.288-5.357c0,0-.26-20.408,6.538-22.465" transform="translate(-418.621 -1285.216)" fill="#292c47"/>
    <path id="path700" d="M1194.038,1976.917l-12.326-.761-1.2-52.55a74.711,74.711,0,0,1-14.061-.893l-9.951-23.13c8.721,1.744,36.664,8.79,40.389,11.051,3.2,1.939-1.714,48.526-2.851,66.282" transform="translate(-395.443 -1311.702)" fill="#292c47"/>
    <path id="path702" d="M1260.462,1307.734s9.612-2.656,13.278,4.807,2,21.607-2.839,22.937-11.81-.2-13.821-4.847-3.615-11.242-3.133-15.515,3.964-6.36,6.516-7.382" transform="translate(-474.748 -835.807)" fill="#eea886"/>
    <path id="path704" d="M1276.173,1428.257s-.106,5.676.522,6.884-13.385.907-13.385.907,2.208-6.814.955-12.619c-1.24-5.747,11.907,4.828,11.907,4.828" transform="translate(-482.537 -929.196)" fill="#eea886"/>
    <path id="path706" d="M1253.125,1322.571s.749,1.521,4.375,1.276,8.409-4.621,9.949-5.011,1.631-1.267,1.631-1.267l.813,1.448,1.579.24s-1.074-4.386,1.262-5.928-1.051-13.98-12.876-10.981c0,0-9.024,1.652-9.145,6.691s.659,10.861,2.411,13.531" transform="translate(-472.171 -831.68)" fill="#3a3f47"/>
    <path id="path708" d="M1278.286,1479.607s-.04-2.31-1.086-2.531-11.013-1.594-12.3-1.088l-.552,3.053s2.478,1.526,13.937.567" transform="translate(-483.373 -973.55)" fill="#e2d2ca"/>
    <path id="path710" d="M1340.918,1373.01c-.27-1.894-2.423-4.071-3.657-1.119s.834,7.246,2.216,7.016,1.805-3.326,1.441-5.9" transform="translate(-542.442 -887.801)" fill="#eea886"/>
    <path id="path712" d="M1580.113,1651.959l-.016,0c.07.031.082.035.016,0" transform="translate(-740.155 -1116.673)" fill="#323657"/>
    <path id="path714" d="M1247.971,1317.552s-11.719-.552-2.046,17.743l2.046-17.743" transform="translate(-465.4 -844.543)" fill="#3a3f47"/>
    <path id="path716" d="M1127.29,2308.585l.872,2.451L1165,2299.623l-1.765-4.966-35.941,13.928" transform="translate(-371.775 -1637.133)" fill="#918783"/>
    <path id="path718" d="M1328.795,2125.781h-4.187v-40.048h4.187v40.048" transform="translate(-532.466 -1465.037)" fill="#918783"/>
    <path id="path720" d="M1291.134,2076.023h-24.693v-2.36h24.693v2.36" transform="translate(-484.927 -1455.095)" fill="#5e5854"/>
    <path id="path722" d="M1371.32,2307.135l-.872,2.452-36.835-11.413,1.619-5.277,36.088,14.239" transform="translate(-539.273 -1635.683)" fill="#918783"/>
    <path id="path724" d="M1345.364,2309.32v2.853l-11.754-14,1.619-5.277,10.135,16.427" transform="translate(-539.672 -1635.68)" fill="#918783"/>
    <path id="path726" d="M1534.87,2376.92a3.443,3.443,0,1,1-3.443-3.443,3.443,3.443,0,0,1,3.443,3.443" transform="translate(-697.677 -1702.059)" fill="#bfb2ac"/>
    <path id="path728" d="M1369.781,2376.92a3.442,3.442,0,1,1-3.441-3.443,3.441,3.441,0,0,1,3.441,3.443" transform="translate(-563.539 -1702.059)" fill="#bfb2ac"/>
    <path id="path730" d="M1114.638,2376.92a3.442,3.442,0,1,1-3.442-3.443,3.443,3.443,0,0,1,3.442,3.443" transform="translate(-361.132 -1702.059)" fill="#bfb2ac"/>
    <path id="path732" d="M1225.946,2031.9H1175.5a4.029,4.029,0,0,1-4.027-4.029v-.884a4.027,4.027,0,0,1,4.027-4.026h50.447a4.026,4.026,0,0,1,4.026,4.026v.884a4.029,4.029,0,0,1-4.026,4.029" transform="translate(-407.377 -1413.333)" fill="#e2d2ca"/>
    <path id="path734" d="M2077.174,1912.658h-3.338v-102.8h3.338v102.8" transform="translate(-1141.309 -1237.797)" fill="#706865"/>
    <path id="path736" d="M1539.116,1401.7h-78.509a4.016,4.016,0,0,1-4.017-4.017v-53.019a4.016,4.016,0,0,1,4.017-4.017h78.509a4.018,4.018,0,0,1,4.019,4.017v53.019a4.018,4.018,0,0,1-4.019,4.017" transform="translate(-638.06 -861.478)" fill="#b8aba5"/>
    <path id="path738" d="M1555.58,1407.547h-79.766V1359.36h79.766v48.187" transform="translate(-653.803 -877.227)" fill="#f5f7ff"/>
    <path id="path740" d="M1878.161,1646.912c0,1.368-1.441,2.479-3.215,2.479s-3.215-1.112-3.215-2.479,1.438-2.482,3.215-2.482,3.215,1.112,3.215,2.482" transform="translate(-976.995 -1110.347)" fill="#918681"/>
    <path id="path742" d="M1696.613,1740.5v-1.086s-1.528-6.757-12.332-6.757-10.586,7.843-10.586,7.843h22.918" transform="translate(-815.713 -1181.834)" fill="#998e89"/>
    <path id="path744" d="M1661.8,1718.795a10.638,10.638,0,0,0,3.208-.7c.86-.52,6.005-3.979,7.213-3.425s9.251,3.016,8.972,4.193-1.025,1.062-1.591.853-6.407-1.434-6.922-1.227c0,0,5.735,2.094,5.759,3.62s-1.2,1.9-1.744,2.477-1.2,2.01-2.675,2.12-8.692-2.4-10.177-2.515-4.233.094-4.419-.148,2.376-5.248,2.376-5.248" transform="translate(-804.14 -1166.983)" fill="#eea886"/>
    <path id="path746" d="M1201.967,1497.593c-7.484-1.314-15.36-3.2-15.36-3.2l-13.937-.567s-12.791,2.816-17.829,5.091c-.478.216-.48,11.411-1.791,14.347l4.177,8.811s2.413,17.454,2.913,25.217c.23,3.563-.65,34.44-.65,34.44s1.252.616,10.764,1.664,33.278-.378,33.429-1.5-4.6-41.834-4.814-43.942c-.322-3.234.936-18.187.936-18.187,1.791,2.409,6.36,13.28,11.122,18.453,2.8,3.044,16.674,4.908,19.287,4.995,5.693.191,16.074,1.323,16.377.771.245-.334.9-9.216.254-9.434-.569-.188-19.849-1.3-24.787-3.921-1.807-.959-7.211-12.737-7.211-12.737s-8.75-18.439-12.88-20.3" transform="translate(-391.931 -983.782)" fill="#dbdff0"/>
    <path id="path748" d="M1126.55,1726.342h-24.876a7.733,7.733,0,0,1-7.733-7.733V1678.2a7.733,7.733,0,0,1,7.733-7.733h24.876a7.733,7.733,0,0,1,7.733,7.733v40.41a7.733,7.733,0,0,1-7.733,7.733" transform="translate(-349.754 -1128.845)" fill="#e2d2ca"/>
    <path id="path750" d="M1183.974,1906.006c-5.947,0-10.771-2-14.34-5.937-8.065-8.9-6.615-24.557-6.55-25.217a2.244,2.244,0,0,1,4.467.44c-.017.179-1.3,14.368,5.418,21.774,2.719,2.994,6.318,4.452,11,4.452a2.245,2.245,0,1,1,0,4.489" transform="translate(-400.889 -1294.198)" fill="#e2d2ca"/>
    <path id="path752" d="M1530.682,1383.675h-22.213a.575.575,0,0,1-.576-.576v-1.394a.575.575,0,0,1,.576-.576h22.213a.577.577,0,0,1,.576.576v1.394a.577.577,0,0,1-.576.576" transform="translate(-681.044 -896.685)" fill="#dfe1e8"/>
    <path id="path754" d="M1530.682,1414.655h-22.213a.574.574,0,0,1-.576-.576v-1.394a.575.575,0,0,1,.576-.576h22.213a.577.577,0,0,1,.576.576v1.394a.575.575,0,0,1-.576.576" transform="translate(-681.044 -921.837)" fill="#dfe1e8"/>
    <path id="path756" d="M1529.321,1476.431H1509.83a1.937,1.937,0,0,1-1.937-1.937v-24.914a1.937,1.937,0,0,1,1.937-1.937h19.491a1.937,1.937,0,0,1,1.937,1.937v24.914a1.937,1.937,0,0,1-1.937,1.937" transform="translate(-681.044 -949.639)" fill="#dfe1e8"/>
    <path id="path758" d="M1705.743,1421.647h-35.476a3.067,3.067,0,0,1-3.067-3.067V1384.2a3.066,3.066,0,0,1,3.067-3.065h35.476a3.066,3.066,0,0,1,3.067,3.065v34.379a3.067,3.067,0,0,1-3.067,3.067" transform="translate(-809.99 -895.212)" fill="#dfe1e8"/>
    <g id="g760" transform="translate(1009.568 503.362)">
      <path id="path762" d="M2483.144-1180.061s1.554-3.356,1.805-3.862,1.74-1.307,3.5-1.751c1.711-.43,4.042-1.3,4.306-1.131a1.512,1.512,0,0,1,.895.931,3.028,3.028,0,0,1,.176,1.537,1.857,1.857,0,0,1,.574,1.7,1.617,1.617,0,0,1,.279,1.779,1.357,1.357,0,0,1,.307,1.464,12.123,12.123,0,0,0-1.8,1.215,25.862,25.862,0,0,1-6.454,2.793s-3.191-.1-3.588-4.675" transform="translate(-2483.144 1186.825)" fill="#8e4f3a"/>
    </g>
    <g id="g764" transform="translate(1007.174 508.824)">
      <path id="path766" d="M2477.324-1150.618s-3.8.663-5.082-.08.208-4.6.208-4.6l2.4-1.453,2.469,6.137" transform="translate(-2471.719 1156.755)" fill="#8e4f3a"/>
    </g>
    <g id="g768" transform="translate(1014.174 508.541)">
      <path id="path770" d="M2509.854-1157.688a9.109,9.109,0,0,1-.337,2.369c-.281.515,3.5,1.314,3.5,1.314s-.908-3.552-3.162-3.683" transform="translate(-2509.501 1157.688)" fill="#5e3527"/>
    </g>
    <g id="g772" transform="translate(1014.307 503.27)">
      <path id="path774" d="M2513.892-1186.586s-4.147,2.012-3.9,2.719a1.18,1.18,0,0,0,.759.823l-1.33,1.6s-.279,1.559,1.5,1.408c0,0-.414,1.429,1.287,1.081,0,0,.149,1.065.966,1.041a15.356,15.356,0,0,0,3.429-1.427s.472-.571-.248-1.488a1.589,1.589,0,0,0-.268-1.784,2.59,2.59,0,0,0-.613-2.127,2.211,2.211,0,0,0-1.137-2.031s-.265.094-.439.181" transform="translate(-2509.401 1186.767)" fill="#7a4432"/>
    </g>
    <g id="g776" transform="translate(1010.998 506.064)">
      <path id="path778" d="M2492.408-1170.8a15.648,15.648,0,0,1,4.87.863c.388.181.729.425.707.853s-.664.938-2.035.978a11.517,11.517,0,0,0-3.125.721s-1.42-.371-.418-3.415" transform="translate(-2492.05 1170.795)" fill="#8e4f3a"/>
    </g>
    <g id="g780" transform="translate(1014.581 503.074)">
      <path id="path782" d="M2516.943-1184.793s-4.732,1.619-5.054,2.012-.931-1.335-.631-1.652a35.89,35.89,0,0,1,4.387-2.388,1.568,1.568,0,0,1,1.3,2.028" transform="translate(-2511.177 1186.83)" fill="#8e4f3a"/>
    </g>
    <g id="g784" transform="translate(1016.474 502.31)">
      <path id="path786" d="M2522.453-1189.876s7.369-1.509,7.519-.611-.565,1.048-6.6,2.811c-5.87,1.714-.916-2.2-.916-2.2" transform="translate(-2520.5 1190.772)" fill="#8e4f3a"/>
    </g>
    <g id="g788" transform="translate(956.454 664.576)">
      <path id="path790" d="M2206.534-331.362s2.347,3.514,5.64,4.27,6.538,1.967,6.563,4.045-9.523,3.318-13.291,1.222c-5.627-3.126-6.2-2.183-6.821-3.746s.748-5.744.706-6.24c-.048-.616,7.2.449,7.2.449" transform="translate(-2198.461 332.003)" fill="#353a3d"/>
    </g>
    <g id="g792" transform="translate(956.94 662.461)">
      <path id="path794" d="M2210.27-342.985a15.108,15.108,0,0,1,.367,1.735c-.066.035-7.423.912-7.2-.449.182-1.1.439-2.306.439-2.306l6.4,1.02" transform="translate(-2203.429 344.005)" fill="#81807e"/>
    </g>
    <path id="path796" d="M2066.193,2332.9s1.674,3.359,4.536,4.5c3.06,1.224,5.512,2.63,5.458,4.656s-7.479,4.078-12.877.19c-3.413-2.456-4.494-2.468-5.042-4.014s.952-5.566.931-6.05c-.026-.6,6.995.715,6.995.715" transform="translate(-1128.11 -1667.912)" fill="#353a3d"/>
    <path id="path798" d="M2071.164,2320.963a16.5,16.5,0,0,1-.082,1.747c-.063.03-7.176.618-6.995-.715a11,11,0,0,1,.689-2.338l6.388,1.307" transform="translate(-1133.271 -1657.726)" fill="#81807e"/>
    <g id="g800" transform="translate(929.139 552.772)">
      <path id="path802" d="M2084.369-958.444s6.609,29.145,8.119,38.022c1.282,7.556,2.307,15.425,1.692,20.88-.762,6.753-10.323,41.752-9.923,43.733s-11.4.776-11.4.776,8.666-39.5,7.214-46.768c-1.078-5.38-10.5-41.132-11.946-39.3s-3.234,33.74-4.3,39.037-4.357,47.146-4.357,47.146-7.341,1.084-9.3-.576c0,0-.895-35.735-.212-45.665.26-3.784-4.432-45.374,1.585-62.118,3.182-8.849,32.832,4.83,32.832,4.83" transform="translate(-2048.454 966.254)" fill="#677d7c"/>
    </g>
    <g id="g804" transform="translate(962.29 483.992)">
      <path id="path806" d="M2272.093-1262.826s-22.891,5.075-27.444,3.956c-2.106-.52-4.879-3.425-7.515-6.842-.869-1.126-1.723-2.308-2.533-3.476l0,0c-3.232-4.667-5.765-9.143-5.765-9.143s-9.56-11.2-1.89-16.194a5.1,5.1,0,0,1,5.339,1.7c2.557,2.739,5.56,8.471,6.232,9.933s10.056,15,10.543,15.305,4.588-.776,7.879-1.048a101.891,101.891,0,0,0,13.4-2.536l1.758,8.353" transform="translate(-2223.964 1294.725)" fill="#dbdff0"/>
    </g>
    <g id="g808" transform="translate(927.42 483.398)">
      <path id="path810" d="M2068.13-1307.77s9.838,2.033,11.006,3.067c1.267,1.1,3.5,11.876,3.636,14.88a115.837,115.837,0,0,1-2.455,20.208c-1.267,4.67-1.032,27.668-.232,34.138,0,0-19.812,5.627-39.288,3.093,0,0,3.265-24.2,2.485-30.594-1-8.2-3.4-27.083-3.4-27.083s1.722-13.155,3.458-14.624,13.684-3.086,13.684-3.086h11.108" transform="translate(-2039.88 1307.77)" fill="#bcc0cf"/>
    </g>
    <g id="g812" transform="translate(942.061 447.978)">
      <path id="path814" d="M2131.458-1482.966s11.834-4.378,11.094,11.349-3.514,17.326-11.3,15.131-8.439-12.124-9.451-16.9,5.783-8.892,9.655-9.579" transform="translate(-2121.701 1483.526)" fill="#8e4f3a"/>
    </g>
    <g id="g816" transform="translate(943.951 465.723)">
      <path id="path818" d="M2146.469-1371.327s-2.437,1.61-11.672-2.458a41.9,41.9,0,0,0-1.548-12.245c-1.813-5.913,12.391,7.885,12.391,7.885-.148.105-.177.7-.091,1.521a16.552,16.552,0,0,0,.456,2.444c.518,1.977.464,1.128.464,2.854" transform="translate(-2133.089 1387.504)" fill="#8e4f3a"/>
    </g>
    <g id="g820" transform="translate(940 444.779)">
      <path id="path822" d="M2114.068-1478.541s-.036-4.2,1.713-4.587a2.4,2.4,0,0,0,1.976-1.784l1,.233s-.185-.741,1.482-1.718,11.629-.117,12.878-1.55-.561-9.948-3.28-10.784-9.031-.758-14.8.863a6.711,6.711,0,0,0-4.712,6.262c-.214,3.336,2.318,10.788,3.742,13.065" transform="translate(-2110.313 1499.255)" fill="#2d3133"/>
    </g>
    <g id="g824" transform="translate(946.362 472.323)">
      <path id="path826" d="M2157-1343.9c-9.175-1.542-10.544-6.76-10.566-6.841,3.565,4.6,10.11,4.4,10.11,4.4a16.571,16.571,0,0,0,.456,2.445" transform="translate(-2146.431 1350.739)" fill="#633029"/>
    </g>
    <g id="g828" transform="translate(955.088 485.623)">
      <path id="path830" d="M2195.67-1284s1.673,2.463,2.68,8.791.838,17.224.838,17.224l-2.324.282s-3.515-22.225-2.912-26.1l1.718-.2" transform="translate(-2193.883 1283.997)" fill="#434343"/>
    </g>
    <path id="path832" d="M2137.662,1244.6c-.521-1.387-3.474-1.213-3.173.985s2.743,5.582,3.723,4.947.172-4.021-.55-5.932" transform="translate(-1190.552 -784.988)" fill="#8e4f3a"/>
    <g id="g834" transform="translate(959.471 487.006)">
      <path id="path836" d="M2223.473-1302.106s5.59,7.4,3.519,26.747c-3.742,34.97,6.058,91.1,6.058,91.1l-10.111,3.166s-9.662-71.76-7.2-97.8c1.121-11.867,4.449-15.818-.8-25.7,0,0,5.111.258,8.537,2.491" transform="translate(-2214.936 1304.597)" fill="#dbdff0"/>
    </g>
    <g id="g838" transform="translate(923.927 486.845)">
      <path id="path840" d="M2039.735-1305.49s16,16.163,17.257,28.418,3.295,95.251,3.295,95.251l-38.1-2.219s3.5-43.811,4.357-49.292,2.619-36.95-1.235-51.55c-2.072-7.845.392-17.8,5.127-18.883s9.3-1.725,9.3-1.725" transform="translate(-2022.188 1305.49)" fill="#dbdff0"/>
    </g>
    <path id="path842" d="M2023.461,1371.324s6.162,1.7,2.774,13.009c-2.656,8.858-3.016,10.762-3.016,10.762L2009,1391.544s4.17-19.463,10.976-20.509a7.756,7.756,0,0,1,3.488.289" transform="translate(-1088.179 -887.629)" fill="#dbdff0"/>
    <g id="g844" transform="translate(937.422 529.132)">
      <path id="path846" d="M2138.724-1040.833l-27.878,28.848-18.515-17.89,27.153-29.548,19.24,18.591" transform="translate(-2092.331 1059.424)" fill="#616161"/>
    </g>
    <g id="g848" transform="translate(939.957 531.704)">
      <path id="path850" d="M2147.984-1027.839l-24.758,25.621-16.445-15.89,24.117-26.241,17.085,16.511" transform="translate(-2106.781 1044.35)" fill="#e0cec7"/>
    </g>
    <g id="g852" transform="translate(969.278 534.343)">
      <path id="path854" d="M2275.882-1013.4l1.74-1.8-6.648-6.426-2,1.549,6.907,6.675" transform="translate(-2268.975 1021.622)" fill="#616161"/>
    </g>
    <g id="g856" transform="translate(944.625 478.214)">
      <path id="path858" d="M2138.146-1319.587a29.7,29.7,0,0,0,9.6,3.57l-2.54,4.052-8.051-5.542.986-2.08" transform="translate(-2137.159 1319.587)" fill="#a7aab8"/>
    </g>
    <g id="g860" transform="translate(955.62 479.591)">
      <path id="path862" d="M2198.832-1311.891a4.157,4.157,0,0,1-1.6,2.214l2.386,3.326-.086-4.412-.7-1.128" transform="translate(-2197.233 1311.891)" fill="#a7aab8"/>
    </g>
    <g id="g864" transform="translate(953.672 481.876)">
      <path id="path866" d="M2188.479-1299.355l1.889,2.635s-1.2,1.511-3.773.364l1.884-3" transform="translate(-2186.595 1299.355)" fill="#434343"/>
    </g>
    <g id="g868" transform="translate(971.925 498.715)">
      <path id="path870" d="M2286.762-1197.666v0c-.87-1.126-1.724-2.308-2.535-3.476l0,0s.306-8.527.04-10.976c0,0,2.786,9.185,2.5,14.454" transform="translate(-2284.225 1212.121)" fill="#a7aab8"/>
    </g>
    <path id="path872" d="M2052.658,1504.45s-1.859,12.093-1.73,12.868-8.412-2.428,1.73-12.868" transform="translate(-1120.013 -996.388)" fill="#a7aab8"/>
    <g id="g874" transform="translate(963.836 503.201)">
      <path id="path876" d="M2245.2-1179.862H2240.7v-6.858h4.492v6.858" transform="translate(-2240.705 1186.72)" fill="#c6cad9"/>
    </g>
    <g id="g878" transform="translate(942.917 538.299)">
      <path id="path880" d="M2132.623-1000.593a2.524,2.524,0,0,0,1.094,1.088c1.181.475,3.067-.277,3.8,1.41s-3.974,5.655-5.156,5.861-2.85-1.725-3.941-5.45,4.206-2.91,4.206-2.91" transform="translate(-2128.27 1000.668)" fill="#8e4f3a"/>
    </g>
    <g id="g882" transform="translate(944.943 540.686)">
      <path id="path884" d="M2145.382-989.112a51.576,51.576,0,0,1,4.029,4.113c1.759,2.021,3.447,4.733,3.147,5.246-.675,1.14-2.309-1.4-4.187-3.283a17.89,17.89,0,0,0-1.443-1.429s0-.183,1.509,2.087c1.624,2.44,3.039,5.114,2.652,5.709-.185.289-.941,1-1.3-.169.324.545.382.411.166.578-1.124.856-4.074-2.336-5.247-3.605.9.98,1.444,1.8.43,1.883-1.158.1-5.122-4.614-6.708-6.158-1.727-1.685,6.957-4.971,6.957-4.971" transform="translate(-2138.198 989.112)" fill="#8e4f3a"/>
    </g>
    <path id="path886" d="M2007.252,1375.053c1.29.5,1.777,2.79,1.248,9.427a22.389,22.389,0,0,1-3.74,11.225c-.872,1.535-5.664,11-4.8,12.243s9,9.275,9.472,9.928,9.559,8.88,9.559,8.88l-4.625,6.466s-19.623-15.327-21.156-16.857-6.106-4.745-4.414-10.092c1.721-5.432,4.811-18.152,5.361-19.146s4.567-15.376,13.1-12.074" transform="translate(-1071.09 -889.057)" fill="#dbdff0"/>
    <g id="g888" transform="translate(1103.601 650.935)">
      <path id="path890" d="M2995.213-408.048a16.981,16.981,0,0,1-1.976,3.3c-.946,1.236-3.9,6.316-5.2,6.671s-5.314,1.062-5.666,3.307-.53,3.836,3.421,4.012,6.555.414,8.443-2.36a20.627,20.627,0,0,1,4.9-4.783v7.239h1.536s.711-7.533,1.124-8.064,1.476-6.318-2.187-9.327-4.4,0-4.4,0" transform="translate(-2982.204 409.386)" fill="#163342"/>
    </g>
    <g id="g892" transform="translate(1109.401 651.479)">
      <path id="path894" d="M3015.246-395.531s3.541.886,4.9,0,5.973-8.687,7.5-9.155c0,0-1.482-3.006-5.229-.82,0,0-6.167,8.677-7.171,9.975" transform="translate(-3015.246 406.303)" fill="#eea886"/>
    </g>
    <g id="g896" transform="translate(1113.521 464.855)">
      <path id="path898" d="M3041.552-1392.228s-7.636,16.1-2.381,17.063c7.217,1.323,10.139-12.013,10.139-12.013l-7.758-5.05" transform="translate(-3037.326 1392.228)" fill="#163342"/>
    </g>
    <g id="g900" transform="translate(1062.497 499.203)">
      <path id="path902" d="M2776.094-1201.23s-2.389-.75-2.581-2.165a8.007,8.007,0,0,0-1.573-3.081c-.446-.592-1.13-2.919-1.882-2.367s.944,3.887,1.158,4.658-3.046-.7-3.855-.494-2.933,5.749-.574,6.494,5.37-.01,5.758.2a15.005,15.005,0,0,0,1.7.611l1.854-3.862" transform="translate(-2765.708 1208.927)" fill="#eea886"/>
    </g>
    <g id="g904" transform="translate(1053.387 501.989)">
      <path id="path906" d="M2727.859-1191.836s-7.368-1.807-7.96-1.518-.667.7.012.893,7.07,1.953,7.07,1.953-9.08-.675-9.618-.543c-.312.078-.505.853-.151.994s9.321,1.323,9.321,1.323-8.479-.616-8.9-.371a.585.585,0,0,0,.265,1.057c.628.09,8.464,1.1,8.464,1.1s-6.2-.059-6.43.355c-.141.254-.336.916,1.262.881s5.385.28,5.385.28l1.277-6.41" transform="translate(-2717.022 1193.386)" fill="#eea886"/>
    </g>
    <g id="g908" transform="translate(1133.01 656.825)">
      <path id="path910" d="M3123.468-375.834s-3.955,5.873-5.546,7.291c0,0-3.543,1.3-3.9,3.777s-.291,4.134,3.9,4.252,6.936-.634,7.706-3.173a11.535,11.535,0,0,1,2.447-4.266v5.312h.943s.236-5.135.295-6.078.679-4.576-1.314-6.184a5.525,5.525,0,0,0-4.531-.931" transform="translate(-3113.891 375.976)" fill="#163342"/>
    </g>
    <g id="g912" transform="translate(1129.84 541.506)">
      <path id="path914" d="M3111.312-1028.07s5,6.494,6.351,14.2-.8,33.558-.742,37.366,3.6,13.282,2.894,20.453-3.506,42.868-3.506,42.868l-7.653-1.518s.444-36.39,0-39.4-1.333-13.985-1.508-15.224-11.243-33.791-11.243-39.345,3.366-28.456,15.407-19.4" transform="translate(-3095.905 1030.167)" fill="#2d3133"/>
    </g>
    <g id="g916" transform="translate(1102.794 544.512)">
      <path id="path918" d="M2986.991-1011.486s-8.2,31.314-9.178,35.653-2.387,7.918-2.387,9.759a64.368,64.368,0,0,0,1.591,11.138l10.417,49.833h9.926s-5.531-29.9-5.679-35.742-4.66-14.18-3.774-16.657,14.258-31.081,14.258-31.081,10.122-31.993-15.174-22.9" transform="translate(-2975.427 1013.112)" fill="#2d3133"/>
    </g>
    <g id="g920" transform="translate(1137.05 656.966)">
      <path id="path922" d="M3136.807-367.885s4.052,2.264,6.66-.644a20.461,20.461,0,0,0,3.419-5.716l-4.528-.931-5.551,7.291" transform="translate(-3136.807 375.176)" fill="#eea886"/>
    </g>
    <g id="g924" transform="translate(1072.207 481.828)">
      <path id="path926" d="M2851.994-1305.746a10.245,10.245,0,0,0-5.938,3.058,39.368,39.368,0,0,0-5.625,8.567c-.671,1.459-10.052,15-10.543,15.3s-4.585-.773-7.871-1.048c-5.361-.447-13.386-3.178-13.386-3.178l-1.188,6.059s19.726,6.367,24.281,5.246c5.568-1.373,18.383-17.815,18.383-17.815s9.556-11.2,1.887-16.189" transform="translate(-2807.443 1305.746)" fill="#dbdff0"/>
    </g>
    <g id="g928" transform="translate(1114.688 480.507)">
      <path id="path930" d="M3024.714-1320.3a45.864,45.864,0,0,1-5.9,2.374c-1.522.305-7.425,7.972-8.458,10.772s0,7,2.13,11.93.122,6.571,1.093,11.5.66,23.372.478,26.11,28.486,6.891,34.146,1.9c0,0-3.83-16.622-8.368-21.365-.978-1.028-.876-7.862-.206-9.566s8.214-14.424,8.214-14.424.555-12.9-2.737-15.458c-2.863-2.221-10.658-3.013-12.055-3.5a23.888,23.888,0,0,0-8.333-.275" transform="translate(-3009.946 1320.532)" fill="#ff3242"/>
    </g>
    <g id="g932" transform="translate(1127.358 466.817)">
      <path id="path934" d="M3081.827-1375.93a104.288,104.288,0,0,1,.691,10.656s4.554,4.562,9.734-5.326a13.568,13.568,0,0,1-.542-9.631c1.641-5.554-9.884,4.3-9.884,4.3" transform="translate(-3081.827 1381.927)" fill="#eea886"/>
    </g>
    <g id="g936" transform="translate(1107.349 494.635)">
      <path id="path938" d="M3007.421-1221.481s-1.095-7.291.069-11.724a28.292,28.292,0,0,0,2.092,9.225l-2.16,2.5" transform="translate(-3006.954 1233.205)" fill="#aaadba"/>
    </g>
    <g id="g940" transform="translate(1140.293 456.209)">
      <path id="path942" d="M3155.717-1435.937s1-1.206,1.377.009-.853,4.827-.987,5.35c0,0-.61,2.027-.853,1.768s.463-7.126.463-7.126" transform="translate(-3155.203 1436.471)" fill="#eea987"/>
    </g>
    <g id="g944" transform="translate(1121.817 456.364)">
      <path id="path946" d="M3051.836-1435.113s-1-1.206-1.377.009.851,4.827.987,5.35c0,0,.61,2.027.852,1.768s-.461-7.127-.461-7.127" transform="translate(-3050.387 1435.647)" fill="#eea987"/>
    </g>
    <g id="g948" transform="translate(1122.46 445.021)">
      <path id="path950" d="M3062.043-1499.363s-9.22,1.42-7.872,15.945,9.487,13.373,10.031,13.359,8.167.3,8.827-17.421c0,0,.3-13.107-10.985-11.883" transform="translate(-3054.036 1499.444)" fill="#eea987"/>
    </g>
    <g id="g952" transform="translate(1122.465 444.267)">
      <path id="path954" d="M3071.277-1489.714s-10.235,3.044-15.133,2.071c0,0-.316,1.807-1.02,1.919s-1.061-3.455-1.061-3.455-.241-11.812,10.445-11.923,8.513,12.794,8.513,12.794l-.145,2.206s-1.531.6-1.6-3.61" transform="translate(-3054.063 1501.104)" fill="#163342"/>
    </g>
    <g id="g956" transform="translate(1128.045 474.095)">
      <path id="path958" d="M3093.918-1340.575s-3.228,3.059-8.194.252a5.169,5.169,0,0,0,4.251,2.389,4.691,4.691,0,0,0,3.943-2.64" transform="translate(-3085.724 1340.575)" fill="#a77860"/>
    </g>
    <g id="g960" transform="translate(1124.298 478.511)">
      <path id="path962" d="M3081.465-1317.531s-3.135,9.252-11.732,8.572-4.078-7.813-4.078-7.813a18.842,18.842,0,0,1,2.749-1.344c.6-.115,9.506-.228,9.506-.228l3.555.813" transform="translate(-3064.467 1318.344)" fill="#eea886"/>
    </g>
    <g id="g964" transform="translate(1103.039 483.975)">
      <path id="path966" d="M2996.34-1309.366s-4.5,12.459-4.5,25.157-.365,33.384-1.937,39.915-6.048,26.732-6.048,26.732l-3.507-1.814s8.436-32.239,9.07-34.563-.482-26.885-1.086-28.942-3.178-11.211-2.78-13.749c.5-3.2,3.5-7.939,8.339-12.013l2.451-.724" transform="translate(-2980.345 1309.366)" fill="#dbdff0"/>
    </g>
    <g id="g968" transform="translate(1135.148 483.05)">
      <path id="path970" d="M3130.457-1315.905a129.744,129.744,0,0,0-4.219,20.443c-1.417,11.482,4.356,64.769,8.226,76.866l15-2.421s-3.228-37.667-7.613-44.521-5.777-12.92-1.047-27.226-2.073-21.393-2.073-21.393-6.957-1.6-8.275-1.749" transform="translate(-3126.019 1315.905)" fill="#dbdff0"/>
    </g>
    <g id="g972" transform="translate(1123.407 508.137)">
      <path id="path974" d="M3059.409-1156.953l18.189,31.5,20.216-11.674-17.4-31.958-21.007,12.13" transform="translate(-3059.409 1169.083)" fill="#616161"/>
    </g>
    <g id="g976" transform="translate(1125.605 510.524)">
      <path id="path978" d="M3071.88-1144.471l16.153,27.977,17.957-10.367-15.453-28.381-18.656,10.772" transform="translate(-3071.88 1155.243)" fill="#e0cec7"/>
    </g>
    <g id="g980" transform="translate(1130.409 511.354)">
      <path id="path982" d="M3100.264-1137.107l-1.134-1.965,7.259-4.19,1.416,1.8-7.542,4.355" transform="translate(-3099.13 1143.262)" fill="#616161"/>
    </g>
    <g id="g984" transform="translate(1128.985 531.496)">
      <path id="path986" d="M3094.48-1027.319a3.715,3.715,0,0,0,1.188-.172s.635-.367,1.1-.6a3.579,3.579,0,0,1,.369-.167,6.861,6.861,0,0,0,2.029-.858,46.233,46.233,0,0,0,3.65-3.854l-1.345-2.045-.987-2.094s-5.98.385-6.786.82a2.035,2.035,0,0,0-.226.134,9.04,9.04,0,0,0-1.267,1.295c-.113.1-1.192,1.154-1.155,1.6a1.478,1.478,0,0,0,.717,1.241,3.519,3.519,0,0,0,.754,1.784,2.188,2.188,0,0,0,1.052,1.62s.236,1.133.9,1.3" transform="translate(-3091.053 1037.11)" fill="#eea886"/>
    </g>
    <g id="g988" transform="translate(1137.593 482.535)">
      <path id="path990" d="M3147.031-1306.624s5.526-1.582,8.69,4.5a27.722,27.722,0,0,1,3.57,11.655c.4,2.806,2.2,10.468,2.386,11.258s4.267,10.226,2.393,13.524c-1.881,3.314-21,13.07-20.875,13.8s-3.31-7.378-3.31-7.378,7.733-4.31,9-5.638c2.055-2.155,6.4-4.48,5.508-7.154-1.049-3.142-4.2-13.742-4.928-15.294s-7.09-17.3-2.436-19.277" transform="translate(-3139.885 1306.809)" fill="#dbdff0"/>
    </g>
  </g>
</svg>
