<svg xmlns="http://www.w3.org/2000/svg" xmlns:xlink="http://www.w3.org/1999/xlink" viewBox="0 0 1085.42 766.02"><defs><style>.cls-1{fill:none;}.cls-2{isolation:isolate;}.cls-3{clip-path:url(#clip-path);}.cls-4{fill:#607574;}.cls-5{opacity:0.3;}.cls-6{fill:#1a252b;}.cls-7{fill:#fff;}.cls-23,.cls-8{opacity:0.5;}.cls-8{mix-blend-mode:overlay;}.cls-9{fill:#76ccc6;}.cls-10{fill:#c9f5f3;}.cls-11{fill:#b4dbd9;}.cls-12{fill:#a1c6c3;}.cls-13{fill:#77918f;}.cls-14{fill:#ff3241;}.cls-15{clip-path:url(#clip-path-2);}.cls-16{fill:#7f0e1c;}.cls-17{fill:#2c3635;}.cls-18{fill:#7fd3cc;}.cls-19{fill:#788e8c;}.cls-20{fill:#677d7c;}.cls-21{fill:#360b0e;}.cls-22{fill:#db2b38;}.cls-24{fill:#ffa9b3;}.cls-25{clip-path:url(#clip-path-3);}.cls-26{clip-path:url(#clip-path-4);}.cls-27{fill:#495e5b;}.cls-28{clip-path:url(#clip-path-5);}.cls-29{fill:#f5313e;}.cls-30{fill:#c62733;}.cls-31{fill:#75171e;}.cls-32{clip-path:url(#clip-path-6);}.cls-33{fill:#ff92a2;}.cls-34{clip-path:url(#clip-path-7);}.cls-35{clip-path:url(#clip-path-8);}.cls-36{clip-path:url(#clip-path-9);}.cls-37{clip-path:url(#clip-path-10);}.cls-38{clip-path:url(#clip-path-11);}.cls-39{fill:#fe3241;}.cls-40{fill:#677c7b;}</style><clipPath id="clip-path" transform="translate(0.48 0.49)"><rect class="cls-1" x="-6.11" y="-2.45" width="1086.43" height="776.98"/></clipPath><clipPath id="clip-path-2" transform="translate(0.48 0.49)"><path class="cls-1" d="M1041.25-.17H-2L52.23,94.51C107.67,170.2,164,190.43,178.76,213c11.45,17.53,22.05,41.63,18.47,67.73-7.13,52.06,3.56,69.17,32.09,94.13s4.28,51.34,24.24,89.85,89.12,32.42,131.21,45.64c39.34,12.35,47.78,44.93,96.27,48.49s25.67-15,72.74-12.12S622.24,551,655,493.92s85.57-2.14,124.79-80.58S859.05,376.84,897.49,300c19.25-38.51,20-60.2,68.46-89.85,62-38,79.34-60.35,80.87-69.48Z"/></clipPath><clipPath id="clip-path-3" transform="translate(0.48 0.49)"><path class="cls-1" d="M825.4,361.63H873.3a0,0,0,0,1,0,0v15a4.24,4.24,0,0,1-4.24,4.24H829.65a4.24,4.24,0,0,1-4.24-4.24v-15A0,0,0,0,1,825.4,361.63Z" transform="translate(1493.57 1037.76) rotate(-157.64)"/></clipPath><clipPath id="clip-path-4" transform="translate(0.48 0.49)"><circle class="cls-1" cx="907.18" cy="612.64" r="28.34"/></clipPath><clipPath id="clip-path-5" transform="translate(0.48 0.49)"><circle class="cls-1" cx="848.1" cy="683.61" r="14.99"/></clipPath><clipPath id="clip-path-6" transform="translate(0.48 0.49)"><path class="cls-1" d="M468.84,294.44a31.06,31.06,0,0,1-42.23-4.15l7.24-19.4s16.51,7.05,39.61,7.13c0,0-.65,6-1.12,7.64C471.65,288.1,468.84,294.44,468.84,294.44Z"/></clipPath><clipPath id="clip-path-7" transform="translate(0.48 0.49)"><path class="cls-1" d="M446.91,300.77l1.69-4.4s5.25.17,9.14-6.93,2.87-12.85.84-14.55S440.49,280,440.49,280a3.45,3.45,0,0,0-4.82-.17c-2.54,2.2.59,5.07.59,5.07l-4.65,6.85S432.79,299.92,446.91,300.77Z"/></clipPath><clipPath id="clip-path-8" transform="translate(0.48 0.49)"><path class="cls-1" d="M868,272l39.91-17.44,6.78,12.89a6.44,6.44,0,0,1,.14,5.71l-14.69,31.63S872.4,301.39,868,272Z"/></clipPath><clipPath id="clip-path-9" transform="translate(0.48 0.49)"><circle class="cls-1" cx="442.43" cy="278.02" r="31.03"/></clipPath><clipPath id="clip-path-10" transform="translate(0.48 0.49)"><circle class="cls-1" cx="564.34" cy="327.4" r="29.7"/></clipPath><clipPath id="clip-path-11" transform="translate(0.48 0.49)"><circle class="cls-1" cx="905.76" cy="268.34" r="37.28"/></clipPath></defs><g class="cls-2"><g id="Слой_1" data-name="Слой 1"><g class="cls-3"><path d="M1084.31-.17H153.89L-.28-.49C-7,87.49,161,185.88,178.76,213c11.5,17.5,22.05,41.63,18.47,67.73-7.13,52.06,3.56,69.17,32.09,94.13s4.28,51.34,24.24,89.85,89.12,32.42,131.21,45.64c39.34,12.35,47.78,44.93,96.27,48.49s25.67-15,72.74-12.12S622.24,551,655,493.92s85.57-2.14,124.79-80.58S859.05,376.84,897.49,300c19.25-38.51,20-60.2,68.46-89.85,62-38,117.46-106.44,119-115.56Z" transform="translate(0.48 0.49)"/><path d="M480.8,377.15q1.23-6.28,1.87-12.67c.67-6.6,1-13.23,1.32-19.86-.22.9-.45,1.8-.66,2.7C481.07,356.93,479.32,367.27,480.8,377.15Z" transform="translate(0.48 0.49)"/><path class="cls-4" d="M246.45,444.66a75.7,75.7,0,0,0,7.11,20c20,38.51,89.12,32.42,131.21,45.64,39.34,12.35,47.78,44.93,96.27,48.49s25.67-15,72.74-12.12S622.24,551,655,493.92s85.57-2.14,124.79-80.58c9.62-19.25,19.29-31.24,29-39.52A442,442,0,0,0,570.32,304.4C442.59,304.4,327.46,358.34,246.45,444.66Z" transform="translate(0.48 0.49)"/><g class="cls-5"><path class="cls-6" d="M413.32,358.29c2.09,10.6,3.75,22.09,9,31.68,6.78,12.33,16.61,22.9,29.23,29.33,11.48,5.85,24.47,8,37.26,7.34a114.57,114.57,0,0,0,39.31-9.57A143,143,0,0,0,563.2,395.6,127.66,127.66,0,0,0,577.27,382c5.71-6.49,10.62-13.67,15.86-20.55a227.81,227.81,0,0,1,18.58-22c6.48-6.57,13.71-12.13,21.06-17.66,4.93-3.71,10-7.33,15.18-10.6q-14-2.48-28.35-4.07c-6.83,6.1-12.65,13.44-18.46,20.4a193.19,193.19,0,0,1-14.21,15.65,132.83,132.83,0,0,1-17.73,14.36c-10.89,7.39-23,13.59-35.75,16.88a133.26,133.26,0,0,1-32.12,4,124,124,0,0,1-34-4.16c-10.06-2.79-20-7.26-27.68-14.43-7.1-6.59-11.53-15.41-14.52-24.5-.64-2-1.2-4-1.73-6Q415.65,332,408,335C410.3,342.64,411.79,350.53,413.32,358.29Z" transform="translate(0.48 0.49)"/></g><g class="cls-5"><path class="cls-6" d="M566.25,538.52c-9.9-5.76-17.75-14-26.74-20.95a159.57,159.57,0,0,0-34.84-20.63c-13.29-5.74-27.45-10.12-42.06-9.93s-28.56,4.92-41.74,11.12c-10.24,4.81-20.1,10.39-30.76,14C425,525.66,434.82,555.41,481,558.81c48.49,3.57,25.67-15,72.74-12.12,12.52.76,23.22,1.41,32.8.9A103.46,103.46,0,0,1,566.25,538.52Z" transform="translate(0.48 0.49)"/></g><g class="cls-5"><path class="cls-6" d="M276,426.88c3.62,2,7.2,4.07,10.87,5.95a106.77,106.77,0,0,0,11.62,5.05c16.44,6.1,34,8.95,51.36,10.88,7.43.83,14.88,1.38,22.33,2,4.94.42,9.86,1.06,14.79,1.46a107.83,107.83,0,0,0,17.42.29c4.86-.4,10.17-1.26,14.22-4.18a11,11,0,0,0,4.56-10c-.36-3.69-2.55-6.94-5-9.58a52.61,52.61,0,0,0-11.17-8.63,134.36,134.36,0,0,0-14.3-7.41c-9.24-4.2-18.77-7.66-28.24-11.26a88.57,88.57,0,0,1-9.42-4,107.37,107.37,0,0,1-20.86-14.38c-2.34-2-4.6-4.13-6.8-6.3A445.57,445.57,0,0,0,268.27,423C270.9,424.15,273.47,425.51,276,426.88Z" transform="translate(0.48 0.49)"/></g><g class="cls-5"><path class="cls-6" d="M726.5,332.67a52,52,0,0,1-8.85,10c-6.4,5.62-13.8,10-21.24,14.08-7.75,4.28-15.67,8.28-23.18,13-7.34,4.62-14.34,10-19.72,16.85a58.65,58.65,0,0,0-7.57,12.79,31.06,31.06,0,0,0-2.89,12.23c0,6.82,3.66,12.45,8.61,16.87,5.6,5,12.27,8.69,18.58,12.7,6.76,4.29,13.21,8.93,18.41,15.07a53.8,53.8,0,0,1,5.87,8.6c28-6,59.55,0,85.31-51.48,9.62-19.25,19.29-31.24,29-39.52A441.66,441.66,0,0,0,726.5,332.67Z" transform="translate(0.48 0.49)"/></g><circle class="cls-7" cx="492.12" cy="37.11" r="1.32"/><circle class="cls-7" cx="504.5" cy="14.93" r="0.66"/><circle class="cls-7" cx="324.55" cy="24.22" r="1.51"/><circle class="cls-7" cx="276.63" cy="76.65" r="0.44"/><circle class="cls-7" cx="303.02" cy="83.45" r="0.32"/><circle class="cls-7" cx="279.11" cy="41.84" r="0.72"/><circle class="cls-7" cx="255.08" cy="21.2" r="0.72"/><circle class="cls-7" cx="440.56" cy="13.08" r="1.52"/><circle class="cls-7" cx="432.05" cy="84.23" r="0.44"/><circle class="cls-7" cx="456.77" cy="70.85" r="1.25"/><circle class="cls-7" cx="485.41" cy="116.17" r="1.25"/><circle class="cls-7" cx="475.57" cy="35.77" r="0.72"/><circle class="cls-7" cx="416.53" cy="71.16" r="0.94"/><circle class="cls-7" cx="446.63" cy="50.41" r="1.52"/><circle class="cls-7" cx="799.54" cy="18.07" r="1.52"/><circle class="cls-7" cx="401.99" cy="90.8" r="0.87"/><circle class="cls-7" cx="537.13" cy="54.11" r="0.72"/><circle class="cls-7" cx="487.3" cy="76.93" r="0.21"/><g class="cls-8"><circle class="cls-7" cx="532.44" cy="47.69" r="2.18"/></g><circle class="cls-7" cx="524.6" cy="16.58" r="0.44"/><circle class="cls-7" cx="509.41" cy="29.85" r="0.44"/><circle class="cls-7" cx="543.87" cy="31.83" r="0.44"/><circle class="cls-7" cx="528.18" cy="30.82" r="0.44"/><circle class="cls-7" cx="543.55" cy="43.46" r="0.32"/><circle class="cls-7" cx="545.15" cy="36.7" r="0.21"/><circle class="cls-7" cx="536.91" cy="35.82" r="0.21"/><circle class="cls-7" cx="516.91" cy="37.61" r="0.21"/><circle class="cls-7" cx="527.63" cy="25.82" r="0.21"/><circle class="cls-7" cx="518.21" cy="24.87" r="0.94"/><circle class="cls-7" cx="367.71" cy="84.35" r="0.44"/><circle class="cls-7" cx="352.52" cy="97.63" r="0.44"/><circle class="cls-7" cx="386.98" cy="99.6" r="0.44"/><circle class="cls-7" cx="371.29" cy="98.59" r="0.44"/><circle class="cls-7" cx="312.29" cy="84.8" r="0.44"/><circle class="cls-7" cx="403.76" cy="98.59" r="0.32"/><circle class="cls-7" cx="386.66" cy="111.23" r="0.32"/><circle class="cls-7" cx="287.55" cy="39.16" r="1.58"/><circle class="cls-7" cx="379.84" cy="56.99" r="0.72"/><circle class="cls-7" cx="244.66" cy="114.37" r="0.72"/><circle class="cls-7" cx="399.82" cy="51.71" r="0.4"/><circle class="cls-7" cx="388.26" cy="104.47" r="0.21"/><circle class="cls-7" cx="380.02" cy="103.6" r="0.21"/><circle class="cls-7" cx="265.61" cy="74.31" r="0.44"/><circle class="cls-7" cx="249.92" cy="73.3" r="0.44"/><circle class="cls-7" cx="265.28" cy="85.94" r="0.32"/><circle class="cls-7" cx="266.89" cy="79.18" r="0.21"/><circle class="cls-7" cx="258.65" cy="78.3" r="0.21"/><circle class="cls-7" cx="360.03" cy="105.38" r="0.21"/><circle class="cls-7" cx="370.74" cy="93.59" r="0.21"/><circle class="cls-7" cx="280.01" cy="60.29" r="0.21"/><circle class="cls-7" cx="355.82" cy="36.34" r="0.72"/><g class="cls-8"><circle class="cls-7" cx="330.6" cy="114.9" r="2.18"/></g><g class="cls-8"><circle class="cls-7" cx="306.49" cy="113.17" r="2.18"/></g><circle class="cls-7" cx="281.1" cy="96.53" r="0.94"/><circle class="cls-7" cx="361.33" cy="92.65" r="0.94"/><circle class="cls-7" cx="204.95" cy="39.76" r="0.44"/><circle class="cls-7" cx="189.76" cy="53.03" r="0.44"/><circle class="cls-7" cx="224.22" cy="55" r="0.44"/><circle class="cls-7" cx="208.53" cy="54" r="0.44"/><circle class="cls-7" cx="241" cy="54" r="0.32"/><circle class="cls-7" cx="223.9" cy="66.63" r="0.32"/><circle class="cls-7" cx="225.5" cy="59.87" r="0.21"/><circle class="cls-7" cx="217.26" cy="59" r="0.21"/><circle class="cls-7" cx="197.26" cy="60.78" r="0.21"/><circle class="cls-7" cx="207.98" cy="48.99" r="0.21"/><circle class="cls-7" cx="198.56" cy="48.05" r="0.94"/><circle class="cls-7" cx="326.87" cy="50.98" r="1.52"/><circle class="cls-7" cx="436.05" cy="182.66" r="1.51"/><circle class="cls-7" cx="194.36" cy="124.1" r="1.51"/><circle class="cls-7" cx="439.06" cy="253.63" r="0.44"/><circle class="cls-7" cx="462.56" cy="239.83" r="0.32"/><circle class="cls-7" cx="416.26" cy="227.21" r="0.72"/><circle class="cls-7" cx="384.67" cy="229.52" r="0.72"/><circle class="cls-7" cx="509.06" cy="194.84" r="0.44"/><circle class="cls-7" cx="507.65" cy="214.96" r="0.44"/><circle class="cls-7" cx="521.64" cy="202.41" r="0.44"/><circle class="cls-7" cx="470.08" cy="234.25" r="0.44"/><circle class="cls-7" cx="420.36" cy="219.35" r="1.58"/><circle class="cls-7" cx="498.35" cy="166.89" r="0.72"/><circle class="cls-7" cx="429.59" cy="259.74" r="0.44"/><circle class="cls-7" cx="417.76" cy="270.09" r="0.44"/><circle class="cls-7" cx="437.57" cy="268.21" r="0.32"/><circle class="cls-7" cx="433.94" cy="262.29" r="0.21"/><circle class="cls-7" cx="427.48" cy="267.48" r="0.21"/><circle class="cls-7" cx="518.44" cy="215.17" r="0.21"/><circle class="cls-7" cx="517.72" cy="199.25" r="0.21"/><circle class="cls-7" cx="429.92" cy="239.65" r="0.21"/><circle class="cls-7" cx="466.76" cy="169.2" r="0.72"/><g class="cls-8"><circle class="cls-7" cx="504.3" cy="242.66" r="2.18"/></g><g class="cls-8"><circle class="cls-7" cx="485.99" cy="258.45" r="2.18"/></g><circle class="cls-7" cx="456.25" cy="264.56" r="0.94"/><circle class="cls-7" cx="510.38" cy="205.22" r="0.94"/><circle class="cls-7" cx="362.22" cy="278.03" r="0.44"/><circle class="cls-7" cx="386.64" cy="275.25" r="0.44"/><circle class="cls-7" cx="374.81" cy="285.6" r="0.44"/><circle class="cls-7" cx="397.82" cy="262.7" r="0.32"/><circle class="cls-7" cx="394.61" cy="283.72" r="0.32"/><circle class="cls-7" cx="390.98" cy="277.8" r="0.21"/><circle class="cls-7" cx="384.53" cy="282.99" r="0.21"/><circle class="cls-7" cx="370.89" cy="282.44" r="0.21"/><circle class="cls-7" cx="456.57" cy="199.99" r="1.52"/><circle class="cls-7" cx="764.36" cy="255.44" r="1.51"/><circle class="cls-7" cx="825.53" cy="291.55" r="0.44"/><circle class="cls-7" cx="826.75" cy="264.31" r="0.32"/><circle class="cls-7" cx="790.96" cy="296.28" r="0.72"/><circle class="cls-7" cx="775.7" cy="324.04" r="0.72"/><circle class="cls-7" cx="814.33" cy="200.83" r="0.44"/><circle class="cls-7" cx="830.44" cy="212.96" r="0.44"/><circle class="cls-7" cx="827.52" cy="194.39" r="0.44"/><circle class="cls-7" cx="826.16" cy="254.97" r="0.44"/><circle class="cls-7" cx="786.6" cy="288.57" r="1.58"/><circle class="cls-7" cx="785.05" cy="194.59" r="0.72"/><circle class="cls-7" cx="825.51" cy="302.81" r="0.44"/><circle class="cls-7" cx="827.75" cy="318.37" r="0.44"/><circle class="cls-7" cx="836.95" cy="300.74" r="0.32"/><circle class="cls-7" cx="830.01" cy="300.56" r="0.21"/><circle class="cls-7" cx="830.85" cy="308.8" r="0.21"/><circle class="cls-7" cx="836.48" cy="204.02" r="0.21"/><circle class="cls-7" cx="822.74" cy="195.96" r="0.21"/><circle class="cls-7" cx="808.83" cy="291.6" r="0.21"/><circle class="cls-7" cx="769.79" cy="222.35" r="0.72"/><g class="cls-8"><circle class="cls-7" cx="851.85" cy="230.86" r="2.18"/></g><g class="cls-8"><circle class="cls-7" cx="855.12" cy="254.8" r="2.18"/></g><circle class="cls-7" cx="844.06" cy="283.08" r="0.94"/><circle class="cls-7" cx="823.75" cy="205.37" r="0.94"/><circle class="cls-7" cx="845.34" cy="48.09" r="0.44"/><circle class="cls-7" cx="861.45" cy="60.22" r="0.44"/><circle class="cls-7" cx="858.54" cy="41.65" r="0.44"/><circle class="cls-7" cx="857.18" cy="102.23" r="0.44"/><circle class="cls-7" cx="867.5" cy="51.28" r="0.21"/><circle class="cls-7" cx="853.76" cy="43.22" r="0.21"/><g class="cls-8"><circle class="cls-7" cx="882.86" cy="78.12" r="2.18"/></g><g class="cls-8"><circle class="cls-7" cx="886.14" cy="102.06" r="2.18"/></g><circle class="cls-7" cx="854.77" cy="52.63" r="0.94"/><circle class="cls-7" cx="567.16" cy="126.01" r="0.44"/><circle class="cls-7" cx="583.27" cy="138.14" r="0.44"/><circle class="cls-7" cx="580.36" cy="119.57" r="0.44"/><circle class="cls-7" cx="579" cy="180.15" r="0.44"/><circle class="cls-7" cx="589.32" cy="129.2" r="0.21"/><circle class="cls-7" cx="575.58" cy="121.14" r="0.21"/><g class="cls-8"><circle class="cls-7" cx="604.69" cy="156.04" r="2.18"/></g><g class="cls-8"><circle class="cls-7" cx="607.96" cy="179.99" r="2.18"/></g><circle class="cls-7" cx="576.59" cy="130.55" r="0.94"/><circle class="cls-7" cx="652.31" cy="245.33" r="0.44"/><circle class="cls-7" cx="668.43" cy="257.47" r="0.44"/><circle class="cls-7" cx="665.51" cy="238.9" r="0.44"/><circle class="cls-7" cx="664.15" cy="299.48" r="0.44"/><circle class="cls-7" cx="674.47" cy="248.53" r="0.21"/><circle class="cls-7" cx="660.73" cy="240.47" r="0.21"/><g class="cls-8"><circle class="cls-7" cx="689.84" cy="275.36" r="2.18"/></g><g class="cls-8"><circle class="cls-7" cx="693.11" cy="299.31" r="2.18"/></g><circle class="cls-7" cx="661.74" cy="249.88" r="0.94"/><circle class="cls-7" cx="842.08" cy="85.7" r="0.94"/><circle class="cls-7" cx="804.17" cy="369.28" r="0.44"/><circle class="cls-7" cx="815.13" cy="347.29" r="0.44"/><circle class="cls-7" cx="817.37" cy="362.85" r="0.44"/><circle class="cls-7" cx="810.69" cy="331.07" r="0.32"/><circle class="cls-7" cx="826.58" cy="345.21" r="0.32"/><circle class="cls-7" cx="819.63" cy="345.03" r="0.21"/><circle class="cls-7" cx="820.47" cy="353.27" r="0.21"/><circle class="cls-7" cx="812.59" cy="364.42" r="0.21"/><circle class="cls-7" cx="790.07" cy="247.66" r="1.52"/><circle class="cls-7" cx="652.01" cy="96.12" r="1.51"/><circle class="cls-7" cx="855.37" cy="134.59" r="1.51"/><circle class="cls-7" cx="713.17" cy="132.23" r="0.44"/><circle class="cls-7" cx="714.39" cy="104.99" r="0.32"/><circle class="cls-7" cx="678.6" cy="136.96" r="0.72"/><circle class="cls-7" cx="663.34" cy="164.72" r="0.72"/><circle class="cls-7" cx="701.97" cy="41.5" r="0.44"/><circle class="cls-7" cx="718.08" cy="53.64" r="0.44"/><circle class="cls-7" cx="715.17" cy="35.07" r="0.44"/><circle class="cls-7" cx="713.81" cy="95.65" r="0.44"/><circle class="cls-7" cx="674.24" cy="129.25" r="1.58"/><circle class="cls-7" cx="672.69" cy="35.26" r="0.72"/><circle class="cls-7" cx="713.15" cy="143.49" r="0.44"/><circle class="cls-7" cx="715.39" cy="159.05" r="0.44"/><circle class="cls-7" cx="724.59" cy="141.42" r="0.32"/><circle class="cls-7" cx="717.65" cy="141.24" r="0.21"/><circle class="cls-7" cx="718.49" cy="149.48" r="0.21"/><circle class="cls-7" cx="724.13" cy="44.7" r="0.21"/><circle class="cls-7" cx="710.38" cy="36.64" r="0.21"/><circle class="cls-7" cx="696.47" cy="132.28" r="0.21"/><circle class="cls-7" cx="657.43" cy="63.03" r="0.72"/><g class="cls-8"><circle class="cls-7" cx="739.49" cy="71.53" r="2.18"/></g><g class="cls-8"><circle class="cls-7" cx="742.77" cy="95.48" r="2.18"/></g><circle class="cls-7" cx="731.7" cy="123.76" r="0.94"/><circle class="cls-7" cx="711.4" cy="46.05" r="0.94"/><circle class="cls-7" cx="691.82" cy="209.96" r="0.44"/><circle class="cls-7" cx="702.77" cy="187.97" r="0.44"/><circle class="cls-7" cx="705.01" cy="203.53" r="0.44"/><circle class="cls-7" cx="698.33" cy="171.75" r="0.32"/><circle class="cls-7" cx="714.22" cy="185.89" r="0.32"/><circle class="cls-7" cx="707.27" cy="185.71" r="0.21"/><circle class="cls-7" cx="708.11" cy="193.95" r="0.21"/><circle class="cls-7" cx="700.23" cy="205.1" r="0.21"/><circle class="cls-7" cx="677.71" cy="88.34" r="1.52"/><circle class="cls-7" cx="913.18" cy="76.76" r="1.52"/><circle class="cls-7" cx="608.5" cy="232.42" r="1.52"/><path class="cls-9" d="M570.32,309.33c86.41,0,167,22.23,235.27,64.93,1.07-1,2.14.47,3.22-.44A442,442,0,0,0,570.32,304.4c-127.73,0-242.86,53.94-323.87,140.26.26,1.3.58-.66.92.67C328.34,359.57,443.07,309.33,570.32,309.33Z" transform="translate(0.48 0.49)"/><polygon class="cls-10" points="901.51 382.15 963.23 377.78 965.81 430.19 904.1 434.56 901.51 382.15"/><rect class="cls-10" x="409.66" y="228.53" width="1.27" height="72.12" rx="0.6" transform="translate(149.45 -147.31) rotate(24.82)"/><rect class="cls-10" x="618.19" y="295.97" width="1.27" height="72.12" rx="0.6" transform="translate(-60.81 157.48) rotate(-13.78)"/><rect class="cls-10" x="942.94" y="219.66" width="1.27" height="72.12" rx="0.6" transform="translate(-33.28 232.66) rotate(-13.78)"/><path class="cls-11" d="M903.19,351.46l33.59,110.78a14.66,14.66,0,0,0,19.16,9.48l61.84-23.1,14.3,9.65a5.06,5.06,0,0,0,4.45.61h0a1.32,1.32,0,0,0,.85-1.59l-11-40.61a4.56,4.56,0,0,0-5.27-3.28l-56.59,11.14-23.23-100-46.74,6.9Z" transform="translate(0.48 0.49)"/><path class="cls-10" d="M942.89,463.78a25.61,25.61,0,0,1,11.28,4.52,13.89,13.89,0,0,1,3,3l-1.18.44a14.66,14.66,0,0,1-18.73-8.28A24.56,24.56,0,0,1,942.89,463.78Z" transform="translate(0.48 0.49)"/><path class="cls-4" d="M977.86,441.59l-38.41-32,15.77-25.07,9.29,40,53.8-10.59L1002,437.49A17.12,17.12,0,0,1,977.86,441.59Z" transform="translate(0.48 0.49)"/><path class="cls-11" d="M937.69,408.35,979.93,439a14.64,14.64,0,0,0,20.61-3.5l31.84-45.84L1055.6,384a4.46,4.46,0,0,0,2.63-1.82h0a2.44,2.44,0,0,0-.88-3.54l-35.61-18.57a5.77,5.77,0,0,0-7.14,1.44c-7.83,9.48-31,38.63-31.67,39.07s-23.74-26.46-23.74-26.46Z" transform="translate(0.48 0.49)"/><path class="cls-10" d="M995.3,435.57a28.14,28.14,0,0,0-14.31.84,20.34,20.34,0,0,0-2.89,1.22l1.83,1.32a14.63,14.63,0,0,0,19.54-2.15A23.46,23.46,0,0,0,995.3,435.57Z" transform="translate(0.48 0.49)"/><path class="cls-10" d="M1013,363.43l1.59-1.92a5.77,5.77,0,0,1,7.14-1.44l2,1A14.57,14.57,0,0,1,1013,363.43Z" transform="translate(0.48 0.49)"/><path class="cls-4" d="M1010.4,421.32a.24.24,0,0,1-.14-.05L982,400.82a.25.25,0,0,1,.3-.41l28.21,20.46a.25.25,0,0,1,.06.35A.28.28,0,0,1,1010.4,421.32Z" transform="translate(0.48 0.49)"/><path class="cls-4" d="M1025.32,399.65a.23.23,0,0,1-.14,0l-26.77-18.2a.27.27,0,0,1-.07-.35.26.26,0,0,1,.35-.07l26.77,18.2a.25.25,0,0,1,.07.35A.26.26,0,0,1,1025.32,399.65Z" transform="translate(0.48 0.49)"/><path class="cls-4" d="M1006.85,452.73a.25.25,0,0,1-.24-.18l-4.56-16.37a.25.25,0,0,1,.49-.14l4.55,16.37a.25.25,0,0,1-.17.31Z" transform="translate(0.48 0.49)"/><path class="cls-4" d="M976.36,464.39a.25.25,0,0,1-.23-.17l-11.07-33a.26.26,0,0,1,.16-.32.26.26,0,0,1,.32.16l11.06,33a.26.26,0,0,1-.16.32Z" transform="translate(0.48 0.49)"/><path class="cls-4" d="M930.83,443.64a.24.24,0,0,1-.23-.17.25.25,0,0,1,.15-.32l36.44-12.94a.25.25,0,0,1,.17.48l-36.44,12.93Z" transform="translate(0.48 0.49)"/><path class="cls-4" d="M1031.88,389.94a.2.2,0,0,1-.13,0l-6.85-4a.25.25,0,1,1,.25-.43l6.85,4a.25.25,0,0,1,.09.34A.24.24,0,0,1,1031.88,389.94Z" transform="translate(0.48 0.49)"/><path class="cls-4" d="M1017.78,448.87a.25.25,0,0,1-.25-.19l-1.63-6.91a.25.25,0,1,1,.48-.11l1.64,6.91a.25.25,0,0,1-.19.3Z" transform="translate(0.48 0.49)"/><path class="cls-12" d="M928.16,421.49l-3.4-11.78a2.8,2.8,0,0,1,.62-2.67l1-1.08a4.28,4.28,0,0,0,1-3.79l-.35-1.63-8.29,2.4,5.81,19.42Z" transform="translate(0.48 0.49)"/><path class="cls-13" d="M824.13,463.91a129.49,129.49,0,0,0-20.88,1.7v78.85a52.27,52.27,0,1,1-1.17,95.31H704.7A128.47,128.47,0,1,0,824.13,463.91Z" transform="translate(0.48 0.49)"/><path class="cls-14" d="M825.42,684.57a92.43,92.43,0,0,1-80.26-46.8l.87-.49A91.2,91.2,0,1,0,830.8,501.34l.06-1a92.2,92.2,0,0,1-5.44,184.23Z" transform="translate(0.48 0.49)"/><path class="cls-9" d="M824.48,699.13a107,107,0,0,1-92.94-54.19l.86-.5a105.78,105.78,0,1,0,98.32-157.66l0-1a106.77,106.77,0,0,1-6.29,213.35Z" transform="translate(0.48 0.49)"/><path class="cls-9" d="M826.19,672.79a80.62,80.62,0,0,1-70-40.81l.87-.49a79.41,79.41,0,1,0,73.81-118.37l.06-1a80.41,80.41,0,0,1-4.74,160.67Z" transform="translate(0.48 0.49)"/><g class="cls-15"><path class="cls-14" d="M722.74,449.3A55.73,55.73,0,0,1,678,427.07a192,192,0,0,1-16.51-26.85c-5.55-10.45-8.69-16-13.93-17.35-10-2.62-18.13,5.39-18.21,5.47l-7.07-7.07c.5-.5,12.36-12.14,27.82-8.07,9.72,2.56,14.35,11.29,20.22,22.33A184.48,184.48,0,0,0,686,421.07c13.61,18.16,37.56,23.53,58.22,13.06,31.74-16.08,54.64-69.64,23.69-171.74-12.33-40.72-11.48-79.62,2.47-112.48C783,120.29,806.3,96,836.09,81.4c32.82-16,71.1-19.58,107.77-10,40.28,10.56,75.6,36,102.14,73.59l-8.17,5.77c-56.58-80.12-142-87.48-197.35-60.41-48.1,23.5-89.9,80.27-63,169.1,15,49.47,18.86,91.45,11.52,124.77-6.15,27.87-20.45,48.75-40.27,58.79A57.49,57.49,0,0,1,722.74,449.3Z" transform="translate(0.48 0.49)"/><path class="cls-16" d="M722.77,449.38l0-10h.89l.24,10Zm-4.39-.16-1.09-.09.94-10,.9.08Zm9.86-.12-1-10,.89-.1,1.2,9.92Zm-15.3-.56c-.36-.06-.72-.12-1.08-.2l1.91-9.81.88.16Zm20.72-.25-2-9.81.9-.19,2.12,9.77Zm-26.08-1q-.52-.13-1.05-.3l2.87-9.58.87.25ZM739,447l-2.88-9.57.87-.27,3,9.52Zm-36.6-1.36-1-.41,3.81-9.24.83.33Zm41.74-.44-3.74-9.28.83-.34,3.93,9.2Zm-46.76-1.8-1-.51,4.7-8.82.81.42Zm51.72-.47L744.5,434l.8-.42,4.74,8.81Zm-56.49-2.26-.92-.6,5.56-8.31.76.49Zm61.21-.44-5.33-8.46.76-.49,5.49,8.36Zm-65.68-2.75c-.29-.22-.58-.46-.86-.69l6.36-7.72.69.56Zm70.14-.34-6-8,.73-.56,6.16,7.88ZM684,433.82l-.79-.77,7.09-7.05.64.63Zm78.44-.15-6.65-7.46.67-.61,6.79,7.34Zm3.88-3.75L759.06,423c.22-.22.43-.45.65-.68l7.31,6.82Zm-86.08-.1c-.24-.28-.47-.55-.7-.84l7.73-6.34c.19.24.39.47.59.7Zm89.64-3.9-7.7-6.38.57-.71,7.81,6.25C770.31,425.37,770.08,425.65,769.85,425.92Zm-92.94-.34-.6-.83,8.1-5.85.58.79Zm96.2-3.9L765,415.86l.54-.76,8.2,5.72Zm-99.18-.31-.58-.86,8.3-5.57.54.79Zm102.13-4.1-8.49-5.3c.17-.26.33-.53.5-.8l8.54,5.19C776.43,416.67,776.25,417,776.06,417.27Zm-105-.21-.55-.88,8.47-5.3.52.82Zm107.62-4.38-8.79-4.76.44-.83,8.85,4.65Zm-110.32,0-.52-.87,8.62-5.07.5.85Zm-2.56-4.43-.5-.9,8.75-4.84.48.85ZM781.1,408l-9.05-4.27.4-.86,9.09,4.18Zm-117.7-4.2L663,403l8.77-4.81.46.87Zm119.81-.63L774,399.38l.36-.9,9.29,3.7ZM661,399.35l-.47-.89,8.82-4.7.47.87Zm124-1.1-9.44-3.32L776,394l9.46,3.24ZM658.7,395l-.47-.84,8.71-4.91.51.91Zm128-1.74-9.58-2.88c.1-.3.18-.6.27-.9l9.61,2.77Zm-130.37-2.35-.48-.76,8.38-5.46c.2.3.39.61.59.93Zm-27-2.56-7.05-7.09s.35-.35,1-.92l6.55,7.56Zm158.73-.11-9.69-2.47c.08-.3.15-.61.23-.92l9.72,2.37C788.24,387.57,788.16,387.91,788.07,388.25Zm-134.28-.92c-.17-.21-.34-.42-.52-.62l7.54-6.57c.26.3.51.6.76.91Zm-21.29-1.4-5.45-8.39c.31-.2.64-.41,1-.61l5.18,8.55C633,385.63,632.72,385.78,632.5,385.93Zm18.61-1.3-.56-.4,5.6-8.28c.36.24.72.49,1.06.76Zm-15-.67-4-9.18,1.11-.46,3.6,9.34C636.65,383.75,636.4,383.85,636.16,384Zm153.09-.77-9.78-2.09.19-.94,9.8,2Zm-141-.13-.07,0h-.47l-1.06-.53,4.47-8.94L648.83,378v-5h.65l.62.16c.43.12.86.24,1.27.38l-2.54,7.57V383Zm-8.23-.33L637.89,373l1.19-.23,1.67,9.86Zm4.59-.35-.76,0,.18-10,1.25,0Zm145.67-4.29-9.86-1.7.16-.95,9.87,1.63ZM791,373l-9.91-1.35.13-1,9.92,1.32Zm.62-5.13-9.95-1,.1-1,10,1Zm.45-5.12-10-.74.07-1,10,.67Zm.31-5.14-10-.44,0-1,10,.41Zm.16-5.13-10-.17,0-1,10,.11Zm-10-5v-1l10-.15v1Zm-.1-4.88,0-1,10-.35,0,1Zm-.21-4.89,0-1,10-.59.06,1Zm-.31-4.88-.08-1,10-.79.07.94Zm-.42-4.87-.1-1,9.95-1,.1,1ZM781,323l-.11-1,9.93-1.17.12,1Zm-.61-4.87-.13-1,9.91-1.37.13,1Zm-.69-4.86-.14-.9,4.93-.84,4.94-.76.16,1Zm-.78-4.85-.16-1,9.85-1.69.16.91Zm-.86-4.85-.16-.88,4.9-1,4.91-.93.18,1Zm-.93-4.84-.2-1,9.8-2,.2,1Zm-1-4.82L776,293l9.76-2.16.21.94Zm-1.07-4.82-.22-1,9.73-2.28.24,1Zm-1.14-4.79-.23-.95,9.7-2.42.23.94Zm-1.2-4.79-.25-1,9.68-2.52.25,1Zm-1.27-4.78-.26-.95,9.65-2.63.27,1ZM770.15,270l-.27-1,9.62-2.75.28,1Zm-1.37-4.74-.28-.95,9.58-2.86.29,1Zm-1.44-4.81-.28-1,9.6-2.79.28.95ZM766,255.52l-.27-1,9.68-2.52.25.92Zm-1.27-5-.24-1,9.73-2.29.23.94Zm-1.15-5-.22-1,9.79-2.06.2.94Zm-1-5-.18-1,9.83-1.82.18.95Zm-.89-5.06-.15-.92,9.86-1.66.16,1Zm-.76-5.07-.14-1,9.91-1.32.13,1Zm-.63-5.1-.11-1,10-1,.1.95Zm-.48-5.12-.08-1,10-.73.07,1Zm-.33-5.14,0-1,10-.44,0,1Zm-.17-5.17,0-1,10-.16,0,1Zm10-5-10-.12,0-1,10,.21Zm.14-4.83-10-.44,0-1.05,10,.53Zm.3-4.82-10-.79.08-1,10,.82Zm.45-4.81-9.93-1.11.11-1,9.93,1.18Zm.62-4.78-9.89-1.46.15-1,9.89,1.52Zm.79-4.76L761.7,179l.18-1,9.83,1.85Zm1-4.72L762.72,174l.23-1,9.75,2.2Zm1.12-4.68-9.68-2.52.27-1,9.66,2.58Zm1.3-4.64-9.58-2.87.3-1,9.56,3Zm1.47-4.57L766.92,159l.33-1,9.45,3.28Zm1.64-4.52-9.33-3.6.37-1,9.31,3.64Zm1.81-4.45-9.18-4,.41-1,9.16,4Zm258.07-2.38,4-3Zm-256.08-2-9-4.31.45-.93,9,4.37Zm259.65-.68,4.43-3.32.18.25Zm-5.94-.61-.58-.79,8-5.95.61.83ZM784,144.6l-8.85-4.66.49-.91,8.81,4.72Zm248.63-.9-.6-.78,7.89-6.13.62.8Zm-246.31-3.3-8.66-5,.52-.88,8.63,5.05Zm243.29-.52-.62-.76,7.74-6.34.64.79Zm-240.81-3.6L780.31,131l.57-.89,8.4,5.42Zm237.69-.15-.64-.75,7.59-6.52.66.77Zm-3.21-3.68-.65-.72L1030,125l.69.77Zm-231.83-.18-8.25-5.66.6-.86,8.19,5.74ZM1020,128.86l-.67-.71,7.24-6.89.71.74Zm-225.74-.5-8-6c.21-.29.42-.57.64-.85l7.95,6.07Zm222.35-3-.69-.7,7.07-7.07.72.72Zm-219.39-.79-7.76-6.31.65-.8,7.72,6.36ZM1013.1,122l-.71-.67,6.88-7.27.74.71Zm-212.81-1.06-7.51-6.61.68-.77,7.47,6.65Zm209.24-2.26-.71-.65,6.67-7.45.77.7Zm-206-1.3-7.26-6.88c.24-.26.48-.51.73-.76l7.18,7C804,116.87,803.75,117.1,803.54,117.33Zm202.34-1.92-.73-.63,6.47-7.62.79.67Zm-199-1.5-7-7.16.74-.72,6.93,7.21Zm195.25-1.61-.76-.61,6.26-7.8.8.64Zm-191.74-1.67-6.69-7.44.77-.69,6.64,7.48Zm187.92-1.35-.77-.58,6-8,.82.62Zm-184.29-1.81-6.4-7.68.79-.65,6.36,7.71Zm180.4-1.08-.79-.57,5.8-8.14.84.6ZM817.8,104.46l-6.11-7.92.82-.62,6.06,8Zm172.66-.86-.8-.54,5.58-8.31.85.58Zm-168.8-2-5.81-8.14.84-.59,5.76,8.17Zm164.75-.66-.81-.51L990.92,92l.88.55ZM825.63,98.87l-5.51-8.35L821,90l5.45,8.39Zm156.64-.49-.82-.49,5.08-8.62.9.53ZM829.68,96.29l-5.19-8.54.87-.53,5.16,8.57ZM978.08,96l-.84-.46,4.82-8.77.9.51ZM833.84,93.86,829,85.14l.91-.5,4.82,8.76Zm140-.2-.86-.45,4.55-8.9.91.47ZM838.08,91.59l-4.57-8.9.92-.46,4.5,8.92Zm131.4-.1-.87-.42,4.28-9,.93.45Zm-127.09-2-4.24-9,.92-.44,4.2,9.08Zm122.69,0-.89-.39,4-9.16.95.42Zm-4.45-1.89-.9-.37,3.72-9.28.95.38ZM846.78,87.5l-3.92-9.2.94-.4,3.88,9.22Zm109.33-1.71-.91-.33,3.43-9.4,1,.36Zm-104.87-.1-3.6-9.33,1-.37,3.53,9.36Zm100.31-1.52-.92-.31,3.13-9.49,1,.32ZM855.76,84l-3.28-9.44,1-.34,3.21,9.47Zm91.18-1.34-.94-.27,2.85-9.59,1,.29Zm-86.6-.16-3-9.55,1-.3,2.9,9.57Zm81.94-1.17-.94-.25,2.54-9.67,1,.27ZM865,81.19l-2.62-9.65,1-.26,2.55,9.66Zm72.63-1-.94-.22,2.23-9.75,1,.24Zm-68-.17-2.29-9.73,1-.24,2.23,9.75Zm63.23-.87-.94-.19,1.91-9.81,1,.2ZM874.33,79l-2-9.8,1-.2,1.9,9.82Zm53.76-.72-1-.16,1.61-9.87,1,.17Zm-49-.14-1.64-9.87,1-.17L880,78Zm44.25-.59-1-.13,1.29-9.92,1,.14Zm-39.47-.13-1.31-9.91,1-.13,1.24,9.92ZM918.51,77l-1-.1,1-9.95,1,.1Zm-29.87-.1-1-9.95,1-.1.89,10Zm25.06-.32-1-.07.65-10,1,.07Zm-20.24-.07-.65-10,1-.06.58,10Zm15.43-.2-.95,0,.32-10,1,0Zm-10.61,0-.33-10,1,0,.25,10Zm5.79-.07h-1v-10h1Z" transform="translate(0.48 0.49)"/><path class="cls-14" d="M306.23,433.92c-19.73,0-37.83-13-47.66-27.24-11.72-17-18.44-38.48-19.41-62.18-1.52-36.81,2.79-67.23,6.58-94.07,5.14-36.37,9.58-67.78-2.76-101.86-10.25-28.32-41.86-40.47-68-42.4-30-2.2-66.74,7.74-81.39,34.91l-8.81-4.74c7.56-14,20.75-25.18,38.13-32.28,15.72-6.42,34.47-9.21,52.8-7.86,37.37,2.75,66.76,21.51,76.7,49,13.18,36.42,8.58,69,3.25,106.66-3.73,26.41-8,56.36-6.49,92.26.9,21.81,7,41.48,17.65,56.91,9.82,14.23,29.23,27.08,48.61,21.67,16.51-4.61,26.32-20.6,30-34,4.48-16.34,2.88-33.82.87-50.32-1.29-10.59-3.06-25.08,5.57-35.58,11-13.35,32.15-11.37,47.39-2.5l-5,8.64c-11.3-6.57-27.28-8.73-34.64.21-5.45,6.64-4.7,17-3.36,28,2,16.72,3.8,36.08-1.16,54.17-5.62,20.5-19.79,36.22-37,41A44.13,44.13,0,0,1,306.23,433.92Z" transform="translate(0.48 0.49)"/><polygon class="cls-16" points="93.96 141.72 85.32 136.69 85.6 136.21 94.19 141.34 93.96 141.72"/><path class="cls-16" d="M308.53,433.84l-.48-10,.87-.05.75,10Zm-4.5,0c-.37,0-.75,0-1.12-.07l.75-10,.88.06Zm-5.56-.61-1.1-.2,1.89-9.82.88.16Zm15.69,0-1.78-9.84.86-.16,2,9.79Zm-21.1-1.2-1.07-.32,2.93-9.56.85.25Zm26.6-.17-3.05-9.52.83-.28,3.3,9.44Zm-31.83-1.6-1-.42,3.85-9.23.84.35Zm37.09-.47-4.24-9.05.79-.38,4.47,8.94ZM282.83,428l-1-.5,4.68-8.84.81.43Zm47-.9-5.31-8.47.74-.48,5.52,8.34C330.49,426.67,330.17,426.87,329.85,427.07Zm-51.77-1.78c-.31-.19-.62-.38-.92-.58l5.43-8.39.78.49Zm56.32-1.45L328.16,416l.69-.56,6.41,7.67C335,423.38,334.69,423.61,334.4,423.84Zm-60.8-1.61-.87-.65,6.11-7.92.73.55Zm64.93-2.06-7-7.12.63-.64,7.17,7Zm-69.15-1.35-.8-.72,6.72-7.4.69.61Zm72.87-2.69-7.68-6.42.58-.69,7.79,6.26Zm-76.78-1.05-.75-.78,7.3-6.84.63.67Zm80.09-3.3-8.23-5.69.52-.76,8.32,5.55Zm-83.7-.74-.68-.84L269,404l.58.71Zm86.59-3.85-8.66-5,.44-.79,8.76,4.83C348.81,406.56,348.64,406.87,348.45,407.19Zm-89.77-.36-.1-.14h0l-.59-.86,8.3-5.58c.17.25.33.49.51.74l.08.12-3.72,2.42ZM351,402.38l-9-4.26c.14-.28.26-.56.39-.84l9.11,4.12C351.27,401.73,351.11,402.05,351,402.38Zm-95.25-.1c-.19-.3-.37-.6-.55-.91l8.58-5.13c.17.27.33.54.49.81Zm-2.64-4.57-.5-.93,8.84-4.68.45.84Zm100-.31-9.35-3.54c.11-.28.21-.57.32-.86l9.41,3.38ZM250.68,393l-.45-.95,9.07-4.22.4.86Zm104.1-.74-9.6-2.79.24-.84,0-.12,9.61,2.78C355,391.62,354.88,392,354.78,392.27Zm-106.25-4.06-.4-1,9.26-3.79.37.89Zm107.56-1.13L346.32,385c.07-.3.13-.61.2-.91l9.79,2C356.24,386.38,356.17,386.73,356.09,387.08Zm-109.47-3.76-.36-1,9.43-3.34.32.91Zm110.45-1.46-9.89-1.54c.05-.31.1-.62.14-.93l9.9,1.41Zm-112.14-3.5-.3-1,9.56-2.92.29.92Zm112.8-1.75-10-1,.09-.95,10,.9Zm-114.25-3.27-.27-1,9.68-2.5.25.93Zm114.64-2-10-.51,0-1,10,.43Zm-115.89-3.1-.22-1,9.78-2.09.2.93Zm116-2.12-10-.09v-1h10Zm-117.08-3-.18-1,9.86-1.7.16.95Zm107-1.93,0-1,10-.34,0,1ZM240.38,358l-.14-1,9.91-1.31.13.95ZM348,356.37l-.06-1,10-.64.07,1Zm-108.27-3.53-.1-1,10-.94.09,1Zm107.93-1.35-.08-1,10-.87.08,1Zm-108.35-3.82-.07-1.05,10-.55.05.95Zm107.89-1.07-.1-1,9.95-1.05.1,1Zm-108.14-4.09,0-1,10-.33,0,1Zm107.61-.83-.12-1,9.93-1.17.12,1Zm-107.75-4.24,0-1,10-.19,0,1Zm107.16-.73-.12-1,9.93-1.14.12,1Zm-107.24-4.35v-1l10-.06v1Zm106.7-.79-.08-1,10-.77.07,1Zm-96.71-4.24-10-.06v-1l10,.08Zm96.4-1.07c0-.36,0-.72,0-1.07l10-.11c0,.31,0,.62,0,.93Zm-96.34-3.88-10-.18,0-1,10,.22Zm106.42-.91-10-.69c0-.37.05-.74.09-1.12l9.95.93C355.38,320.88,355.35,321.17,355.33,321.47Zm-106.3-4-10-.3,0-1,10,.34Zm106.88-.24-9.79-2.06c.08-.38.17-.76.26-1.13l9.71,2.37Zm1.18-3.9-9.23-3.84c.15-.37.32-.75.49-1.11l9.06,4.23C357.3,312.81,357.19,313.05,357.09,313.29Zm-107.87-.78-10-.47.05-1,10,.46ZM359,309.91l-8.12-5.83q.36-.49.75-1l7.83,6.22Zm-109.48-2.36-10-.57.06-1,10,.6Zm112-.4-6.44-7.65c.32-.27.65-.53,1-.78l6.05,8Zm29-.2-.82-.37,4-9.17,1,.45Zm-4.19-1.68-.85-.28,3.05-9.52,1,.34Zm-21.6-.18-4.4-9c.37-.18.75-.36,1.13-.52l4,9.18ZM382,304l-.87-.19,2-9.79,1.08.23Zm-13.59-.27L366,294.05l1.18-.26,2,9.8Zm9.24-.47-.88-.08.82-10,1.12.11Zm-5.17-.13-.62-10,1.16-.05.31,10C373,303.13,372.73,303.15,372.45,303.17Zm-122.66-.56-10-.69.07-1,10,.72Zm.37-4.94-10-.81.08-1,10,.82Zm.42-4.95-10-.9.09-1,9.95.94Zm.48-4.94-9.95-1,.11-1,9.94,1Zm.53-4.93-9.94-1.11.11-1,9.94,1.12Zm.56-4.94-9.93-1.19.13-1,9.92,1.2Zm.61-4.94-9.92-1.26.13-1,9.92,1.27Zm.64-4.94-9.91-1.32.13-1,9.91,1.31Zm.67-4.94-9.91-1.37.14-1,9.9,1.36Zm.68-5-9.9-1.39.14-1,9.9,1.39Zm.7-5-9.9-1.39.14-1,9.9,1.4Zm.7-5-9.9-1.4.14-1,9.9,1.39Zm.7-5-9.91-1.37.14-1,9.91,1.36Zm.68-5-9.91-1.34.13-1,9.91,1.31Zm.65-5L248.26,232l.13-1,9.92,1.24Zm.62-5-9.93-1.16.11-1,9.94,1.15Zm.57-5-10-1.06.11-1,9.94,1Zm.5-5.11-10-.86.09-1,10,.88Zm.42-5-10-.75.07-1,10,.72Zm.34-5.1-10-.55.05-1,10,.51Zm.22-5.1-10-.34,0-1,10,.28Zm.11-5.15-10-.05v-1l10,0Zm-10-4.93,0-1,10-.25,0,1Zm-.16-4.86-.06-1,10-.55.05,1Zm-.32-4.85-.09-1,10-.89.09,1Zm-.48-4.82-.12-1,9.93-1.23.12,1Zm-.65-4.8-.14-1,9.87-1.58.16,1Zm-.81-4.76-.19-.95,9.81-1.93.2,1Zm-1-4.73-.22-.94,9.73-2.31.23,1Zm-1.17-4.68-.25-.94,9.63-2.66.28,1ZM245,154.63l-.29-.94,9.54-3,.3,1ZM243.5,150l-.32-.91,9.42-3.37.34,1Zm-1.66-4.36-.37-.84,9.12-4.1c.15.33.29.66.44,1Zm-2-4.13c-.14-.27-.29-.53-.44-.8l8.74-4.87.52,1ZM95.7,137.73l-8.24-5.66c.2-.3.41-.59.62-.89l8.15,5.8Zm141.82-.13-.51-.76,8.29-5.6c.21.3.41.61.61.91ZM98.47,134l-7.77-6.3.69-.84,7.66,6.43Zm136.39-.18-.57-.71,7.79-6.27c.23.28.46.56.68.85Zm-133.34-3.29-7.25-6.88c.24-.26.5-.52.75-.78l7.14,7Zm130.37-.22-.63-.68,7.27-6.87c.25.26.49.53.73.79Zm-127-3-6.73-7.4.8-.71,6.62,7.49Zm123.79-.27-.68-.63,6.72-7.41.8.74Zm-120.24-2.74-6.19-7.85c.28-.22.56-.44.85-.65l6.07,7.94ZM225.13,124l-.74-.58,6.16-7.87.85.67Zm-113-2.45-5.65-8.25c.29-.2.58-.4.88-.59l5.55,8.31Zm109.24-.35-.78-.53,5.6-8.28c.3.2.6.4.89.61ZM116.11,119,111,110.44l.92-.54,5,8.65Zm101.34-.36c-.26-.17-.53-.33-.8-.48l5-8.63.91.54Zm-97.23-1.94-4.62-8.87.94-.48,4.52,8.92Zm93.13-.37-.84-.43L217,107l.94.48Zm-88.88-1.7-4.12-9.11,1-.43,4,9.16Zm84.63-.36-.86-.38,4-9.17,1,.43Zm-80.26-1.47-3.63-9.32,1-.38,3.53,9.36Zm75.89-.35-.89-.34,3.5-9.37,1,.38Zm-71.42-1.27-3.15-9.49,1-.32,3.07,9.52Zm66.94-.32-.91-.29,3-9.54,1,.32Zm-62.38-1.07-2.7-9.63,1-.28,2.61,9.66Zm57.82-.3-.93-.25,2.54-9.67,1,.27Zm-53.19-.88-2.26-9.75,1-.23,2.15,9.77C143.11,108.49,142.81,108.56,142.5,108.64Zm48.55-.26-.94-.21,2.06-9.78,1,.22Zm-43.87-.71-1.81-9.84,1-.18,1.72,9.85Zm39.15-.22-.93-.16L187,97.42l1,.18Zm-34.42-.55L150.53,97l1-.14,1.29,9.92Zm29.68-.17-1-.11,1.18-9.93,1.05.12Zm-24.92-.38-.95-10,1.05-.09.86,10Zm20.14-.12-.95-.08.75-10,1,.08ZM161.46,106l-.53-10,1-.05.44,10Zm10.56-.06-1,0,.32-10,1.05,0Zm-5.76-.09-.1-10h1l0,10Z" transform="translate(0.48 0.49)"/><polygon class="cls-16" points="394.7 309.39 394.31 309.16 399.24 300.46 399.72 300.74 394.7 309.39"/></g><circle class="cls-12" cx="565.25" cy="327.4" r="29.48"/><ellipse class="cls-4" cx="552.33" cy="334.38" rx="6.1" ry="12.05" transform="translate(-78.12 197.71) rotate(-18.93)"/><ellipse class="cls-17" cx="551.81" cy="334.54" rx="4.22" ry="7.81" transform="translate(-78.2 197.55) rotate(-18.93)"/><ellipse class="cls-18" cx="551.35" cy="334.72" rx="3.82" ry="7.54" transform="translate(-78.28 197.41) rotate(-18.93)"/><rect class="cls-12" x="898.3" y="288.71" width="53.95" height="98.14" transform="translate(-21.07 66.7) rotate(-4.05)"/><polygon class="cls-10" points="914.82 388.51 902.31 389.13 895.38 291.23 903.39 293.2 914.82 388.51"/><polygon class="cls-10" points="962.35 277.63 928.54 273.5 924.09 278.2 948.75 285.62 962.35 277.63"/><path class="cls-10" d="M849.85,323.26s-4.74,6.45,4.14,11c5.31,2.74,18.39,11.6,28,18.27a12.77,12.77,0,0,0,18.34-4.16l8-14-1.32-36-12.14,1.17-6.31,18.78L859,309.48Z" transform="translate(0.48 0.49)"/><polygon class="cls-11" points="917.66 276.62 945.64 280.89 969.8 372.95 931.2 367.12 917.66 276.62"/><path class="cls-12" d="M983,368.86l-13.7,3.6L945.16,280.4l13.7-3.6a7.52,7.52,0,0,1,9.17,5.36l20.35,77.54A7.5,7.5,0,0,1,983,368.86Z" transform="translate(0.48 0.49)"/><rect class="cls-11" x="824.59" y="301.15" width="27.19" height="193.94" transform="translate(214.98 -288.46) rotate(22.36)"/><path class="cls-4" d="M806.5,490.19l-.1,0a.25.25,0,0,1-.13-.33l73.78-179.35a.25.25,0,0,1,.33-.14.25.25,0,0,1,.13.33L806.73,490A.25.25,0,0,1,806.5,490.19Z" transform="translate(0.48 0.49)"/><path class="cls-11" d="M496.3,310.07s-3.05-6,3.67-13.91c3.77-4.43,10.87-12.72,13.32-11,1.78,1.22-2.41,7.1-2.41,7.1s5.08-5.83,6.73-4.31-5,10.27-5,10.27.76,10.66-1,16.49-4.31,8.37-4.31,8.37Z" transform="translate(0.48 0.49)"/><path class="cls-11" d="M699,500.63l-.39-28.87a4.21,4.21,0,0,0-3.66-4.11l-50.13-6.52-31.57,22.65,74.46,9.4,6,8.75a3.2,3.2,0,0,0,2.62,1.37h0A2.63,2.63,0,0,0,699,500.63Z" transform="translate(0.48 0.49)"/><path class="cls-11" d="M582.69,496.31l60.73,27.31,4.74,18.1a3.23,3.23,0,0,0,1.82,2.13h0a3.35,3.35,0,0,0,4.6-2.34l7.23-32.27a9.61,9.61,0,0,0-4.49-10.38L616.1,474.47Z" transform="translate(0.48 0.49)"/><path class="cls-19" d="M775.58,622.09h6.49a2.83,2.83,0,0,0,2.83-2.83V598.44H772.75v20.82A2.83,2.83,0,0,0,775.58,622.09Z" transform="translate(0.48 0.49)"/><path class="cls-19" d="M747.66,612.1l6,2.55a2.84,2.84,0,0,0,3.72-1.5L765.51,594l-11.18-4.77-8.16,19.15A2.83,2.83,0,0,0,747.66,612.1Z" transform="translate(0.48 0.49)"/><polygon class="cls-17" points="753.14 593.48 763.27 600.83 764.61 597.63 753.14 593.48"/><polygon class="cls-17" points="773.22 601.75 785.37 609.78 785.37 605.75 773.22 601.75"/><path class="cls-19" d="M725.22,602.1l-4.59-4.59a2.82,2.82,0,0,1,0-4l14.72-14.72,8.59,8.59L729.22,602.1A2.82,2.82,0,0,1,725.22,602.1Z" transform="translate(0.48 0.49)"/><polygon class="cls-17" points="730.99 583.78 739.73 592.57 744.42 587.88 730.99 583.78"/><polygon class="cls-10" points="437.66 409.93 381.85 391.91 435.63 295.26 459.9 302.95 437.66 409.93"/><circle class="cls-11" cx="442.91" cy="278.52" r="31.03"/><circle class="cls-12" cx="905.56" cy="268.21" r="37.28"/><path class="cls-12" d="M930.14,240.12a37.27,37.27,0,0,1-48.85,56.29,37.28,37.28,0,1,0,48.85-56.29Z" transform="translate(0.48 0.49)"/><path class="cls-4" d="M905.05,305.25a38.11,38.11,0,0,1-4.66-.29.25.25,0,0,1,.06-.5,37.34,37.34,0,0,0,7.25.2A36.87,36.87,0,0,0,937.86,285a.25.25,0,0,1,.34-.1.24.24,0,0,1,.1.34,37.32,37.32,0,0,1-30.56,19.95C906.84,305.22,906,305.25,905.05,305.25Z" transform="translate(0.48 0.49)"/><path class="cls-11" d="M449.11,321.4,397.25,424.9a14.67,14.67,0,0,1-20.49,6.1l-57-33.24L304,404.85a5.09,5.09,0,0,1-4.5-.16h0a1.32,1.32,0,0,1-.57-1.71l17.74-38.16a4.54,4.54,0,0,1,5.74-2.33l53.88,20.56,39.83-94.63L461,303.14Z" transform="translate(0.48 0.49)"/><path class="cls-10" d="M391,425.38a25.7,25.7,0,0,0-11.89,2.55,13.85,13.85,0,0,0-3.41,2.43l1.09.64a14.66,14.66,0,0,0,19.86-5A23.88,23.88,0,0,0,391,425.38Z" transform="translate(0.48 0.49)"/><path class="cls-7" d="M459.72,304.4l13.41,26,23.17-20.3,12.34,13.53-29,31.51a14.06,14.06,0,0,1-20.73,0l-20.1-22Z" transform="translate(0.48 0.49)"/><path class="cls-4" d="M360.26,397.59l43.27-25-11.29-27.37L376.3,383.05,325.08,363.5l12.12,26A17.12,17.12,0,0,0,360.26,397.59Z" transform="translate(0.48 0.49)"/><path class="cls-11" d="M405.48,371.63l-46.81,23A14.63,14.63,0,0,1,339,387.7l-23.62-50.57-21.93-9.47a4.43,4.43,0,0,1-2.29-2.24h0a2.43,2.43,0,0,1,1.47-3.33l38.24-12.28a5.79,5.79,0,0,1,6.8,2.64c6.1,10.66,22.15,38.68,22.7,39.23s29.77-17.42,29.77-17.42Z" transform="translate(0.48 0.49)"/><path class="cls-10" d="M338.85,314.6l-1.23-2.15a5.79,5.79,0,0,0-6.8-2.64l-2.12.69A14.48,14.48,0,0,0,338.85,314.6Z" transform="translate(0.48 0.49)"/><path class="cls-10" d="M357.45,392.07a22.54,22.54,0,0,0-5.55-3.24,30.79,30.79,0,0,0-6.54-2.1,23.34,23.34,0,0,0-6.93-.15l.52,1.12a14.63,14.63,0,0,0,19.72,6.94l.78-.38A10.38,10.38,0,0,0,357.45,392.07Z" transform="translate(0.48 0.49)"/><path class="cls-7" d="M510.72,378.4l9.87,26.67a12.16,12.16,0,0,0,17.94,6L575,387.88l-11.45-26.52A11.39,11.39,0,0,0,543,359.24L531.6,378.4,527.75,370Z" transform="translate(0.48 0.49)"/><path class="cls-4" d="M909,341.19a.25.25,0,0,1-.22-.12L896.4,321.31a3.48,3.48,0,0,1,0-3.75l4.17-6.35-8.85-2.2a.25.25,0,0,1,.12-.49l9.19,2.29a.26.26,0,0,1,.17.15.26.26,0,0,1,0,.23l-4.36,6.64a3,3,0,0,0,0,3.21l12.4,19.76a.26.26,0,0,1-.08.35A.33.33,0,0,1,909,341.19Z" transform="translate(0.48 0.49)"/><path class="cls-4" d="M331.66,372.1a.25.25,0,0,1-.1-.47L361,358.22a.25.25,0,0,1,.33.12.26.26,0,0,1-.13.34l-29.46,13.4A.22.22,0,0,1,331.66,372.1Z" transform="translate(0.48 0.49)"/><path class="cls-4" d="M468.84,294.44a31.06,31.06,0,0,1-42.23-4.15l7.24-19.4s15.4,6.91,39.61,7.13c0,0-.65,6-1.12,7.64C471.65,288.1,468.84,294.44,468.84,294.44Z" transform="translate(0.48 0.49)"/><path class="cls-20" d="M766.12,714.27h107a7.55,7.55,0,0,1,7.15,5.16l4.07,12.25H749l11.15-14.47A7.52,7.52,0,0,1,766.12,714.27Z" transform="translate(0.48 0.49)"/><path class="cls-4" d="M504.55,327.8a.24.24,0,0,1-.18-.07l-13.09-13.41a.25.25,0,1,1,.35-.35l13.1,13.41a.25.25,0,0,1,0,.35A.23.23,0,0,1,504.55,327.8Z" transform="translate(0.48 0.49)"/><path class="cls-4" d="M509.37,323.82a.24.24,0,0,1-.18-.07l-13.1-13.41a.25.25,0,0,1,0-.35.24.24,0,0,1,.35,0l13.09,13.41a.24.24,0,0,1,0,.35A.23.23,0,0,1,509.37,323.82Z" transform="translate(0.48 0.49)"/><path class="cls-14" d="M520.18,329.18l-6.91-15.33,3.72-20-10.78-2-3.71,20h-.06l-12.35,11.77a1.9,1.9,0,0,0,1,3.24l27.05,5A1.9,1.9,0,0,0,520.18,329.18Z" transform="translate(0.48 0.49)"/><path class="cls-10" d="M518.28,327.94,512,314.4l.88-4.73-8.5-1.58-.87,4.69h-.06l-11.12,10.32a1.41,1.41,0,0,0,.65,2.55l23.81,4.43C518.07,330.31,518.83,329.17,518.28,327.94Z" transform="translate(0.48 0.49)"/><polygon class="cls-21" points="506.24 294.77 506.69 292.32 517.32 295.1 506.24 294.77"/><rect class="cls-14" x="505.09" y="291.41" width="13.51" height="2.29" rx="1.09" transform="matrix(0.98, 0.18, -0.18, 0.98, 62.53, -88.08)"/><circle class="cls-22" cx="511.06" cy="307" r="0.29"/><circle class="cls-22" cx="510.42" cy="298.23" r="0.2"/><circle class="cls-22" cx="508.06" cy="301.26" r="0.73"/><circle class="cls-22" cx="513.34" cy="302.57" r="0.46"/><circle class="cls-14" cx="505.64" cy="314.02" r="0.7"/><circle class="cls-14" cx="512.08" cy="325.67" r="0.52"/><circle class="cls-14" cx="500.89" cy="320.38" r="0.52"/><circle class="cls-14" cx="509.38" cy="319.19" r="0.29"/><g class="cls-23"><path class="cls-11" d="M364.41,564.78a20.69,20.69,0,0,0-8.91-17,30,30,0,0,0-39.18-41.11,12.77,12.77,0,0,0-25.14,1.4,30,30,0,0,0-23.3,54.81,12.77,12.77,0,0,0,5.41,24.34,14.74,14.74,0,0,0,1.5-.09h9.09A14.65,14.65,0,0,1,298.53,602l-.1,7.45h22.62v-3.19a10.36,10.36,0,0,1,10.36-10.36h0a13.23,13.23,0,0,0,1.79.14,12.77,12.77,0,0,0,12.57-10.58A20.74,20.74,0,0,0,364.41,564.78Z" transform="translate(0.48 0.49)"/></g><path class="cls-24" d="M366.51,638a18.65,18.65,0,0,1-18.63-18.63V600.06a14,14,0,0,0-28.1,0v21.15h-5V600.06a19.05,19.05,0,0,1,38.1,0v19.27a13.63,13.63,0,1,0,27.25,0V508.1a24.71,24.71,0,0,1,49.41,0V527h-5V508.1a19.71,19.71,0,0,0-39.41,0V619.33A18.65,18.65,0,0,1,366.51,638Z" transform="translate(0.48 0.49)"/><path class="cls-10" d="M555,610a2.5,2.5,0,0,1-2.5-2.5V590.23a14.78,14.78,0,0,0-29.56,0A19.8,19.8,0,0,1,503.19,610h-3.77a19.81,19.81,0,0,1-19.79-19.78v-82a20.12,20.12,0,0,0-40.24,0v11.94a2.5,2.5,0,0,1-5,0V508.22a25.12,25.12,0,0,1,50.24,0v82A14.8,14.8,0,0,0,499.42,605h3.77A14.8,14.8,0,0,0,518,590.23a19.78,19.78,0,0,1,39.56,0v17.28A2.5,2.5,0,0,1,555,610Z" transform="translate(0.48 0.49)"/><path class="cls-6" d="M310.79,765.22A57.65,57.65,0,0,1,282.05,657.6l.52-44.67H335.4l.44,42.7a57.66,57.66,0,0,1-25,109.59ZM283.06,613.43l-.52,44.46-.12.07a57.14,57.14,0,1,0,53.07-2l-.14-.07v-.15l-.43-42.36Z" transform="translate(0.48 0.49)"/><path class="cls-6" d="M433.47,764.69A27.5,27.5,0,0,1,406,737l1.14-212.34H460v.24l1,212.12a27.48,27.48,0,0,1-27.49,27.63ZM407.62,525.2,406.48,737a27,27,0,1,0,54,0l-1-211.86Z" transform="translate(0.48 0.49)"/><path class="cls-14" d="M455.31,559.94H411.75l-.95,176.53a22.67,22.67,0,0,0,22.67,22.8h0a22.66,22.66,0,0,0,22.67-22.79Z" transform="translate(0.48 0.49)"/><path class="cls-7" d="M431.5,755.63a17.77,17.77,0,0,1-17.76-17.86L414.38,619a2.49,2.49,0,0,1,2.5-2.49h0a2.51,2.51,0,0,1,2.49,2.52l-.64,118.81a12.75,12.75,0,0,0,12.76,12.84,2.5,2.5,0,1,1,0,5Z" transform="translate(0.48 0.49)"/><path class="cls-6" d="M614.35,765.53H499.56A8.15,8.15,0,0,1,493,752.6l41.77-57.82h.15V610.05h46.21v85.1l40,57.58a8.15,8.15,0,0,1-6.7,12.8ZM535,695.28l-41.63,57.61A7.66,7.66,0,0,0,499.56,765H614.35a7.65,7.65,0,0,0,6.29-12L580.58,695.3V610.55H535.37v84.73Z" transform="translate(0.48 0.49)"/><path class="cls-10" d="M612.14,749.22,575.88,698.5V678.42H539.82v19.91h-.23l-37.74,50.78c-3.33,4.6-1.08,10,4.6,10h101C613.08,759.1,615.34,753.83,612.14,749.22Z" transform="translate(0.48 0.49)"/><circle class="cls-10" cx="564.69" cy="667.66" r="1.2"/><circle class="cls-10" cx="441.27" cy="626.47" r="1.2"/><circle class="cls-10" cx="422.27" cy="688.84" r="1.2"/><circle class="cls-10" cx="555.39" cy="632.18" r="0.84"/><circle class="cls-10" cx="418.73" cy="646.18" r="0.84"/><circle class="cls-10" cx="548.02" cy="646.39" r="3.05"/><circle class="cls-10" cx="422.92" cy="610.25" r="3.05"/><circle class="cls-10" cx="444.81" cy="722.15" r="3.05"/><circle class="cls-10" cx="428.12" cy="661.55" r="3.05"/><circle class="cls-10" cx="570.7" cy="647.75" r="1.93"/><circle class="cls-10" cx="315.43" cy="636.39" r="1.93"/><circle class="cls-10" cx="446.37" cy="665.45" r="1.93"/><circle class="cls-14" cx="547.82" cy="700.57" r="2.92"/><circle class="cls-14" cx="583.12" cy="743.45" r="2.17"/><circle class="cls-14" cx="533.2" cy="730.3" r="2.17"/><path class="cls-11" d="M257.43,705.68c0,.2,0,.4,0,.59a53.63,53.63,0,0,0,107.26,0c0-.19,0-.39,0-.59Z" transform="translate(0.48 0.49)"/><circle class="cls-14" cx="567.09" cy="718.96" r="1.2"/><circle class="cls-14" cx="339.53" cy="720.51" r="1.2"/><circle class="cls-14" cx="290.28" cy="715.06" r="1.2"/><circle class="cls-14" cx="316.01" cy="738.45" r="1.2"/><circle class="cls-14" cx="310.05" cy="725.18" r="2.41"/><circle class="cls-14" cx="286.73" cy="736.96" r="2.41"/><circle class="cls-17" cx="907.66" cy="615.07" r="29.66"/><circle class="cls-20" cx="907.66" cy="613.14" r="28.34"/><polygon class="cls-17" points="810.43 541.82 822.32 540.6 846.7 466.54 810.43 541.82"/><rect class="cls-9" x="769.19" y="390.41" width="65.1" height="193.94" transform="translate(246.2 -267.88) rotate(22.36)"/><path class="cls-7" d="M780.15,583.6h-.09a.26.26,0,0,1-.14-.33l73.79-179.35a.25.25,0,0,1,.32-.14.25.25,0,0,1,.14.33L780.39,583.45A.25.25,0,0,1,780.15,583.6Z" transform="translate(0.48 0.49)"/><polygon class="cls-17" points="808.81 385.94 864.38 420.52 869.02 410.7 808.81 385.94"/><path class="cls-14" d="M729.09,576.68h65.1a0,0,0,0,1,0,0v15a4.24,4.24,0,0,1-4.24,4.24H733.34a4.24,4.24,0,0,1-4.24-4.24v-15A0,0,0,0,1,729.09,576.68Z" transform="translate(280.82 -245.19) rotate(22.36)"/><path class="cls-11" d="M819.59,369.24,872,390.78a4.25,4.25,0,0,1,2.31,5.54l-5.72,13.89-60.2-24.77,5.71-13.89A4.24,4.24,0,0,1,819.59,369.24Z" transform="translate(0.48 0.49)"/><rect class="cls-19" x="809.29" y="389.25" width="65.1" height="0.6" transform="translate(1472.65 1070.58) rotate(-157.64)"/><path class="cls-12" d="M834.79,354.86l36.44,15a4.25,4.25,0,0,1,2.32,5.54l-5.72,13.89-44.29-18.22,5.71-13.89A4.25,4.25,0,0,1,834.79,354.86Z" transform="translate(0.48 0.49)"/><path class="cls-4" d="M371.88,389a.25.25,0,0,1-.23-.15L361,363.43a.23.23,0,0,1,.13-.32.24.24,0,0,1,.33.13l10.61,25.42a.23.23,0,0,1-.13.32A.18.18,0,0,1,371.88,389Z" transform="translate(0.48 0.49)"/><rect class="cls-11" x="846.63" y="335.42" width="19.26" height="35.92" transform="translate(204.16 1011.29) rotate(-67.64)"/><rect class="cls-20" x="701.02" y="631.42" width="104.84" height="9.45" rx="3.96"/><path class="cls-11" d="M923.49,753.25l-15.65-18.74c-1.27-1.67-2.91-2.8-6.08-2.8H729.08a3.82,3.82,0,0,0-2.62,1l-21.89,20.5Z" transform="translate(0.48 0.49)"/><path class="cls-11" d="M924.21,762.69H699.08a2.42,2.42,0,0,0,1.38.41H924a3.82,3.82,0,0,0,2-.54,3.5,3.5,0,0,0,.64-.49A4.76,4.76,0,0,1,924.21,762.69Z" transform="translate(0.48 0.49)"/><path class="cls-7" d="M354.91,340.18,341.38,376h0a19.22,19.22,0,0,0,22.07,1.08l34.21-21.59a22.31,22.31,0,0,0,8.07-8.92l18.35-36.7-10.65-20.63-2-7.44h0a19.94,19.94,0,0,0-18.14,2.53l-23.68,16.78A14.93,14.93,0,0,0,365,317.86l6.12,16.57-11.66,8.62Z" transform="translate(0.48 0.49)"/><polygon class="cls-7" points="420.84 404.26 427.6 359.1 442.82 318.35 460.75 304.81 465.22 314.53 455.17 315.13 455.68 321.9 450.09 348.79 437.58 410.18 420.84 404.26"/><path class="cls-10" d="M983.68,396.6,960,424.46l-7.23-6.72a28.53,28.53,0,0,1-8-13.16l-22.33-79.12L920.31,299l17.89-13.75,7,3.78,11,1.34a16.46,16.46,0,0,1,14,12.33l11.92,47.6a15.75,15.75,0,0,1-8.94,18.24l-6.06,2.66Z" transform="translate(0.48 0.49)"/><g class="cls-25"><rect class="cls-20" x="817.77" y="364.22" width="22.56" height="1" transform="translate(184.02 1000.56) rotate(-68.29)"/><rect class="cls-20" x="822.34" y="366.14" width="22.18" height="1" transform="translate(182.8 1003.6) rotate(-68.09)"/><rect class="cls-20" x="826.76" y="367.87" width="22.18" height="1" transform="translate(183.97 1008.79) rotate(-68.09)"/><rect class="cls-20" x="831.18" y="369.59" width="22.18" height="1" transform="translate(185.14 1013.97) rotate(-68.09)"/><rect class="cls-20" x="835.6" y="371.32" width="22.18" height="1" transform="translate(186.31 1019.15) rotate(-68.09)"/><rect class="cls-20" x="840.02" y="373.05" width="22.18" height="1" transform="translate(187.48 1024.34) rotate(-68.09)"/><rect class="cls-20" x="844.43" y="374.78" width="22.18" height="1" transform="translate(188.64 1029.52) rotate(-68.09)"/><rect class="cls-20" x="848.85" y="376.5" width="22.18" height="1" transform="translate(189.81 1034.7) rotate(-68.09)"/><rect class="cls-20" x="853.27" y="378.23" width="22.18" height="1" transform="translate(190.98 1039.88) rotate(-68.09)"/><rect class="cls-20" x="857.69" y="379.96" width="22.18" height="1" transform="translate(192.15 1045.07) rotate(-68.09)"/></g><g class="cls-26"><rect class="cls-27" x="907.54" y="580.53" width="1" height="64.31"/><rect class="cls-27" x="875.89" y="612.18" width="64.31" height="1"/><rect class="cls-27" x="875.41" y="611.69" width="64.31" height="1" transform="translate(-166.59 821.54) rotate(-45)"/><rect class="cls-27" x="907.06" y="580.03" width="1" height="64.31" transform="translate(-166.59 821.54) rotate(-45)"/><rect class="cls-27" x="875.41" y="611.69" width="64.31" height="1" transform="translate(-167.87 410.53) rotate(-23.36)"/><rect class="cls-27" x="907.06" y="580.03" width="1" height="64.31" transform="translate(-167.83 410.34) rotate(-23.35)"/><rect class="cls-27" x="875.41" y="611.69" width="64.31" height="1" transform="translate(6.84 1234.19) rotate(-68.59)"/><rect class="cls-27" x="907.06" y="580.03" width="1" height="64.31" transform="translate(6.86 1234.23) rotate(-68.6)"/></g><circle class="cls-7" cx="907.66" cy="613.14" r="11.28"/><circle class="cls-14" cx="907.66" cy="613.14" r="7.2"/><path class="cls-14" d="M794.07,527.08a7.45,7.45,0,1,1,7.44-7.44A7.45,7.45,0,0,1,794.07,527.08Zm0-14.39a6.95,6.95,0,1,0,6.94,6.95A7,7,0,0,0,794.07,512.69Z" transform="translate(0.48 0.49)"/><circle class="cls-14" cx="794.54" cy="520.13" r="2.85"/><circle class="cls-14" cx="829.15" cy="426.42" r="2.85"/><circle class="cls-17" cx="848.57" cy="685.12" r="15.69"/><circle class="cls-20" cx="848.57" cy="684.1" r="14.99"/><g class="cls-28"><rect class="cls-27" x="848.28" y="666.86" width="1" height="34.01"/><rect class="cls-27" x="831.77" y="683.36" width="34.01" height="1"/><rect class="cls-27" x="831.3" y="682.87" width="34.01" height="1" transform="translate(-234.28 800.49) rotate(-45)"/><rect class="cls-27" x="847.8" y="666.37" width="1" height="34.01" transform="translate(-234.28 800.49) rotate(-45)"/><rect class="cls-27" x="831.3" y="682.87" width="34.01" height="1" transform="translate(-200.95 392.87) rotate(-23.36)"/><rect class="cls-27" x="847.8" y="666.37" width="1" height="34.01" transform="translate(-200.91 392.71) rotate(-23.35)"/><rect class="cls-27" x="831.3" y="682.87" width="34.01" height="1" transform="translate(-97.07 1224.22) rotate(-68.59)"/><rect class="cls-27" x="847.8" y="666.37" width="1" height="34.01" transform="translate(-97.05 1224.25) rotate(-68.59)"/></g><circle class="cls-7" cx="848.57" cy="684.1" r="5.96"/><path class="cls-7" d="M582.21,505.71l-17.65-30.48A36.54,36.54,0,0,1,560,462.05l-11.54-81.88,3.37-26,44.42-12a11.88,11.88,0,0,1,14.63,8.63l20,81.46L654,461.13Z" transform="translate(0.48 0.49)"/><path class="cls-18" d="M591.17,434.31l-10.88-2.15a4.15,4.15,0,0,1-3.21-3.06L555.51,343a1.4,1.4,0,0,1,1.51-1.74L581.81,344l31.88,85.22L597.84,434A13.82,13.82,0,0,1,591.17,434.31Z" transform="translate(0.48 0.49)"/><path class="cls-10" d="M381.14,355.4s6.12,18.26,7.11,19.62c1.22,1.69,4.73,1.35,4.9,0,0,0,1.61,3.12,4,2.45a3,3,0,0,0,2.36-3.89s1.73,3.26,4.15,2.37c3.55-1.31-1.44-10.57-1.44-10.57s3.23,9.72,6.51,9.38c5.21-.53,2-12.68-1.77-16.4,0,0,7.78,1.18,9.38-1.44s-15-9.89-15-9.89Z" transform="translate(0.48 0.49)"/><path class="cls-11" d="M577.39,343.25l39.17-7.54a5,5,0,0,1,5.84,3.65l20.14,75.51a5.45,5.45,0,0,1-3.66,6.6l-40.37,12.41a4,4,0,0,1-5-2.82L573.2,349.83A5.38,5.38,0,0,1,577.39,343.25Z" transform="translate(0.48 0.49)"/><path class="cls-7" d="M527.75,370a13.83,13.83,0,0,0,1.93-6.38c.12-3.62.72-7-.85-6.75s-3.25,5.66-3.25,6-3.25,3-3.25,3l-1.69-8.68s1.93-4.58,4.46-5.66-1-3.37-5.43-.72c0,0-.48-1.81-3.73-.61a6.78,6.78,0,0,0-4.1,3.62s-1.32-.84-3.25,1.2a8,8,0,0,0-2.17,4.1,3.5,3.5,0,0,0-2.53,2.65c-.6,2.29,6.83,16.55,6.83,16.55Z" transform="translate(0.48 0.49)"/><path class="cls-7" d="M863.21,312.58s4.51,2.63,6.6,2.09.88-4.29-2.75-6.05-11.65-2.08-12.74-.88-.19,3.38-2.43,4.47c-2,1-.2,3.58-.2,3.58a4.29,4.29,0,0,0-2.36,2.75,4,4,0,0,0,.76,3.5s-1.93,3.56-1.05,5.59,8.51,3.25,12.43,3.4c3.14.12,7.73-.71,7.46-2.19s-1.38-1.65-5.28-2.69a19.51,19.51,0,0,1-6.59-3.24s10.28,2.93,12.28,3c1.68.05,2.59-1.47,1.22-3.45s-11.74-5.7-11.74-5.7,11.06,5,12.75,2.7c2.35-3.14-9.67-6.54-11.54-7.09Z" transform="translate(0.48 0.49)"/><path class="cls-11" d="M497.71,310.88a8.59,8.59,0,0,0,9.14-4.82s6.27-4.38,5.89-6.16-6.68-.31-12.68.38C494.6,300.92,494.16,309.61,497.71,310.88Z" transform="translate(0.48 0.49)"/><path class="cls-11" d="M513.7,310.16s6.07-1.58,6.26-5.24-6.8,1.05-7.84,2.61S512.05,310.56,513.7,310.16Z" transform="translate(0.48 0.49)"/><path class="cls-11" d="M513.43,306.49s6.55-2.72,6.24-6.55-7.43,2.29-8.37,4.1S511.64,307.2,513.43,306.49Z" transform="translate(0.48 0.49)"/><path class="cls-14" d="M401.67,133.73,422,77.06l47.24,45.05ZM424.1,86l-14.83,41.36,49.32-8.48Z" transform="translate(0.48 0.49)"/><ellipse class="cls-4" cx="422.9" cy="274.89" rx="12.68" ry="6.43" transform="translate(42.69 606.28) rotate(-74.02)"/><ellipse class="cls-17" cx="422.35" cy="274.76" rx="8.23" ry="4.45" transform="translate(42.43 605.66) rotate(-74.02)"/><ellipse class="cls-18" cx="421.85" cy="274.59" rx="7.93" ry="4.02" transform="translate(42.22 605.05) rotate(-74.02)"/><path class="cls-7" d="M602.84,203.48,598.23,193a1.4,1.4,0,0,1,1.07-1.95l.23,0a1.39,1.39,0,0,1,1.5.84l4.38,10.51a1.38,1.38,0,0,1-.22,1.43h0A1.39,1.39,0,0,1,602.84,203.48Z" transform="translate(0.48 0.49)"/><path class="cls-7" d="M595.94,208.15l-6.18-14a1.4,1.4,0,0,1,.77-1.87l.25-.09a1.4,1.4,0,0,1,1.79.73l6.18,13.95a1.4,1.4,0,0,1-.77,1.87l-.25.1A1.41,1.41,0,0,1,595.94,208.15Z" transform="translate(0.48 0.49)"/><path class="cls-7" d="M709.23,158.75l-4.09-10.49a1.41,1.41,0,0,1,.74-1.79l.11-.05a1.4,1.4,0,0,1,1.88.77L712,157.68a1.39,1.39,0,0,1-.73,1.79l-.12.05A1.4,1.4,0,0,1,709.23,158.75Z" transform="translate(0.48 0.49)"/><path class="cls-7" d="M717.09,157.39l-5-12.83a1.4,1.4,0,0,1,.71-1.78h0a1.41,1.41,0,0,1,1.91.77l5,12.83a1.42,1.42,0,0,1-.71,1.78h0A1.41,1.41,0,0,1,717.09,157.39Z" transform="translate(0.48 0.49)"/><path class="cls-7" d="M663.07,160.29h0a1.51,1.51,0,0,1,1.95.8l7.28,17.47a1.49,1.49,0,0,1-.81,1.94h0a1.48,1.48,0,0,1-1.94-.8l-7.28-17.46A1.5,1.5,0,0,1,663.07,160.29Z" transform="translate(0.48 0.49)"/><path class="cls-7" d="M640.73,169.56h0a1.49,1.49,0,0,1,2,.8l7.3,17.53a1.48,1.48,0,0,1-.8,1.94h0a1.49,1.49,0,0,1-1.94-.81l-7.31-17.52A1.51,1.51,0,0,1,640.73,169.56Z" transform="translate(0.48 0.49)"/><path class="cls-29" d="M593.4,218.5a4.37,4.37,0,0,1,2.35-5.7c14.42-6,18.44-15.79,23.11-27.13s10.06-24.46,27.81-31.85,30.74-2,42.21,2.68,21.11,8.7,35.53,2.7a4.36,4.36,0,1,1,3.35,8c-17.75,7.4-30.74,2-42.21-2.68s-21.11-8.7-35.53-2.7-18.44,15.8-23.1,27.13-10.07,24.46-27.82,31.86a4.35,4.35,0,0,1-5.7-2.35Z" transform="translate(0.48 0.49)"/><path class="cls-30" d="M730.11,161.54a4.36,4.36,0,0,0-5.7-2.34q-.64.27-1.29.51a4.35,4.35,0,0,1-2.65,4.53c-17.75,7.4-30.74,2-42.2-2.68s-21.12-8.71-35.54-2.7-18.44,15.8-23.1,27.13-9.8,23.83-26.53,31.31a4.33,4.33,0,0,0,6,3.55c17.75-7.4,23.1-20.39,27.82-31.86s8.69-21.12,23.1-27.13,24.2-2,35.53,2.7,24.46,10.08,42.21,2.68a4.37,4.37,0,0,0,2.35-5.7Z" transform="translate(0.48 0.49)"/><path class="cls-7" d="M581.11,189a4.37,4.37,0,0,1,2.35-5.7c17.75-7.39,30.74-2,42.2,2.69s21.12,8.7,35.54,2.69,18.44-15.79,23.1-27.13,10.07-24.46,27.81-31.86a4.36,4.36,0,0,1,3.36,8.05c-14.42,6-18.44,15.79-23.11,27.13s-10.06,24.46-27.81,31.86-30.74,2-42.21-2.69-21.11-8.7-35.53-2.69A4.37,4.37,0,0,1,581.11,189Z" transform="translate(0.48 0.49)"/><path class="cls-11" d="M717.81,132a4.35,4.35,0,0,0-5.69-2.35c-.44.18-.86.37-1.28.56a4.36,4.36,0,0,1-2.66,4.49c-14.41,6-18.44,15.79-23.1,27.13S675,186.33,657.26,193.73s-30.74,2-42.2-2.69c-11-4.53-20.53-8.46-34.25-3.21a4.34,4.34,0,0,0,6,3.52c14.42-6,24.2-2,35.53,2.69s24.46,10.08,42.21,2.69,23.1-20.39,27.81-31.86,8.69-21.12,23.11-27.13A4.36,4.36,0,0,0,717.81,132Z" transform="translate(0.48 0.49)"/><path class="cls-7" d="M651.84,165h0a1.49,1.49,0,0,1,1.94.81l7.28,17.46a1.48,1.48,0,0,1-.8,1.94h0a1.49,1.49,0,0,1-2-.8L651,166.92A1.5,1.5,0,0,1,651.84,165Z" transform="translate(0.48 0.49)"/><circle class="cls-7" cx="425.84" cy="80.76" r="7.54"/><circle class="cls-7" cx="464.39" cy="120.98" r="7.54"/><circle class="cls-7" cx="403.96" cy="130.95" r="9.13"/><g class="cls-23"><circle class="cls-11" cx="853.17" cy="106.74" r="44.41"/></g><g class="cls-23"><circle class="cls-11" cx="308.96" cy="262.16" r="13.83"/></g><g class="cls-23"><circle class="cls-11" cx="320.69" cy="59.4" r="27.23"/></g><polygon class="cls-4" points="937.85 379.11 967.75 372.28 970.35 375.99 937.85 379.11"/><ellipse class="cls-14" cx="525.36" cy="355.23" rx="4.18" ry="3.28" transform="translate(-105.85 411.95) rotate(-39.15)"/><ellipse class="cls-31" cx="525.36" cy="355.23" rx="2.25" ry="1.76" transform="translate(-105.85 411.95) rotate(-39.15)"/><rect class="cls-17" x="589.9" y="370.48" width="7.39" height="17.04" rx="3.52" transform="translate(-67.61 138.29) rotate(-12.53)"/><rect class="cls-17" x="605.64" y="366.94" width="7.39" height="3.66" rx="1.74" transform="translate(-65.01 141.46) rotate(-12.53)"/><rect class="cls-17" x="607.09" y="372.89" width="7.39" height="3.66" rx="1.74" transform="translate(-66.27 141.91) rotate(-12.53)"/><rect class="cls-17" x="608.85" y="379.15" width="7.39" height="3.66" rx="1.74" transform="translate(-67.58 142.45) rotate(-12.53)"/><rect class="cls-31" x="589.68" y="370.34" width="7.39" height="17.04" rx="3.52" transform="translate(-67.58 138.24) rotate(-12.53)"/><rect class="cls-31" x="605.42" y="366.8" width="7.39" height="3.66" rx="1.74" transform="translate(-64.99 141.41) rotate(-12.53)"/><rect class="cls-14" x="606.87" y="372.75" width="7.39" height="3.66" rx="1.74" transform="translate(-66.24 141.86) rotate(-12.53)"/><rect class="cls-7" x="608.63" y="379.01" width="7.39" height="3.66" rx="1.74" transform="translate(-67.56 142.39) rotate(-12.53)"/><polygon class="cls-17" points="873.27 350.17 848.17 339.95 849.85 335.78 873.27 350.17"/><circle class="cls-17" cx="398.5" cy="344.51" r="0.65"/><circle class="cls-14" cx="429.1" cy="324.9" r="2.14"/><circle class="cls-7" cx="429.1" cy="324.9" r="1.02"/><circle class="cls-17" cx="427.28" cy="330.07" r="1.02"/><circle class="cls-17" cx="527.32" cy="375.42" r="0.65"/><polygon class="cls-17" points="802.62 640.87 709.05 649.22 704.27 640.87 802.62 640.87"/><polygon class="cls-17" points="652.91 462.56 633.36 482.39 627.77 478.2 652.91 462.56"/><path class="cls-4" d="M442.43,309.31a31.31,31.31,0,0,1-31-27.37.24.24,0,0,1,.22-.27.25.25,0,0,1,.28.21,30.82,30.82,0,0,0,30.54,26.93,30.48,30.48,0,0,0,18.75-6.37.25.25,0,1,1,.3.4A31,31,0,0,1,442.43,309.31Z" transform="translate(0.48 0.49)"/><g class="cls-32"><path class="cls-24" d="M446.91,300.77l1.69-4.4s5.25.17,9.14-6.93,2.87-12.85.84-14.55S440.49,280,440.49,280a3.45,3.45,0,0,0-4.82-.17c-2.54,2.2.59,5.07.59,5.07l-5.76,8.85S433.85,298.43,446.91,300.77Z" transform="translate(0.48 0.49)"/><path class="cls-33" d="M442.23,280.19a50.07,50.07,0,0,1,5.61-.43,106.33,106.33,0,0,0,11-1.24l1.43-.21a5.69,5.69,0,0,0-1.64-3.42c-1.68-1.4-13,3-16.85,4.57A3.77,3.77,0,0,1,442.23,280.19Z" transform="translate(0.48 0.49)"/><path class="cls-33" d="M445.92,298c-2.69.06-5.37.17-8.05.3a48.31,48.31,0,0,0,9,2.45L448,298Z" transform="translate(0.48 0.49)"/><circle class="cls-17" cx="448.64" cy="284.92" r="0.7"/><circle class="cls-17" cx="456.06" cy="286.76" r="0.7"/><ellipse class="cls-17" cx="448.89" cy="282.42" rx="1.97" ry="0.67"/><ellipse class="cls-17" cx="456.37" cy="284.08" rx="0.67" ry="1.97" transform="translate(-33.74 504.35) rotate(-56.03)"/><ellipse class="cls-17" cx="448.62" cy="291.18" rx="0.57" ry="0.78" transform="translate(45.64 642.78) rotate(-74.02)"/><g class="cls-34"><path class="cls-21" d="M450.76,296.2s-3,1.31-8.41-3l4.73,7.57Z" transform="translate(0.48 0.49)"/></g><path class="cls-17" d="M433.64,288.85s-4.68-6.57.52-17.86c0,0,16.73.06,25.23,3a36.4,36.4,0,0,1-17.93,7.19s-.51-1.77-3.22-1.77-3.72,4.06-2,5.49Z" transform="translate(0.48 0.49)"/><path class="cls-17" d="M459.34,285.46s-1.1-9.47-1.1-11.07V274h1.15a7.61,7.61,0,0,1,2.91,1.53A41.85,41.85,0,0,1,459.34,285.46Z" transform="translate(0.48 0.49)"/><path class="cls-17" d="M440.52,283.1a.25.25,0,0,1-.25-.24,2.23,2.23,0,0,0-.67-1.51,2,2,0,0,0-1.67-.27.25.25,0,0,1-.29-.19.25.25,0,0,1,.19-.3,2.41,2.41,0,0,1,2.08.37,2.69,2.69,0,0,1,.86,1.89.25.25,0,0,1-.25.25Z" transform="translate(0.48 0.49)"/><path class="cls-17" d="M438.23,282.48a.23.23,0,0,1-.2-.1.25.25,0,0,1,.05-.35l1.45-1a.23.23,0,0,1,.34,0,.24.24,0,0,1-.05.35l-1.44,1.05A.23.23,0,0,1,438.23,282.48Z" transform="translate(0.48 0.49)"/><path class="cls-17" d="M452.32,289.57h-.07l-2.52-.77a.25.25,0,0,1-.16-.31.26.26,0,0,1,.31-.17l2.22.68.53-6.25a.25.25,0,0,1,.27-.23.25.25,0,0,1,.23.27l-.56,6.56a.27.27,0,0,1-.11.19A.23.23,0,0,1,452.32,289.57Z" transform="translate(0.48 0.49)"/></g><path class="cls-4" d="M449.94,301.1a31.32,31.32,0,0,1-23.52-10.65.23.23,0,0,1,0-.25l7.24-19.4a.25.25,0,0,1,.13-.14.23.23,0,0,1,.2,0,112.32,112.32,0,0,0,39.52,7.11.23.23,0,0,1,.18.09.22.22,0,0,1,.06.19c0,.25-.66,6-1.13,7.67-.68,2.44-3.4,8.56-3.52,8.82a.23.23,0,0,1-.07.1A31,31,0,0,1,449.94,301.1Zm-23-10.86a30.78,30.78,0,0,0,23,10.36,30.47,30.47,0,0,0,18.69-6.32c.29-.65,2.83-6.42,3.47-8.69.4-1.42.95-6.13,1.09-7.32a114.17,114.17,0,0,1-39.2-7Zm41.94,4.2Z" transform="translate(0.48 0.49)"/><path class="cls-4" d="M381.14,355.65a.25.25,0,0,1-.22-.15l-10-21a.25.25,0,0,1,.45-.21l9.9,20.76L402,346.63l-9.24-30.23a.26.26,0,0,1,.1-.28L405.17,308a.27.27,0,0,1,.35.07.26.26,0,0,1-.08.35l-12.18,8,9.24,30.26a.24.24,0,0,1-.14.3l-21.12,8.63Z" transform="translate(0.48 0.49)"/><path class="cls-4" d="M320.63,348.22a.27.27,0,0,1-.23-.14.25.25,0,0,1,.13-.33L350,334.34a.25.25,0,0,1,.33.12.25.25,0,0,1-.12.34l-29.47,13.4A.16.16,0,0,1,320.63,348.22Z" transform="translate(0.48 0.49)"/><path class="cls-4" d="M616.82,512.45a.27.27,0,0,1-.14,0,.25.25,0,0,1-.06-.35l18.43-27.23a.25.25,0,0,1,.35-.07.25.25,0,0,1,.06.35L617,512.34A.26.26,0,0,1,616.82,512.45Z" transform="translate(0.48 0.49)"/><path class="cls-4" d="M637.35,520.93a.24.24,0,0,1-.21-.38l15.92-24.2a.26.26,0,0,1,.35-.07.25.25,0,0,1,.07.35l-15.92,24.19A.24.24,0,0,1,637.35,520.93Z" transform="translate(0.48 0.49)"/><path class="cls-4" d="M652.73,488.86h0a.25.25,0,0,1-.21-.28l3.59-25.93a.24.24,0,0,1,.28-.21.24.24,0,0,1,.21.28L653,488.65A.25.25,0,0,1,652.73,488.86Z" transform="translate(0.48 0.49)"/><path class="cls-4" d="M671.81,491.29h0a.25.25,0,0,1-.23-.27l2.46-25.9a.26.26,0,0,1,.28-.23.25.25,0,0,1,.22.27l-2.46,25.91A.24.24,0,0,1,671.81,491.29Z" transform="translate(0.48 0.49)"/><path class="cls-4" d="M687.75,493.43h0a.24.24,0,0,1-.21-.28l.76-5.65a.25.25,0,0,1,.28-.21.24.24,0,0,1,.21.28l-.76,5.65A.25.25,0,0,1,687.75,493.43Z" transform="translate(0.48 0.49)"/><path class="cls-4" d="M643.42,523.88a.25.25,0,0,1-.15,0,.25.25,0,0,1-.06-.35l3.58-4.93a.24.24,0,0,1,.34-.06.25.25,0,0,1,.06.35l-3.57,4.93A.26.26,0,0,1,643.42,523.88Z" transform="translate(0.48 0.49)"/><path class="cls-4" d="M329.85,403.67a.23.23,0,0,1-.11,0,.25.25,0,0,1-.12-.33L336.88,388a.25.25,0,0,1,.34-.12.26.26,0,0,1,.12.33l-7.27,15.36A.25.25,0,0,1,329.85,403.67Z" transform="translate(0.48 0.49)"/><path class="cls-4" d="M357.92,420.32l-.12,0a.26.26,0,0,1-.1-.34l16.49-30.67a.25.25,0,0,1,.34-.1.24.24,0,0,1,.1.34l-16.49,30.67A.25.25,0,0,1,357.92,420.32Z" transform="translate(0.48 0.49)"/><path class="cls-4" d="M406.31,407.58a.28.28,0,0,1-.13,0l-33.72-18.92a.25.25,0,0,1-.1-.34.26.26,0,0,1,.34-.1l33.73,18.93a.25.25,0,0,1-.12.47Z" transform="translate(0.48 0.49)"/><path class="cls-4" d="M315.81,337.54a.25.25,0,0,1-.23-.16.25.25,0,0,1,.14-.32l7.44-2.83a.25.25,0,0,1,.32.14.25.25,0,0,1-.14.33l-7.44,2.83Z" transform="translate(0.48 0.49)"/><path class="cls-4" d="M319.73,398a.2.2,0,0,1-.1,0,.25.25,0,0,1-.13-.32l2.79-6.54a.25.25,0,0,1,.32-.13.25.25,0,0,1,.14.33L320,397.86A.24.24,0,0,1,319.73,398Z" transform="translate(0.48 0.49)"/><path class="cls-4" d="M393,316.58h0l-6.69-1a.24.24,0,0,1-.21-.28.25.25,0,0,1,.28-.21l6.7,1a.25.25,0,0,1,.21.29A.26.26,0,0,1,393,316.58Z" transform="translate(0.48 0.49)"/><path class="cls-4" d="M471.31,336.49h-.07a.25.25,0,0,1-.17-.31l1.82-5.88a.25.25,0,0,1,.31-.16.25.25,0,0,1,.17.31l-1.82,5.88A.24.24,0,0,1,471.31,336.49Z" transform="translate(0.48 0.49)"/><path class="cls-4" d="M411.26,335.66a.26.26,0,0,1-.25-.25l-.77-27.32a4.25,4.25,0,0,1,1.79-3.6l4.28-3-9.92-9.24a2.86,2.86,0,0,1-.19-4l4.88-5.5a.25.25,0,1,1,.37.33l-4.88,5.51a2.36,2.36,0,0,0,.16,3.28l10.15,9.44a.28.28,0,0,1,.08.2.31.31,0,0,1-.11.19l-4.53,3.22a3.74,3.74,0,0,0-1.58,3.18l.77,27.32a.25.25,0,0,1-.24.26Z" transform="translate(0.48 0.49)"/><path class="cls-4" d="M432.07,344.59a.26.26,0,0,1-.18-.07.25.25,0,0,1,0-.35l16.78-17a3.18,3.18,0,0,0,.81-3.05L447.89,318a.24.24,0,0,1,0-.2.25.25,0,0,1,.17-.11l10.82-1.51a2.73,2.73,0,0,0,2.3-3.26l-1.73-8.48a.24.24,0,0,1,.19-.29.26.26,0,0,1,.3.19l1.73,8.48a3.23,3.23,0,0,1-2.72,3.85l-10.54,1.48L450,324a3.7,3.7,0,0,1-.94,3.53l-16.78,17A.26.26,0,0,1,432.07,344.59Z" transform="translate(0.48 0.49)"/><path class="cls-4" d="M927.47,323.22l-.09,0a.24.24,0,0,1-.14-.32l3.55-9.18a4.64,4.64,0,0,0-.85-4.73l-4-4.5a.23.23,0,0,1-.05-.21.25.25,0,0,1,.12-.18l12-6.69a4.64,4.64,0,0,0,2.14-5.49L938,285.31a.25.25,0,1,1,.48-.16l2.18,6.6a5.15,5.15,0,0,1-2.37,6.08l-11.71,6.54,3.77,4.27a5.11,5.11,0,0,1,.94,5.24l-3.54,9.18A.26.26,0,0,1,927.47,323.22Z" transform="translate(0.48 0.49)"/><path class="cls-4" d="M527,387.19l-.12,0a.26.26,0,0,1-.1-.34l4.57-8.54a.25.25,0,0,1,.34-.1.24.24,0,0,1,.1.34l-4.57,8.53A.24.24,0,0,1,527,387.19Z" transform="translate(0.48 0.49)"/><path class="cls-4" d="M611.94,454.22a.23.23,0,0,1-.11,0,.25.25,0,0,1-.12-.33l5.58-12.29a.26.26,0,0,1,.34-.12.25.25,0,0,1,.12.33l-5.59,12.29A.25.25,0,0,1,611.94,454.22Z" transform="translate(0.48 0.49)"/><path class="cls-4" d="M377.4,347.6a.25.25,0,0,1-.23-.16.25.25,0,0,1,.13-.33l22.21-9a.24.24,0,0,1,.32.14.24.24,0,0,1-.13.32l-22.21,9Z" transform="translate(0.48 0.49)"/><path class="cls-4" d="M512.93,384.67a.26.26,0,0,1-.23-.13.26.26,0,0,1,.11-.34l17.46-8.8a.26.26,0,0,1,.34.11.25.25,0,0,1-.12.34L513,384.65Z" transform="translate(0.48 0.49)"/><path class="cls-4" d="M510.76,378.81a.24.24,0,0,1-.22-.14.25.25,0,0,1,.11-.34l17-8.65a.25.25,0,0,1,.22.44l-17,8.66A.27.27,0,0,1,510.76,378.81Z" transform="translate(0.48 0.49)"/><ellipse class="cls-4" cx="926.66" cy="261.03" rx="10.76" ry="11.45" transform="translate(-35.59 259.15) rotate(-15.59)"/><ellipse class="cls-18" cx="926.77" cy="261.19" rx="6.73" ry="7.16" transform="translate(-35.62 259.19) rotate(-15.59)"/><path class="cls-4" d="M946.48,376.19a.23.23,0,0,1-.23-.17l-6.71-19.54a.26.26,0,0,1,.16-.32.26.26,0,0,1,.32.16l6.7,19.54a.25.25,0,0,1-.15.32Z" transform="translate(0.48 0.49)"/><circle class="cls-17" cx="936.88" cy="360.59" r="0.65"/><path class="cls-31" d="M910.61,320.19h31.13a3.38,3.38,0,0,1,3.38,3.38v35.75a0,0,0,0,1,0,0h-37.9a0,0,0,0,1,0,0V323.57a3.38,3.38,0,0,1,3.38-3.38Z" transform="translate(-59.45 311.36) rotate(-18.47)"/><path class="cls-7" d="M938.81,378.24s-18.51,3.54-21.48,2.68-6.49-3.06-6.71-4,1-1,1-1-4.93-2.56-4.28-4.29,2.71-.65,2.71-.65-3.51-4-2.87-5.92,3.54.36,3.54.36-2.55-3.65-1.42-5,3.44,1,4.59,2.12,8.68-.77,8.68-.77-5.23-6.82-3.45-9.71,8.07,8,8.07,8l4.8-1.58Z" transform="translate(0.48 0.49)"/><path class="cls-4" d="M932,358.84a.27.27,0,0,1-.24-.17.26.26,0,0,1,.16-.32l26.21-9a.24.24,0,0,1,.32.15.26.26,0,0,1-.16.32l-26.21,9Z" transform="translate(0.48 0.49)"/><path class="cls-4" d="M938.84,378.45a.27.27,0,0,1-.24-.17l-6.79-19.57a.25.25,0,0,1,.47-.17l6.8,19.58a.25.25,0,0,1-.16.31Z" transform="translate(0.48 0.49)"/><path class="cls-4" d="M900.83,371.06a.25.25,0,0,1-.25-.23L898,333.42a.25.25,0,0,1,.23-.27.26.26,0,0,1,.27.23l2.54,37.41a.25.25,0,0,1-.23.27Z" transform="translate(0.48 0.49)"/><path class="cls-4" d="M393.15,375.27a.26.26,0,0,1-.24-.18l-1.72-5.39a.26.26,0,0,1,.17-.32.25.25,0,0,1,.31.16l1.72,5.4a.25.25,0,0,1-.16.31Z" transform="translate(0.48 0.49)"/><path class="cls-4" d="M399.72,374.39a.24.24,0,0,1-.24-.17l-1.72-5.4a.25.25,0,1,1,.47-.15l1.72,5.4a.24.24,0,0,1-.16.31Z" transform="translate(0.48 0.49)"/><path class="cls-4" d="M404.57,371.08a.25.25,0,0,1-.24-.18l-1.72-5.39a.26.26,0,0,1,.16-.32.26.26,0,0,1,.32.16l1.72,5.4a.24.24,0,0,1-.17.31Z" transform="translate(0.48 0.49)"/><path class="cls-4" d="M409.34,362.78a.24.24,0,0,1-.22-.14l-3.46-7.44a.25.25,0,0,1,.12-.33.25.25,0,0,1,.33.12l3.46,7.44a.25.25,0,0,1-.12.33A.22.22,0,0,1,409.34,362.78Z" transform="translate(0.48 0.49)"/><path class="cls-4" d="M500.67,300.88a.25.25,0,0,1,0-.49l9-1.47a.26.26,0,0,1,.29.21.25.25,0,0,1-.21.28l-9,1.47Z" transform="translate(0.48 0.49)"/><rect class="cls-19" x="760.92" y="554.48" width="0.85" height="65.1" transform="translate(-70.73 1068.27) rotate(-67.64)"/><path class="cls-10" d="M535.48,330l2.43-.52a1.77,1.77,0,0,1,1.83,1l5.83,12.12a2,2,0,0,1-.94,2.65l-2.1,1S537.57,342.39,535.48,330Z" transform="translate(0.48 0.49)"/><path class="cls-4" d="M542.53,346.41a.23.23,0,0,1-.22-.15.24.24,0,0,1,.12-.33l2.09-1a1.73,1.73,0,0,0,.9-1,1.75,1.75,0,0,0-.07-1.33l-5.84-12.12a1.49,1.49,0,0,0-1.57-.84l-2.41.51a.25.25,0,1,1-.1-.48l2.42-.52a2,2,0,0,1,2.11,1.11l5.84,12.12a2.21,2.21,0,0,1-1.07,3l-2.09,1Z" transform="translate(0.48 0.49)"/><path class="cls-4" d="M944.79,389.07a.26.26,0,0,1-.24-.18l-.62-2.18a.24.24,0,0,1,0-.2.25.25,0,0,1,.17-.11l15.5-2.82a.25.25,0,0,1,.28.17l.71,2.16a.27.27,0,0,1,0,.2.23.23,0,0,1-.17.12l-15.6,2.83Zm-.3-2.23.47,1.69,15.1-2.74-.56-1.68Z" transform="translate(0.48 0.49)"/><path class="cls-4" d="M567.81,437.67H556.5a.25.25,0,0,1,0-.5h11l-.37-3.48-11.3-.21a.25.25,0,0,1-.24-.25.25.25,0,0,1,.25-.25h0l11.52.21a.25.25,0,0,1,.25.22l.42,4a.31.31,0,0,1-.07.2A.23.23,0,0,1,567.81,437.67Z" transform="translate(0.48 0.49)"/><path class="cls-4" d="M442.33,374.2h-.07l-13.55-4.4a.24.24,0,0,1-.16-.3l1.11-4.19a.26.26,0,0,1,.13-.16.23.23,0,0,1,.2,0l13.27,4.81a.26.26,0,0,1,.16.29l-.84,3.77a.3.3,0,0,1-.12.17A.28.28,0,0,1,442.33,374.2Zm-13.24-4.81,13.06,4.24.73-3.29-12.8-4.65Z" transform="translate(0.48 0.49)"/><path class="cls-4" d="M887.06,324.89H887a.24.24,0,0,1-.18-.3l2.32-8.78a.25.25,0,0,1,.48.13l-2.32,8.78A.25.25,0,0,1,887.06,324.89Z" transform="translate(0.48 0.49)"/><path class="cls-4" d="M868,272l39.91-17.44,6.78,12.89a6.44,6.44,0,0,1,.14,5.71l-14.69,31.63S872.4,301.39,868,272Z" transform="translate(0.48 0.49)"/><g class="cls-35"><path class="cls-24" d="M907.15,278.26s4-3.95,2.92-7.74-7.5-2.32-8.37-.22c0,0-18.66-1.74-21.09-1.57s-1.33,11.4,2,16,9.63,13.68,13.83,12.57a7.34,7.34,0,0,0,5.14-5.05l2.45,2.88s7.11-6,9.62-13.72Z" transform="translate(0.48 0.49)"/><path class="cls-33" d="M901.67,272.67a14.36,14.36,0,0,1,.26-2.77,2.3,2.3,0,0,0-.23.4s-18.66-1.74-21.09-1.57c-1.29.1-1.59,3.32-1.07,7A206.22,206.22,0,0,0,901.67,272.67Z" transform="translate(0.48 0.49)"/><path class="cls-33" d="M908.8,279.07c-.42,1.45-.91,2.89-1.45,4.31-1.33,3.52-2.94,7-4.42,10.46l1.15,1.34s7.11-6,9.62-13.72Z" transform="translate(0.48 0.49)"/><path class="cls-17" d="M912.22,280.75s5.94-8.16,1.82-17.44-6.12-8.73-6.12-8.73l-28.57,12.21s-2.5,7,1.27,13.6A51.15,51.15,0,0,0,885,270.05s10.42,3.34,16.72,3.1c0,0,1.65-5.42,5.17-4.65s3.86,5.64.28,9.76Z" transform="translate(0.48 0.49)"/><ellipse class="cls-17" cx="888.3" cy="279.49" rx="6.2" ry="1.93" transform="translate(-35.71 391.84) rotate(-24.36)"/><circle class="cls-17" cx="892.45" cy="286.27" r="1.09"/><path class="cls-17" d="M901.63,292.3a27.23,27.23,0,0,0,2-8.85l0,11.05Z" transform="translate(0.48 0.49)"/><polygon class="cls-14" points="881.3 281.55 885.33 293.02 888.69 290.96 881.3 281.55"/><path class="cls-17" d="M907.64,272.54h0a.23.23,0,0,1-.22-.27c0-.44-.54-1.13-1.25-1.29s-1.37.31-1.77,1.37a.26.26,0,0,1-.33.15.25.25,0,0,1-.14-.33c.69-1.84,1.88-1.79,2.35-1.68a2,2,0,0,1,1.63,1.83A.24.24,0,0,1,907.64,272.54Z" transform="translate(0.48 0.49)"/><path class="cls-17" d="M905.63,273.49h0a.25.25,0,0,1-.23-.27l.2-2.38a.25.25,0,0,1,.5.05l-.2,2.37A.25.25,0,0,1,905.63,273.49Z" transform="translate(0.48 0.49)"/><path class="cls-17" d="M893.4,294.73a.23.23,0,0,1-.2-.1.24.24,0,0,1,0-.35c.94-.75.59-1.29.57-1.31a.25.25,0,0,1,.06-.35.24.24,0,0,1,.34.06s.67.93-.66,2A.24.24,0,0,1,893.4,294.73Z" transform="translate(0.48 0.49)"/></g><path class="cls-4" d="M900.15,305.06h0c-.28,0-28-3.78-32.36-33a.25.25,0,0,1,.15-.27l39.91-17.44a.26.26,0,0,1,.32.11l6.78,12.9a6.7,6.7,0,0,1,.15,5.92l-14.7,31.64A.24.24,0,0,1,900.15,305.06Zm-31.87-32.89c4.22,27.45,29.34,32,31.72,32.37l14.62-31.47a6.24,6.24,0,0,0-.14-5.48l-6.67-12.69Z" transform="translate(0.48 0.49)"/><rect class="cls-19" x="872.1" y="282.98" width="9.91" height="41.76" rx="4.72" transform="translate(262.84 999.85) rotate(-67.64)"/><path class="cls-17" d="M892.13,290.75c-1.65,0-3.37-1.38-4.13-3.48a5.72,5.72,0,0,1-.16-3.55,3.09,3.09,0,0,1,4.92-1.78,5.7,5.7,0,0,1,2.15,2.83h0a5.83,5.83,0,0,1,.17,3.56,3.3,3.3,0,0,1-2,2.25A2.91,2.91,0,0,1,892.13,290.75Zm-1.34-8.95a2.23,2.23,0,0,0-.81.14,2.79,2.79,0,0,0-1.67,1.92,5.25,5.25,0,0,0,.16,3.24c.82,2.26,2.82,3.6,4.46,3a2.81,2.81,0,0,0,1.67-1.93,5.26,5.26,0,0,0-.16-3.24h0a5.29,5.29,0,0,0-2-2.59A3.16,3.16,0,0,0,890.79,281.8Z" transform="translate(0.48 0.49)"/><path class="cls-17" d="M894,283.59a.25.25,0,0,1-.2-.4L901.5,273a.25.25,0,0,1,.4.3l-7.69,10.19A.25.25,0,0,1,894,283.59Z" transform="translate(0.48 0.49)"/><path class="cls-17" d="M883.62,289.09a.27.27,0,0,1-.23-.14.25.25,0,0,1,.12-.34l4.32-2.13a.27.27,0,0,1,.34.12.25.25,0,0,1-.11.33l-4.33,2.13Z" transform="translate(0.48 0.49)"/><path class="cls-7" d="M310.79,756.17a51.4,51.4,0,0,1-48.64-67.87,2.5,2.5,0,0,1,4.74,1.61,46.38,46.38,0,0,0,43.9,61.26,2.5,2.5,0,1,1,0,5Z" transform="translate(0.48 0.49)"/><path class="cls-7" d="M522.71,756.85H512.53a7.16,7.16,0,0,1-6.53-4,6.52,6.52,0,0,1,.76-6.94l9.38-12a2.5,2.5,0,1,1,3.94,3.08l-9.39,12a1.52,1.52,0,0,0-.2,1.67,2.2,2.2,0,0,0,2,1.15h10.18a2.5,2.5,0,0,1,0,5Z" transform="translate(0.48 0.49)"/><path class="cls-7" d="M749.74,559.74a2.57,2.57,0,0,1-.94-.18,2.5,2.5,0,0,1-1.38-3.26l61-151.44a2.5,2.5,0,1,1,4.64,1.86l-61,151.45A2.5,2.5,0,0,1,749.74,559.74Z" transform="translate(0.48 0.49)"/><circle class="cls-13" cx="504.5" cy="466.61" r="3.77"/><circle class="cls-13" cx="356.19" cy="462.84" r="3.77"/><circle class="cls-13" cx="605.68" cy="524.42" r="3.77"/><circle class="cls-13" cx="493.19" cy="361.66" r="3.77"/><circle class="cls-13" cx="271.36" cy="451.53" r="8.8"/><circle class="cls-13" cx="678.57" cy="340.93" r="8.8"/><path class="cls-4" d="M593.26,430.34a.26.26,0,0,1-.24-.19l-19.63-78.54a.24.24,0,0,1,.18-.3.23.23,0,0,1,.3.18L593.5,430a.24.24,0,0,1-.18.3Z" transform="translate(0.48 0.49)"/><path class="cls-4" d="M598.71,395.36a.26.26,0,0,1-.24-.18.24.24,0,0,1,.17-.31l21.78-6.29a.25.25,0,1,1,.14.48l-21.78,6.29Z" transform="translate(0.48 0.49)"/><path class="cls-4" d="M600.28,399.23a.25.25,0,0,1-.24-.18.25.25,0,0,1,.17-.31L622,392.46a.25.25,0,0,1,.31.17.25.25,0,0,1-.17.31l-21.78,6.28Z" transform="translate(0.48 0.49)"/><path class="cls-4" d="M601.85,403.11a.25.25,0,0,1-.07-.49l21.78-6.29a.24.24,0,0,1,.31.17.24.24,0,0,1-.17.31l-21.78,6.29Z" transform="translate(0.48 0.49)"/><path class="cls-4" d="M603.42,407a.25.25,0,0,1-.24-.18.25.25,0,0,1,.17-.31l21.79-6.28a.25.25,0,0,1,.31.17.26.26,0,0,1-.18.31L603.49,407Z" transform="translate(0.48 0.49)"/><g class="cls-5"><path class="cls-7" d="M313.2,725V663.64a16.3,16.3,0,0,0-7.79-13.91l-7.23-4.43a25,25,0,0,1-11.86-19.53l-.67-9.64h50.17l-2.3,109.07a10.17,10.17,0,0,1-10.37,9.95h0A10.16,10.16,0,0,1,313.2,725Z" transform="translate(0.48 0.49)"/></g><g class="cls-5"><path class="cls-7" d="M436.68,697V563.91a5.06,5.06,0,0,0-2.37-4.31l-13.92-8.69a12.4,12.4,0,0,1-5.77-9.69l-.88-12.68h40.42l-.63,168.53a8.49,8.49,0,0,1-8.6,8.47h0A8.51,8.51,0,0,1,436.68,697Z" transform="translate(0.48 0.49)"/></g><g class="cls-5"><path class="cls-7" d="M568,732.63a8,8,0,0,1-7.75-8V661.12c0-5.67-2.31-10.94-6.11-13.9l-5.67-4.44c-5.39-4.21-8.86-11.49-9.3-19.53l-.53-9.63H578l-1.84,111.19a8,8,0,0,1-8.16,7.82Z" transform="translate(0.48 0.49)"/></g><path class="cls-12" d="M412.65,386.19l5.35-11a2.82,2.82,0,0,0-.17-2.74l-.78-1.23a4.27,4.27,0,0,1-.37-3.91l.62-1.54,7.76,3.76-9,18.16Z" transform="translate(0.48 0.49)"/><polygon class="cls-21" points="283.26 624.63 283.26 612.76 335.61 616.51 283.26 624.63"/><rect class="cls-14" x="278.12" y="605.76" width="64.51" height="10.96" rx="4.6"/><polygon class="cls-21" points="407.82 536.39 407.82 524.53 460.16 528.28 407.82 536.39"/><polygon class="cls-21" points="535.59 621.16 535.59 610.79 581.3 614.07 535.59 621.16"/><rect class="cls-14" x="402.67" y="517.53" width="64.51" height="10.96" rx="4.6"/><rect class="cls-14" x="531.08" y="604.68" width="56.34" height="9.57" rx="4.56"/><path class="cls-7" d="M829.62,435.08a5.15,5.15,0,0,1-2-.39L823.51,433a5.25,5.25,0,0,1-2.9-6.82l1.91-4.73a5.16,5.16,0,0,1,2.81-2.86,5.21,5.21,0,0,1,4,0l4.15,1.67a5.25,5.25,0,0,1,2.9,6.82l-1.91,4.74a5.25,5.25,0,0,1-4.86,3.28Zm-2.24-16.39a4.66,4.66,0,0,0-1.86.38,4.72,4.72,0,0,0-2.54,2.58l-1.91,4.74a4.74,4.74,0,0,0,2.62,6.16l4.16,1.68h0a4.73,4.73,0,0,0,6.16-2.62l1.91-4.74a4.74,4.74,0,0,0-2.62-6.16L829.15,419A4.72,4.72,0,0,0,827.38,418.69Z" transform="translate(0.48 0.49)"/><path class="cls-14" d="M801,506a7.37,7.37,0,0,1-2.76-.54l-.63-.26a7.39,7.39,0,0,1-4.09-9.61L799,482.21a7.39,7.39,0,0,1,9.62-4.09l.63.25a7.41,7.41,0,0,1,4.09,9.62l-5.4,13.36A7.44,7.44,0,0,1,801,506Zm-2.39-1.47A6.41,6.41,0,0,0,807,501l5.39-13.37a6.39,6.39,0,0,0-3.54-8.31l-.63-.25a6.31,6.31,0,0,0-4.88,0,6.38,6.38,0,0,0-3.43,3.49l-5.39,13.36a6.4,6.4,0,0,0,3.54,8.32Z" transform="translate(0.48 0.49)"/><path class="cls-14" d="M823,455a4.31,4.31,0,0,1-1.64-.32h0l-6.17-2.49a4.41,4.41,0,0,1-2.43-5.73l.14-.35a4.42,4.42,0,0,1,5.73-2.44l6.17,2.49a4.41,4.41,0,0,1,2.43,5.73l-.14.36A4.41,4.41,0,0,1,823,455Zm-1.27-1.25a3.41,3.41,0,0,0,4.43-1.88l.14-.35a3.41,3.41,0,0,0-1.88-4.43l-6.17-2.49a3.41,3.41,0,0,0-4.42,1.88l-.15.36a3.41,3.41,0,0,0,1.88,4.42l6.17,2.49Z" transform="translate(0.48 0.49)"/><path class="cls-14" d="M816.88,470.1a4.28,4.28,0,0,1-1.64-.32l-6.17-2.49a4.39,4.39,0,0,1-2.44-5.72l.14-.36a4.41,4.41,0,0,1,5.73-2.43l6.17,2.49a4.31,4.31,0,0,1,2.4,2.36,4.4,4.4,0,0,1,0,3.36l-.15.36A4.4,4.4,0,0,1,816.88,470.1Zm-1.27-1.25A3.4,3.4,0,0,0,820,467l.14-.35a3.42,3.42,0,0,0-1.88-4.43l-6.17-2.49a3.41,3.41,0,0,0-4.43,1.89l-.14.35a3.4,3.4,0,0,0,1.88,4.43Z" transform="translate(0.48 0.49)"/><circle class="cls-11" cx="796.92" cy="498.03" r="0.94"/><g class="cls-36"><path class="cls-4" d="M452.9,265.43a16,16,0,0,1-11.32-4.68l-13.34-13.34a.25.25,0,0,1,0-.36l12.64-12.64a.26.26,0,0,1,.35,0l24.49,24.49a.24.24,0,0,1,0,.35l-1.5,1.5A16,16,0,0,1,452.9,265.43Zm-24.13-18.2,13.17,13.17a15.53,15.53,0,0,0,21.93,0l1.32-1.32-24.14-24.14Z" transform="translate(0.48 0.49)"/></g><path class="cls-7" d="M473.46,278a31,31,0,0,0-53.88-21,31,31,0,0,1,43.84,43.85A31,31,0,0,0,473.46,278Z" transform="translate(0.48 0.49)"/><g class="cls-37"><path class="cls-4" d="M559.67,313.74a16,16,0,0,1-13.22-6.94l-.76-1.11a.24.24,0,0,1,.06-.34l27.31-18.78a.25.25,0,0,1,.35.06l9.69,14.1a.25.25,0,0,1,0,.19.27.27,0,0,1-.1.16l-14.33,9.84A15.92,15.92,0,0,1,559.67,313.74Zm-13.43-8.12.62.9a15.52,15.52,0,0,0,21.57,4l14.12-9.7-9.41-13.69Z" transform="translate(0.48 0.49)"/></g><g class="cls-38"><path class="cls-4" d="M896.19,254.42a12.87,12.87,0,0,1-1.51-.09,13,13,0,0,1-8.82-4.88l-6.06-8.11a.25.25,0,0,1,0-.19.27.27,0,0,1,.1-.16l33.26-24.51a.24.24,0,0,1,.34.05l13.39,16.79a.24.24,0,0,1,0,.18.26.26,0,0,1-.09.17l-22.42,17.87A13.09,13.09,0,0,1,896.19,254.42Zm-15.84-13.18,5.9,7.91a12.68,12.68,0,0,0,17.82,2l22.22-17.72L913.21,217Z" transform="translate(0.48 0.49)"/></g><path class="cls-7" d="M563.14,299.89a29.48,29.48,0,0,1,25.32,44.58,29.48,29.48,0,1,0-49-32.66A29.43,29.43,0,0,1,563.14,299.89Z" transform="translate(0.48 0.49)"/><path class="cls-7" d="M903.72,231.62a37.18,37.18,0,0,1,26.42,8.5,37.28,37.28,0,1,0-48.85,56.29,37.28,37.28,0,0,1,22.43-64.79Z" transform="translate(0.48 0.49)"/><path class="cls-6" d="M924.44,762.94H697.79a4.76,4.76,0,0,1-4.76-4.75v-.44a4.76,4.76,0,0,1,4.76-4.75H924.44a4.75,4.75,0,0,1,4.75,4.75v.44A4.75,4.75,0,0,1,924.44,762.94ZM697.79,753.5a4.25,4.25,0,0,0-4.26,4.25v.44a4.25,4.25,0,0,0,4.26,4.25H924.44a4.25,4.25,0,0,0,4.25-4.25v-.44a4.25,4.25,0,0,0-4.25-4.25Z" transform="translate(0.48 0.49)"/><path class="cls-4" d="M962.66,426.72a.22.22,0,0,1-.15-.06.25.25,0,0,1,0-.35l19.35-25.49a.25.25,0,0,1,.35-.05.27.27,0,0,1,.05.36l-19.35,25.49A.28.28,0,0,1,962.66,426.72Z" transform="translate(0.48 0.49)"/><path class="cls-10" d="M602.54,331.27l-46.18,10.05,11.45,2.73a7.13,7.13,0,0,1,5.27,5.3l.55,2.2L622.84,341l-.76-2.8a5.9,5.9,0,0,0-4.4-4.2l-12.16-2.74A7.13,7.13,0,0,0,602.54,331.27Z" transform="translate(0.48 0.49)"/><path class="cls-4" d="M947.46,317.12a.26.26,0,0,1-.25-.2l-2.22-9.8A14.66,14.66,0,0,1,954.93,290a.25.25,0,0,1,.31.17.24.24,0,0,1-.17.31A14.15,14.15,0,0,0,945.48,307l2.22,9.8a.25.25,0,0,1-.19.3Z" transform="translate(0.48 0.49)"/><rect class="cls-7" x="537.46" y="376.28" width="15.5" height="14.24" rx="2.94" transform="translate(352.35 -253.97) rotate(38.02)"/><path class="cls-4" d="M546.42,392.85a3.19,3.19,0,0,1-2-.67h0l-7.58-5.94a3.19,3.19,0,0,1-.55-4.47l5.16-6.59a3.18,3.18,0,0,1,4.47-.55l7.58,5.93a3.15,3.15,0,0,1,1.2,2.12,3.11,3.11,0,0,1-.65,2.35l-5.16,6.6A3.17,3.17,0,0,1,546.42,392.85Zm-1.65-1.07a2.69,2.69,0,0,0,3.77-.46l5.16-6.59a2.7,2.7,0,0,0-.46-3.78L545.65,375a2.7,2.7,0,0,0-3.77.46l-5.16,6.6a2.69,2.69,0,0,0,.46,3.77Z" transform="translate(0.48 0.49)"/><path class="cls-39" d="M542.89,383.55a.85.85,0,0,1,0-.32,2.38,2.38,0,0,1,.13-.6c.17-.5.29-1,.44-1.52s.22-.77.34-1.15c.17-.61.35-1.21.52-1.82.08-.26.15-.53.22-.79l0-.05.09.18c.31.6.61,1.2.91,1.8a.83.83,0,0,1,.05.6c-.19.67-.39,1.34-.58,2,0,0,0,0,0,0a1.6,1.6,0,0,0-.81.05,1.41,1.41,0,0,0-.85.74,1.59,1.59,0,0,0-.16.43.45.45,0,0,0,0,.36h0l-.23,0Z" transform="translate(0.48 0.49)"/><path class="cls-40" d="M547.27,382.78a.69.69,0,0,1,0,.32,2.63,2.63,0,0,1-.15.63c-.14.45-.26.91-.39,1.37s-.19.65-.28,1c-.21.7-.41,1.41-.62,2.11l-.21.79,0,0-.09-.18c-.31-.6-.62-1.2-.91-1.8a.71.71,0,0,1,0-.57c.18-.68.38-1.36.58-2,0,0,0,0,0,0a1.63,1.63,0,0,0,.82,0,1.41,1.41,0,0,0,.84-.73,1.44,1.44,0,0,0,.17-.45.49.49,0,0,0,0-.34l0,0,.24,0Z" transform="translate(0.48 0.49)"/><path class="cls-39" d="M547.27,382.78l-.28.05a.55.55,0,0,0-.3-.2c-.3-.09-.58-.22-.88-.32,0,0,0,0,0,0,.06-.23.13-.45.19-.67s.17-.58.25-.86l0-.05a1.14,1.14,0,0,0,.1.19c.18.36.39.7.58,1.06a5.6,5.6,0,0,1,.33.8Z" transform="translate(0.48 0.49)"/><path class="cls-20" d="M542.89,383.55l.29-.05a.57.57,0,0,0,.29.19c.3.1.59.22.88.33,0,0,0,0,0,0-.09.29-.17.59-.26.88l-.18.65,0,0v0c-.18-.35-.39-.7-.57-1.05a4.94,4.94,0,0,1-.43-1S542.9,383.56,542.89,383.55Z" transform="translate(0.48 0.49)"/><rect class="cls-7" x="954.18" y="310.67" width="15.5" height="14.24" rx="2.94" transform="translate(-49.7 274.2) rotate(-15.79)"/><path class="cls-4" d="M958.44,326.31a3.2,3.2,0,0,1-3.07-2.32l-2.27-8.05a3.18,3.18,0,0,1,2.19-3.94l9.27-2.62a3.15,3.15,0,0,1,2.42.29,3.11,3.11,0,0,1,1.51,1.91l2.28,8.06a3.17,3.17,0,0,1-2.2,3.93h0l-9.26,2.62A3.26,3.26,0,0,1,958.44,326.31Zm7-16.55a2.64,2.64,0,0,0-.73.11l-9.27,2.61a2.68,2.68,0,0,0-1.61,1.28,2.64,2.64,0,0,0-.24,2l2.27,8.06a2.7,2.7,0,0,0,3.32,1.85l9.27-2.62a2.68,2.68,0,0,0,1.85-3.32l-2.28-8a2.71,2.71,0,0,0-1.27-1.62A2.78,2.78,0,0,0,965.43,309.76Zm3.07,13.57h0Z" transform="translate(0.48 0.49)"/><path class="cls-39" d="M960.69,319.74a.71.71,0,0,1-.28-.16,2.61,2.61,0,0,1-.41-.47c-.3-.43-.64-.83-1-1.25l-.73-.95-1.16-1.5-.51-.64,0,0,.21,0,2,.33a.78.78,0,0,1,.51.31c.44.55.86,1.11,1.29,1.66,0,0,0,0,0,.05a1.63,1.63,0,0,0-.44.69,1.39,1.39,0,0,0,.1,1.11,1.5,1.5,0,0,0,.25.4.48.48,0,0,0,.31.17,0,0,0,0,1,0,0l-.1.21Z" transform="translate(0.48 0.49)"/><path class="cls-40" d="M962.65,315.75a1,1,0,0,1,.27.17,2.85,2.85,0,0,1,.43.49c.27.39.58.75.87,1.13l.61.8,1.35,1.74.51.64,0,0-.21,0-2-.32a.81.81,0,0,1-.5-.3c-.44-.55-.86-1.12-1.3-1.67,0,0,0,0,0-.05a1.67,1.67,0,0,0,.44-.7,1.43,1.43,0,0,0-.1-1.11,1.72,1.72,0,0,0-.26-.4.51.51,0,0,0-.3-.17s0,0,0,0l.11-.22Z" transform="translate(0.48 0.49)"/><path class="cls-39" d="M962.65,315.75l-.13.26a.49.49,0,0,0-.33.13l-.78.51s0,0,0,0c-.15-.18-.29-.36-.43-.55l-.55-.71,0,0,.21,0,1.21.16a4.81,4.81,0,0,1,.83.21Z" transform="translate(0.48 0.49)"/><path class="cls-20" d="M960.69,319.74l.12-.26a.55.55,0,0,0,.33-.12c.25-.18.52-.34.78-.52,0,0,0,0,.05,0l.56.72c.13.18.27.36.41.53l0,0h0l-1.2-.16a5.12,5.12,0,0,1-1-.23Z" transform="translate(0.48 0.49)"/><rect class="cls-7" x="383.02" y="294.06" width="15.5" height="14.24" rx="2.94" transform="translate(435.74 -189.68) rotate(57.55)"/><path class="cls-4" d="M389.82,310.68a3.25,3.25,0,0,1-.69-.08,3.17,3.17,0,0,1-2-1.4h0L382,301.07a3.2,3.2,0,0,1,1-4.4l7.07-4.49a3.19,3.19,0,0,1,4.4,1l5.16,8.13a3.12,3.12,0,0,1,.42,2.4,3.16,3.16,0,0,1-1.4,2l-7.06,4.49A3.18,3.18,0,0,1,389.82,310.68Zm-2.27-1.75a2.71,2.71,0,0,0,1.68,1.18,2.64,2.64,0,0,0,2-.36l7.06-4.49a2.61,2.61,0,0,0,1.18-1.68,2.65,2.65,0,0,0-.35-2L394,293.43a2.68,2.68,0,0,0-3.7-.83l-7.07,4.5a2.67,2.67,0,0,0-.82,3.7Z" transform="translate(0.48 0.49)"/><path class="cls-39" d="M388.54,300.54a.68.68,0,0,1,.08-.31,2.18,2.18,0,0,1,.33-.52c.32-.42.61-.85.92-1.28l.7-1,1.1-1.53c.16-.23.32-.45.47-.68l0,0,0,.21c.09.66.18,1.33.26,2a.88.88,0,0,1-.16.59c-.4.57-.81,1.13-1.22,1.7,0,0,0,0-.05,0a1.65,1.65,0,0,0-.78-.23,1.43,1.43,0,0,0-1.05.42,1.68,1.68,0,0,0-.3.35.54.54,0,0,0-.08.35s0,0,0,0l-.24,0S388.54,300.56,388.54,300.54Z" transform="translate(0.48 0.49)"/><path class="cls-40" d="M392.92,301.28a.68.68,0,0,1-.08.31,2.85,2.85,0,0,1-.35.55c-.29.37-.55.77-.83,1.15l-.59.83-1.28,1.78-.47.67,0,.05,0-.21c-.09-.66-.18-1.33-.26-2a.84.84,0,0,1,.14-.56l1.24-1.73s0,0,.05,0a1.65,1.65,0,0,0,.79.23,1.42,1.42,0,0,0,1-.41,1.56,1.56,0,0,0,.31-.37.46.46,0,0,0,.07-.34h0l.24,0Z" transform="translate(0.48 0.49)"/><path class="cls-39" d="M392.92,301.28l-.29,0a.49.49,0,0,0-.21-.28c-.25-.19-.48-.4-.72-.6,0,0,0,0,0,0l.41-.57c.17-.24.35-.48.52-.73l0,0,0,.21c.06.4.14.8.19,1.2a5,5,0,0,1,.05.86Z" transform="translate(0.48 0.49)"/><path class="cls-20" d="M388.54,300.54l.28,0a.6.6,0,0,0,.21.28c.25.19.48.4.72.6,0,0,0,0,0,0l-.53.74-.39.55,0,0h0c-.05-.4-.13-.79-.19-1.19a5.35,5.35,0,0,1-.07-1.06A.08.08,0,0,1,388.54,300.54Z" transform="translate(0.48 0.49)"/><polygon class="cls-14" points="452.99 284.06 450.82 289.12 452.8 289.81 452.99 284.06"/><circle class="cls-33" cx="443.81" cy="287.47" r="2.51"/><circle class="cls-33" cx="899.2" cy="286.22" r="2.51"/></g></g></g></svg>