<svg width="32" height="32" viewBox="0 0 32 32" fill="none" xmlns="http://www.w3.org/2000/svg">
<g clip-path="url(#clip0_180_31285)">
<path d="M4.92882 26.7786H9.74562V12.345H4.92882V26.7786ZM10.0817 7.86946C10.0443 6.45221 9.03617 5.37063 7.39323 5.37063C5.75029 5.37063 4.63011 6.45221 4.63011 7.86946C4.63011 9.24942 5.67561 10.3683 7.31855 10.3683C9.03617 10.3683 10.0817 9.24942 10.0817 7.86946ZM22.2544 26.7786H27.0712V18.4988C27.0712 14.0606 24.6814 12.0093 21.5449 12.0093C18.9312 12.0093 17.811 13.4266 17.1762 14.4336H17.2135V12.345H12.3967C12.3967 12.345 12.4714 13.6876 12.3967 26.7786H17.2135V18.6853C17.2135 18.2751 17.2509 17.8648 17.3629 17.5291C17.6989 16.6713 18.5204 15.7762 19.8273 15.7762C21.5823 15.7762 22.2544 17.0816 22.2544 19.0583V26.7786ZM32 6.00466V25.9953C32 29.3147 29.3116 32 25.9883 32H6.01167C2.68845 32 0 29.3147 0 25.9953V6.00466C0 2.68531 2.68845 0 6.01167 0H25.9883C29.3116 0 32 2.68531 32 6.00466Z" fill="#E2E2E2"/>
</g>
<defs>
<clipPath id="clip0_180_31285">
<rect width="32" height="32" fill="white"/>
</clipPath>
</defs>
</svg>
