<?xml version="1.0" encoding="UTF-8" standalone="no"?>
<svg width="100%" height="100%" viewBox="0 0 291 260" version="1.1" xmlns="http://www.w3.org/2000/svg" xmlns:xlink="http://www.w3.org/1999/xlink" xml:space="preserve" xmlns:serif="http://www.serif.com/" style="fill-rule:evenodd;clip-rule:evenodd;stroke-linejoin:round;stroke-miterlimit:2;">
    <g transform="matrix(1,0,0,1,-50.9992,-0.603858)">
        <g id="Untitled">
            <g>
                <path d="M223.68,217.052L198.724,167.606C188.312,171.895 178.66,175.441 169.397,179.794C164.83,181.944 161.04,182.446 157.827,181.648L151.954,189.417C172.383,201.831 197.041,207.296 223.68,217.052Z" style="fill:none;stroke:rgb(103,125,124);stroke-width:2px;fill-rule:nonzero;"/>
                <path d="M146.846,170.464C134.537,143.926 141.623,118.23 166.4,102.449C155.3,80.389 144.853,59.005 133.739,37.986C131.44,33.633 127.29,28.99 122.897,27.249C100.155,18.253 77.047,10.145 50.999,0.604C55.642,9.487 58.93,15.627 62.07,21.843C83.715,64.719 105.065,107.74 127.102,150.421C134.249,164.263 140.108,182.226 151.954,189.426L157.827,181.657C153.091,180.47 149.618,176.442 146.846,170.464Z" style="fill:none;stroke:rgb(255,50,65);stroke-width:2px;fill-rule:nonzero;"/>
                <path d="M330.796,239.347C309.151,196.471 287.801,153.451 265.764,110.769C258.625,96.93 252.766,78.967 240.921,71.768L235.047,79.536C239.783,80.714 243.257,84.759 246.028,90.72C258.338,117.258 251.252,142.954 226.475,158.735C237.575,180.795 248.022,202.179 259.136,223.198C261.434,227.551 265.584,232.194 269.978,233.935C292.72,242.931 315.828,251.039 341.875,260.58C337.241,251.706 333.944,245.566 330.796,239.347Z" style="fill:none;stroke:rgb(103,125,124);stroke-width:2px;fill-rule:nonzero;"/>
                <path d="M169.194,44.133L194.151,93.578C204.563,89.289 214.214,85.743 223.477,81.39C228.045,79.24 231.835,78.738 235.047,79.536L240.921,71.768C220.491,59.353 195.834,53.889 169.194,44.133Z" style="fill:none;stroke:rgb(255,50,65);stroke-width:2px;fill-rule:nonzero;"/>
            </g>
        </g>
    </g>
</svg>
