<svg width="1440" height="288" viewBox="0 0 1440 288" fill="none" xmlns="http://www.w3.org/2000/svg">
<rect width="1440" height="288" fill="url(#paint0_linear_180_32707)"/>
<g clip-path="url(#clip0_180_32707)">
<rect x="744" width="696" height="286" rx="40" fill="url(#paint1_linear_180_32707)"/>
<g opacity="0.4">
<mask id="mask0_180_32707" style="mask-type:alpha" maskUnits="userSpaceOnUse" x="557" y="-249" width="1428" height="812">
<g clip-path="url(#clip1_180_32707)">
<path d="M622 354.082C622 354.082 749.569 309.76 808.654 313.967C867.738 318.174 894.68 408.43 936.832 389.606C969.064 375.212 1050.46 319.326 1095.57 335.981C1217.07 380.845 1222.8 171.085 1277.75 181.22C1368.22 197.903 1292.96 375.356 1518.8 312.102C1593.52 291.173 1519.09 128.943 1579.44 110.928C1693.33 76.9314 1737.13 24.3289 1922.58 -31.0309" stroke="white" stroke-width="0.5" stroke-miterlimit="10"/>
<path d="M622.056 354.265C622.056 354.265 747.648 311.009 806.212 313.472C864.775 315.935 892.866 394.569 937.097 376.085C971.751 361.603 1048.55 312.648 1094.46 326.948C1213.96 364.169 1218.14 161.851 1275.03 170.927C1365 185.282 1293.08 361.533 1512.37 299.389C1584.84 278.869 1522.02 119.248 1582.78 101.875C1694.95 69.8072 1737.04 25.1209 1922.58 -31.0347" stroke="white" stroke-width="0.5" stroke-miterlimit="10"/>
<path d="M622.111 354.457C622.111 354.457 745.725 312.266 803.769 312.985C861.812 313.703 891.063 380.74 937.361 362.571C974.447 348.018 1046.52 305.996 1093.35 317.922C1210.62 347.788 1213.47 152.659 1272.3 160.642C1361.76 172.781 1293.2 347.718 1505.93 286.684C1576.15 266.573 1524.95 109.55 1586.13 92.8298C1696.55 62.654 1736.95 25.9207 1922.58 -31.0306" stroke="white" stroke-width="0.5" stroke-miterlimit="10"/>
<path d="M622.172 354.64C622.172 354.64 743.809 313.514 801.331 312.489C858.854 311.464 889.278 366.926 937.631 349.051C977.156 334.439 1044.4 299.375 1092.24 308.888C1207.09 331.723 1208.79 143.497 1269.58 150.349C1358.5 160.374 1293.32 333.895 1499.5 273.971C1567.47 254.268 1527.87 99.8336 1589.48 83.7767C1698.14 55.4577 1736.86 26.7128 1922.59 -31.0344" stroke="white" stroke-width="0.5" stroke-miterlimit="10"/>
<path d="M622.223 354.827C622.223 354.827 741.882 314.767 798.884 311.997C855.886 309.228 887.489 353.135 937.891 335.534C979.86 320.877 1042.17 292.814 1091.13 299.858C1203.39 316.012 1204.09 134.376 1266.85 140.06C1355.23 148.065 1293.44 320.075 1493.06 261.262C1558.78 241.968 1530.78 90.1084 1592.83 74.7274C1699.71 48.2288 1736.77 27.5086 1922.58 -31.0344" stroke="white" stroke-width="0.5" stroke-miterlimit="10"/>
<path d="M622.279 355.022C622.279 355.022 739.96 316.026 796.442 311.513C852.923 306.999 885.713 339.366 938.156 322.023C982.575 307.333 1039.87 286.334 1090.02 290.835C1199.57 300.67 1199.39 125.303 1264.13 129.778C1351.95 135.849 1293.56 306.263 1486.62 248.56C1550.09 229.674 1533.69 80.3775 1596.17 65.6843C1701.27 40.9703 1736.68 28.3111 1922.58 -31.0277" stroke="white" stroke-width="0.5" stroke-miterlimit="10"/>
<path d="M622.332 355.202C622.332 355.202 738.036 317.271 793.997 311.014C849.957 304.756 883.938 325.597 938.418 308.498C985.291 293.787 1037.5 279.93 1088.9 281.798C1195.65 285.679 1194.68 116.257 1261.4 119.482C1348.67 123.7 1293.68 292.436 1480.19 235.844C1541.4 217.366 1536.59 70.6182 1599.52 56.6276C1702.82 33.6627 1736.58 29.0996 1922.58 -31.035" stroke="white" stroke-width="0.5" stroke-miterlimit="10"/>
<path d="M622.39 355.392C622.39 355.392 736.116 318.526 791.556 310.525C846.996 302.523 881.879 310.846 938.685 294.984C988.271 281.137 1035.1 273.642 1087.79 272.771C1191.68 271.053 1189.96 107.264 1258.67 109.196C1345.39 111.633 1293.8 278.619 1473.75 223.137C1532.72 205.069 1539.48 60.8535 1602.87 47.5808C1704.36 26.3287 1736.49 29.898 1922.58 -31.0324" stroke="white" stroke-width="0.5" stroke-miterlimit="10"/>
<path d="M622.453 355.579C622.453 355.579 734.201 319.779 789.12 310.034C844.04 300.288 880.415 298.111 938.957 281.467C990.747 266.741 1032.68 267.472 1086.69 263.741C1187.68 256.766 1185.26 98.3121 1255.96 98.9067C1342.11 99.6315 1293.92 264.8 1467.32 210.429C1524.04 192.768 1542.38 51.0703 1606.22 38.5316C1705.89 18.9567 1736.41 30.6942 1922.59 -31.0322" stroke="white" stroke-width="0.5" stroke-miterlimit="10"/>
<path d="M622.505 355.768C622.505 355.768 732.275 321.033 786.674 309.543C841.073 298.054 878.649 284.383 939.217 267.951C993.47 253.232 1030.23 261.435 1085.58 254.713C1183.67 242.797 1180.54 89.4056 1253.23 88.6193C1338.83 87.6933 1294.04 250.982 1460.88 197.721C1515.35 180.469 1545.26 41.2708 1609.57 29.4835C1707.4 11.551 1736.32 31.4913 1922.59 -31.031" stroke="white" stroke-width="0.5" stroke-miterlimit="10"/>
<path d="M622.562 355.958C622.562 355.958 730.355 322.288 784.234 309.055C838.112 295.821 876.892 270.665 939.484 254.437C996.201 239.732 1025.85 238.512 1084.47 245.686C1182.99 257.744 1175.84 80.5459 1250.5 78.3335C1335.56 75.8127 1294.16 237.165 1454.45 185.015C1506.66 168.171 1548.14 31.4546 1612.91 20.4373C1708.9 4.11167 1736.23 32.2902 1922.59 -31.0278" stroke="white" stroke-width="0.5" stroke-miterlimit="10"/>
<path d="M622.612 356.134C622.612 356.134 728.427 323.53 781.785 308.553C835.142 293.575 875.127 256.94 939.742 240.909C998.925 226.225 1022.78 232.202 1083.35 236.646C1179.95 243.732 1171.13 71.7184 1247.77 68.0336C1332.28 63.9708 1294.27 223.335 1448.01 172.295C1497.97 155.86 1551 21.6038 1616.26 11.3768C1710.39 -3.37632 1736.13 33.0753 1922.58 -31.0385" stroke="white" stroke-width="0.5" stroke-miterlimit="10"/>
<path d="M622.676 356.327C622.676 356.327 726.513 324.788 779.35 308.066C832.187 291.345 873.378 243.238 940.015 227.397C1001.67 212.741 1019.76 226.383 1082.25 227.621C1176.9 229.497 1166.44 62.9531 1245.05 57.7498C1329.03 52.1918 1294.4 209.521 1441.58 159.591C1489.29 143.565 1553.88 11.7471 1619.61 2.33264C1711.89 -10.8826 1736.05 33.8763 1922.59 -31.0333" stroke="white" stroke-width="0.5" stroke-miterlimit="10"/>
<path d="M622.723 356.512C622.723 356.512 724.583 326.038 776.899 307.572C829.215 289.106 871.613 229.534 940.271 213.877C1004.39 199.254 1016.82 221.052 1081.13 218.589C1173.78 215.04 1161.75 54.2268 1242.32 47.4586C1325.77 40.4487 1294.51 195.699 1435.14 146.88C1480.6 131.262 1556.73 1.85922 1622.95 -6.71926C1713.36 -18.4309 1735.95 34.6695 1922.58 -31.0359" stroke="white" stroke-width="0.5" stroke-miterlimit="10"/>
<path d="M622.785 356.706C622.785 356.706 722.667 327.297 774.463 307.087C826.258 286.877 869.865 215.844 940.542 200.366C1007.13 185.783 1014.04 216.238 1080.02 209.565C1170.62 200.405 1157.08 45.5558 1239.6 37.1757C1322.53 28.7544 1294.64 181.886 1428.71 134.177C1471.92 118.968 1559.59 -8.04478 1626.3 -15.7625C1714.84 -26.0048 1735.86 35.4715 1922.59 -31.0298" stroke="url(#paint2_linear_180_32707)" stroke-width="0.5" stroke-miterlimit="10"/>
<path d="M622.838 356.888C622.838 356.888 720.743 328.544 772.018 306.59C823.293 284.636 868.108 202.148 940.804 186.843C1009.86 172.305 1016.39 228.351 1078.91 200.53C1160.88 164.055 1152.41 36.9204 1236.87 26.8816C1319.3 17.0851 1294.76 168.061 1422.27 121.463C1463.23 106.662 1562.44 -17.9872 1629.65 -24.817C1716.3 -33.6229 1735.77 36.2621 1922.58 -31.0348" stroke="white" stroke-width="0.5" stroke-miterlimit="10"/>
<path d="M622.89 357.078C622.89 357.078 718.817 329.8 769.572 306.102C820.326 282.404 866.35 188.464 941.065 173.33C1012.59 158.84 1014.36 223.379 1077.8 191.504C1157.41 151.501 1147.76 28.3409 1234.15 16.5964C1316.07 5.45763 1294.87 154.246 1415.83 108.758C1454.54 94.3649 1565.29 -27.9507 1632.99 -33.8628C1717.76 -41.2658 1735.68 37.0613 1922.58 -31.0313" stroke="white" stroke-width="0.5" stroke-miterlimit="10"/>
<path d="M622.957 357.267C622.957 357.267 716.906 331.054 767.14 305.612C817.374 280.17 864.608 174.782 941.341 159.814C1015.34 145.379 1012.45 218.547 1076.7 182.476C1154.08 139.031 1143.13 19.8065 1231.43 6.30894C1312.88 -6.14144 1295 140.428 1409.4 96.0502C1445.86 82.0661 1568.14 -37.9471 1636.35 -42.9106C1719.24 -48.9428 1735.6 37.8587 1922.59 -31.0298" stroke="white" stroke-width="0.5" stroke-miterlimit="10"/>
<path d="M623.008 357.448C623.008 357.448 714.98 332.3 764.693 305.114C814.406 277.927 862.85 161.096 941.601 146.29C1018.07 131.912 1010.64 213.837 1075.58 173.439C1150.86 126.613 1138.51 11.3106 1228.7 -3.98678C1309.67 -17.7208 1295.12 126.602 1402.96 83.3348C1437.17 69.7587 1570.98 -47.986 1639.69 -51.9671C1720.69 -56.6602 1735.5 38.6478 1922.59 -31.0364" stroke="white" stroke-width="0.5" stroke-miterlimit="10"/>
<path d="M623.06 357.638C623.06 357.638 713.053 333.556 762.246 304.625C811.439 275.695 861.092 147.423 941.861 132.776C1020.81 118.46 1008.96 209.258 1074.47 164.413C1147.75 114.243 1133.9 2.87109 1225.97 -14.2729C1306.49 -29.2654 1295.23 112.785 1396.52 70.6288C1428.48 57.4613 1573.82 -58.0511 1643.04 -61.0135C1722.15 -64.3993 1735.41 39.4471 1922.58 -31.0334" stroke="white" stroke-width="0.5" stroke-miterlimit="10"/>
<path d="M623.112 357.825C623.112 357.825 711.129 334.807 759.8 304.133C808.472 273.458 859.374 133.919 942.123 119.258C1023.58 105.175 1007.41 204.78 1073.35 155.382C1144.77 101.885 1129.31 -5.52582 1223.24 -24.5624C1303.32 -40.7907 1295.35 98.9653 1390.08 57.9187C1419.79 45.1595 1576.66 -68.1592 1646.38 -70.0637C1723.6 -72.1729 1735.31 40.2419 1922.58 -31.0344" stroke="white" stroke-width="0.5" stroke-miterlimit="10"/>
<path d="M623.175 358.011C623.175 358.011 709.213 336.059 757.365 303.64C805.516 271.222 857.616 120.192 942.394 105.74C1026.31 91.6717 1005.99 200.394 1072.25 146.351C1141.92 89.5273 1124.75 -13.8767 1220.52 -34.8526C1300.17 -52.2957 1295.48 85.1445 1383.66 45.2088C1411.11 32.858 1579.5 -78.3098 1649.74 -79.1143C1725.07 -79.9775 1735.23 41.0366 1922.58 -31.0355" stroke="white" stroke-width="0.5" stroke-miterlimit="10"/>
<path d="M623.225 358.2C623.225 358.2 707.286 337.313 754.917 303.15C802.548 268.988 855.845 106.469 942.653 92.2238C1029.03 78.1717 1004.69 196.087 1071.14 137.323C1139.17 77.1544 1120.2 -22.1795 1217.79 -45.1399C1297.02 -63.7787 1295.59 71.327 1377.22 32.5014C1402.42 20.5595 1582.34 -88.5027 1653.08 -88.1619C1726.54 -87.8082 1735.13 41.8341 1922.58 -31.0337" stroke="white" stroke-width="0.5" stroke-miterlimit="10"/>
<path d="M623.28 358.388C623.28 358.388 705.363 338.566 752.473 302.66C799.583 266.753 854.079 92.7442 942.917 78.7075C1031.76 64.6708 1003.51 191.838 1070.02 128.294C1136.54 64.7502 1115.67 -30.4381 1215.07 -55.4282C1293.89 -75.2457 1295.71 57.5086 1370.78 19.7931C1393.74 8.25947 1585.18 -98.7449 1656.42 -97.2104C1728.01 -95.6691 1735.04 42.6306 1922.58 -31.033" stroke="white" stroke-width="0.5" stroke-miterlimit="10"/>
</g>
</mask>
<g mask="url(#mask0_180_32707)">
<path d="M561.992 -149.016L1624.89 -466.299L1901.12 459.056C1904.28 469.64 1898.26 480.781 1887.68 483.941L863.102 789.783C852.518 792.942 841.377 786.923 838.217 776.339L561.992 -149.016Z" fill="#526160"/>
</g>
</g>
</g>
<defs>
<linearGradient id="paint0_linear_180_32707" x1="0" y1="0" x2="0" y2="288" gradientUnits="userSpaceOnUse">
<stop stop-color="#BBDED0"/>
<stop offset="1" stop-color="#87C2AA"/>
</linearGradient>
<linearGradient id="paint1_linear_180_32707" x1="744" y1="0" x2="744" y2="286" gradientUnits="userSpaceOnUse">
<stop stop-color="#BBDED0"/>
<stop offset="1" stop-color="#87C2AA"/>
</linearGradient>
<linearGradient id="paint2_linear_180_32707" x1="606.581" y1="302.425" x2="1906.31" y2="-85.5531" gradientUnits="userSpaceOnUse">
<stop stop-color="#563CC8"/>
<stop offset="1" stop-color="#D1C6F0"/>
</linearGradient>
<clipPath id="clip0_180_32707">
<rect x="744" width="696" height="286" rx="40" fill="white"/>
</clipPath>
<clipPath id="clip1_180_32707">
<rect width="1356.51" height="441.571" fill="white" transform="translate(557.867 139.363) rotate(-16.6207)"/>
</clipPath>
</defs>
</svg>
