<svg width="57" height="57" viewBox="0 0 57 57" fill="none" xmlns="http://www.w3.org/2000/svg">
<g style="mix-blend-mode:screen">
<rect x="0.431641" y="28.2852" width="40" height="40" rx="20" transform="rotate(-45 0.431641 28.2852)" fill="#323232"/>
<path d="M35.3851 22.3176C35.3851 21.9292 35.0703 21.6144 34.6819 21.6144L28.3538 21.6144C27.9655 21.6144 27.6507 21.9292 27.6507 22.3176C27.6507 22.7059 27.9655 23.0207 28.3538 23.0207L33.9788 23.0207L33.9788 28.6457C33.9788 29.034 34.2936 29.3488 34.6819 29.3488C35.0703 29.3488 35.3851 29.034 35.3851 28.6457L35.3851 22.3176ZM23.2467 34.7472L35.1791 22.8148L34.1848 21.8204L22.2523 33.7528L23.2467 34.7472Z" fill="#F7F7F7"/>
</g>
</svg>
