<?xml version="1.0" encoding="UTF-8" standalone="no"?>
<!DOCTYPE svg PUBLIC "-//W3C//DTD SVG 1.1//EN" "http://www.w3.org/Graphics/SVG/1.1/DTD/svg11.dtd">
<!-- Created with Vectornator (http://vectornator.io/) -->
<svg height="100%" stroke-miterlimit="10" style="fill-rule:nonzero;clip-rule:evenodd;stroke-linecap:round;stroke-linejoin:round;" version="1.1" viewBox="0 0 468.12 144" width="100%" xml:space="preserve" xmlns="http://www.w3.org/2000/svg" xmlns:vectornator="http://vectornator.io" xmlns:xlink="http://www.w3.org/1999/xlink">
<defs>
<linearGradient gradientTransform="matrix(-1 -8.74228e-08 8.74228e-08 -1 -6487.38 -9750.22)" gradientUnits="userSpaceOnUse" id="LinearGradient" x1="-6559.38" x2="-6487.38" y1="-9786.22" y2="-9786.22">
<stop offset="0.28" stop-color="#008065"/>
<stop offset="1" stop-color="#008065" stop-opacity="0"/>
</linearGradient>
<linearGradient gradientTransform="matrix(1 0 0 1 -936 1512)" gradientUnits="userSpaceOnUse" id="LinearGradient_2" x1="1008" x2="1080" y1="-1404" y2="-1404">
<stop offset="0.28" stop-color="#008065"/>
<stop offset="1" stop-color="#008065" stop-opacity="0"/>
</linearGradient>
</defs>
<clipPath id="ArtboardFrame">
<rect height="144" width="468.12" x="0" y="0"/>
</clipPath>
<g clip-path="url(#ArtboardFrame)" id="Untitled" vectornator:layerName="Untitled">
<path d="M72 72L144 144L144 42.18C144.005 23.0867 131.184 6.3709 112.742 1.42701C94.2996-3.51688 74.8363 4.54417 65.2903 21.0799C55.7442 37.6155 58.4964 58.5016 72 72Z" fill="#00cabb" fill-rule="nonzero" opacity="1" stroke="none" vectornator:layerName="path"/>
<path d="M0 101.82C-0.00521712 120.913 12.816 137.629 31.2582 142.573C49.7004 147.517 69.1637 139.456 78.7097 122.92C88.2558 106.384 85.5036 85.4984 72 72L0 0L0 101.82Z" fill="#00cabb" fill-rule="nonzero" opacity="1" stroke="none" vectornator:layerName="path"/>
<path d="M0 0L72 72C32.2355 72 4.86975e-15 39.7645 0 0Z" fill="url(#LinearGradient)" fill-rule="nonzero" opacity="1" stroke="none" vectornator:layerName="path"/>
<path d="M144 144L72 72C111.765 72 144 104.235 144 144Z" fill="url(#LinearGradient_2)" fill-rule="nonzero" opacity="1" stroke="none" vectornator:layerName="path"/>
<path d="M187.78 107.9L187.78 121.9L184.78 121.9L184.78 107.9L179.88 107.9L179.88 105.43L192.67 105.43L192.67 107.9L187.78 107.9Z" fill="#00cabb" fill-rule="nonzero" opacity="1" stroke="none" vectornator:layerName="path"/>
<path d="M205.2 107.9L205.2 112.17L211.7 112.17L211.7 114.65L205.2 114.65L205.2 119.39L212.3 119.39L212.3 121.87L202.2 121.87L202.2 105.43L212.3 105.43L212.3 107.9L205.2 107.9Z" fill="#00cabb" fill-rule="nonzero" opacity="1" stroke="none" vectornator:layerName="path"/>
<path d="M233.91 120.24C232.577 121.474 230.816 122.141 229 122.1C224.15 122.1 221.46 118.35 221.46 113.64C221.46 108.93 224.15 105.17 229 105.17C230.848 105.108 232.646 105.781 234 107.04L232 109.04C231.293 108.105 230.171 107.577 229 107.63C226.19 107.63 224.46 109.94 224.46 113.63C224.46 117.32 226.19 119.63 229 119.63C230.169 119.683 231.29 119.16 232 118.23L233.91 120.24Z" fill="#00cabb" fill-rule="nonzero" opacity="1" stroke="none" vectornator:layerName="path"/>
<path d="M252.89 121.87L252.89 114.87L246.61 114.87L246.61 121.87L243.61 121.87L243.61 105.43L246.61 105.43L246.61 112.43L252.89 112.43L252.89 105.43L255.89 105.43L255.89 121.87L252.89 121.87Z" fill="#00cabb" fill-rule="nonzero" opacity="1" stroke="none" vectornator:layerName="path"/>
<path d="M275.82 121.87L269.71 111.29L269.71 121.87L266.71 121.87L266.71 105.43L269.8 105.43L275.92 116L275.92 105.43L278.92 105.43L278.92 121.87L275.82 121.87Z" fill="#00cabb" fill-rule="nonzero" opacity="1" stroke="none" vectornator:layerName="path"/>
<path d="M304.14 113.64C304.14 118.4 301.46 122.12 296.58 122.12C291.7 122.12 289.04 118.41 289.04 113.64C289.04 108.87 291.73 105.17 296.58 105.17C301.43 105.17 304.14 108.92 304.14 113.64ZM292.04 113.64C292.04 117.33 293.83 119.64 296.58 119.64C299.33 119.64 301.14 117.37 301.14 113.64C301.14 109.91 299.38 107.64 296.58 107.64C293.78 107.64 292 110 292 113.64L292.04 113.64Z" fill="#00cabb" fill-rule="nonzero" opacity="1" stroke="none" vectornator:layerName="path"/>
<path d="M324.19 119.51L324.19 121.87L314.34 121.87L314.34 105.43L317.34 105.43L317.34 119.51L324.19 119.51Z" fill="#00cabb" fill-rule="nonzero" opacity="1" stroke="none" vectornator:layerName="path"/>
<path d="M347.75 113.64C347.75 118.4 345.07 122.12 340.19 122.12C335.31 122.12 332.65 118.41 332.65 113.64C332.65 108.87 335.34 105.17 340.19 105.17C345.04 105.17 347.75 108.92 347.75 113.64ZM335.65 113.64C335.65 117.33 337.44 119.64 340.19 119.64C342.94 119.64 344.75 117.37 344.75 113.64C344.75 109.91 343 107.64 340.19 107.64C337.38 107.64 335.65 110 335.65 113.64Z" fill="#00cabb" fill-rule="nonzero" opacity="1" stroke="none" vectornator:layerName="path"/>
<path d="M371 118.9C369.659 120.995 367.306 122.221 364.82 122.12C360.06 122.12 357.28 118.41 357.28 113.64C357.28 108.87 359.97 105.17 364.82 105.17C366.98 105.097 369.055 106.019 370.45 107.67L368.79 109.5C367.789 108.362 366.355 107.698 364.84 107.67C362.18 107.67 360.28 109.87 360.28 113.67C360.28 117.47 362.07 119.67 364.82 119.67C366.076 119.722 367.282 119.168 368.06 118.18L368.06 114.83L364.63 114.83L364.63 112.47L371 112.47L371 118.9Z" fill="#00cabb" fill-rule="nonzero" opacity="1" stroke="none" vectornator:layerName="path"/>
<path d="M381.66 121.87L381.66 105.43L384.66 105.43L384.66 121.87L381.66 121.87Z" fill="#00cabb" fill-rule="nonzero" opacity="1" stroke="none" vectornator:layerName="path"/>
<path d="M398.52 107.9L398.52 112.17L405 112.17L405 114.65L398.5 114.65L398.5 119.39L405.59 119.39L405.59 121.87L395.52 121.87L395.52 105.43L405.61 105.43L405.61 107.9L398.52 107.9Z" fill="#00cabb" fill-rule="nonzero" opacity="1" stroke="none" vectornator:layerName="path"/>
<path d="M416.49 117.57C417.678 118.943 419.425 119.704 421.24 119.64C422.85 119.64 424.36 119.02 424.36 117.27C424.36 115.21 422.93 115.2 420.53 114.68C417.83 114.11 415.27 113.27 415.27 110.06C415.27 106.85 418.44 105.14 421.68 105.14C423.445 105.118 425.179 105.601 426.68 106.53L425.06 108.76C423.994 107.951 422.688 107.522 421.35 107.54C419.78 107.54 418.35 108.23 418.35 109.9C418.35 111.57 420.09 111.9 421.45 112.25C424.59 112.95 427.57 113.52 427.57 117.25C427.57 120.59 424.36 122.14 421.19 122.14C418.8 122.14 416.19 121.26 414.86 119.81L416.49 117.57Z" fill="#00cabb" fill-rule="nonzero" opacity="1" stroke="none" vectornator:layerName="path"/>
<path d="M204.08 47.26C207.413 51.98 210.11 56.1733 212.17 59.84L212.37 59.84C212.097 53.84 211.96 49.4633 211.96 46.71L211.96 25.77L220.42 25.77L220.42 72L211.54 72L196.48 50.72C193.813 47.0333 191.073 42.76 188.26 37.9L188.05 37.9C188.33 43.5733 188.467 47.96 188.46 51.06L188.46 72L180 72L180 25.77L188.88 25.77L204.08 47.26Z" fill="#ffffff" fill-rule="nonzero" opacity="1" stroke="none" vectornator:layerName="path"/>
<path d="M242.4 72.86C239.504 72.9685 236.623 72.3822 234 71.15C231.922 70.1305 230.185 68.5289 229 66.54C228.387 65.4733 227.939 64.3204 227.67 63.12C227.369 61.761 227.225 60.3719 227.24 58.98L227.24 38.52L235.43 38.52L235.43 58.11C235.429 59.0797 235.519 60.0473 235.7 61C235.833 61.7417 236.076 62.4596 236.42 63.13C236.949 64.1099 237.77 64.9001 238.77 65.39C239.909 65.9067 241.15 66.1596 242.4 66.13C243.709 66.171 245.008 65.8858 246.18 65.3C247.231 64.75 248.065 63.8623 248.55 62.78C249.149 61.3479 249.422 59.8006 249.35 58.25L249.35 38.52L257.53 38.52L257.53 59C257.603 61.3687 257.12 63.7215 256.12 65.87C255.585 66.933 254.89 67.9076 254.06 68.76C253.18 69.6471 252.168 70.3926 251.06 70.97C249.838 71.61 248.537 72.0841 247.19 72.38C245.617 72.7226 244.01 72.8836 242.4 72.86Z" fill="#ffffff" fill-rule="nonzero" opacity="1" stroke="none" vectornator:layerName="path"/>
<path d="M307 51.62C307 50.9 307 50.23 306.93 49.62C306.893 49.0738 306.81 48.5318 306.68 48C306.468 47.0435 305.948 46.1829 305.2 45.55C304.313 44.8618 303.212 44.5077 302.09 44.55C301.343 44.5526 300.599 44.6569 299.88 44.86C299.096 45.077 298.335 45.3718 297.61 45.74C296.853 46.1289 296.136 46.5911 295.47 47.12C294.776 47.6788 294.142 48.3089 293.58 49L293.58 72L285.4 72L285.4 51.62C285.4 50.9 285.4 50.23 285.33 49.62C285.293 49.0738 285.21 48.5318 285.08 48C284.867 47.0485 284.356 46.19 283.62 45.55C282.728 44.8557 281.619 44.5012 280.49 44.55C279.743 44.5533 278.999 44.6575 278.28 44.86C277.499 45.0753 276.741 45.3702 276.02 45.74C274.48 46.5189 273.118 47.6084 272.02 48.94L272.02 72L263.84 72L263.84 38.52L270.61 38.52L271.37 43.19L271.51 43.19C272.041 42.4549 272.655 41.7838 273.34 41.19C274.099 40.5017 274.939 39.9074 275.84 39.42C276.819 38.9016 277.852 38.4925 278.92 38.2C280.073 37.8832 281.264 37.7251 282.46 37.73C284.554 37.688 286.623 38.1948 288.46 39.2C290.263 40.2419 291.67 41.8527 292.46 43.78L292.6 43.78C293.237 42.8935 293.96 42.0727 294.76 41.33C295.562 40.5919 296.448 39.9508 297.4 39.42C298.392 38.8873 299.442 38.4712 300.53 38.18C301.698 37.8736 302.902 37.7223 304.11 37.73C306.207 37.6929 308.277 38.2104 310.11 39.23C311.708 40.1879 313.007 41.5733 313.86 43.23C314.095 43.6886 314.289 44.1671 314.44 44.66C314.616 45.2328 314.75 45.8177 314.84 46.41C314.95 47.1191 315.024 47.8334 315.06 48.55C315.11 49.33 315.13 50.23 315.13 51.25L315.13 72L307 72L307 51.62Z" fill="#ffffff" fill-rule="nonzero" opacity="1" stroke="none" vectornator:layerName="path"/>
<path d="M339 66.27C340.678 66.26 342.352 66.0959 344 65.78C345.781 65.4466 347.535 64.9855 349.25 64.4L349.25 70.93C347.677 71.5349 346.044 71.9739 344.38 72.24C342.135 72.6617 339.855 72.8693 337.57 72.86C335.289 72.8737 333.016 72.5674 330.82 71.95C328.764 71.3678 326.86 70.344 325.24 68.95C323.587 67.5054 322.29 65.6985 321.45 63.67C320.456 61.1649 319.979 58.4843 320.05 55.79C319.993 53.0647 320.44 50.3524 321.37 47.79C322.139 45.6771 323.337 43.7465 324.89 42.12C326.343 40.6715 328.084 39.5438 330 38.81C331.876 38.0719 333.874 37.692 335.89 37.69C337.887 37.6766 339.871 38.0151 341.75 38.69C343.509 39.3087 345.096 40.337 346.38 41.69C347.755 43.2317 348.779 45.0537 349.38 47.03C350.156 49.528 350.524 52.1348 350.47 54.75C350.47 55.9 350.41 56.88 350.37 57.69L328.43 57.69C328.489 59.0613 328.829 60.4059 329.43 61.64C329.968 62.6919 330.746 63.6029 331.7 64.3C332.691 65.0121 333.812 65.5218 335 65.8C336.309 66.118 337.653 66.2759 339 66.27ZM335.72 44.08C333.868 44.0359 332.091 44.8161 330.87 46.21C330.267 46.885 329.793 47.6645 329.47 48.51C329.114 49.4042 328.882 50.3429 328.78 51.3L342 51.3C342.008 50.3551 341.873 49.4145 341.6 48.51C341.362 47.6752 340.964 46.8943 340.43 46.21C339.909 45.5505 339.246 45.0173 338.49 44.65C337.634 44.2467 336.695 44.0514 335.75 44.08L335.72 44.08Z" fill="#ffffff" fill-rule="nonzero" opacity="1" stroke="none" vectornator:layerName="path"/>
<path d="M354.22 55.93C354.176 53.2735 354.585 50.629 355.43 48.11C356.133 45.9852 357.255 44.0231 358.73 42.34C360.046 40.8379 361.678 39.646 363.51 38.85C365.278 38.0854 367.184 37.6906 369.11 37.69C369.969 37.6863 370.827 37.7667 371.67 37.93C372.447 38.0882 373.209 38.3089 373.95 38.59C374.635 38.8578 375.303 39.1684 375.95 39.52C376.57 39.87 377.15 40.23 377.68 40.59L377.75 40.59C377.75 40.13 377.75 39.48 377.7 38.59C377.65 37.7 377.7 36.84 377.7 35.85L377.7 22L385.89 22L385.89 62.05C385.89 64.26 385.89 66.16 385.96 67.75C386.03 69.34 386.05 70.75 386.1 72L378.7 72L378.36 68.44L378.22 68.44C377.691 69.0574 377.105 69.6232 376.47 70.13C375.781 70.6946 375.03 71.1778 374.23 71.57C373.37 72.0037 372.465 72.3391 371.53 72.57C370.483 72.8057 369.413 72.9198 368.34 72.91C366.547 72.9029 364.77 72.5639 363.1 71.91C361.405 71.2454 359.873 70.222 358.61 68.91C357.187 67.3923 356.103 65.589 355.43 63.62C354.583 61.1464 354.174 58.5442 354.22 55.93ZM370.35 66.33C371.127 66.3364 371.902 66.232 372.65 66.02C374.031 65.6198 375.314 64.9389 376.42 64.02C376.871 63.6497 377.292 63.2452 377.68 62.81L377.68 47C376.692 46.189 375.599 45.5162 374.43 45C373.231 44.4795 371.937 44.2138 370.63 44.22C369.713 44.2315 368.805 44.4076 367.95 44.74C366.974 45.1184 366.1 45.7213 365.4 46.5C364.516 47.5186 363.856 48.7108 363.46 50C362.889 51.8203 362.625 53.723 362.68 55.63C362.68 58.9633 363.347 61.59 364.68 63.51C365.96 65.3619 368.101 66.4268 370.35 66.33Z" fill="#ffffff" fill-rule="nonzero" opacity="1" stroke="none" vectornator:layerName="path"/>
<path d="M392.57 22L401.18 22L401.18 30.88L392.57 30.88L392.57 22ZM392.78 38.55L401 38.55L401 72L392.81 72L392.78 38.55Z" fill="#ffffff" fill-rule="nonzero" opacity="1" stroke="none" vectornator:layerName="path"/>
<path d="M431.66 71.28C430.43 71.7694 429.158 72.1444 427.86 72.4C426.3 72.7143 424.712 72.8684 423.12 72.86C420.824 72.8891 418.539 72.5515 416.35 71.86C414.319 71.2069 412.449 70.1336 410.86 68.71C409.24 67.2352 407.976 65.413 407.16 63.38C406.215 60.9775 405.756 58.4112 405.81 55.83C405.736 52.9841 406.268 50.1549 407.37 47.53C408.286 45.3951 409.65 43.482 411.37 41.92C413.008 40.4772 414.924 39.3847 417 38.71C418.963 38.053 421.02 37.7154 423.09 37.71C424.54 37.7036 425.986 37.8376 427.41 38.11C428.7 38.3452 429.963 38.7104 431.18 39.2L431.18 45.87C430.137 45.4214 429.056 45.0666 427.95 44.81C426.742 44.5394 425.508 44.4052 424.27 44.41C422.989 44.4083 421.715 44.6143 420.5 45.02C419.312 45.4189 418.226 46.0744 417.32 46.94C416.335 47.9142 415.585 49.1012 415.13 50.41C414.552 52.0812 414.278 53.8422 414.32 55.61C414.312 57.0202 414.522 58.4233 414.94 59.77C415.315 60.9929 415.93 62.1285 416.75 63.11C417.595 64.0638 418.635 64.8243 419.8 65.34C421.179 65.9305 422.67 66.217 424.17 66.18C425.54 66.1938 426.906 66.0427 428.24 65.73C429.417 65.4416 430.573 65.0741 431.7 64.63L431.66 71.28Z" fill="#ffffff" fill-rule="nonzero" opacity="1" stroke="none" vectornator:layerName="path"/>
<path d="M468.12 55.28C468.152 57.7241 467.752 60.1546 466.94 62.46C466.215 64.5214 465.067 66.4085 463.57 68C462.081 69.5583 460.273 70.7762 458.27 71.57C456.06 72.4353 453.703 72.8632 451.33 72.83C448.914 72.8684 446.514 72.4406 444.26 71.57C442.268 70.7759 440.473 69.5577 439 68C437.512 66.3955 436.374 64.4985 435.66 62.43C434.113 57.7649 434.113 52.7251 435.66 48.06C436.38 46.0059 437.517 44.1231 439 42.53C440.489 40.9695 442.297 39.7484 444.3 38.95C446.513 38.0846 448.874 37.6567 451.25 37.69C453.669 37.6662 456.07 38.1111 458.32 39C460.331 39.7898 462.144 41.0119 463.63 42.58C465.123 44.1631 466.271 46.0395 467 48.09C467.782 50.4049 468.161 52.8369 468.12 55.28ZM459.65 55.28C459.679 53.6912 459.47 52.107 459.03 50.58C458.679 49.3391 458.092 48.1778 457.3 47.16C456.595 46.2636 455.682 45.553 454.64 45.09C453.576 44.6198 452.424 44.3812 451.26 44.39C450.11 44.3832 448.971 44.6218 447.92 45.09C446.887 45.5595 445.982 46.2693 445.28 47.16C444.492 48.1802 443.905 49.3407 443.55 50.58C442.723 53.6588 442.723 56.9012 443.55 59.98C443.905 61.217 444.5 62.3721 445.3 63.38C446.027 64.2706 446.951 64.9794 448 65.45C449.057 65.9338 450.208 66.1764 451.37 66.16C452.526 66.1764 453.67 65.9338 454.72 65.45C455.742 64.9729 456.639 64.2642 457.34 63.38C458.106 62.3711 458.67 61.2233 459 60C459.451 58.4679 459.67 56.877 459.65 55.28Z" fill="#ffffff" fill-rule="nonzero" opacity="1" stroke="none" vectornator:layerName="path"/>
</g>
</svg>
