<?xml version="1.0" encoding="UTF-8"?>
<svg width="120" height="40" viewBox="0 0 120 40" fill="none" xmlns="http://www.w3.org/2000/svg">
  <path d="M10 10H12V28H10V10Z" fill="#ffffff"/>
  <path d="M14 10H16V28H14V10Z" fill="#ffffff"/>
  <path d="M18 10H28C30.2 10 32 11.8 32 14V24C32 26.2 30.2 28 28 28H18V10ZM28 26C29.1 26 30 25.1 30 24V14C30 12.9 29.1 12 28 12H20V26H28Z" fill="#ffffff"/>
  <path d="M34 10H44C46.2 10 48 11.8 48 14V24C48 26.2 46.2 28 44 28H34V10ZM44 26C45.1 26 46 25.1 46 24V14C46 12.9 45.1 12 44 12H36V26H44Z" fill="#ffffff"/>
  <path d="M60 10H62V28H60V10Z" fill="#ffffff"/>
  <path d="M64 10H74V12H66V18H72V20H66V26H74V28H64V10Z" fill="#ffffff"/>
  <path d="M76 10H86V12H78V18H84V20H78V26H86V28H76V10Z" fill="#ffffff"/>
  <path d="M88 10H98V12H90V18H96V20H90V26H98V28H88V10Z" fill="#ffffff"/>
  <path d="M100 10H110V12H102V18H108V20H102V26H110V28H100V10Z" fill="#ffffff"/>
</svg>
