<?xml version="1.0" encoding="UTF-8"?>
<svg width="120" height="40" viewBox="0 0 120 40" fill="none" xmlns="http://www.w3.org/2000/svg">
  <circle cx="20" cy="20" r="18" stroke="#ffffff" stroke-width="2"/>
  <path d="M15 15H25V17H17V19H23V21H17V23H25V25H15V15Z" fill="#ffffff"/>
  <path d="M40 15H50C52 15 54 17 54 19V21C54 23 52 25 50 25H40V15ZM50 23C50.5 23 52 22.5 52 21V19C52 17.5 50.5 17 50 17H42V23H50Z" fill="#ffffff"/>
  <path d="M56 15H58L64 25H62L60.5 22.5H53.5L52 25H50L56 15ZM59.5 20.5L57 17L54.5 20.5H59.5Z" fill="#ffffff"/>
  <path d="M70 15H72V23H80V25H70V15Z" fill="#ffffff"/>
  <path d="M82 15H84V25H82V15Z" fill="#ffffff"/>
  <path d="M86 15H88L94 21.5V15H96V25H94L88 18.5V25H86V15Z" fill="#ffffff"/>
  <path d="M98 15H108V17H100V19H106V21H100V23H108V25H98V15Z" fill="#ffffff"/>
</svg>
