<?xml version="1.0" encoding="UTF-8"?>
<svg width="120" height="40" viewBox="0 0 120 40" fill="none" xmlns="http://www.w3.org/2000/svg">
  <path d="M10 10H20V12H16V28H14V12H10V10Z" fill="#ffffff"/>
  <path d="M22 10H32V12H24V18H30V20H24V26H32V28H22V10Z" fill="#ffffff"/>
  <path d="M34 10H44V12H36V18H42V20H36V26H44V28H34V10Z" fill="#ffffff"/>
  <path d="M46 10H56V12H48V18H54V20H48V26H56V28H46V10Z" fill="#ffffff"/>
  <path d="M58 10H68V12H60V18H66V20H60V26H68V28H58V10Z" fill="#ffffff"/>
  <path d="M70 10H80V12H72V18H78V20H72V26H80V28H70V10Z" fill="#ffffff"/>
  <path d="M82 10H92V12H84V18H90V20H84V26H92V28H82V10Z" fill="#ffffff"/>
  <path d="M94 10H104V12H96V18H102V20H96V26H104V28H94V10Z" fill="#ffffff"/>
  <path d="M106 10H116V12H108V18H114V20H108V26H116V28H106V10Z" fill="#ffffff"/>
</svg>
