<svg width="33" height="34" viewBox="0 0 33 34" fill="none" xmlns="http://www.w3.org/2000/svg">
<path d="M26.8005 0.332031C30.2275 0.332031 33 3.10126 33 6.52434V27.1397C33 30.5628 30.2275 33.332 26.8005 33.332H22.7958V20.5243H27.07L27.6861 15.5628H22.7958V12.3705C22.7958 10.9474 23.1809 9.98588 25.2602 9.98588L27.8786 9.94742V5.52434C27.4166 5.44742 25.8378 5.33203 24.028 5.33203C20.2544 5.33203 17.6359 7.63972 17.6359 11.909V15.5628H13.3232V20.5243H17.6359V33.332H6.19953C2.77246 33.332 0 30.5628 0 27.1397V6.52434C0 3.10126 2.77246 0.332031 6.19953 0.332031H26.8005Z" fill="#636363"/>
</svg>
