<svg width="32" height="33" viewBox="0 0 32 33" fill="none" xmlns="http://www.w3.org/2000/svg">
<g clip-path="url(#clip0_180_31483)">
<path d="M4.92882 27.1106H9.74562V12.677H4.92882V27.1106ZM10.0817 8.20149C10.0443 6.78425 9.03617 5.70266 7.39323 5.70266C5.75029 5.70266 4.63011 6.78425 4.63011 8.20149C4.63011 9.58145 5.67561 10.7003 7.31855 10.7003C9.03617 10.7003 10.0817 9.58145 10.0817 8.20149ZM22.2544 27.1106H27.0712V18.8309C27.0712 14.3926 24.6814 12.3414 21.5449 12.3414C18.9312 12.3414 17.811 13.7586 17.1762 14.7656H17.2135V12.677H12.3967C12.3967 12.677 12.4714 14.0197 12.3967 27.1106H17.2135V19.0173C17.2135 18.6071 17.2509 18.1968 17.3629 17.8612C17.699 17.0034 18.5204 16.1083 19.8273 16.1083C21.5823 16.1083 22.2544 17.4136 22.2544 19.3903V27.1106ZM32 6.33669V26.3274C32 29.6467 29.3116 32.332 25.9883 32.332H6.01167C2.68845 32.332 0 29.6467 0 26.3274V6.33669C0 3.01735 2.68845 0.332031 6.01167 0.332031H25.9883C29.3116 0.332031 32 3.01735 32 6.33669Z" fill="#636363"/>
</g>
<defs>
<clipPath id="clip0_180_31483">
<rect width="32" height="32" fill="white" transform="translate(0 0.332031)"/>
</clipPath>
</defs>
</svg>
