<svg width="57" height="57" viewBox="0 0 57 57" fill="none" xmlns="http://www.w3.org/2000/svg">
<g style="mix-blend-mode:screen">
<rect x="0.431641" y="28.6172" width="40" height="40" rx="20" transform="rotate(-45 0.431641 28.6172)" fill="#323232"/>
<path d="M35.3856 22.6496C35.3856 22.2613 35.0708 21.9465 34.6824 21.9465L28.3543 21.9465C27.966 21.9465 27.6512 22.2613 27.6512 22.6496C27.6512 23.0379 27.966 23.3527 28.3543 23.3527L33.9793 23.3527L33.9793 28.9777C33.9793 29.3661 34.2941 29.6809 34.6824 29.6809C35.0708 29.6809 35.3856 29.3661 35.3856 28.9777L35.3856 22.6496ZM23.2472 35.0792L35.1796 23.1468L34.1852 22.1524L22.2528 34.0848L23.2472 35.0792Z" fill="#F7F7F7"/>
</g>
</svg>
