<svg width="44" height="20" viewBox="0 0 44 20" fill="none" xmlns="http://www.w3.org/2000/svg">
<g clip-path="url(#clip0_2_9)">
<path d="M28.5 2C32.6422 2 36 5.35783 36 9.49998C36 13.6421 32.6422 17 28.5 17C24.3579 17 21 13.6421 21 9.49998C21 5.35783 24.3579 2 28.5 2Z" fill="white"/>
<path d="M7.49998 2C11.6421 2 15 5.35783 15 9.49998C15 13.6421 11.6421 17 7.49998 17C3.35783 17 0 13.6421 0 9.49998C0 5.35783 3.35783 2 7.49998 2Z" fill="white"/>
</g>
<defs>
<clipPath id="clip0_2_9">
<rect width="20" height="44" fill="white" transform="matrix(0 -1 1 0 0 20)"/>
</clipPath>
</defs>
</svg>
