<svg id="Layer_1" xmlns="http://www.w3.org/2000/svg" width="280" height="99.7" viewBox="0 0 280 99.7"><style>.st0{fill:#fff}.st1{fill:#25abe0}</style><path class="st0" d="M54.6 54.8c-1.6 0-3.8-.9-5.3-2.3L48 55.3c1.7 1.5 4.2 2.4 6.6 2.4 3.3 0 5.9-1.6 5.9-4.6 0-5.5-8-4-8-6.8 0-.8.8-1.3 1.9-1.3 1.2 0 3.1.6 4.7 1.6l1.3-2.9c-1.5-1-3.6-1.6-5.7-1.7-3.5 0-5.8 1.8-5.8 4.6 0 5.4 8 3.7 8 6.6-.1 1.1-.9 1.6-2.3 1.6zm12.7-1.4h3c3.8 0 6-2.1 6-5.6 0-3.5-2.2-5.4-6-5.4h-6.4v15.4h3.4v-4.4zm0-8.2h2.8c1.9 0 3 .8 3 2.5 0 1.8-1.1 2.7-3 2.7h-2.8v-5.2zm20.6 9.5l1.2 3h3.6l-6.4-15.4h-3.5l-6.5 15.4h3.5l1.2-3h6.9zM84.4 46l2.3 6H82l2.4-6zm23 9.1l-2-2.2c-1 1.1-2.5 1.8-3.9 1.8-2.5 0-4.5-2.1-4.5-4.7 0-2.7 2-4.7 4.6-4.7 1.4 0 2.9.8 3.9 2l2-2.4c-1.5-1.6-3.7-2.5-6-2.5-4.5 0-8 3.3-8 7.8s3.4 7.9 7.9 7.9c2.2-.2 4.4-1.3 6-3zm14.6-.3h-8.3v-3.4h7.2v-2.8h-7.2v-3.4h8.1v-2.9h-11.5v15.4H122zm9.7-12.4h3.4v15.4h-3.4zm18.2 9.8l-7.3-9.8h-3.1v15.4h3.2v-9.9l7.2 9.9h3.2V42.4h-3.2zm13.9-9.8h-6.4v15.4h6.2c4.8 0 8-3.2 8-7.7.1-4.6-3.1-7.7-7.8-7.7zm.1 12.4h-3.1v-9.5h2.9c2.6 0 4.5 2 4.5 4.8s-1.8 4.7-4.3 4.7zm24.2-12.4h-3.4v8.9c0 2.2-1.3 3.6-3.4 3.6-2 0-3.4-1.3-3.4-3.6v-8.9h-3.4v9c0 4 2.7 6.6 6.8 6.6 4.2 0 6.7-2.5 6.7-6.6h-.1v-9zm7.4 4.1c0-.8.8-1.3 1.9-1.3 1.2 0 3.1.6 4.7 1.6l1.3-2.9c-1.5-1-3.6-1.7-5.7-1.7-3.5 0-5.8 1.8-5.8 4.6 0 5.4 8 3.7 8 6.6 0 1-.8 1.5-2.2 1.5-1.6 0-3.8-.9-5.3-2.3l-1.3 2.8c1.7 1.5 4.2 2.4 6.6 2.4 3.3 0 5.9-1.6 5.9-4.6-.1-5.5-8.1-3.9-8.1-6.7zm10.2-1.2h4.5v12.5h3.4V45.3h4.6v-2.9h-12.5zm27.9 2.4c0-3.5-2.2-5.4-6.2-5.4h-6.5v15.4h3.4v-4.4h3.4l2.5 4.5h3.8l-3.2-5.1c1.8-.9 2.8-2.6 2.8-5zm-6.2 2.7h-3.1v-5.2h3.1c1.9 0 3 .8 3 2.5-.1 1.8-1.1 2.7-3 2.7zm14.7-1.1l-3.9-6.9h-3.4l5.6 10.5v4.9h3.3v-5l5.5-10.4h-3.4zM56.2 65.9c1.4 0 2.9.8 3.9 2l2-2.4c-1.5-1.5-3.7-2.5-6-2.6-4.5 0-8 3.3-8 7.8s3.4 7.9 7.9 7.9c2.2 0 4.5-1.1 6.1-2.8l-2-2.2c-1 1.1-2.5 1.8-3.9 1.8-2.6 0-4.6-2.1-4.6-4.7 0-2.8 2-4.8 4.6-4.8zm12.4 6.2h7.2v-2.9h-7.2v-3.4h8.1V63H65.2v15.4h11.7v-2.9h-8.3zm22.5.8L83.7 63h-3.1v15.4h3.2v-9.9l7.3 9.9h3.2V63h-3.2zm5.8-6.9h4.6v12.4h3.4V66h4.6v-2.9H96.9zm28 2.4c0-3.5-2.2-5.4-6.2-5.4h-6.5v15.4h3.4V74h3.4l2.5 4.5h3.8l-3.2-5.1c1.8-.9 2.8-2.6 2.8-5zm-6.2 2.7h-3.1v-5.2h3.1c1.9 0 3 .8 3 2.5-.1 1.8-1.2 2.7-3 2.7zm13.1 1h7.2v-2.9h-7.2v-3.4h8.1V63h-11.5v15.4h11.7v-2.9h-8.3zm4.7-38.2h6.8l1.2 3h3.6l-6.4-15.3h-3.5l-6.5 15.3h3.5l1.3-3zm3.5-8.7l2.3 5.9h-4.7l2.4-5.9zm23.4 5.3l-.1-8.9H160v8.9c0 2.2-1.3 3.6-3.3 3.6s-3.4-1.3-3.4-3.6v-8.9h-3.4v8.9c0 4.1 2.6 6.6 6.8 6.6 4.1 0 6.7-2.5 6.7-6.6zm15.3 1.9c.1-5.5-7.9-3.9-7.9-6.7 0-.8.8-1.3 1.9-1.3 1.2 0 3.1.6 4.7 1.6l1.3-2.9c-1.5-1-3.6-1.6-5.7-1.7-3.5 0-5.8 1.8-5.8 4.5 0 5.4 8 3.8 8 6.6 0 1-.8 1.5-2.2 1.5-1.6 0-3.7-.9-5.3-2.3l-1.3 2.8c1.7 1.5 4.2 2.4 6.6 2.4 3.1.1 5.7-1.5 5.7-4.5zm14.7-10.8h-12.5v2.9h4.6v12.4h3.3V24.5h4.6zm12.5 10.3c1.8-.8 2.8-2.5 2.8-4.9 0-3.4-2.2-5.3-6.1-5.3h-6.5V37h3.4v-4.4h3.4l2.3 4.4h3.8l-3.1-5.1zm-3.3-2.3h-3.1v-5.2h3.1c1.9 0 3 .8 3 2.5 0 1.8-1.1 2.7-3 2.7zm12.5 4.3h6.8l1.2 3h3.6l-6.4-15.3h-3.5l-6.5 15.3h3.5l1.3-3zm3.5-8.7l2.3 5.9h-4.7l2.4-5.9zm20.2 8.7h-6.5V21.6h-3.4v15.3h9.9zm6.1-12.3h-3.3V37h3.3zm9.5 0l-6.5 15.3h3.5l1.2-3h6.8l1.2 3h3.6l-6.4-15.3h-3.4zm-.7 9.6l2.3-5.9 2.4 5.9h-4.7zm23.1-9.6v9.9l-7.3-9.9h-3v15.3h3.2v-9.8l7.2 9.8v.1h3.1V21.6zM54.5 34.2c-1.6 0-3.7-.9-5.3-2.3l-1.3 2.8c1.7 1.5 4.2 2.4 6.6 2.4 3.3 0 5.9-1.6 5.9-4.6 0-5.5-8-4-8-6.8 0-.8.8-1.3 1.9-1.3 1.2 0 3.1.6 4.7 1.6l1.3-2.9c-1.5-1-3.6-1.7-5.7-1.6-3.5 0-5.8 1.8-5.8 4.5 0 5.4 8 3.8 8 6.6-.1 1.1-.9 1.6-2.3 1.6zm15.6 3c4.6 0 8-3.4 8-7.8 0-4.5-3.5-7.8-8-7.8-4.6 0-8 3.3-8 7.8 0 4.4 3.5 7.8 8 7.8zm0-12.6c2.5 0 4.6 2.1 4.6 4.8 0 2.7-2.1 4.8-4.6 4.8-2.5 0-4.6-2.1-4.6-4.8 0-2.7 2.1-4.8 4.6-4.8zm16.8 12.6c4.2 0 6.7-2.5 6.7-6.6h-.1v-8.9h-3.4v8.9c0 2.2-1.3 3.6-3.3 3.6s-3.4-1.3-3.4-3.6v-8.9H80v8.9c.1 4.1 2.8 6.6 6.9 6.6zm13.3-.1h3.4V24.6h4.6v-2.9H95.6v2.9h4.6zm13.6-6.1h6.8v6h3.3V21.7h-3.3v6.4h-6.8v-6.4h-3.4V37h3.4z"/><path class="st1" d="M64.5 11.2c0-.3-.2-.6-.4-.8C52.2.2 37.6-2.7 25.1 2.6c-6.6 2.8-11.9 7.7-15.6 13.7h-.4c-2 0-3.6 1.6-3.6 3.7 0 .9.3 1.7.9 2.4-3.2 7.7-4.3 16.7-3 25.9-2 .8-3.4 2.7-3.4 5 0 3 2.4 5.4 5.3 5.4h.5c.4 1.1.8 2.3 1.3 3.4 4.8 11.7 13 21 22.6 26.4-.2.8-.3 1.5-.3 2.4 0 4.9 3.9 8.8 8.6 8.8 3.8 0 7.1-2.6 8.2-6.2.7 0 1.4.1 2 .1 4.5 0 8.7-.8 12.8-2.6.6-.3.9-1 .6-1.5-.3-.6-.9-.9-1.5-.6-4.3 1.8-8.9 2.6-13.6 2.4v-.2c0-4.9-3.9-8.8-8.6-8.8-3.1 0-5.9 1.7-7.4 4.3-9.4-5.3-17-14.1-21.4-25.1C8.7 60.1 8.3 59 8 58c1.6-.9 2.6-2.7 2.6-4.6 0-2.9-2.2-5.2-5-5.4-1.2-8.7-.2-17.1 2.7-24.3.2.1.5.1.8.1 2 0 3.6-1.6 3.6-3.7 0-1-.4-2-1.1-2.7C15.1 11.9 20 7.5 26 4.9c11.7-5 25.4-2.2 36.7 7.4.3.2.5.3.8.3.3-.1.6-.2.8-.4.1-.4.2-.7.2-1zM38 97.8c-3.7 0-6.7-3.1-6.7-6.9 0-.5.1-1 .2-1.5 4.1 2.1 8.5 3.4 12.9 3.9-1.1 2.6-3.5 4.5-6.4 4.5zM38 84c3.7 0 6.7 3.1 6.7 6.9v.1c-4.2-.5-8.4-1.7-12.4-3.8 1.2-1.9 3.3-3.2 5.7-3.2zM1.9 53.4c0-1.3.7-2.5 1.8-3.1.4 2.2.9 4.4 1.6 6.6-2-.1-3.4-1.6-3.4-3.5zm6.8 0c0 1.1-.5 2.1-1.3 2.8-.6-2.1-1.1-4.1-1.5-6.2 1.6.2 2.8 1.6 2.8 3.4zM7.3 20c0-.7.4-1.2.9-1.5-.3.6-.6 1.1-.9 1.7V20zm3.5 0c0 1-.8 1.8-1.8 1.8.4-1 .9-1.9 1.5-2.8.2.3.3.6.3 1z"/><path class="st0" d="M4.7 29.9c-1.4 0-2.6 1.2-2.6 2.7 0 1.5 1.1 2.7 2.6 2.7s2.6-1.2 2.6-2.7c0-1.5-1.2-2.7-2.6-2.7m0 7.2c-2.4 0-4.5-2-4.5-4.6 0-2.5 2-4.6 4.5-4.6s4.5 2 4.5 4.6c-.1 2.5-2.1 4.6-4.5 4.6m9.4 30.4c-2.8 0-5.1 2.3-5.1 5.2 0 2.9 2.3 5.2 5.1 5.2s5.1-2.3 5.1-5.2c0-2.9-2.3-5.2-5.1-5.2m0 12.3c-3.8 0-7-3.2-7-7.1 0-3.9 3.1-7.1 7-7.1s7 3.2 7 7.1c0 3.9-3.2 7.1-7 7.1"/></svg>