<svg xmlns="http://www.w3.org/2000/svg" xmlns:xlink="http://www.w3.org/1999/xlink" viewBox="0 0 413.9 332.8"><defs><style>.cls-1{fill:none;}.cls-2{fill:#d8dfe9;}.cls-3{fill:#fff;}.cls-4{isolation:isolate;}.cls-5{fill:#ccd4eb;}.cls-6{fill:#a4a9c2;}.cls-7{fill:#e8eef4;}.cls-8{fill:#14213d;}.cls-9{fill:#c5c5c5;}.cls-10{fill:#898989;}.cls-11{fill:#dcdcdc;}.cls-12{clip-path:url(#clip-path);}.cls-13{fill:#c1c8dc;}.cls-14{clip-path:url(#clip-path-2);}.cls-15{clip-path:url(#clip-path-3);}.cls-16{clip-path:url(#clip-path-4);}.cls-17{clip-path:url(#clip-path-5);}.cls-18{clip-path:url(#clip-path-6);}.cls-19{clip-path:url(#clip-path-7);}.cls-20{clip-path:url(#clip-path-8);}.cls-21{clip-path:url(#clip-path-9);}.cls-22{clip-path:url(#clip-path-10);}.cls-23{clip-path:url(#clip-path-11);}.cls-24{clip-path:url(#clip-path-12);}.cls-25{clip-path:url(#clip-path-13);}.cls-26{clip-path:url(#clip-path-14);}.cls-27{clip-path:url(#clip-path-15);}.cls-28{clip-path:url(#clip-path-16);}.cls-29{clip-path:url(#clip-path-17);}.cls-30{clip-path:url(#clip-path-18);}.cls-31{clip-path:url(#clip-path-19);}.cls-32{clip-path:url(#clip-path-20);}.cls-33{clip-path:url(#clip-path-21);}.cls-34{clip-path:url(#clip-path-22);}.cls-35{clip-path:url(#clip-path-23);}.cls-36{clip-path:url(#clip-path-24);}.cls-37{opacity:0.1;mix-blend-mode:screen;}.cls-38,.cls-40{fill:#e8505b;}.cls-39{fill:#263238;}.cls-40{fill-rule:evenodd;}.cls-41{fill:#f5f5f5;}.cls-42{fill:#fafafa;}</style><clipPath id="clip-path"><path class="cls-1" d="M292.1,216.91l-13.4,7.59a.81.81,0,0,1,.82.09L292.93,217A.83.83,0,0,0,292.1,216.91Z"/></clipPath><clipPath id="clip-path-2"><path class="cls-1" d="M280.31,227.35l13.4-7.6a.8.8,0,0,0,.35-.74,2.55,2.55,0,0,0-1.13-2l-13.41,7.59a2.52,2.52,0,0,1,1.13,2A.8.8,0,0,1,280.31,227.35Z"/></clipPath><clipPath id="clip-path-3"><path class="cls-1" d="M261.16,229.21l15.45-8.92a3.12,3.12,0,0,1,3.16.32l-15.45,8.93A3.15,3.15,0,0,0,261.16,229.21Z"/></clipPath><clipPath id="clip-path-4"><path class="cls-1" d="M282.86,231.15l-15.44,8.93a3.1,3.1,0,0,0,1.3-2.85,9.75,9.75,0,0,0-4.4-7.69l15.45-8.93a9.77,9.77,0,0,1,4.4,7.7A3.1,3.1,0,0,1,282.86,231.15Z"/></clipPath><clipPath id="clip-path-5"><path class="cls-1" d="M192.9,176.6l-7.58-4.55c-3.12-1.84-7.46-1.62-12.26,1.1l7.58,4.55C185.45,175,189.78,174.76,192.9,176.6Z"/></clipPath><clipPath id="clip-path-6"><path class="cls-1" d="M160.62,213.81l7.58,4.55c-3.08-1.82-5-5.65-4.94-11.07.06-10.93,7.84-24.17,17.38-29.59l-7.58-4.55c-9.55,5.42-17.33,18.66-17.38,29.58C155.65,208.16,157.54,212,160.62,213.81Z"/></clipPath><clipPath id="clip-path-7"><path class="cls-1" d="M242.05,209.12l-48.24-28.5c-2.74-1.62-6.55-1.42-10.78,1l48.24,28.5C235.5,207.7,239.31,207.5,242.05,209.12Z"/></clipPath><clipPath id="clip-path-8"><path class="cls-1" d="M172.09,217.34l48.25,28.5c-2.71-1.6-4.37-5-4.34-9.74,0-9.6,6.88-21.25,15.27-26L183,181.59c-8.39,4.76-15.23,16.41-15.28,26C167.73,212.37,169.39,215.74,172.09,217.34Z"/></clipPath><clipPath id="clip-path-9"><path class="cls-1" d="M279.09,237.58l-38.75-22.81c-2-1.21-4.88-1.06-8,.73l38.74,22.81C274.2,236.52,277,236.38,279.09,237.58Z"/></clipPath><clipPath id="clip-path-10"><path class="cls-1" d="M224.15,242.15,262.89,265c-2-1.19-3.25-3.7-3.23-7.26,0-7.16,5.13-15.84,11.39-19.39L232.31,215.5c-6.26,3.55-11.36,12.23-11.4,19.39C220.89,238.45,222.13,241,224.15,242.15Z"/></clipPath><clipPath id="clip-path-11"><path class="cls-1" d="M224.48,250l15.44-8.93a3.14,3.14,0,0,1,3.16.32l-15.44,8.93A3.12,3.12,0,0,0,224.48,250Z"/></clipPath><clipPath id="clip-path-12"><path class="cls-1" d="M246.18,251.92l-15.45,8.92A3.11,3.11,0,0,0,232,258a9.76,9.76,0,0,0-4.4-7.69l15.44-8.93a9.78,9.78,0,0,1,4.4,7.7A3.13,3.13,0,0,1,246.18,251.92Z"/></clipPath><clipPath id="clip-path-13"><path class="cls-1" d="M226.63,253.86l-13.41,7.6a.81.81,0,0,1,.82.09l13.41-7.6A.81.81,0,0,0,226.63,253.86Z"/></clipPath><clipPath id="clip-path-14"><path class="cls-1" d="M214.83,264.3l13.41-7.59a.83.83,0,0,0,.35-.74,2.55,2.55,0,0,0-1.14-2L214,261.55a2.52,2.52,0,0,1,1.14,2A.82.82,0,0,1,214.83,264.3Z"/></clipPath><clipPath id="clip-path-15"><path class="cls-1" d="M278.06,243.44l15.05,8.78c-1.24-.74-3-.65-4.91.45l-15.05-8.78C275.07,242.79,276.81,242.7,278.06,243.44Z"/></clipPath><clipPath id="clip-path-16"><path class="cls-1" d="M283.21,269l-15-8.78c-1.24-.73-2-2.27-2-4.45a15.18,15.18,0,0,1,7-11.86l15.05,8.78a15.15,15.15,0,0,0-7,11.86C281.22,266.71,282,268.25,283.21,269Z"/></clipPath><clipPath id="clip-path-17"><path class="cls-1" d="M293.46,254l5.85,3.4c-1.08-.63-2.58-.56-4.24.39l-5.86-3.4C290.88,253.45,292.38,253.37,293.46,254Z"/></clipPath><clipPath id="clip-path-18"><path class="cls-1" d="M290.75,271.89l-5.85-3.4c-1.07-.63-1.72-2-1.71-3.84a13.08,13.08,0,0,1,6-10.25l5.86,3.4a13.09,13.09,0,0,0-6,10.25C289,269.93,289.69,271.26,290.75,271.89Z"/></clipPath><clipPath id="clip-path-19"><path class="cls-1" d="M350,291.19l-16.87-9.65a.56.56,0,0,0-.59.06l16.88,9.65A.59.59,0,0,1,350,291.19Z"/></clipPath><clipPath id="clip-path-20"><path class="cls-1" d="M331.93,283.55l16.88,9.65a.57.57,0,0,1-.24-.53,1.8,1.8,0,0,1,.82-1.42l-16.88-9.65a1.81,1.81,0,0,0-.82,1.42A.6.6,0,0,0,331.93,283.55Z"/></clipPath><clipPath id="clip-path-21"><path class="cls-2" d="M194.23,171.24l.05,13.56a2.84,2.84,0,0,0,1.64,2.3,8.83,8.83,0,0,0,8,0,2.84,2.84,0,0,0,1.66-2.33l-.05-13.56a2.83,2.83,0,0,1-1.67,2.32,8.75,8.75,0,0,1-8,0A2.79,2.79,0,0,1,194.23,171.24Z"/></clipPath><clipPath id="clip-path-22"><path class="cls-2" d="M195.31,142.47l0,28.66a2.29,2.29,0,0,0,1.33,1.86,7.12,7.12,0,0,0,6.45,0,2.25,2.25,0,0,0,1.35-1.89l0-28.66a2.29,2.29,0,0,1-1.35,1.89,7.14,7.14,0,0,1-6.46,0A2.26,2.26,0,0,1,195.31,142.47Z"/></clipPath><clipPath id="clip-path-23"><path class="cls-2" d="M196.35,119.85l0,22.16a1.75,1.75,0,0,0,1,1.44,5.55,5.55,0,0,0,5,0,1.77,1.77,0,0,0,1-1.46l0-22.16a1.79,1.79,0,0,1-1,1.46,5.57,5.57,0,0,1-5,0A1.76,1.76,0,0,1,196.35,119.85Z"/></clipPath><clipPath id="clip-path-24"><path class="cls-3" d="M198.48,36.72l0,67.73a.68.68,0,0,0,.4.56,2.14,2.14,0,0,0,1.94,0,.68.68,0,0,0,.4-.56l0-67.74a.7.7,0,0,1-.4.57,2.14,2.14,0,0,1-1.94,0A.71.71,0,0,1,198.48,36.72Z"/></clipPath></defs><g class="cls-4"><g id="Layer_2" data-name="Layer 2"><g id="Features"><g id="satellite"><path class="cls-3" d="M158.15,211.58a1.83,1.83,0,0,0-.13-.16l-.25-.38a2.14,2.14,0,0,1-.13-.19l-.24-.42-.1-.17c-.11-.2-.21-.41-.31-.62l0-.1c-.08-.18-.16-.37-.23-.56l-.09-.22c0-.16-.11-.32-.16-.48a1.83,1.83,0,0,1-.08-.25q-.07-.25-.15-.54l-.06-.2c-.06-.25-.11-.5-.17-.76,0-.06,0-.11,0-.16l-.09-.5c0-.05,0-.1,0-.15s0-.19,0-.29l-.06-.57,0-.31c0-.2,0-.4,0-.61s0-.19,0-.28c0-.31,0-.61,0-.93s0-.67,0-1c0-.12,0-.24,0-.35s0-.44.05-.66v0a.28.28,0,0,1,0-.09c0-.28.06-.57.09-.85l0-.24c0-.31.09-.62.14-.93a.44.44,0,0,1,0-.1c0-.28.1-.57.15-.86a1.89,1.89,0,0,0,.05-.23l.21-.94,0-.11c.07-.29.14-.57.22-.86l.06-.23a1.33,1.33,0,0,0,.05-.19c0-.08,0-.16.08-.24.09-.32.19-.64.29-1,0-.13.09-.26.13-.4.13-.37.26-.74.4-1.11l.06-.17c.16-.43.33-.85.5-1.28,0-.11.1-.23.16-.35.13-.31.27-.63.41-.94l.18-.39c.17-.36.35-.72.53-1.07l.09-.18c.21-.41.43-.82.65-1.22l.2-.34c.17-.3.34-.6.52-.9l.22-.37c.21-.34.42-.67.64-1L162,184q.38-.58.78-1.14l.23-.31c.2-.28.41-.56.62-.83l.26-.34c.24-.31.48-.61.73-.91l.14-.16c.29-.35.59-.69.89-1l.25-.27c.23-.25.46-.49.7-.73l.29-.3q.41-.41.81-.78l.16-.15c.32-.3.65-.59,1-.87l.27-.23.76-.61.18-.14.2-.16.32-.23.51-.36.3-.21.56-.37.27-.17.83-.5.85-.46.29-.13.47-.23.11-.05.17-.08.66-.28.14,0,.75-.27.17-.06.65-.2.11,0,.73-.17.17,0L179,171l.08,0h0l.19,0,.62-.07h.31l.51,0H181l.47,0,.32,0,.45.05.31.06.43.09.3.08.43.13.27.1c.15,0,.3.12.45.18l.22.1c.22.1.43.22.64.34l7.58,4.55,0,0a9.87,9.87,0,0,1,4.33,6l44.85,26.5h0c2.62,1.53,4.26,4.72,4.36,9.22l32.71,19.25h0c2,1.19,3.27,3.71,3.25,7.28,0,.34,0,.7,0,1.05l10.81,6.31h0a4,4,0,0,1,1.79,2.63l4.4,2.55h0c1.08.63,1.73,2,1.72,3.84a13.09,13.09,0,0,1-6,10.26c-1.67.94-3.18,1-4.26.37h0l-4.47-2.6a4,4,0,0,1-3.18-.38l.11.07-10.34-6a18.13,18.13,0,0,1-1.94,1.29c-3.24,1.84-6.15,1.94-8.21.61l.17.11-33-19.45c-3.84,1.82-7.27,1.78-9.76.18l.24.15-45-26.57a9.63,9.63,0,0,1-7.43-1.08l.26.17-7.58-4.55a5.69,5.69,0,0,1-.52-.33l-.15-.11-.34-.27-.17-.13-.32-.3-.14-.13c-.15-.15-.29-.3-.43-.46l0,0C158.39,211.89,158.26,211.74,158.15,211.58Zm5.13-3.37h0c0-.3,0-.61,0-.92C163.26,207.6,163.27,207.9,163.28,208.21Zm1.3,6h0c-.06-.12-.11-.25-.16-.38,0,.09.07.19.11.28S164.56,214.16,164.58,214.19Zm1.55,2.44,0,0-.24-.29.18.23S166.12,216.62,166.13,216.63ZM167.6,218l-.21-.17.14.12Zm-.54-.42-.19-.18.16.15ZM165.64,216l-.15-.22.12.17Zm-.4-.59-.15-.25.14.23Zm-.34-.59a3.18,3.18,0,0,1-.16-.32l.14.3Zm-.67-1.49c0-.09-.07-.19-.1-.28l.09.25Zm-.25-.73c0-.11-.06-.23-.1-.34l.09.31Zm-.21-.75-.09-.43c0,.14,0,.28.09.41Zm-.19-.89c0-.14-.05-.28-.07-.42l.06.37Zm-.15-1c0-.13,0-.26-.05-.39,0,.12,0,.25.05.37Zm-.1-.89,0-.52,0,.51ZM216,236.91h0c0-.26,0-.53,0-.81C216,236.37,216,236.64,216,236.91Zm1.14,5.26h0l-.14-.33.1.24Zm1.37,2.15h0l-.2-.25.16.2Zm1.29,1.17-.19-.14.13.1Zm-.48-.37-.17-.16.14.13Zm-1.25-1.35-.13-.19.11.15Zm-.34-.52a2.39,2.39,0,0,1-.13-.21l.11.19Zm-.31-.52c-.05-.09-.09-.18-.14-.28l.13.26Zm-.59-1.3c0-.09-.05-.17-.08-.25s.05.14.07.22Zm-.22-.65c0-.1-.05-.2-.08-.3,0,.1.05.19.08.28Zm-.18-.66c0-.12-.05-.25-.08-.37,0,.12,0,.24.08.36Zm-.17-.78-.06-.37.06.32Zm-.13-.86c0-.11,0-.22,0-.33,0,.11,0,.21,0,.32Zm-.08-.78,0-.44,0,.44Zm43.61,20.61h0c0-.2,0-.4,0-.61C259.66,257.91,259.66,258.11,259.67,258.31Zm.85,3.92h0c0-.08-.07-.17-.11-.25l.08.18Zm1,1.6h0l-.15-.19.11.15Zm1,.87-.14-.1.1.07Zm-.35-.27-.13-.12.1.1Zm-.93-1a.71.71,0,0,1-.1-.14l.07.11ZM261,263l-.1-.17.08.15Zm-.23-.39-.11-.21a1.74,1.74,0,0,1,.1.19Zm-.44-1-.06-.18c0,.06,0,.11,0,.16Zm-.16-.48-.06-.22a1.6,1.6,0,0,0,.05.21Zm-.14-.49-.06-.27.06.26Zm-.12-.58a2.56,2.56,0,0,1-.05-.27,1.57,1.57,0,0,0,0,.23Zm-.1-.64,0-.24c0,.07,0,.15,0,.23Zm-.07-.58c0-.11,0-.22,0-.33,0,.11,0,.22,0,.32Zm39.23-1.67h0l.06,0Zm-.17-.07-.08,0h0l.08,0Zm-.34-.09ZM292.67,252h0l.07,0Zm-.2-.07-.09,0h0l.1,0Zm-.38-.1h0l.05,0Zm-19.26-14.37h0l.15-.05h0ZM240,208.31h0Zm-.65-.13h0Zm-.68-.08h0Zm-1.41,0h0ZM190.6,175.67h0l0,0Zm-.75-.15h0l.12,0Zm-8.08,1.59.07,0-.06,0Zm109.56,74.64h0Zm-.34,0h0Zm-1.72.4Zm-17.48-14.23,0,0,0,0Zm-39.52-28.35,0,0,0,0ZM289.74,252h0Zm.55-.14.1,0h0l-.1,0Zm.35-.06h0ZM185.91,175.65h0l.29,0Zm-.89.21h0l.35-.09Zm-.77.23h0l.28-.09Zm-.93.33.33-.12-.32.12Zm-.79.33h0l.25-.11Zm4.11-1.22h0l.28,0h0A1.52,1.52,0,0,0,186.64,175.53Zm.82-.09.29,0h-.29Zm.81,0h0Zm.79,0,.18,0h-.18Zm43.86,33.83.21-.09-.2.09Zm.71-.29.29-.11-.28.1Zm.8-.29.25-.07-.23.07Zm.67-.2.31-.08-.29.07Zm.78-.18.25-.05-.23,0Zm.64-.12.24,0h0l-.2,0Zm37,29,.09,0-.09,0Zm1.49-.35.16,0h0l-.13,0Zm.54-.06h0Zm1.05,0h0Zm.51.06h0Zm.49.1h0Zm-1.37-.17h0ZM297.77,257Zm-.29,0h0Zm-.3,0h0Zm-.22,0h-.09l.09,0Zm-.56.13Zm-.38.13h0Zm-58-49.27h0Zm55,44.06h0l.05,0Zm6.22,5.2h0l0,0Zm-8.78,14.29h0Zm-.34-.33h0Zm-.29-.39v0Zm-.25-.46h0Zm-.2-.51h0Zm-.14-.57h0Zm-.09-.63Zm-6.08.11-.11-.09Zm-.21-.17-.11-.09Zm-.21-.18-.1-.11Zm-1.34-3.56v0Zm1.15,3.36-.09-.12Zm-.17-.22-.09-.13Zm-.17-.24-.08-.13Zm-.15-.25-.07-.15Zm-.14-.28-.06-.15Zm-.12-.29-.06-.16Zm-.1-.3-.06-.18Zm-.1-.32a1.42,1.42,0,0,0,0-.2A1.42,1.42,0,0,1,281.43,266.39Zm-.07-.34a2.07,2.07,0,0,0,0-.22A2.07,2.07,0,0,1,281.36,266.05Zm-.06-.36,0-.23Zm0-.37c0-.09,0-.19,0-.28C281.25,265.13,281.25,265.23,281.26,265.32ZM261.7,264l.12.13,0,0Zm-43-19.46.17.18,0,0A1.8,1.8,0,0,1,218.73,244.54Zm-52.36-27.65.19.2,0,0Z"/><g class="cls-4"><polygon class="cls-5" points="202.28 184.66 202.29 186.87 217.67 195.81 217.66 193.6 202.28 184.66"/><polygon class="cls-6" points="217.66 193.6 217.67 195.81 305.92 144.86 305.91 142.65 217.66 193.6"/><polygon class="cls-7" points="202.28 184.66 217.66 193.6 305.91 142.65 290.53 133.71 202.28 184.66"/><polygon class="cls-8" points="203.63 184.66 208.13 187.27 208.4 187.43 212.78 189.97 213.04 190.13 217.66 192.81 217.71 192.79 221.58 190.55 221.85 190.4 225.72 188.16 226 188 229.87 185.77 229.87 185.77 230.14 185.61 234.01 183.38 234.01 183.38 234.28 183.22 238.15 180.98 238.16 180.98 238.43 180.83 242.3 178.59 242.57 178.44 246.44 176.2 246.71 176.04 250.58 173.81 250.85 173.65 254.73 171.42 255 171.26 258.87 169.03 259.14 168.87 263.01 166.63 263.01 166.63 263.28 166.48 267.15 164.24 267.43 164.09 271.3 161.85 271.57 161.69 275.44 159.46 275.71 159.3 279.58 157.07 279.86 156.91 283.73 154.67 284 154.52 287.87 152.28 288.14 152.12 292.01 149.89 292.29 149.73 296.16 147.5 296.43 147.34 300.3 145.11 300.57 144.95 304.56 142.65 299.94 139.96 299.67 139.8 295.29 137.26 295.02 137.1 290.53 134.49 286.49 136.82 286.22 136.98 282.35 139.21 282.08 139.37 278.21 141.61 277.94 141.76 274.06 144 273.79 144.15 269.92 146.39 269.65 146.55 265.78 148.78 265.51 148.94 261.63 151.17 261.36 151.33 257.49 153.56 257.22 153.72 253.35 155.96 253.08 156.12 249.21 158.35 248.94 158.5 245.06 160.74 244.79 160.9 240.92 163.13 240.65 163.29 236.78 165.53 236.51 165.68 232.63 167.92 232.36 168.07 228.49 170.31 228.22 170.47 224.35 172.7 224.08 172.86 220.21 175.09 219.94 175.25 216.06 177.49 215.79 177.64 211.92 179.88 211.65 180.03 207.78 182.27 207.51 182.43 203.63 184.66"/><polygon class="cls-7" points="207.51 182.43 212.01 185.03 212.28 185.18 216.68 187.72 216.95 187.88 221.58 190.55 221.85 190.4 217.22 187.72 216.95 187.56 212.56 185.03 212.28 184.87 207.78 182.27 207.51 182.43"/><polygon class="cls-7" points="219.94 175.25 224.44 177.85 224.71 178.01 229.1 180.54 229.38 180.7 234.01 183.38 234.01 183.38 234.28 183.22 229.65 180.54 229.38 180.39 224.99 177.85 224.71 177.69 220.21 175.09 219.94 175.25"/><polygon class="cls-7" points="224.08 172.86 228.59 175.46 228.86 175.62 233.25 178.15 233.52 178.31 238.15 180.98 238.16 180.98 238.43 180.83 233.79 178.15 233.52 178 229.13 175.46 228.86 175.3 224.35 172.7 224.08 172.86"/><polygon class="cls-7" points="232.36 168.07 236.87 170.68 237.14 170.83 241.53 173.37 241.8 173.53 246.44 176.2 246.71 176.04 242.08 173.37 242.07 173.37 241.81 173.21 237.41 170.68 237.14 170.52 232.63 167.92 232.36 168.07"/><polygon class="cls-7" points="257.22 153.72 261.73 156.32 262 156.48 266.39 159.02 266.66 159.17 271.3 161.85 271.57 161.69 266.93 159.02 266.66 158.86 262.27 156.32 262 156.17 257.49 153.56 257.22 153.72"/><polygon class="cls-7" points="277.94 141.76 282.44 144.37 282.71 144.52 287.11 147.06 287.38 147.21 292.01 149.89 292.29 149.73 287.65 147.06 287.38 146.9 282.99 144.36 282.71 144.21 278.21 141.61 277.94 141.76"/><polygon class="cls-7" points="215.79 177.64 220.3 180.24 220.57 180.4 224.96 182.94 225.23 183.09 229.87 185.77 229.87 185.77 230.14 185.61 225.5 182.94 225.23 182.78 220.84 180.24 220.57 180.09 216.06 177.49 215.79 177.64"/><polygon class="cls-7" points="228.22 170.47 232.73 173.07 233 173.22 233 173.22 237.39 175.76 237.66 175.92 242.3 178.59 242.57 178.44 237.93 175.76 237.66 175.6 233.27 173.07 233 172.91 228.49 170.31 228.22 170.47"/><polygon class="cls-7" points="208.13 187.27 207.87 187.42 208.14 187.58 212.53 190.11 212.81 190.27 213.04 190.13 217.66 192.81 217.71 192.79 213.08 190.11 212.81 189.96 208.41 187.42 208.14 187.26 203.63 184.66 208.13 187.27"/><polygon class="cls-7" points="211.65 180.03 216.16 182.64 216.43 182.79 220.82 185.33 221.09 185.49 225.72 188.16 226 188 221.36 185.33 221.09 185.17 216.7 182.64 216.43 182.48 211.92 179.88 211.65 180.03"/><polygon class="cls-7" points="236.51 165.68 241.01 168.28 241.28 168.44 245.68 170.98 245.95 171.13 250.58 173.81 250.85 173.65 246.22 170.98 245.95 170.82 241.56 168.28 241.28 168.13 236.78 165.53 236.51 165.68"/><polygon class="cls-7" points="244.79 160.9 249.3 163.5 249.57 163.66 253.96 166.19 254.23 166.35 258.87 169.03 259.14 168.87 254.5 166.19 254.23 166.04 249.84 163.5 249.57 163.34 245.06 160.74 244.79 160.9"/><polygon class="cls-7" points="253.08 156.12 257.58 158.72 257.86 158.87 262.25 161.41 262.52 161.57 267.15 164.24 267.43 164.09 262.79 161.41 262.52 161.25 258.13 158.72 257.86 158.56 253.35 155.96 253.08 156.12"/><polygon class="cls-7" points="269.65 146.55 274.16 149.15 274.43 149.3 274.43 149.3 278.82 151.84 279.09 152 283.73 154.67 284 154.52 279.36 151.84 279.09 151.68 274.7 149.15 274.43 148.99 269.92 146.39 269.65 146.55"/><polygon class="cls-7" points="240.65 163.29 245.16 165.89 245.43 166.05 249.82 168.58 250.09 168.74 254.73 171.42 255 171.26 250.36 168.58 250.09 168.43 245.7 165.89 245.43 165.74 240.92 163.13 240.65 163.29"/><polygon class="cls-7" points="261.36 151.33 265.87 153.93 266.14 154.09 270.53 156.62 270.81 156.78 275.44 159.46 275.71 159.3 271.08 156.62 270.81 156.47 266.41 153.93 266.14 153.78 261.63 151.17 261.36 151.33"/><polygon class="cls-7" points="248.94 158.5 253.44 161.11 253.71 161.26 258.11 163.8 258.38 163.96 263.01 166.63 263.01 166.63 263.28 166.48 258.65 163.8 258.38 163.64 253.98 161.11 253.71 160.95 249.21 158.35 248.94 158.5"/><polygon class="cls-7" points="265.51 148.94 270.01 151.54 270.29 151.7 274.68 154.23 274.95 154.39 279.58 157.07 279.86 156.91 275.22 154.23 274.95 154.08 270.56 151.54 270.29 151.38 265.78 148.78 265.51 148.94"/><polygon class="cls-7" points="273.79 144.15 278.3 146.76 278.57 146.91 278.57 146.91 282.96 149.45 283.23 149.6 287.87 152.28 288.14 152.12 283.5 149.45 283.23 149.29 278.84 146.76 278.57 146.6 274.06 144 273.79 144.15"/><polygon class="cls-7" points="282.08 139.37 286.59 141.97 286.86 142.13 291.25 144.66 291.52 144.82 296.16 147.5 296.43 147.34 291.79 144.66 291.52 144.51 287.13 141.97 286.86 141.82 282.35 139.21 282.08 139.37"/><polygon class="cls-7" points="286.22 136.98 290.73 139.58 291 139.74 295.39 142.27 295.66 142.43 300.3 145.11 300.57 144.95 295.93 142.27 295.66 142.12 291.27 139.58 291 139.42 286.49 136.82 286.22 136.98"/><polygon class="cls-7" points="212.53 190.11 212.81 190.27 213.04 190.13 213.08 190.11 216.95 187.88 217.22 187.72 221.09 185.49 221.36 185.33 225.23 183.09 225.5 182.94 229.38 180.7 229.65 180.54 233.52 178.31 233.79 178.15 237.66 175.92 237.93 175.76 241.8 173.53 242.07 173.37 242.08 173.37 245.95 171.13 246.22 170.98 250.09 168.74 250.36 168.58 254.23 166.35 254.5 166.19 258.38 163.96 258.65 163.8 262.52 161.57 262.79 161.41 266.66 159.17 266.93 159.02 270.81 156.78 271.08 156.62 274.95 154.39 275.22 154.23 279.09 152 279.36 151.84 283.23 149.6 283.5 149.45 287.38 147.21 287.65 147.06 291.52 144.82 291.79 144.66 295.66 142.43 295.93 142.27 299.94 139.96 299.67 139.8 295.66 142.12 295.39 142.27 291.52 144.51 291.25 144.66 287.38 146.9 287.11 147.06 283.23 149.29 282.96 149.45 279.09 151.68 278.82 151.84 274.95 154.08 274.68 154.23 270.81 156.47 270.53 156.62 266.66 158.86 266.39 159.02 262.52 161.25 262.25 161.41 258.38 163.64 258.11 163.8 254.23 166.04 253.96 166.19 250.09 168.43 249.82 168.58 245.95 170.82 245.68 170.98 241.81 173.21 241.53 173.37 237.66 175.6 237.39 175.76 233.52 178 233.25 178.15 229.38 180.39 229.1 180.54 225.23 182.78 224.96 182.94 221.09 185.17 220.82 185.33 216.95 187.56 216.68 187.72 212.81 189.96 212.78 189.97 212.53 190.11"/><polygon class="cls-7" points="207.87 187.42 208.14 187.58 208.4 187.43 208.41 187.42 212.28 185.18 212.56 185.03 216.43 182.79 216.7 182.64 220.57 180.4 220.84 180.24 224.71 178.01 224.99 177.85 228.86 175.62 229.13 175.46 233 173.22 233 173.22 233.27 173.07 237.14 170.83 237.41 170.68 241.28 168.44 241.56 168.28 245.43 166.05 245.7 165.89 249.57 163.66 249.84 163.5 253.71 161.26 253.98 161.11 257.86 158.87 258.13 158.72 262 156.48 262.27 156.32 266.14 154.09 266.41 153.93 270.29 151.7 270.56 151.54 274.43 149.3 274.43 149.3 274.7 149.15 278.57 146.91 278.57 146.91 278.84 146.76 282.71 144.52 282.99 144.36 286.86 142.13 287.13 141.97 291 139.74 291.27 139.58 295.29 137.26 295.02 137.1 291 139.42 290.73 139.58 286.86 141.82 286.59 141.97 282.71 144.21 282.44 144.37 278.57 146.6 278.3 146.76 274.43 148.99 274.16 149.15 270.29 151.38 270.01 151.54 266.14 153.78 265.87 153.93 262 156.17 261.73 156.32 257.86 158.56 257.58 158.72 253.71 160.95 253.44 161.11 249.57 163.34 249.3 163.5 245.43 165.74 245.16 165.89 241.28 168.13 241.01 168.28 237.14 170.52 236.87 170.68 233 172.91 232.73 173.07 228.86 175.3 228.59 175.46 224.71 177.69 224.44 177.85 220.57 180.09 220.3 180.24 216.43 182.48 216.16 182.64 212.28 184.87 212.01 185.03 208.14 187.26 208.13 187.27 207.87 187.42"/></g><g class="cls-4"><polygon class="cls-9" points="413.9 173.04 413.9 174.64 390.31 188.35 390.32 186.75 413.9 173.04"/><polygon class="cls-10" points="390.32 186.75 390.31 188.35 345.38 162.42 345.39 160.82 390.32 186.75"/><polygon class="cls-11" points="413.9 173.04 390.32 186.75 345.39 160.82 368.97 147.11 413.9 173.04"/></g><polygon class="cls-8" points="347.02 160.66 354.6 165.04 368.23 172.91 390.67 185.87 412.72 173.13 412.33 172.91 398.7 165.04 386 157.71 369.08 147.93 352.14 157.71 347.02 160.66"/><path class="cls-7" d="M382,174.51l7.25,4.19,5.41-3.13-7.24-4.18Zm5.68-3.28,7.25,4.18,5.41-3.12-7.24-4.18Zm-13.19-1,7.25,4.18,5.42-3.13-7.25-4.18Zm5.69-3.28,7.24,4.18L392.8,168l-7.25-4.18ZM367,165.85l7.24,4.18,5.42-3.13-7.24-4.18Zm5.68-3.29,7.24,4.19,5.42-3.13-7.24-4.18Zm-13.19-1.05,7.25,4.18,5.41-3.13-7.24-4.18Zm5.68-3.28,7.25,4.18,5.41-3.13-7.24-4.18Zm-1.52-7.14.26-.15,6.68,3.86,5.21-3,.27.15-5.22,3,7.25,4.18,5.21-3,.26.16-5.21,3,7.24,4.19,5.22-3,.26.15-5.21,3,7.24,4.18,5.21-3,.27.15-5.22,3,7.25,4.19,5.21-3,.26.15-5.21,3,6.68,3.85-.27.15-6.67-3.85-5.42,3.13,6.68,3.85-.27.15-6.67-3.85-5.42,3.13,6.68,3.85-.27.16L389.21,179,384,182l-.26-.15,5.21-3-7.24-4.18-5.21,3-.27-.16,5.21-3-7.24-4.18-5.21,3-.27-.15,5.22-3L366.69,166l-5.22,3-.26-.16,5.21-3-7.24-4.19-5.21,3-.27-.15,5.21-3-6.67-3.86.26-.15,6.68,3.86,5.42-3.13-6.68-3.86.26-.15,6.68,3.86,5.42-3.13Z"/><g class="cls-4"><polygon class="cls-9" points="388.98 187.58 388.97 189.17 365.39 202.88 365.39 201.29 388.98 187.58"/><polygon class="cls-10" points="365.39 201.29 365.39 202.88 320.46 176.95 320.46 175.36 365.39 201.29"/><polygon class="cls-11" points="388.98 187.58 365.39 201.29 320.46 175.36 344.05 161.65 388.98 187.58"/></g><polygon class="cls-8" points="322.1 175.2 342.12 186.76 365.74 200.4 387.8 187.67 386.21 186.76 362.23 172.91 348.6 165.04 344.15 162.47 339.7 165.04 326.07 172.91 322.1 175.2"/><path class="cls-7" d="M357,189.05l7.24,4.18,5.42-3.13-7.25-4.18Zm5.68-3.28L370,190l5.42-3.13-7.25-4.18Zm-13.19-1.06,7.24,4.19,5.42-3.13L355,181.59Zm5.68-3.28,7.24,4.19,5.42-3.13-7.24-4.18ZM342,180.38l7.24,4.18,5.42-3.13-7.24-4.18Zm5.68-3.28,7.25,4.18,5.41-3.13L353.12,174Zm-13.18-1,7.24,4.18,5.42-3.13-7.25-4.18Zm5.68-3.28,7.24,4.18,5.42-3.13-7.25-4.18Zm-1.53-7.14.27-.15,6.67,3.85,5.22-3,.26.16-5.21,3,7.24,4.18,5.21-3,.27.15-5.22,3,7.25,4.18,5.21-3,.26.15-5.21,3,7.24,4.19,5.22-3,.26.15-5.21,3,7.24,4.18,5.21-3,.27.15-5.22,3,6.68,3.86-.26.15L375.64,187l-5.42,3.13L376.9,194l-.26.15L370,190.25l-5.42,3.13,6.68,3.86-.26.15-6.68-3.86-5.21,3-.27-.15,5.22-3-7.25-4.18-5.21,3-.26-.15,5.21-3-7.25-4.18-5.21,3-.26-.16,5.21-3-7.24-4.18-5.21,3-.27-.15,5.22-3-7.25-4.18-5.21,3-.27-.15,5.22-3-6.68-3.86.26-.15,6.68,3.85,5.42-3.12L333,168.91l.26-.15,6.68,3.85,5.42-3.12Z"/><g class="cls-4"><polygon class="cls-9" points="363.86 201.94 363.86 203.54 340.27 217.25 340.28 215.66 363.86 201.94"/><polygon class="cls-10" points="340.28 215.66 340.27 217.25 295.34 191.32 295.35 189.72 340.28 215.66"/><polygon class="cls-11" points="363.86 201.94 340.28 215.66 295.35 189.72 318.93 176.01 363.86 201.94"/></g><polygon class="cls-8" points="296.98 189.56 340.63 214.77 362.68 202.03 336.22 186.76 319.03 176.83 301.85 186.76 296.98 189.56"/><path class="cls-7" d="M331.92,203.41l7.24,4.19,5.42-3.13-7.24-4.18Zm5.68-3.28,7.24,4.19,5.42-3.13L343,197Zm-13.19-1,7.24,4.18,5.42-3.13L329.83,196Zm5.68-3.28,7.25,4.18,5.41-3.13-7.24-4.18Zm-13.18-1.05,7.24,4.18,5.41-3.13-7.24-4.18Zm5.68-3.28,7.24,4.18,5.42-3.13L328,188.34Zm-13.19-1.06,7.24,4.18,5.42-3.12-7.24-4.19Zm5.68-3.28,7.24,4.18,5.42-3.12L320.5,184ZM313.55,180l.27-.16,6.68,3.86,5.21-3,.26.15-5.21,3L328,188l5.22-3,.26.16-5.21,3,7.24,4.18,5.21-3,.27.15-5.22,3L343,196.7l5.21-3,.26.15-5.21,3,7.24,4.19,5.22-3,.26.15-5.21,3,6.68,3.85-.27.16-6.68-3.86-5.41,3.13,6.67,3.85-.26.16-6.68-3.86-5.41,3.13,6.67,3.85-.26.16-6.68-3.86-5.21,3-.26-.15,5.21-3-7.25-4.18-5.21,3-.26-.16,5.21-3-7.24-4.18-5.22,3-.26-.15,5.21-3-7.24-4.18-5.21,3-.27-.15,5.22-3-7.25-4.19-5.21,3-.26-.15,5.21-3-6.68-3.85.27-.16,6.67,3.86,5.42-3.13-6.68-3.85.27-.16,6.68,3.86,5.41-3.13Z"/><g class="cls-4"><polygon class="cls-9" points="338.92 216.47 338.91 218.06 315.33 231.77 315.33 230.18 338.92 216.47"/><polygon class="cls-10" points="315.33 230.18 315.33 231.77 270.39 205.84 270.4 204.25 315.33 230.18"/><polygon class="cls-11" points="338.92 216.47 315.33 230.18 270.4 204.25 293.98 190.54 338.92 216.47"/></g><polygon class="cls-8" points="294.08 191.36 272.03 204.09 315.68 229.29 337.73 216.56 294.08 191.36"/><path class="cls-7" d="M307,217.94l7.25,4.18,5.41-3.13-7.24-4.18Zm5.68-3.28,7.25,4.18,5.41-3.13-7.24-4.18Zm-13.18-1.06,7.24,4.18,5.42-3.12-7.25-4.19Zm5.68-3.28,7.24,4.18,5.42-3.12-7.25-4.19Zm-13.19-1,7.24,4.18,5.42-3.13-7.24-4.18Zm5.68-3.28,7.24,4.18L310.3,207l-7.24-4.18Zm-13.19-1.06,7.25,4.19,5.41-3.13-7.24-4.18Zm5.68-3.28,7.25,4.19,5.41-3.13-7.24-4.18Zm-1.52-7.13.26-.15,6.68,3.85,5.21-3,.27.15-5.21,3,7.24,4.19,5.21-3,.27.15-5.22,3,7.24,4.18,5.22-3,.26.15-5.21,3,7.24,4.18,5.21-3,.27.16-5.21,3,7.24,4.18,5.21-3,.27.15-5.22,3,6.68,3.86-.26.15-6.68-3.86L320.16,219l6.68,3.86-.27.15-6.67-3.86-5.42,3.13,6.68,3.86-.27.15-6.67-3.86-5.22,3-.26-.15,5.21-3-7.24-4.18-5.21,3-.27-.15,5.22-3-7.25-4.19-5.21,3-.26-.15,5.21-3-7.24-4.18-5.22,3-.26-.15,5.21-3-7.24-4.18-5.21,3-.27-.16,5.22-3-6.68-3.85.26-.15,6.68,3.85,5.42-3.13-6.68-3.85.26-.15,6.68,3.85,5.42-3.13Z"/><g class="cls-4"><g class="cls-4"><g class="cls-12"><g class="cls-4"><path class="cls-7" d="M279.52,224.59,292.93,217a1.27,1.27,0,0,0-.35-.15l-13.41,7.6a1.11,1.11,0,0,1,.35.14Z"/><path class="cls-7" d="M279.17,224.45l13.41-7.6a.64.64,0,0,0-.46.05l-13.4,7.59a.62.62,0,0,1,.45,0Z"/><path class="cls-13" d="M278.72,224.49l13.4-7.59h0l-13.4,7.59Z"/></g></g></g><g class="cls-4"><g class="cls-14"><g class="cls-4"><path class="cls-13" d="M280.31,227.35l13.4-7.6a.8.8,0,0,0,.35-.74,2.22,2.22,0,0,0-.19-.88l-13.41,7.6a2,2,0,0,1,.19.88.8.8,0,0,1-.34.74Z"/><path class="cls-7" d="M280.46,225.73l13.41-7.6a2.75,2.75,0,0,0-.39-.63l-13.4,7.59a2.92,2.92,0,0,1,.38.64Z"/><path class="cls-7" d="M280.08,225.09l13.4-7.59a2,2,0,0,0-.55-.5l-13.41,7.59a2.17,2.17,0,0,1,.56.5Z"/></g></g></g><path class="cls-5" d="M279.52,224.59c-.64-.38-1.16-.09-1.17.65a2.57,2.57,0,0,0,1.13,2c.64.37,1.16.08,1.17-.65A2.52,2.52,0,0,0,279.52,224.59Z"/></g><g class="cls-4"><g class="cls-4"><g class="cls-15"><g class="cls-4"><path class="cls-13" d="M261.16,229.21l15.45-8.92a2.39,2.39,0,0,1,1.61-.26L262.78,229a2.47,2.47,0,0,0-1.62.26Z"/><path class="cls-7" d="M262.78,229,278.22,220a3.94,3.94,0,0,1,1.14.36l-15.45,8.93a4.14,4.14,0,0,0-1.13-.37Z"/><path class="cls-7" d="M263.91,229.32l15.45-8.93.41.22-15.45,8.93a2.32,2.32,0,0,0-.41-.22Z"/></g></g></g><g class="cls-4"><g class="cls-16"><g class="cls-4"><path class="cls-7" d="M264.32,229.54l15.45-8.93a6.22,6.22,0,0,1,.77.53l-15.45,8.92a5.48,5.48,0,0,0-.77-.52Z"/><path class="cls-7" d="M265.09,230.06l15.45-8.92a10.25,10.25,0,0,1,3.35,5.18l-15.44,8.92a10.31,10.31,0,0,0-3.36-5.18Z"/><path class="cls-7" d="M268.45,235.24l15.44-8.92a8.46,8.46,0,0,1,.26,1.46l-15.44,8.93a8.56,8.56,0,0,0-.26-1.47Z"/><path class="cls-7" d="M268.71,236.71l15.44-8.93c0,.18,0,.35,0,.53a5.07,5.07,0,0,1-.07.8L268.66,238a5.13,5.13,0,0,0,.06-.81,4.51,4.51,0,0,0,0-.52Z"/><path class="cls-13" d="M268.66,238l15.44-8.93a2.71,2.71,0,0,1-1.24,2l-15.44,8.93a2.78,2.78,0,0,0,1.24-2Z"/></g></g></g><path class="cls-6" d="M264.32,229.54a9.75,9.75,0,0,1,4.4,7.69c0,2.82-2,4-4.47,2.52a9.75,9.75,0,0,1-4.4-7.69C259.87,229.24,261.87,228.11,264.32,229.54Z"/></g><g class="cls-4"><polygon class="cls-6" points="258.69 274.48 272.53 266.58 272.71 246.65 258.87 254.55 258.69 274.48"/><polygon class="cls-7" points="258.87 254.55 272.71 246.65 242.65 228.99 228.82 236.89 258.87 254.55"/><polygon class="cls-5" points="228.82 236.89 228.64 256.82 258.69 274.48 258.87 254.55 228.82 236.89"/></g><g class="cls-4"><g class="cls-4"><g class="cls-17"><g class="cls-4"><path class="cls-13" d="M192.9,176.6l-7.58-4.55a9.44,9.44,0,0,0-6.24-1.08l7.59,4.55a9.4,9.4,0,0,1,6.23,1.08Z"/><path class="cls-7" d="M186.67,175.52,179.08,171a15.73,15.73,0,0,0-4.41,1.36l7.58,4.55a15.69,15.69,0,0,1,4.42-1.36Z"/><path class="cls-7" d="M182.25,176.88l-7.58-4.55c-.53.24-1.07.52-1.61.82l7.58,4.55c.55-.3,1.08-.58,1.61-.82Z"/></g></g></g><g class="cls-4"><g class="cls-18"><g class="cls-4"><path class="cls-7" d="M180.64,177.7l-7.58-4.55a25.54,25.54,0,0,0-3,2l7.58,4.55a25.54,25.54,0,0,1,3-2Z"/><path class="cls-7" d="M177.65,179.7l-7.58-4.55a39.8,39.8,0,0,0-13.23,19.9l7.59,4.55a39.76,39.76,0,0,1,13.22-19.9Z"/><path class="cls-7" d="M164.43,199.6l-7.59-4.55a30.25,30.25,0,0,0-1.06,5.66l7.58,4.55a30.29,30.29,0,0,1,1.07-5.66Z"/><path class="cls-7" d="M163.36,205.26l-7.58-4.55c-.06.68-.1,1.36-.1,2a20.73,20.73,0,0,0,.22,3.14l7.58,4.55a20.69,20.69,0,0,1-.22-3.13c0-.67,0-1.35.1-2Z"/><path class="cls-13" d="M163.48,210.42l-7.58-4.55c.58,3.78,2.27,6.5,4.72,7.94l7.58,4.55c-2.44-1.44-4.14-4.16-4.72-7.94Z"/></g></g></g><path class="cls-6" d="M180.64,177.7c-9.54,5.42-17.32,18.66-17.38,29.59s7.65,15.38,17.2,10,17.32-18.66,17.38-29.59S190.19,172.29,180.64,177.7Z"/></g><g class="cls-4"><g class="cls-4"><g class="cls-19"><g class="cls-4"><path class="cls-13" d="M242.05,209.12l-48.24-28.5a8.36,8.36,0,0,0-5.48-1l48.24,28.5a8.36,8.36,0,0,1,5.48,1Z"/><path class="cls-7" d="M236.57,208.17l-48.24-28.5a14.29,14.29,0,0,0-3.88,1.19l48.24,28.51a14,14,0,0,1,3.88-1.2Z"/><path class="cls-7" d="M232.69,209.37l-48.24-28.51c-.47.22-.94.46-1.42.73l48.24,28.5c.48-.27.95-.51,1.42-.72Z"/></g></g></g><g class="cls-4"><g class="cls-20"><g class="cls-4"><path class="cls-7" d="M231.27,210.09,183,181.59a21.92,21.92,0,0,0-2.63,1.76l48.24,28.5a23.64,23.64,0,0,1,2.63-1.76Z"/><path class="cls-3" d="M228.64,211.85l-48.24-28.5a35,35,0,0,0-11.63,17.49L217,229.34a34.93,34.93,0,0,1,11.62-17.49Z"/><path class="cls-7" d="M217,229.34l-48.25-28.5a27.19,27.19,0,0,0-.93,5l48.24,28.5a26.41,26.41,0,0,1,.94-5Z"/><path class="cls-7" d="M216.08,234.32l-48.24-28.5c-.06.6-.08,1.19-.09,1.78a17.1,17.1,0,0,0,.2,2.75l48.24,28.5a17.13,17.13,0,0,1-.19-2.75c0-.59,0-1.18.08-1.78Z"/><path class="cls-13" d="M216.19,238.85,168,210.35c.5,3.32,2,5.72,4.14,7l48.25,28.5c-2.15-1.27-3.64-3.66-4.15-7Z"/></g></g></g><path class="cls-6" d="M231.27,210.09c-8.39,4.76-15.23,16.41-15.27,26s6.72,13.53,15.11,8.76,15.23-16.4,15.28-26S239.67,205.33,231.27,210.09Z"/></g><g class="cls-4"><g class="cls-4"><g class="cls-21"><g class="cls-4"><path class="cls-13" d="M279.09,237.58l-38.75-22.81a6.22,6.22,0,0,0-4.09-.71L275,236.88a6.23,6.23,0,0,1,4.09.7Z"/><path class="cls-7" d="M275,236.88l-38.75-22.82a10.69,10.69,0,0,0-2.89.89l38.75,22.82a10.35,10.35,0,0,1,2.89-.89Z"/><path class="cls-7" d="M272.11,237.77,233.36,215a10.58,10.58,0,0,0-1.05.55l38.74,22.81c.36-.2.71-.38,1.06-.54Z"/></g></g></g><g class="cls-4"><g class="cls-22"><g class="cls-4"><path class="cls-7" d="M271.05,238.31,232.31,215.5a17.16,17.16,0,0,0-2,1.3l38.75,22.82a17.15,17.15,0,0,1,2-1.31Z"/><path class="cls-3" d="M269.09,239.62,230.34,216.8a26.21,26.21,0,0,0-8.67,13l38.75,22.81a26.12,26.12,0,0,1,8.67-13Z"/><path class="cls-7" d="M260.42,252.66l-38.75-22.81a20.67,20.67,0,0,0-.7,3.71l38.75,22.81a20.84,20.84,0,0,1,.7-3.71Z"/><path class="cls-7" d="M259.72,256.37,221,233.56c0,.45-.06.89-.06,1.33a13.26,13.26,0,0,0,.15,2.05l38.74,22.81a12.08,12.08,0,0,1-.14-2.05c0-.44,0-.88.06-1.33Z"/><path class="cls-13" d="M259.8,259.75l-38.74-22.81a6.93,6.93,0,0,0,3.09,5.21L262.89,265a7,7,0,0,1-3.09-5.21Z"/></g></g></g><path class="cls-6" d="M271.05,238.31c-6.26,3.55-11.36,12.23-11.39,19.39s5,10.09,11.27,6.54,11.36-12.23,11.39-19.39S277.31,234.76,271.05,238.31Z"/></g><g class="cls-4"><g class="cls-4"><g class="cls-23"><g class="cls-4"><path class="cls-13" d="M224.48,250l15.44-8.93a2.45,2.45,0,0,1,1.61-.26l-15.44,8.93a2.34,2.34,0,0,0-1.61.26Z"/><path class="cls-7" d="M226.09,249.72l15.44-8.93a4.2,4.2,0,0,1,1.14.37l-15.44,8.92a3.94,3.94,0,0,0-1.14-.36Z"/><path class="cls-7" d="M227.23,250.08l15.44-8.92a4,4,0,0,1,.41.21l-15.44,8.93-.41-.22Z"/></g></g></g><g class="cls-4"><g class="cls-24"><g class="cls-4"><path class="cls-7" d="M227.64,250.3l15.44-8.93a6.58,6.58,0,0,1,.77.53l-15.44,8.92a7.43,7.43,0,0,0-.77-.52Z"/><path class="cls-7" d="M228.41,250.82l15.44-8.92a10.31,10.31,0,0,1,3.36,5.18L231.76,256a10.27,10.27,0,0,0-3.35-5.18Z"/><path class="cls-7" d="M231.76,256l15.45-8.92a8.46,8.46,0,0,1,.26,1.46L232,257.47a7.1,7.1,0,0,0-.26-1.47Z"/><path class="cls-7" d="M232,257.47l15.45-8.93c0,.18,0,.36,0,.53a5.13,5.13,0,0,1-.06.81L232,258.8A4.14,4.14,0,0,0,232,258a4.61,4.61,0,0,0,0-.52Z"/><path class="cls-13" d="M232,258.8l15.45-8.92a2.78,2.78,0,0,1-1.24,2l-15.45,8.92a2.73,2.73,0,0,0,1.24-2Z"/></g></g></g><path class="cls-6" d="M227.64,250.3A9.76,9.76,0,0,1,232,258c0,2.82-2,3.95-4.47,2.53a9.78,9.78,0,0,1-4.4-7.7C223.19,250,225.19,248.87,227.64,250.3Z"/></g><g class="cls-4"><g class="cls-4"><g class="cls-25"><g class="cls-4"><path class="cls-7" d="M214,261.55l13.41-7.6a1.11,1.11,0,0,0-.35-.14l-13.41,7.59a1.15,1.15,0,0,1,.35.15Z"/><path class="cls-7" d="M213.69,261.4l13.41-7.59a.67.67,0,0,0-.45,0l-13.41,7.59a.68.68,0,0,1,.45,0Z"/><path class="cls-13" d="M213.24,261.44l13.41-7.59h0l-13.41,7.6,0,0Z"/></g></g></g><g class="cls-4"><g class="cls-26"><g class="cls-4"><path class="cls-13" d="M214.83,264.3l13.41-7.59a.83.83,0,0,0,.35-.74,2.2,2.2,0,0,0-.2-.88L215,262.68a2.2,2.2,0,0,1,.2.88.82.82,0,0,1-.35.74Z"/><path class="cls-7" d="M215,262.68l13.41-7.59a2.92,2.92,0,0,0-.38-.64L214.6,262a2.31,2.31,0,0,1,.38.64Z"/><path class="cls-7" d="M214.6,262,228,254.45a2.37,2.37,0,0,0-.56-.5L214,261.55a2,2,0,0,1,.56.49Z"/></g></g></g><path class="cls-5" d="M214,261.55c-.63-.38-1.16-.09-1.17.65a2.55,2.55,0,0,0,1.14,2c.63.38,1.16.09,1.17-.65A2.52,2.52,0,0,0,214,261.55Z"/></g><g class="cls-4"><g class="cls-4"><g class="cls-27"><g class="cls-4"><path class="cls-7" d="M288.2,252.67l-15.05-8.78a7.26,7.26,0,0,1,2.1-.83l15.06,8.78a7.21,7.21,0,0,0-2.11.83Z"/><path class="cls-7" d="M290.31,251.84l-15.06-8.78a4,4,0,0,1,2.69.31L293,252.15a4,4,0,0,0-2.68-.31Z"/><path class="cls-13" d="M293,252.15l-15.05-8.78.12.07,15.05,8.78-.12-.07Z"/></g></g></g><g class="cls-4"><g class="cls-28"><g class="cls-4"><path class="cls-13" d="M283.21,269l-15-8.78c-1.24-.73-2-2.27-2-4.45a13.09,13.09,0,0,1,1.26-5.21l15.05,8.78a12.9,12.9,0,0,0-1.25,5.21c0,2.18.74,3.72,2,4.45Z"/><path class="cls-7" d="M282.48,259.32l-15.05-8.78a17,17,0,0,1,2.35-3.76l15.05,8.78a17,17,0,0,0-2.35,3.76Z"/><path class="cls-3" d="M284.83,255.56l-15.05-8.78a12.66,12.66,0,0,1,3.37-2.89l15.05,8.78a12.66,12.66,0,0,0-3.37,2.89Z"/></g></g></g><path class="cls-5" d="M288.2,252.67c3.83-2.18,6.92-.39,6.89,4a15.15,15.15,0,0,1-7,11.86c-3.83,2.17-6.91.38-6.89-4A15.15,15.15,0,0,1,288.2,252.67Z"/></g><g class="cls-4"><g class="cls-4"><g class="cls-29"><g class="cls-4"><path class="cls-7" d="M295.07,257.8l-5.86-3.4a6.15,6.15,0,0,1,1.82-.71l5.86,3.4a6,6,0,0,0-1.82.71Z"/><path class="cls-7" d="M296.89,257.09l-5.86-3.4a3.43,3.43,0,0,1,2.32.26l5.86,3.41a3.38,3.38,0,0,0-2.32-.27Z"/><path class="cls-13" d="M299.21,257.36,293.35,254l.11.06,5.85,3.4-.1-.05Z"/></g></g></g><g class="cls-4"><g class="cls-30"><g class="cls-4"><path class="cls-13" d="M290.75,271.89l-5.85-3.4c-1.07-.63-1.72-2-1.71-3.84a11.44,11.44,0,0,1,1.08-4.51l5.86,3.4a11.29,11.29,0,0,0-1.09,4.51c0,1.88.65,3.21,1.71,3.84Z"/><path class="cls-7" d="M290.13,263.54l-5.86-3.4a14.84,14.84,0,0,1,2-3.24l5.86,3.4a14.47,14.47,0,0,0-2,3.24Z"/><path class="cls-3" d="M292.16,260.3l-5.86-3.4a11,11,0,0,1,2.91-2.5l5.86,3.4a10.83,10.83,0,0,0-2.91,2.5Z"/></g></g></g><path class="cls-5" d="M295.07,257.8c3.31-1.88,6-.33,5.95,3.45a13.09,13.09,0,0,1-6,10.26c-3.31,1.87-6,.33-6-3.46A13.09,13.09,0,0,1,295.07,257.8Z"/></g><g class="cls-4"><polygon class="cls-6" points="215.66 212.94 229.5 205.04 229.61 194.34 215.78 202.24 215.66 212.94"/><polygon class="cls-7" points="215.78 202.24 229.61 194.34 199.56 176.68 185.72 184.58 215.78 202.24"/><polygon class="cls-5" points="185.72 184.58 185.61 195.28 215.66 212.94 215.78 202.24 185.72 184.58"/></g><g class="cls-4"><polygon class="cls-9" points="240.09 274.07 240.08 275.67 216.5 289.38 216.5 287.78 240.09 274.07"/><polygon class="cls-10" points="216.5 287.78 216.5 289.38 171.57 263.45 171.57 261.85 216.5 287.78"/><polygon class="cls-11" points="240.09 274.07 216.5 287.78 171.57 261.85 195.16 248.14 240.09 274.07"/></g><polygon class="cls-8" points="173.2 261.69 184.85 268.42 198.49 276.29 216.85 286.89 235.21 276.29 238.91 274.16 228.96 268.42 216.27 261.09 195.25 248.96 174.24 261.09 173.2 261.69"/><path class="cls-7" d="M208.14,275.54l7.25,4.18,5.41-3.12-7.24-4.19Zm5.69-3.28,7.24,4.18,5.42-3.12-7.25-4.19Zm-13.19-1.05,7.24,4.18,5.42-3.13-7.25-4.18Zm5.68-3.28,7.24,4.18L219,269l-7.24-4.18Zm-13.19-1.06,7.24,4.18,5.42-3.12-7.24-4.18Zm5.68-3.28,7.24,4.18,5.42-3.12-7.24-4.18Zm-13.19-1,7.25,4.18,5.41-3.13L191,259.41Zm5.68-3.28,7.25,4.18,5.42-3.13-7.25-4.18Zm-1.52-7.14L190,252l6.68,3.86,5.21-3,.27.15L197,256l7.24,4.18,5.21-3,.27.15-5.22,3,7.25,4.18,5.21-3,.26.16-5.21,3,7.24,4.18,5.21-3,.27.15-5.21,3,7.24,4.18,5.21-3,.27.16-5.22,3,6.68,3.85-.26.15-6.68-3.85-5.42,3.13,6.68,3.85-.26.15-6.68-3.85-5.42,3.13,6.68,3.85-.27.15L215.39,280l-5.22,3-.26-.15,5.21-3-7.24-4.19-5.21,3-.27-.15,5.22-3-7.25-4.18-5.21,3-.26-.15,5.21-3L192.87,267l-5.22,3-.26-.16,5.21-3-7.24-4.18-5.21,3-.27-.15,5.22-3-6.68-3.86.26-.15,6.68,3.86,5.42-3.13-6.68-3.86.26-.15,6.68,3.86,5.42-3.13Z"/><g class="cls-4"><polygon class="cls-9" points="215.16 288.61 215.16 290.2 191.57 303.91 191.57 302.32 215.16 288.61"/><polygon class="cls-10" points="191.57 302.32 191.57 303.91 146.64 277.98 146.64 276.39 191.57 302.32"/><polygon class="cls-11" points="215.16 288.61 191.57 302.32 146.64 276.39 170.23 262.68 215.16 288.61"/></g><polygon class="cls-8" points="148.28 276.23 148.39 276.29 172.37 290.14 191.93 301.43 211.48 290.14 213.98 288.7 192.5 276.29 178.85 268.42 170.33 263.5 161.8 268.42 148.28 276.23"/><path class="cls-7" d="M183.22,290.08l7.24,4.18,5.42-3.13L188.63,287Zm5.68-3.28,7.24,4.18,5.42-3.13-7.24-4.18Zm-13.19-1.06,7.24,4.18,5.42-3.12-7.24-4.19Zm5.68-3.28,7.24,4.18,5.42-3.12-7.24-4.19Zm-13.19-1,7.25,4.18,5.41-3.13-7.24-4.18Zm5.69-3.28,7.24,4.18,5.41-3.13L179.3,275Zm-13.19-1.06,7.24,4.19,5.42-3.13L166.11,274Zm5.68-3.28,7.24,4.19,5.42-3.13-7.24-4.18Zm-1.53-7.13.27-.15,6.68,3.85,5.21-3,.26.15-5.21,3,7.24,4.19,5.22-3,.26.15-5.21,3,7.24,4.18,5.21-3,.27.15-5.22,3,7.25,4.18,5.21-3,.26.16-5.21,3,7.24,4.18,5.22-3,.26.15-5.21,3,6.67,3.86-.26.15L201.82,288l-5.41,3.13,6.67,3.86-.26.15-6.68-3.86-5.42,3.13,6.68,3.86-.26.15-6.68-3.86-5.21,3-.27-.15,5.22-3L183,290.23l-5.21,3-.26-.15,5.21-3-7.24-4.19-5.22,3-.26-.15,5.21-3-7.24-4.18-5.21,3-.27-.15,5.22-3-7.25-4.18-5.21,3-.26-.16,5.21-3-6.68-3.85.26-.15,6.68,3.85,5.42-3.13-6.68-3.85.27-.15,6.67,3.85,5.42-3.13Z"/><g class="cls-4"><polygon class="cls-9" points="190.04 302.97 190.04 304.57 166.45 318.28 166.46 316.69 190.04 302.97"/><polygon class="cls-10" points="166.46 316.69 166.45 318.28 121.52 292.35 121.53 290.75 166.46 316.69"/><polygon class="cls-11" points="190.04 302.97 166.46 316.69 121.53 290.75 145.11 277.04 190.04 302.97"/></g><polygon class="cls-8" points="123.16 290.59 166.81 315.8 188.86 303.06 166.47 290.14 145.21 277.86 123.95 290.14 123.16 290.59"/><path class="cls-7" d="M158.1,304.44l7.24,4.18,5.42-3.12-7.24-4.19Zm5.68-3.28,7.25,4.18,5.41-3.12L169.2,298Zm-13.19-1.05,7.25,4.18,5.41-3.13L156,297Zm5.68-3.28,7.25,4.18,5.41-3.13-7.24-4.18Zm-13.18-1.06,7.24,4.19,5.42-3.13-7.25-4.18Zm5.68-3.28,7.24,4.19,5.42-3.13-7.24-4.18Zm-13.19-1.05,7.24,4.18,5.42-3.13L141,288.31Zm5.68-3.28,7.24,4.18,5.42-3.13L146.68,285ZM139.74,281l.26-.15,6.68,3.86,5.21-3,.27.15-5.22,3,7.25,4.18,5.21-3,.26.15-5.21,3,7.24,4.19,5.21-3,.27.15-5.21,3,7.24,4.18,5.21-3,.27.15-5.22,3,7.25,4.18,5.21-3,.26.16-5.21,3,6.68,3.85-.27.15-6.67-3.85-5.42,3.13,6.68,3.85-.27.15L171,305.65l-5.42,3.13,6.67,3.85-.26.15-6.68-3.85-5.21,3-.26-.15,5.21-3-7.24-4.19-5.22,3-.26-.15,5.21-3-7.24-4.18-5.21,3-.27-.15,5.22-3-7.25-4.18-5.21,3-.26-.16,5.21-3-7.24-4.18-5.22,3-.26-.15,5.21-3-6.68-3.86.27-.15,6.68,3.86,5.41-3.13-6.67-3.86.26-.15L141,288l5.41-3.13Z"/><g class="cls-4"><polygon class="cls-9" points="165.1 317.5 165.09 319.09 141.51 332.8 141.51 331.21 165.1 317.5"/><polygon class="cls-10" points="141.51 331.21 141.51 332.8 96.58 306.87 96.58 305.28 141.51 331.21"/><polygon class="cls-11" points="165.1 317.5 141.51 331.21 96.58 305.28 120.17 291.56 165.1 317.5"/></g><polygon class="cls-8" points="120.27 292.38 98.22 305.12 141.86 330.32 163.91 317.58 120.27 292.38"/><path class="cls-7" d="M133.15,319l7.25,4.18,5.42-3.13-7.25-4.18Zm5.69-3.28,7.24,4.18,5.42-3.13-7.25-4.18Zm-13.19-1.06,7.24,4.18,5.42-3.12-7.25-4.19Zm5.68-3.28,7.24,4.18L144,312.4l-7.24-4.18Zm-13.19-1.05,7.24,4.18,5.42-3.13-7.24-4.18Zm5.68-3.28,7.24,4.18,5.42-3.13-7.24-4.18ZM110.63,306l7.25,4.18L123.3,307l-7.25-4.18Zm5.69-3.28,7.24,4.18,5.42-3.12-7.25-4.19Zm-1.53-7.13.26-.16,6.68,3.86,5.22-3,.26.15-5.21,3,7.24,4.18,5.21-3,.27.16-5.22,3,7.25,4.18,5.21-3,.26.15-5.21,3,7.24,4.18,5.22-3,.26.16-5.21,3,7.24,4.19,5.21-3,.27.15-5.22,3,6.68,3.85-.26.16-6.68-3.86L146.34,320l6.68,3.85-.26.16-6.68-3.86-5.42,3.13,6.68,3.85-.26.16-6.68-3.86-5.21,3-.27-.15,5.21-3-7.24-4.18-5.21,3-.27-.16,5.22-3-7.25-4.19-5.21,3-.26-.15,5.21-3-7.24-4.18-5.21,3-.27-.15,5.21-3-7.24-4.18-5.21,3-.27-.15,5.22-3-6.68-3.85.26-.16,6.68,3.86,5.42-3.13-6.68-3.85.26-.16,6.68,3.86,5.42-3.13Z"/><g class="cls-4"><polygon class="cls-5" points="101.61 242.82 101.61 245.03 117 253.97 116.99 251.76 101.61 242.82"/><polygon class="cls-6" points="116.99 251.76 117 253.97 205.25 203.02 205.24 200.81 116.99 251.76"/><polygon class="cls-7" points="101.61 242.82 116.99 251.76 205.24 200.81 189.86 191.87 101.61 242.82"/><polygon class="cls-8" points="102.96 242.82 107.45 245.43 107.72 245.59 112.1 248.13 112.37 248.29 116.99 250.97 117.04 250.95 120.91 248.71 121.18 248.56 125.05 246.32 125.32 246.16 129.19 243.93 129.19 243.93 129.47 243.77 133.34 241.53 133.34 241.53 133.61 241.38 137.48 239.14 137.48 239.14 137.75 238.99 141.62 236.75 141.89 236.59 145.77 234.36 146.04 234.2 149.91 231.97 150.18 231.81 154.05 229.58 154.32 229.42 158.19 227.18 158.47 227.03 162.34 224.79 162.34 224.79 162.61 224.64 166.48 222.4 166.75 222.24 170.62 220.01 170.9 219.85 174.77 217.62 175.04 217.46 178.91 215.22 179.18 215.07 183.05 212.83 183.32 212.68 187.2 210.44 187.47 210.28 191.34 208.05 191.61 207.89 195.48 205.66 195.75 205.5 199.62 203.26 199.9 203.11 203.89 200.8 199.26 198.12 199 197.96 194.62 195.42 194.35 195.26 189.85 192.65 185.82 194.98 185.55 195.14 181.68 197.37 181.4 197.53 177.53 199.76 177.26 199.92 173.39 202.16 173.12 202.31 169.25 204.55 168.97 204.71 165.1 206.94 164.83 207.1 160.96 209.33 160.69 209.49 156.82 211.72 156.55 211.88 152.67 214.12 152.4 214.27 148.53 216.51 148.26 216.66 144.39 218.9 144.12 219.06 140.25 221.29 139.97 221.45 136.1 223.68 135.83 223.84 131.96 226.07 131.69 226.23 127.82 228.47 127.55 228.63 123.67 230.86 123.4 231.02 119.53 233.25 119.26 233.41 115.39 235.64 115.12 235.8 111.25 238.04 110.97 238.19 107.1 240.43 106.83 240.59 102.96 242.82"/><polygon class="cls-7" points="106.83 240.59 111.34 243.19 111.61 243.34 116 245.88 116.27 246.04 120.91 248.71 121.18 248.56 116.54 245.88 116.27 245.72 111.88 243.19 111.61 243.03 107.1 240.43 106.83 240.59"/><polygon class="cls-7" points="119.26 233.41 123.77 236.01 124.04 236.17 128.43 238.7 128.7 238.86 133.34 241.53 133.34 241.53 133.61 241.38 128.97 238.7 128.7 238.55 124.31 236.01 124.04 235.85 119.53 233.25 119.26 233.41"/><polygon class="cls-7" points="123.4 231.02 127.91 233.62 128.18 233.78 132.57 236.31 132.84 236.47 137.48 239.14 137.48 239.14 137.75 238.99 133.12 236.31 132.84 236.15 128.45 233.62 128.18 233.46 123.67 230.86 123.4 231.02"/><polygon class="cls-7" points="131.69 226.23 136.2 228.84 136.47 228.99 140.86 231.53 141.13 231.68 145.77 234.36 146.04 234.2 141.4 231.53 141.4 231.53 141.13 231.37 136.74 228.84 136.47 228.68 131.96 226.07 131.69 226.23"/><polygon class="cls-7" points="156.55 211.88 161.05 214.48 161.32 214.64 165.72 217.18 165.99 217.33 170.62 220.01 170.9 219.85 166.26 217.18 165.99 217.02 161.6 214.48 161.32 214.33 156.82 211.72 156.55 211.88"/><polygon class="cls-7" points="177.26 199.92 181.77 202.52 182.04 202.68 186.43 205.22 186.7 205.37 191.34 208.05 191.61 207.89 186.97 205.22 186.7 205.06 182.31 202.52 182.04 202.37 177.53 199.76 177.26 199.92"/><polygon class="cls-7" points="115.12 235.8 119.63 238.4 119.9 238.56 124.29 241.09 124.56 241.25 129.19 243.93 129.19 243.93 129.47 243.77 124.83 241.09 124.56 240.94 120.17 238.4 119.9 238.25 115.39 235.64 115.12 235.8"/><polygon class="cls-7" points="127.55 228.63 132.05 231.23 132.32 231.38 132.32 231.38 136.72 233.92 136.99 234.08 141.62 236.75 141.89 236.59 137.26 233.92 136.99 233.76 132.6 231.23 132.32 231.07 127.82 228.47 127.55 228.63"/><polygon class="cls-7" points="107.45 245.43 107.2 245.58 107.47 245.74 111.86 248.27 112.13 248.43 112.37 248.29 116.99 250.97 117.04 250.95 112.4 248.27 112.13 248.12 107.74 245.58 107.47 245.42 102.96 242.82 107.45 245.43"/><polygon class="cls-7" points="110.97 238.19 115.48 240.79 115.75 240.95 120.14 243.49 120.42 243.64 125.05 246.32 125.32 246.16 120.69 243.49 120.42 243.33 116.02 240.79 115.75 240.64 111.25 238.04 110.97 238.19"/><polygon class="cls-7" points="135.83 223.84 140.34 226.44 140.61 226.6 145 229.14 145.27 229.29 149.91 231.97 150.18 231.81 145.54 229.14 145.27 228.98 140.88 226.44 140.61 226.29 136.1 223.68 135.83 223.84"/><polygon class="cls-7" points="144.12 219.06 148.63 221.66 148.9 221.81 153.29 224.35 153.56 224.51 158.19 227.18 158.47 227.03 153.83 224.35 153.56 224.2 149.17 221.66 148.9 221.5 144.39 218.9 144.12 219.06"/><polygon class="cls-7" points="152.4 214.27 156.91 216.88 157.18 217.03 161.57 219.57 161.84 219.72 166.48 222.4 166.75 222.24 162.12 219.57 161.84 219.41 157.45 216.88 157.18 216.72 152.67 214.12 152.4 214.27"/><polygon class="cls-7" points="168.97 204.71 173.48 207.31 173.75 207.46 173.75 207.46 178.15 210 178.42 210.16 183.05 212.83 183.32 212.68 178.69 210 178.42 209.84 174.03 207.31 173.75 207.15 169.25 204.55 168.97 204.71"/><polygon class="cls-7" points="139.97 221.45 144.48 224.05 144.75 224.21 149.15 226.74 149.42 226.9 154.05 229.58 154.32 229.42 149.69 226.74 149.42 226.59 145.03 224.05 144.75 223.9 140.25 221.29 139.97 221.45"/><polygon class="cls-7" points="160.69 209.49 165.2 212.09 165.47 212.25 169.86 214.78 170.13 214.94 174.77 217.62 175.04 217.46 170.4 214.78 170.13 214.63 165.74 212.09 165.47 211.94 160.96 209.33 160.69 209.49"/><polygon class="cls-7" points="148.26 216.66 152.77 219.27 153.04 219.42 157.43 221.96 157.7 222.12 162.34 224.79 162.34 224.79 162.61 224.64 157.97 221.96 157.7 221.8 153.31 219.27 153.04 219.11 148.53 216.51 148.26 216.66"/><polygon class="cls-7" points="164.83 207.1 169.34 209.7 169.61 209.85 174 212.39 174.27 212.55 178.91 215.22 179.18 215.07 174.54 212.39 174.27 212.24 169.88 209.7 169.61 209.54 165.1 206.94 164.83 207.1"/><polygon class="cls-7" points="173.12 202.31 177.63 204.91 177.9 205.07 177.9 205.07 182.29 207.61 182.56 207.76 187.2 210.44 187.47 210.28 182.83 207.61 182.56 207.45 178.17 204.91 177.9 204.76 173.39 202.16 173.12 202.31"/><polygon class="cls-7" points="181.4 197.53 185.91 200.13 186.18 200.29 190.57 202.82 190.84 202.98 195.48 205.66 195.75 205.5 191.12 202.82 190.84 202.67 186.45 200.13 186.18 199.97 181.68 197.37 181.4 197.53"/><polygon class="cls-7" points="185.55 195.14 190.05 197.74 190.33 197.9 194.72 200.43 194.99 200.59 199.62 203.26 199.9 203.11 195.26 200.43 194.99 200.28 190.59 197.74 190.33 197.58 185.82 194.98 185.55 195.14"/><polygon class="cls-7" points="111.86 248.27 112.13 248.43 112.37 248.29 112.4 248.27 116.27 246.04 116.54 245.88 120.42 243.64 120.69 243.49 124.56 241.25 124.83 241.09 128.7 238.86 128.97 238.7 132.84 236.47 133.12 236.31 136.99 234.08 137.26 233.92 141.13 231.68 141.4 231.53 141.4 231.53 145.27 229.29 145.54 229.14 149.42 226.9 149.69 226.74 153.56 224.51 153.83 224.35 157.7 222.12 157.97 221.96 161.84 219.72 162.12 219.57 165.99 217.33 166.26 217.18 170.13 214.94 170.4 214.78 174.27 212.55 174.54 212.39 178.42 210.16 178.69 210 182.56 207.76 182.83 207.61 186.7 205.37 186.97 205.22 190.84 202.98 191.12 202.82 194.99 200.59 195.26 200.43 199.26 198.12 199 197.96 194.99 200.28 194.72 200.43 190.84 202.67 190.57 202.82 186.7 205.06 186.43 205.22 182.56 207.45 182.29 207.61 178.42 209.84 178.15 210 174.27 212.24 174 212.39 170.13 214.63 169.86 214.78 165.99 217.02 165.72 217.18 161.84 219.41 161.57 219.57 157.7 221.8 157.43 221.96 153.56 224.2 153.29 224.35 149.42 226.59 149.15 226.74 145.27 228.98 145 229.14 141.13 231.37 140.86 231.53 136.99 233.76 136.72 233.92 132.84 236.15 132.57 236.31 128.7 238.55 128.43 238.7 124.56 240.94 124.29 241.09 120.42 243.33 120.14 243.49 116.27 245.72 116 245.88 112.13 248.12 112.1 248.13 111.86 248.27"/><polygon class="cls-7" points="107.2 245.58 107.47 245.74 107.72 245.59 107.74 245.58 111.61 243.34 111.88 243.19 115.75 240.95 116.02 240.79 119.9 238.56 120.17 238.4 124.04 236.17 124.31 236.01 128.18 233.78 128.45 233.62 132.32 231.38 132.32 231.38 132.6 231.23 136.47 228.99 136.74 228.84 140.61 226.6 140.88 226.44 144.75 224.21 145.03 224.05 148.9 221.81 149.17 221.66 153.04 219.42 153.31 219.27 157.18 217.03 157.45 216.88 161.32 214.64 161.6 214.48 165.47 212.25 165.74 212.09 169.61 209.85 169.88 209.7 173.75 207.46 173.75 207.46 174.03 207.31 177.9 205.07 177.9 205.07 178.17 204.91 182.04 202.68 182.31 202.52 186.18 200.29 186.45 200.13 190.33 197.9 190.59 197.74 194.62 195.42 194.35 195.26 190.33 197.58 190.05 197.74 186.18 199.97 185.91 200.13 182.04 202.37 181.77 202.52 177.9 204.76 177.63 204.91 173.75 207.15 173.48 207.31 169.61 209.54 169.34 209.7 165.47 211.94 165.2 212.09 161.32 214.33 161.05 214.48 157.18 216.72 156.91 216.88 153.04 219.11 152.77 219.27 148.9 221.5 148.63 221.66 144.75 223.9 144.48 224.05 140.61 226.29 140.34 226.44 136.47 228.68 136.2 228.84 132.32 231.07 132.05 231.23 128.18 233.46 127.91 233.62 124.04 235.85 123.77 236.01 119.9 238.25 119.63 238.4 115.75 240.64 115.48 240.79 111.61 243.03 111.34 243.19 107.47 245.42 107.45 245.43 107.2 245.58"/></g><g class="cls-4"><path class="cls-6" d="M340,251.07c-.24,20.16-14.54,44.35-31.92,54-9.64,5.36-18.2,5.15-23.87.47a21.08,21.08,0,0,1-1.76-1.65c-.33-.36-.71-.83-1-1.27l-.36-.45a15.23,15.23,0,0,1-1.47-2.3,26.08,26.08,0,0,1-2.1-5,33,33,0,0,1-1.22-5.84c-.11-.84-.21-2-.25-2.83-.05-1.06-.07-2.47-.05-3.53,0-.9.09-2.1.17-3s.23-2.37.39-3.38.34-2.07.53-2.95.46-2.18.72-3.1.53-2,.82-2.85.64-1.95,1-2.77.75-2,1.1-2.79c.83-2,2.1-4.52,2.49-5.22s1-1.79,1.41-2.52c.92-1.47,2.17-3.41,3.16-4.83.51-.74,1.24-1.69,1.8-2.39s1.3-1.58,1.86-2.25,1.5-1.64,2.15-2.34,1.68-1.68,2.42-2.38,1.56-1.37,2.24-2,2-1.56,2.83-2.2,1.71-1.2,2.46-1.68a50.43,50.43,0,0,1,4.86-2.74c.76-.37,1.8-.83,2.59-1.14s2.16-.79,3.1-1.07a29.37,29.37,0,0,1,5-1c.83-.09,1.95-.15,2.79-.15.68,0,1.61.06,2.29.13s1.73.27,2.46.44c.3.07.64.18,1,.29l1.08.36C335.63,231.88,340.09,239.58,340,251.07Z"/><path class="cls-13" d="M331.89,245.34c-.25,20.15-14.54,44.34-31.93,54-7,3.9-13.43,4.86-18.61,3.29l-.36-.45a15.23,15.23,0,0,1-1.47-2.3,26.08,26.08,0,0,1-2.1-5,33,33,0,0,1-1.22-5.84c-.11-.84-.21-2-.25-2.83-.05-1.06-.07-2.47-.05-3.53,0-.9.09-2.1.17-3s.23-2.37.39-3.38.34-2.07.53-2.95.46-2.18.72-3.1.53-2,.82-2.85.64-1.95,1-2.77.75-2,1.1-2.79c.83-2,2.1-4.52,2.49-5.22s1-1.79,1.41-2.52c.92-1.47,2.17-3.41,3.16-4.83.51-.74,1.24-1.69,1.8-2.39s1.3-1.58,1.86-2.25,1.5-1.64,2.15-2.34,1.68-1.68,2.42-2.38,1.56-1.37,2.24-2,2-1.56,2.83-2.2,1.71-1.2,2.46-1.68a50.43,50.43,0,0,1,4.86-2.74c.76-.37,1.8-.83,2.59-1.14s2.16-.79,3.1-1.07a29.37,29.37,0,0,1,5-1c.83-.09,1.95-.15,2.79-.15.68,0,1.61.06,2.29.13s1.73.27,2.46.44c.3.07.64.18,1,.29C330.35,232.74,332,238.34,331.89,245.34Z"/><path class="cls-7" d="M329.19,227.94c-.65-.21-1.51-.53-2.17-.69a25.88,25.88,0,0,0-3.14-.58c-.72-.08-1.68-.16-2.4-.16-1.09,0-2.54.07-3.62.17a24.75,24.75,0,0,0-2.56.4c-1.16.24-2.68.63-3.82,1a44.11,44.11,0,0,0-5.28,2.07,47.09,47.09,0,0,0-5.41,3c-.75.48-1.74,1.15-2.46,1.68-.9.65-2.08,1.54-2.92,2.26a62.2,62.2,0,0,0-4.57,4.26c-.62.67-1.48,1.55-2.07,2.26-1.09,1.31-2.53,3.07-3.52,4.45-1.83,2.54-3.1,4.74-3.11,4.76-.83,1.47-1.88,3.45-2.64,5-.38.76-.84,1.8-1.16,2.58s-.77,1.88-1.07,2.69-.65,1.91-.92,2.72-.57,1.95-.81,2.79a60.37,60.37,0,0,0-1.21,5.94,50,50,0,0,0-.57,7c0,.89,0,2.08.05,3,.07,1.17.21,2.72.36,3.88.11.82.3,1.92.48,2.74.26,1.13.66,2.64,1,3.75a33,33,0,0,0,2,4.71,31.34,31.34,0,0,0,1.87,3c.39.59,1,1.3,1.46,1.85a20.67,20.67,0,0,0,2.42,2.35c-4.71-3.88-7.5-10.76-7.39-20,.26-20.8,15-45.75,32.94-55.75C316.64,226.68,323.68,225.84,329.19,227.94Z"/><path class="cls-2" d="M341,250.52c.26-20.79-14.08-29.54-32-19.55s-32.68,35-32.94,55.75,14.08,29.54,32,19.54S340.7,271.31,341,250.52Zm-1,.55c-.24,20.16-14.54,44.35-31.92,54s-31.29,1.2-31-18.95,14.54-44.34,31.93-54,31.28-1.21,31,18.94Z"/></g><g class="cls-4"><polygon class="cls-7" points="306.42 276.45 305.43 275.87 302.58 271.88 303.58 272.46 306.42 276.45"/><polygon class="cls-7" points="303.58 272.46 302.58 271.88 305.39 264.63 306.39 265.21 303.58 272.46"/><polygon class="cls-7" points="306.39 265.21 305.39 264.63 311.04 261.37 312.04 261.95 306.39 265.21"/><polygon class="cls-3" points="312.04 261.95 314.88 265.94 312.07 273.19 306.42 276.45 303.58 272.46 306.39 265.21 312.04 261.95"/></g><g class="cls-4"><polygon class="cls-2" points="315.95 277.96 307.87 273.27 306.31 271.08 314.39 275.78 315.95 277.96"/><polygon class="cls-2" points="314.39 275.78 306.31 271.08 307.85 267.1 315.94 271.8 314.39 275.78"/><polygon class="cls-7" points="315.94 271.8 307.85 267.1 310.95 265.31 319.04 270.01 315.94 271.8"/><polygon class="cls-3" points="319.04 270.01 320.59 272.2 319.05 276.18 315.95 277.96 314.39 275.78 315.94 271.8 319.04 270.01"/></g><g class="cls-4"><polygon class="cls-2" points="331.54 284.55 316.99 276.09 316.21 275.01 330.76 283.46 331.54 284.55"/><polygon class="cls-7" points="330.76 283.46 316.21 275.01 316.98 273.03 331.53 281.48 330.76 283.46"/><polygon class="cls-7" points="331.53 281.48 316.98 273.03 318.52 272.14 333.07 280.59 331.53 281.48"/><polygon class="cls-3" points="333.07 280.59 333.84 281.68 333.07 283.66 331.54 284.55 330.76 283.46 331.53 281.48 333.07 280.59"/></g><g class="cls-4"><g class="cls-4"><g class="cls-31"><g class="cls-4"><path class="cls-13" d="M350,291.19l-16.87-9.65a.42.42,0,0,0-.3-.05l16.87,9.66a.48.48,0,0,1,.3,0Z"/><path class="cls-7" d="M349.67,291.15l-16.87-9.66-.21.06,16.87,9.66.21-.06Z"/><path class="cls-7" d="M349.46,291.21l-16.87-9.66-.08.05,16.88,9.65.07,0Z"/></g></g></g><g class="cls-4"><g class="cls-32"><g class="cls-4"><path class="cls-7" d="M349.39,291.25l-16.88-9.65-.14.09,16.87,9.66.15-.1Z"/><path class="cls-7" d="M349.24,291.35l-16.87-9.66a1.89,1.89,0,0,0-.62,1l16.87,9.66a1.91,1.91,0,0,1,.62-1Z"/><path class="cls-7" d="M348.62,292.31l-16.87-9.66a.86.86,0,0,0-.05.27l16.87,9.66a1.28,1.28,0,0,1,.05-.27Z"/><path class="cls-7" d="M348.57,292.58l-16.87-9.66a.31.31,0,0,0,0,.1.77.77,0,0,0,0,.15l16.87,9.65a.66.66,0,0,1,0-.15v-.09Z"/><path class="cls-13" d="M348.58,292.82l-16.87-9.65a.5.5,0,0,0,.22.38l16.88,9.65a.51.51,0,0,1-.23-.38Z"/></g></g></g><path class="cls-6" d="M349.39,291.25a1.8,1.8,0,0,0-.82,1.42c0,.53.37.74.82.47a1.76,1.76,0,0,0,.82-1.42C350.21,291.2,349.84,291,349.39,291.25Z"/></g><g class="cls-4"><polygon class="cls-6" points="347.61 298.03 346.83 297.58 344.64 294.5 345.41 294.94 347.61 298.03"/><polygon class="cls-13" points="345.41 294.94 344.64 294.5 346.81 288.89 347.58 289.34 345.41 294.94"/><polygon class="cls-2" points="347.58 289.34 346.81 288.89 351.18 286.37 351.95 286.82 347.58 289.34"/><polygon class="cls-3" points="351.95 286.82 354.14 289.9 351.97 295.51 347.61 298.03 345.41 294.94 347.58 289.34 351.95 286.82"/></g><g class="cls-4"><g class="cls-4"><path class="cls-2" d="M194.23,171.24l.05,13.56a2.84,2.84,0,0,0,1.64,2.3,8.83,8.83,0,0,0,8,0,2.84,2.84,0,0,0,1.66-2.33l-.05-13.56a2.83,2.83,0,0,1-1.67,2.32,8.75,8.75,0,0,1-8,0A2.79,2.79,0,0,1,194.23,171.24Z"/><g class="cls-33"><g class="cls-4"><path class="cls-2" d="M194.23,171.24l.05,13.56a2.29,2.29,0,0,0,.74,1.61L195,172.85a2.31,2.31,0,0,1-.74-1.61Z"/><path class="cls-2" d="M195,172.85l.05,13.56a4.1,4.1,0,0,0,.9.69,6.63,6.63,0,0,0,1.24.54l-.06-13.56a6.56,6.56,0,0,1-1.23-.55,3.79,3.79,0,0,1-.9-.68Z"/><path class="cls-7" d="M197.1,174.08l.06,13.56a9.2,9.2,0,0,0,3.12.41l-.05-13.57a9.26,9.26,0,0,1-3.13-.4Z"/><path class="cls-2" d="M200.23,174.48l.05,13.57a8.63,8.63,0,0,0,2.82-.57l0-13.56a8.37,8.37,0,0,1-2.82.56Z"/><path class="cls-2" d="M203.05,173.92l0,13.56a6.55,6.55,0,0,0,.8-.38,2.84,2.84,0,0,0,1.66-2.33l-.05-13.56a2.83,2.83,0,0,1-1.67,2.32,6.45,6.45,0,0,1-.79.39Z"/></g></g></g><path class="cls-6" d="M195.89,168.91c-2.21,1.28-2.22,3.35,0,4.62a8.75,8.75,0,0,0,8,0c2.21-1.27,2.22-3.34,0-4.62A8.83,8.83,0,0,0,195.89,168.91Z"/></g><g class="cls-4"><g class="cls-4"><path class="cls-2" d="M195.31,142.47l0,28.66a2.29,2.29,0,0,0,1.33,1.86,7.12,7.12,0,0,0,6.45,0,2.25,2.25,0,0,0,1.35-1.89l0-28.66a2.29,2.29,0,0,1-1.35,1.89,7.14,7.14,0,0,1-6.46,0A2.26,2.26,0,0,1,195.31,142.47Z"/><g class="cls-34"><g class="cls-4"><path class="cls-2" d="M195.31,142.47l0,28.66a1.88,1.88,0,0,0,.6,1.31l0-28.66a1.88,1.88,0,0,1-.6-1.31Z"/><path class="cls-2" d="M195.91,143.78l0,28.66a3.66,3.66,0,0,0,.73.55,5.7,5.7,0,0,0,1,.44l-.05-28.66a5.61,5.61,0,0,1-1-.44,3.58,3.58,0,0,1-.72-.55Z"/><path class="cls-7" d="M197.63,144.77l.05,28.66a7.55,7.55,0,0,0,2.53.33l-.05-28.66a7.55,7.55,0,0,1-2.53-.33Z"/><path class="cls-2" d="M200.16,145.1l.05,28.66a7.06,7.06,0,0,0,2.28-.46l0-28.66a7.07,7.07,0,0,1-2.29.46Z"/><path class="cls-2" d="M202.45,144.64l0,28.66a5.43,5.43,0,0,0,.64-.31,2.25,2.25,0,0,0,1.35-1.89l0-28.66a2.29,2.29,0,0,1-1.35,1.89,5.43,5.43,0,0,1-.64.31Z"/></g></g></g><path class="cls-6" d="M196.66,140.59c-1.79,1-1.8,2.71,0,3.74a7.14,7.14,0,0,0,6.46,0c1.79-1,1.8-2.71,0-3.74A7.12,7.12,0,0,0,196.66,140.59Z"/></g><g class="cls-4"><g class="cls-4"><path class="cls-2" d="M196.35,119.85l0,22.16a1.75,1.75,0,0,0,1,1.44,5.55,5.55,0,0,0,5,0,1.77,1.77,0,0,0,1-1.46l0-22.16a1.79,1.79,0,0,1-1,1.46,5.57,5.57,0,0,1-5,0A1.76,1.76,0,0,1,196.35,119.85Z"/><g class="cls-35"><g class="cls-4"><path class="cls-2" d="M196.35,119.85l0,22.16a1.47,1.47,0,0,0,.46,1l0-22.16a1.43,1.43,0,0,1-.46-1Z"/><path class="cls-2" d="M196.81,120.86l0,22.16a2.65,2.65,0,0,0,.57.43,4.17,4.17,0,0,0,.77.34l0-22.16a4.59,4.59,0,0,1-.78-.34,3.29,3.29,0,0,1-.56-.43Z"/><path class="cls-7" d="M198.15,121.63l0,22.16a5.74,5.74,0,0,0,2,.25l0-22.16a5.71,5.71,0,0,1-1.95-.25Z"/><path class="cls-2" d="M200.1,121.88l0,22.16a5.3,5.3,0,0,0,1.76-.35l0-22.17a5.12,5.12,0,0,1-1.77.36Z"/><path class="cls-2" d="M201.87,121.52l0,22.17a3.85,3.85,0,0,0,.5-.24,1.77,1.77,0,0,0,1-1.46l0-22.16a1.79,1.79,0,0,1-1,1.46,3.81,3.81,0,0,1-.5.23Z"/></g></g></g><path class="cls-6" d="M197.39,118.39c-1.38.8-1.39,2.1,0,2.9a5.57,5.57,0,0,0,5,0c1.38-.8,1.39-2.1,0-2.9A5.49,5.49,0,0,0,197.39,118.39Z"/></g><path class="cls-6" d="M161.34,121c21.55,12.09,56,11.74,76.94-.78a39,39,0,0,0,9.72-8c10.26-12,6.59-26.85-10.81-36.61-21.55-12.09-56-11.74-76.94.77q-2,1.2-3.74,2.48C139.45,91.44,141.16,109.66,161.34,121Z"/><path class="cls-13" d="M167.31,115.51c21.55,12.1,56,11.75,76.95-.77q2-1.2,3.74-2.49c10.26-12,6.59-26.85-10.81-36.61-21.55-12.09-56-11.74-76.94.77q-2,1.2-3.74,2.48C146.24,90.86,149.91,105.75,167.31,115.51Z"/><path class="cls-6" d="M143.88,100c0-.52-.07-1-.07-1.56C143.82,98.94,143.84,99.48,143.88,100Z"/><path class="cls-13" d="M160.61,121.42c22,12.32,57.07,12,78.42-.79,10.11-6,15.32-13.79,15.67-21.57,0,.44,0,.9-.06,1.28-.09,1-.26,2.33-.45,3.31-.14.65-.33,1.52-.53,2.16a34.55,34.55,0,0,1-1.14,3.29c-.28.64-.65,1.49-1,2.11-.54,1-1.27,2.32-1.9,3.26-.41.62-1,1.44-1.43,2-.81,1-1.92,2.3-2.78,3.25a38.07,38.07,0,0,1-4,3.7c-.56.44-1.3,1-1.88,1.46-1.24.86-2.9,2-4.2,2.78-.82.48-1.93,1.12-2.79,1.56-1.24.63-2.91,1.43-4.18,2-1.83.82-4.35,1.69-6.25,2.33-1.23.41-2.91.85-4.17,1.18-1,.25-2.34.54-3.35.75-3.2.65-5.92.95-7.39,1.11-.77.09-3.56.36-7.23.41s-6.79-.22-7.12-.25c-1.61-.14-4.05-.35-7.12-.89-1-.18-2.37-.44-3.38-.66s-2.64-.61-3.76-.94c-1-.28-2.25-.65-3.2-1-1.19-.41-2.77-1-3.94-1.44-.89-.37-2.08-.86-3-1.28-1.25-.6-2.89-1.43-4.1-2.09-1.56-.94-3.63-2.19-5.11-3.25a47.33,47.33,0,0,1-4.45-3.64,39.33,39.33,0,0,1-3.34-3.49,41.39,41.39,0,0,1-2.53-3.35,36.12,36.12,0,0,1-2.34-4.1,27.28,27.28,0,0,1-1.36-3.37,25.72,25.72,0,0,1-.9-3.34c-.11-.65-.29-1.51-.36-2.16s-.11-1.14-.14-1.76C144.56,107.86,150.15,115.55,160.61,121.42Z"/><path class="cls-6" d="M254.7,99.06c0-.32,0-.63,0-.9C254.73,98.46,254.72,98.76,254.7,99.06Z"/><path class="cls-7" d="M160.61,121.42c22,12.32,57.07,12,78.42-.79s20.85-33.1-1.11-45.43-57.07-12-78.42.8S138.65,109.09,160.61,121.42Zm.73-.44c-21.55-12.09-22-32-1.09-44.56s55.39-12.87,76.94-.78,22,32,1.09,44.56-55.39,12.87-76.94.78Z"/><path class="cls-2" d="M241.36,92.1c-8.27,6.79-49.75-1.25-46.77-13.18,2.06-8.26,37.46-11.17,47.89,6.88a4.78,4.78,0,0,1-1.12,6.3Z"/><path class="cls-6" d="M193.56,107.21a12.74,12.74,0,0,0,11.58-.11,6,6,0,0,0,1.46-1.2c1.54-1.8,1-4-1.63-5.51a12.74,12.74,0,0,0-11.58.12,6,6,0,0,0-.56.37C190.26,102.77,190.52,105.51,193.56,107.21Z"/><g class="cls-4"><g class="cls-4"><path class="cls-3" d="M198.48,36.72l0,67.73a.68.68,0,0,0,.4.56,2.14,2.14,0,0,0,1.94,0,.68.68,0,0,0,.4-.56l0-67.74a.7.7,0,0,1-.4.57,2.14,2.14,0,0,1-1.94,0A.71.71,0,0,1,198.48,36.72Z"/><g class="cls-36"><g class="cls-4"><path class="cls-3" d="M198.48,36.72l0,67.73a.54.54,0,0,0,.18.39l0-67.73a.56.56,0,0,1-.18-.39Z"/><path class="cls-3" d="M198.66,37.11l0,67.73a1,1,0,0,0,.22.17,1.36,1.36,0,0,0,.3.13l0-67.73a2.08,2.08,0,0,1-.3-.13,1.4,1.4,0,0,1-.22-.17Z"/><path class="cls-3" d="M199.18,37.41l0,67.73a2.15,2.15,0,0,0,.76.1l0-67.73a2.41,2.41,0,0,1-.76-.1Z"/><path class="cls-3" d="M199.94,37.51l0,67.73a2,2,0,0,0,.69-.14l0-67.73a2.23,2.23,0,0,1-.69.14Z"/><path class="cls-3" d="M200.63,37.37l0,67.73a.82.82,0,0,0,.19-.09.68.68,0,0,0,.4-.56l0-67.74a.7.7,0,0,1-.4.57l-.19.09Z"/></g></g></g><path class="cls-2" d="M198.89,36.15a.6.6,0,0,0,0,1.13,2.14,2.14,0,0,0,1.94,0,.6.6,0,0,0,0-1.13A2.14,2.14,0,0,0,198.89,36.15Z"/></g><path class="cls-7" d="M196,36.71a3.84,3.84,0,1,1,3.84,3.84A3.84,3.84,0,0,1,196,36.71Z"/><g class="cls-37"><polygon class="cls-3" points="347.02 160.66 354.6 165.04 398.7 165.04 386 157.71 352.14 157.71 347.02 160.66"/><polygon class="cls-3" points="339.7 165.04 348.6 165.04 344.15 162.47 339.7 165.04"/><polygon class="cls-3" points="368.23 172.91 390.67 185.87 412.72 173.13 412.33 172.91 368.23 172.91"/><polygon class="cls-3" points="322.1 175.2 342.12 186.76 386.21 186.76 362.23 172.91 326.07 172.91 322.1 175.2"/><polygon class="cls-3" points="301.85 186.76 336.22 186.76 319.03 176.83 301.85 186.76"/></g><g class="cls-37"><polygon class="cls-3" points="173.2 261.69 184.85 268.42 228.96 268.42 216.27 261.09 174.24 261.09 173.2 261.69"/><polygon class="cls-3" points="161.8 268.42 178.85 268.42 170.33 263.5 161.8 268.42"/><polygon class="cls-3" points="198.49 276.29 216.85 286.89 235.21 276.29 198.49 276.29"/><polygon class="cls-3" points="148.39 276.29 172.37 290.14 211.48 290.14 213.98 288.7 192.5 276.29 148.39 276.29"/><polygon class="cls-3" points="123.95 290.14 166.47 290.14 145.21 277.86 123.95 290.14"/></g></g><path class="cls-38" d="M219.83,202a6.31,6.31,0,0,1,.26,2.5c-.21.42-.06.12-.11.21h0l0,0-.05,0-.1.08-.2.14-.38.27-.67.44c-.39.23-.65.35-.7.29s.15-.27.48-.59c.16-.15.37-.33.6-.52l.36-.29.2-.16.1-.08.05,0,0,0h0l-.1.2A6.11,6.11,0,0,1,219.83,202Z"/><path class="cls-38" d="M219.83,191.26a13.94,13.94,0,0,1,0,5.36,13.94,13.94,0,0,1,0-5.36Z"/><path class="cls-38" d="M219.83,180.54a13.94,13.94,0,0,1,0,5.36,13.94,13.94,0,0,1,0-5.36Z"/><path class="cls-38" d="M219.83,169.82a13.94,13.94,0,0,1,0,5.36,13.94,13.94,0,0,1,0-5.36Z"/><path class="cls-38" d="M219.83,159.1a13.94,13.94,0,0,1,0,5.36,13.94,13.94,0,0,1,0-5.36Z"/><path class="cls-38" d="M217.33,151.24a6.31,6.31,0,0,1,2.5-.26l.26.26h0v.94c0,.3,0,.57-.06.8,0,.45-.11.73-.18.73s-.14-.28-.19-.73c0-.23,0-.5,0-.8l0-.46v-.48h0l.26.26A6.11,6.11,0,0,1,217.33,151.24Z"/><path class="cls-38" d="M207.74,151.24a11.16,11.16,0,0,1,4.79,0,11.16,11.16,0,0,1-4.79,0Z"/><path class="cls-38" d="M198.15,151.24a11.16,11.16,0,0,1,4.79,0,11.16,11.16,0,0,1-4.79,0Z"/><path class="cls-38" d="M188.56,151.24a11.16,11.16,0,0,1,4.79,0,11.16,11.16,0,0,1-4.79,0Z"/><path class="cls-38" d="M179,151.24a11.16,11.16,0,0,1,4.79,0,11.16,11.16,0,0,1-4.79,0Z"/><path class="cls-38" d="M169.58,151.8c-.05-.06.16-.33.54-.71l0,0h.09c.41,0,.94-.06,1.52-.06a5.82,5.82,0,0,1,2.4.26,5.63,5.63,0,0,1-2.4.26c-.58,0-1.11,0-1.52-.06l.13,0C169.93,151.7,169.63,151.86,169.58,151.8Z"/><path class="cls-38" d="M162.2,157.92c-.1-.11.66-.88,1.68-1.73s1.91-1.44,2-1.33-.66.89-1.68,1.73S162.29,158,162.2,157.92Z"/><path class="cls-38" d="M154.82,164.05c-.1-.11.66-.89,1.68-1.73s1.91-1.44,2-1.33-.66.88-1.68,1.73S154.91,164.16,154.82,164.05Z"/><path class="cls-38" d="M149.18,171.21a6.14,6.14,0,0,1-.24-2.51c.19-.39.05-.11.1-.19h0l0,0,0-.05.09-.08.2-.15.37-.29c.24-.18.46-.34.65-.46.37-.26.63-.38.68-.33s-.13.28-.45.61c-.16.16-.35.35-.58.55l-.35.31-.19.16-.09.09-.05,0,0,0h0c0-.09-.1.19.09-.2A6.31,6.31,0,0,1,149.18,171.21Z"/><path class="cls-38" d="M149.08,181.13a6.33,6.33,0,0,1-.24-2.49,6.24,6.24,0,0,1,.29-2.47,6.22,6.22,0,0,1,.24,2.48A6.32,6.32,0,0,1,149.08,181.13Z"/><path class="cls-38" d="M149,191a12.14,12.14,0,0,1,.05-4.95A11.69,11.69,0,0,1,149,191Z"/><path class="cls-38" d="M148.89,201a6,6,0,0,1-.24-2.48,5.91,5.91,0,0,1,.29-2.48,6.44,6.44,0,0,1,.23,2.49A6.1,6.1,0,0,1,148.89,201Z"/><path class="cls-38" d="M148.79,210.88a6.22,6.22,0,0,1-.24-2.48,6.11,6.11,0,0,1,.29-2.48,12.18,12.18,0,0,1-.05,5Z"/><path class="cls-38" d="M151.22,218.38a6,6,0,0,1-2.51.22c-.51-.52-.14-.14-.25-.26h0v-.47l0-.47c0-.3,0-.57.06-.8,0-.45.12-.73.19-.73s.14.28.18.74c0,.22,0,.49.05.79s0,.32,0,.47v.49h0c-.12-.11.25.27-.26-.26A6.31,6.31,0,0,1,151.22,218.38Z"/><path class="cls-38" d="M160.69,218.54a10.94,10.94,0,0,1-4.74-.08,5.76,5.76,0,0,1,2.38-.22A5.66,5.66,0,0,1,160.69,218.54Z"/><path class="cls-38" d="M170.16,218.69a5.42,5.42,0,0,1-2.37.23,5.78,5.78,0,0,1-2.36-.3,5.33,5.33,0,0,1,2.37-.22A5.72,5.72,0,0,1,170.16,218.69Z"/><path class="cls-38" d="M179.64,218.85a5.8,5.8,0,0,1-2.38.22,5.44,5.44,0,0,1-2.36-.3,10.94,10.94,0,0,1,4.74.08Z"/><path class="cls-38" d="M189.11,219a10.94,10.94,0,0,1-4.74-.08,10.94,10.94,0,0,1,4.74.08Z"/><path class="cls-38" d="M198.58,219.16a10.94,10.94,0,0,1-4.74-.08,5.8,5.8,0,0,1,2.38-.22A5.62,5.62,0,0,1,198.58,219.16Z"/><path class="cls-38" d="M206.5,214.57c.09.12-.69.85-1.73,1.64a5.7,5.7,0,0,1-2,1.22c-.09-.12.68-.85,1.73-1.64A5.7,5.7,0,0,1,206.5,214.57Z"/><path class="cls-38" d="M214.06,208.85c.08.12-.69.85-1.73,1.64s-2,1.34-2.05,1.22.69-.85,1.73-1.64A5.61,5.61,0,0,1,214.06,208.85Z"/><path class="cls-38" d="M208.31,147.79c.14,0,.13.6,0,1.27s-.39,1.2-.53,1.17-.13-.61,0-1.28S208.17,147.76,208.31,147.79Z"/><path class="cls-38" d="M210.61,137.62a6.92,6.92,0,0,1-.32,2.6,6.71,6.71,0,0,1-.83,2.48,6.69,6.69,0,0,1,.32-2.6A6.8,6.8,0,0,1,210.61,137.62Z"/><path class="cls-38" d="M212.9,127.45a6.69,6.69,0,0,1-.32,2.6,6.81,6.81,0,0,1-.83,2.49,6.92,6.92,0,0,1,.32-2.6A6.81,6.81,0,0,1,212.9,127.45Z"/><path class="cls-38" d="M215.19,117.29a6.52,6.52,0,0,1-.31,2.59,6.81,6.81,0,0,1-.83,2.49,6.69,6.69,0,0,1,.32-2.6A6.6,6.6,0,0,1,215.19,117.29Z"/><path class="cls-38" d="M217.49,107.12a6.69,6.69,0,0,1-.32,2.6,6.8,6.8,0,0,1-.83,2.48,6.69,6.69,0,0,1,.32-2.6A6.8,6.8,0,0,1,217.49,107.12Z"/><path class="cls-38" d="M219.78,97a6.69,6.69,0,0,1-.32,2.6,6.6,6.6,0,0,1-.82,2.48,6.64,6.64,0,0,1,.32-2.59A6.69,6.69,0,0,1,219.78,97Z"/><path class="cls-38" d="M221.48,89.43c.14,0,.13.6,0,1.28s-.39,1.19-.53,1.16-.13-.61,0-1.28S221.34,89.4,221.48,89.43Z"/><path class="cls-38" d="M169.12,149c.13-.07.49.38.8,1s.46,1.17.33,1.23-.48-.38-.8-1S169,149.07,169.12,149Z"/><path class="cls-38" d="M164.74,140.3a6.06,6.06,0,0,1,1.33,2.06,5.74,5.74,0,0,1,.86,2.3,6.06,6.06,0,0,1-1.33-2.06A6,6,0,0,1,164.74,140.3Z"/><path class="cls-38" d="M160.36,131.6c.13-.07.72.86,1.33,2.06a6,6,0,0,1,.86,2.29c-.13.07-.72-.86-1.33-2.06A6,6,0,0,1,160.36,131.6Z"/><path class="cls-38" d="M156,122.89a11.62,11.62,0,0,1,2.2,4.36,5.9,5.9,0,0,1-1.33-2.06A6.11,6.11,0,0,1,156,122.89Z"/><path class="cls-38" d="M151.59,114.19c.13-.07.72.85,1.33,2.06a5.72,5.72,0,0,1,.86,2.29,6.06,6.06,0,0,1-1.33-2.06A6,6,0,0,1,151.59,114.19Z"/><path class="cls-38" d="M147.21,105.48a6.06,6.06,0,0,1,1.33,2.06,6,6,0,0,1,.86,2.29c-.13.07-.72-.85-1.33-2.06A5.91,5.91,0,0,1,147.21,105.48Z"/><path class="cls-38" d="M142.82,96.78c.13-.07.73.85,1.33,2.06a5.84,5.84,0,0,1,.87,2.29,5.9,5.9,0,0,1-1.33-2.06A6.09,6.09,0,0,1,142.82,96.78Z"/><path class="cls-38" d="M138.44,88.07a6.06,6.06,0,0,1,1.33,2.06,5.78,5.78,0,0,1,.86,2.29c-.13.07-.72-.85-1.33-2.06A5.91,5.91,0,0,1,138.44,88.07Z"/><path class="cls-38" d="M135.13,81.49c.12-.07.48.38.79,1s.46,1.17.33,1.24-.48-.38-.79-1S135,81.55,135.13,81.49Z"/><path class="cls-38" d="M90.81,164.13c0,.15-.58.22-1.26.17s-1.24-.22-1.23-.36.58-.22,1.27-.16S90.82,164,90.81,164.13Z"/><path class="cls-38" d="M101,164.93a6.6,6.6,0,0,1-2.57.06,6.33,6.33,0,0,1-2.52-.46,6.6,6.6,0,0,1,2.57-.06A6.54,6.54,0,0,1,101,164.93Z"/><path class="cls-38" d="M111.14,165.73a6.54,6.54,0,0,1-2.56.06,6.49,6.49,0,0,1-2.52-.46,6.32,6.32,0,0,1,2.56-.06A6.33,6.33,0,0,1,111.14,165.73Z"/><path class="cls-38" d="M121.3,166.52a6.32,6.32,0,0,1-2.56.06,6.33,6.33,0,0,1-2.52-.46,6.54,6.54,0,0,1,2.56-.06A6.54,6.54,0,0,1,121.3,166.52Z"/><path class="cls-38" d="M131.47,167.32a12.61,12.61,0,0,1-5.09-.4,6.54,6.54,0,0,1,2.56-.06A6.35,6.35,0,0,1,131.47,167.32Z"/><path class="cls-38" d="M141.63,168.11a6.32,6.32,0,0,1-2.56.06,6.6,6.6,0,0,1-2.52-.45,6.3,6.3,0,0,1,2.56-.06A6.65,6.65,0,0,1,141.63,168.11Z"/><path class="cls-38" d="M149.2,168.71c0,.14-.58.21-1.26.16s-1.24-.21-1.23-.36.58-.21,1.27-.16S149.21,168.56,149.2,168.71Z"/><circle class="cls-3" cx="114.43" cy="44.24" r="44.03" transform="translate(45.52 145.74) rotate(-76.97)"/><path class="cls-38" d="M158.46,44.24s0-.24-.07-.71-.07-1.18-.13-2.09c0-.46-.06-1-.09-1.54s-.18-1.18-.28-1.84-.21-1.38-.34-2.14a22.33,22.33,0,0,0-.57-2.4,41.72,41.72,0,0,0-4.87-11.69A43.68,43.68,0,0,0,141,9.39L139.06,8c-.67-.44-1.37-.84-2.06-1.27s-1.38-.89-2.14-1.23l-2.28-1.09-1.15-.55-1.22-.45-2.46-.89c-.84-.28-1.72-.46-2.59-.7a24.92,24.92,0,0,0-2.65-.6A41.72,41.72,0,0,0,117,.56c-.94,0-1.89-.12-2.85-.11l-2.9.15c-.49,0-1,0-1.46.1l-1.47.22c-1,.16-2,.28-2.94.48a47.9,47.9,0,0,0-5.84,1.71A45.63,45.63,0,0,0,93.8,5.62c-.93.5-1.81,1.09-2.73,1.63-.45.29-.92.53-1.35.86l-1.29,1a49.31,49.31,0,0,0-5,4.22c-.73.82-1.48,1.63-2.22,2.45l-.56.62-.5.67-1,1.34-1,1.34-.88,1.44-.88,1.45-.45.73-.37.77L74.1,27.18c-.39,1.08-.79,2.16-1.18,3.25a46.54,46.54,0,0,0-2.26,13.8,46.93,46.93,0,0,0,2.25,13.82l1.19,3.24c.5,1,1,2.07,1.49,3.09l.37.77.44.72.88,1.45.88,1.45,1,1.34,1,1.34.51.67.56.62,2.22,2.45a49.31,49.31,0,0,0,5,4.22l1.29,1c.42.32.9.56,1.35.85.92.54,1.8,1.13,2.73,1.63a45.63,45.63,0,0,0,5.71,2.51,46.18,46.18,0,0,0,5.84,1.71c1,.21,2,.32,3,.48l1.46.23c.48.06,1,.06,1.46.09l2.9.15c1,0,1.91-.08,2.85-.11a40.12,40.12,0,0,0,5.54-.64,21.37,21.37,0,0,0,2.66-.6c.86-.24,1.74-.42,2.58-.69l2.46-.9,1.22-.45,1.16-.54,2.27-1.1c.76-.34,1.43-.83,2.14-1.23s1.4-.83,2.06-1.27l1.9-1.41a43.79,43.79,0,0,0,11.15-12.44A41.79,41.79,0,0,0,157,55a22.48,22.48,0,0,0,.57-2.41c.13-.76.24-1.47.34-2.14s.22-1.27.28-1.84.06-1.08.09-1.54c.06-.9.1-1.6.13-2.09s.07-.71.07-.71,0,.24,0,.71,0,1.19-.08,2.1c0,.46,0,1-.07,1.55s-.16,1.18-.25,1.84-.21,1.39-.32,2.16a23.5,23.5,0,0,1-.55,2.42,42,42,0,0,1-4.82,11.78,43.85,43.85,0,0,1-11.18,12.58l-1.91,1.44c-.67.44-1.37.84-2.07,1.28s-1.39.9-2.15,1.25l-2.3,1.11-1.16.56-1.23.45-2.49.91c-.84.29-1.72.47-2.6.71a21.3,21.3,0,0,1-2.68.61,39.17,39.17,0,0,1-5.59.66c-1,0-1.92.13-2.88.12l-2.93-.14c-.49,0-1,0-1.48-.1L108.23,88c-1-.16-2-.27-3-.48a48.34,48.34,0,0,1-11.68-4.25c-.94-.51-1.84-1.09-2.76-1.64-.46-.29-.94-.54-1.37-.87l-1.31-1a49.2,49.2,0,0,1-5-4.27l-2.25-2.47-.57-.63-.51-.67-1-1.36-1-1.36-.89-1.45L76,66.13l-.45-.74-.38-.77-1.51-3.13-1.2-3.28a47,47,0,0,1-2.28-14,47.35,47.35,0,0,1,2.28-14c.41-1.1.81-2.19,1.21-3.28l1.5-3.12.38-.78.45-.73.89-1.47.89-1.45,1-1.37,1-1.35.51-.67.56-.63,2.26-2.47a50.39,50.39,0,0,1,5-4.27l1.31-1c.43-.33.91-.58,1.37-.87.92-.54,1.82-1.13,2.76-1.64A48.34,48.34,0,0,1,105.25.94c1-.2,2-.32,3-.48l1.48-.22c.49-.06,1-.06,1.48-.09L114.11,0c1,0,1.93.08,2.89.12a39.52,39.52,0,0,1,5.59.66,24.19,24.19,0,0,1,2.68.61c.87.24,1.76.43,2.6.71l2.49.91,1.22.45,1.17.56L135,5.13c.77.35,1.44.84,2.16,1.25s1.4.84,2.07,1.29l1.91,1.43a44,44,0,0,1,11.18,12.58,42,42,0,0,1,4.82,11.79,22.77,22.77,0,0,1,.55,2.41c.11.77.22,1.49.32,2.16s.2,1.28.25,1.85,0,1.08.07,1.54c0,.91.06,1.61.08,2.1S158.46,44.24,158.46,44.24Z"/><path class="cls-1" d="M119,19.82a14.71,14.71,0,0,1,3.79,1l2.78-2.33,4.79,3.64-1.51,3.3a14.69,14.69,0,0,1,2,3.39l3.62.32.8,6-3.4,1.27a14.71,14.71,0,0,1-1,3.79L133.13,43l-3.64,4.78-3.3-1.51a14.69,14.69,0,0,1-3.39,2l-.32,3.62-6,.8-1.27-3.4a14.32,14.32,0,0,1-3.79-1l-2.79,2.33-4.78-3.64,1.51-3.3a14.69,14.69,0,0,1-2-3.39L99.8,39.9l-.8-6,3.4-1.27a14.32,14.32,0,0,1,1-3.79l-2.33-2.79,3.64-4.78,3.3,1.51a14.69,14.69,0,0,1,3.39-2l.32-3.62,6-.8,1.27,3.4Zm-2.45,8.27a6.45,6.45,0,1,0,7.26,5.53A6.45,6.45,0,0,0,116.5,28.09Z"/><path class="cls-39" d="M116.5,28.09a1.19,1.19,0,0,1,.41-.09,5.49,5.49,0,0,1,1.19,0,6.4,6.4,0,0,1,4,1.82,6.66,6.66,0,0,1-3.79,11.33,6.68,6.68,0,0,1-4.1-.76,6.63,6.63,0,0,1-2.56-9.16,6.39,6.39,0,0,1,3.32-2.8,4.58,4.58,0,0,1,1.16-.29c.27,0,.41-.05.41,0s-.56.11-1.49.51a6.38,6.38,0,0,0-3.08,2.8,6.26,6.26,0,0,0-.05,6,6.06,6.06,0,0,0,2.53,2.56,6.17,6.17,0,0,0,7.26-1,6.1,6.1,0,0,0,1.76-3.13,6.26,6.26,0,0,0-1.63-5.74,6.42,6.42,0,0,0-3.72-1.88C117.08,28.05,116.51,28.15,116.5,28.09Z"/><path class="cls-39" d="M119,19.82a1.38,1.38,0,0,1-.1-.2l-.26-.64c-.23-.6-.56-1.45-1-2.53l.09.05-6,.86.11-.12c-.09,1.09-.19,2.31-.3,3.62V21l-.09,0a15.22,15.22,0,0,0-3.34,2L108,23l-.1-.05-3.31-1.49.22-.06-3.62,4.8V26l2.35,2.78.08.1-.05.12a14.35,14.35,0,0,0-1,3.74v.13l-.13.05-3.4,1.28.15-.25c.25,1.87.53,3.89.81,6l-.21-.21,3.61.31.15,0,.06.13a14.4,14.4,0,0,0,1.95,3.33l.09.12-.06.14L104.12,47l-.08-.31,4.79,3.64h-.32L111.29,48l.12-.1.15.06a14.33,14.33,0,0,0,3.72,1h0c.1.08-.21-.16.21.17h0v0l0,0,0,.11.08.22.16.42.32.86.64,1.69-.28-.16,6-.81-.23.23c.11-1.22.22-2.42.32-3.62l0-.15.14-.06A14.51,14.51,0,0,0,126,46l.12-.09.14.06,3.31,1.51-.3.08,3.64-4.78v.3l-2.33-2.79-.09-.11.05-.13a14.44,14.44,0,0,0,1-3.73v-.13l.13-.05,3.41-1.27-.14.24c-.28-2.1-.54-4.08-.79-6l.18.17L130.76,29h-.11l-.05-.11a14.48,14.48,0,0,0-1.93-3.35l-.07-.08.05-.1,1.52-3.3.05.19-4.77-3.67h.15l-2.81,2.3,0,0,0,0A16.13,16.13,0,0,0,119.9,20l-.71-.14-.24-.05a1.09,1.09,0,0,1,.24,0c.16,0,.41,0,.73.1a14.13,14.13,0,0,1,2.85.81l-.08,0,2.76-2.36.07-.06.08.05L130.4,22l.1.08-.05.11L129,25.5l0-.17a14.75,14.75,0,0,1,2,3.42l-.16-.12,3.62.31h.16l0,.16.83,6,0,.17-.16.06-3.4,1.28.14-.18a14.88,14.88,0,0,1-1,3.85l0-.24c.76.91,1.54,1.84,2.34,2.78l.12.15-.12.15-3.63,4.79-.12.16-.18-.08-3.31-1.51.26,0a15.13,15.13,0,0,1-3.44,2l.15-.21c-.1,1.19-.21,2.4-.31,3.62l0,.2-.2,0-6,.81-.21,0-.07-.19c-.21-.57-.42-1.13-.64-1.7l-.31-.85-.16-.43-.08-.22,0-.1,0-.06v0h0l.21.17h0a14.83,14.83,0,0,1-3.85-1l.27,0-2.79,2.33-.16.14-.16-.13-4.78-3.64-.17-.13.09-.18,1.51-3.31,0,.26a15,15,0,0,1-2-3.45l.21.16-3.62-.33-.19,0,0-.19c-.27-2.07-.54-4.08-.79-6l0-.18.17-.07,3.41-1.26-.14.18a14.62,14.62,0,0,1,1-3.84l0,.22-2.33-2.79-.11-.13.1-.13c1.29-1.67,2.51-3.27,3.66-4.77l.09-.12.13.06,3.3,1.52-.17,0a15,15,0,0,1,3.43-2l-.09.13c.12-1.3.23-2.52.34-3.62v-.1l.1,0,6-.76h.06l0,.06c.38,1.09.68,1.93.9,2.53.09.28.16.49.22.66A1.9,1.9,0,0,1,119,19.82Z"/><path class="cls-40" d="M108.4,55.2a8.15,8.15,0,0,1,2.09.55L112,54.46l2.64,2-.83,1.83a8,8,0,0,1,1.09,1.86l2,.18.45,3.29-1.88.7a8.15,8.15,0,0,1-.55,2.09L116.23,68l-2,2.64-1.83-.83a7.9,7.9,0,0,1-1.87,1.09l-.17,2-3.29.44-.7-1.88a8.15,8.15,0,0,1-2.09-.55l-1.54,1.29-2.64-2,.83-1.83a8,8,0,0,1-1.09-1.86l-2-.18L97.39,63l1.87-.7a8.16,8.16,0,0,1,.56-2.09l-1.29-1.54,2-2.64,1.82.83a8.32,8.32,0,0,1,1.87-1.09l.18-2,3.29-.44.7,1.88Zm-1.35,4.56a3.56,3.56,0,1,0,4,3.05A3.57,3.57,0,0,0,107.05,59.76Z"/><circle class="cls-3" cx="234.78" cy="48.6" r="44.03" transform="translate(34.4 180.25) rotate(-45)"/><path class="cls-38" d="M278.81,48.6s0-.24-.06-.71-.08-1.18-.13-2.09c0-.46-.06-1-.1-1.54s-.17-1.17-.27-1.84-.22-1.38-.34-2.14a23.05,23.05,0,0,0-.58-2.4,41.84,41.84,0,0,0-4.87-11.69,43.92,43.92,0,0,0-11.15-12.44l-1.9-1.41c-.66-.44-1.37-.84-2.06-1.27s-1.38-.89-2.14-1.23l-2.27-1.09-1.16-.55-1.22-.44-2.46-.9c-.84-.28-1.72-.46-2.58-.69a21.62,21.62,0,0,0-2.65-.6,40.49,40.49,0,0,0-5.54-.65c-1,0-1.9-.12-2.86-.11l-2.9.15c-.48,0-1,0-1.46.1l-1.46.22c-1,.16-2,.28-3,.48a46.73,46.73,0,0,0-5.84,1.72,44.76,44.76,0,0,0-5.71,2.5c-.92.51-1.81,1.09-2.72,1.63-.45.29-.93.53-1.36.86l-1.29,1a49.2,49.2,0,0,0-5,4.22l-2.23,2.46-.56.61-.5.67-1,1.34-1,1.34-.88,1.45L196.76,27l-.44.73-.38.77c-.49,1-1,2.05-1.48,3.08s-.79,2.16-1.19,3.25A46.55,46.55,0,0,0,191,48.6a46.55,46.55,0,0,0,2.26,13.81c.39,1.09.79,2.17,1.18,3.24l1.49,3.09.37.77.45.73.88,1.45.88,1.44,1,1.34,1,1.35.5.66.56.62,2.22,2.45a49.31,49.31,0,0,0,5,4.22l1.29,1c.43.32.91.56,1.35.85.92.55,1.81,1.13,2.73,1.63a46.29,46.29,0,0,0,5.71,2.51,45,45,0,0,0,5.84,1.71c1,.21,2,.32,3,.48l1.46.23c.49.06,1,.06,1.46.09l2.9.15c1,0,1.91-.08,2.86-.11a40.12,40.12,0,0,0,5.54-.64,21.62,21.62,0,0,0,2.65-.6c.87-.24,1.74-.41,2.58-.69l2.47-.9,1.21-.44,1.16-.55,2.28-1.09c.75-.35,1.43-.84,2.13-1.24s1.4-.83,2.06-1.26l1.9-1.42A43.79,43.79,0,0,0,272.46,71a41.79,41.79,0,0,0,4.87-11.68,23.05,23.05,0,0,0,.58-2.4c.12-.77.23-1.48.34-2.15s.22-1.27.27-1.84.07-1.07.1-1.53c.05-.91.1-1.61.13-2.09s.06-.72.06-.72,0,.24,0,.72-.05,1.18-.08,2.09c0,.46,0,1-.07,1.55s-.16,1.18-.25,1.84-.2,1.39-.32,2.16a23.5,23.5,0,0,1-.55,2.42,41.9,41.9,0,0,1-4.82,11.78,43.88,43.88,0,0,1-11.18,12.59l-1.9,1.43c-.67.44-1.38.85-2.08,1.28s-1.39.9-2.15,1.25l-2.29,1.11-1.17.56-1.22.45-2.49.92c-.85.28-1.73.46-2.61.7a21.55,21.55,0,0,1-2.67.61,41,41,0,0,1-5.6.67c-.95,0-1.91.13-2.88.11l-2.93-.14c-.49,0-1,0-1.48-.09l-1.48-.23c-1-.16-2-.27-3-.48a48.2,48.2,0,0,1-11.69-4.25c-.94-.5-1.83-1.09-2.76-1.64-.45-.29-.94-.54-1.37-.86l-1.3-1a49.29,49.29,0,0,1-5-4.26l-2.26-2.48-.56-.62-.51-.68-1-1.35-1-1.37L197.2,72l-.89-1.47-.45-.74-.38-.77L194,65.86c-.4-1.09-.8-2.19-1.21-3.29a47.3,47.3,0,0,1-2.28-14,47,47,0,0,1,2.29-14l1.2-3.28,1.51-3.12.38-.77.44-.74.89-1.47.9-1.45,1-1.36,1-1.36.51-.67.57-.63,2.25-2.47a50.5,50.5,0,0,1,5-4.27l1.3-1c.43-.33.92-.57,1.37-.86.93-.55,1.83-1.14,2.76-1.65A46.68,46.68,0,0,1,219.7,7a47.59,47.59,0,0,1,5.9-1.72c1-.2,2-.31,3-.48l1.48-.22c.49-.06,1-.06,1.48-.09l2.93-.15c1,0,1.93.08,2.88.12a42.28,42.28,0,0,1,5.59.66,23.21,23.21,0,0,1,2.68.61c.88.24,1.76.43,2.61.71l2.48.91,1.23.45,1.16.56,2.3,1.11c.76.35,1.44.85,2.15,1.25s1.4.84,2.07,1.29l1.91,1.43A43.85,43.85,0,0,1,272.71,26a42,42,0,0,1,4.82,11.79,22.77,22.77,0,0,1,.55,2.41c.12.77.22,1.49.32,2.16s.2,1.28.25,1.85.05,1.08.07,1.54c0,.91.06,1.61.08,2.1S278.81,48.6,278.81,48.6Z"/><circle class="cls-41" cx="233.48" cy="48.83" r="22.16" transform="translate(92.77 241.45) rotate(-65.66)"/><path class="cls-39" d="M211.37,47.38a1.65,1.65,0,0,1,0,.36c0,.27,0,.61,0,1.06v.77c0,.28.05.59.08.93a17.59,17.59,0,0,0,.32,2.31,21.09,21.09,0,0,0,2.08,6,22.07,22.07,0,0,0,5.18,6.58,22.14,22.14,0,0,0,23.45,3.4,23.1,23.1,0,0,0,2.79-1.54,25.78,25.78,0,0,0,2.62-2,26.12,26.12,0,0,0,2.31-2.39,21.4,21.4,0,0,0,3.51-5.82,21.74,21.74,0,0,0,.91-13.79,21.1,21.1,0,0,0-2.73-6.23,24.84,24.84,0,0,0-2-2.67,25.12,25.12,0,0,0-2.34-2.28,24.68,24.68,0,0,0-2.57-1.9,24.31,24.31,0,0,0-2.77-1.44,22,22,0,0,0-26.92,7.6,21,21,0,0,0-2.84,5.68,15.15,15.15,0,0,0-.62,2.24c-.07.33-.16.64-.21.92s-.07.53-.1.76q-.09.66-.15,1.05a1.29,1.29,0,0,1-.07.35s0-.12,0-.36.06-.61.1-1.05c0-.23,0-.49.07-.78s.12-.58.19-.92a14.75,14.75,0,0,1,.57-2.27,21.19,21.19,0,0,1,2.8-5.79,22.38,22.38,0,0,1,15.68-9.58,22.54,22.54,0,0,1,11.68,1.71,23.79,23.79,0,0,1,2.83,1.47,23.11,23.11,0,0,1,2.63,1.94,26.08,26.08,0,0,1,2.4,2.31,23.89,23.89,0,0,1,2,2.74,21.46,21.46,0,0,1,2.8,6.37,23.63,23.63,0,0,1,.69,7.14,23.84,23.84,0,0,1-1.62,7,21.74,21.74,0,0,1-3.6,6,26.06,26.06,0,0,1-2.37,2.44,24,24,0,0,1-2.68,2,22.23,22.23,0,0,1-2.86,1.58,22.94,22.94,0,0,1-3,1.08,22.24,22.24,0,0,1-20.89-4.65,22.12,22.12,0,0,1-5.2-6.73,21.15,21.15,0,0,1-2-6.1,15.46,15.46,0,0,1-.27-2.33c0-.34-.06-.65-.06-.94s0-.54,0-.78c0-.44,0-.79,0-1Z"/><path class="cls-39" d="M243.54,49.51a4,4,0,0,1-.78.06l-2.15,0c-1.83,0-4.38,0-7.25,0h-.14V48.08c0-3.21,0-6.12,0-8.22,0-1,0-1.85.05-2.49a5,5,0,0,1,.05-.91,5.48,5.48,0,0,1,.06.91c0,.64,0,1.48,0,2.49,0,2.1,0,5,0,8.22v1.43l-.14-.14c2.87,0,5.42,0,7.25.05l2.15,0A6.85,6.85,0,0,1,243.54,49.51Z"/><path class="cls-39" d="M233.43,30.32a6.18,6.18,0,0,1,.14,1.86,6.23,6.23,0,0,1-.14,1.86,6.23,6.23,0,0,1-.14-1.86A6.18,6.18,0,0,1,233.43,30.32Z"/><path class="cls-39" d="M243.52,33.3a5.46,5.46,0,0,1-1.19,1.4,5.84,5.84,0,0,1-1.4,1.2,5.84,5.84,0,0,1,1.2-1.4A6.21,6.21,0,0,1,243.52,33.3Z"/><path class="cls-39" d="M249.43,39.75a7.44,7.44,0,0,1-1.53,1,8.19,8.19,0,0,1-1.61.89,5.15,5.15,0,0,1,1.46-1.13A5,5,0,0,1,249.43,39.75Z"/><path class="cls-39" d="M252.89,49.32a21.58,21.58,0,0,1-5.08,0,23.11,23.11,0,0,1,5.08,0Z"/><path class="cls-39" d="M217.69,49a19.2,19.2,0,0,1-4.79,0,20.56,20.56,0,0,1,4.79,0Z"/><path class="cls-39" d="M220.18,56.11a10.81,10.81,0,0,1-1.81,1.64,10.39,10.39,0,0,1-2,1.42,10.33,10.33,0,0,1,1.81-1.64A10.39,10.39,0,0,1,220.18,56.11Z"/><path class="cls-39" d="M226.32,61.62a15,15,0,0,1-1.23,2.13,15.63,15.63,0,0,1-1.31,2.1,8.07,8.07,0,0,1,1.06-2.24A8,8,0,0,1,226.32,61.62Z"/><path class="cls-39" d="M233.43,68.72a11.34,11.34,0,0,1-.14-2.53,11.39,11.39,0,0,1,.14-2.54,11.39,11.39,0,0,1,.14,2.54A11.34,11.34,0,0,1,233.43,68.72Z"/><path class="cls-39" d="M244.37,65.34a7.15,7.15,0,0,1-2.09-1.43A7.18,7.18,0,0,1,240.57,62a24.69,24.69,0,0,1,1.9,1.66A21.85,21.85,0,0,1,244.37,65.34Z"/><path class="cls-39" d="M249.5,59.81a8.66,8.66,0,0,1-1.68-1.47,9.27,9.27,0,0,1-1.48-1.69A9.27,9.27,0,0,1,248,58.13,8.66,8.66,0,0,1,249.5,59.81Z"/><path class="cls-39" d="M220,42.16a6.59,6.59,0,0,1-1.48-1.28,6.52,6.52,0,0,1-1.28-1.48,6.52,6.52,0,0,1,1.48,1.28A6.59,6.59,0,0,1,220,42.16Z"/><path class="cls-39" d="M226.29,35.48a6.29,6.29,0,0,1-1.46-1.24,6.72,6.72,0,0,1-1.26-1.46A6.84,6.84,0,0,1,225,34,7.1,7.1,0,0,1,226.29,35.48Z"/><circle class="cls-38" cx="250.35" cy="30.32" r="11.62" transform="translate(7.26 97.4) rotate(-22.33)"/><path class="cls-42" d="M255.92,26.69a9.65,9.65,0,0,1-1.42,1.86c-.93,1.11-2.24,2.61-3.71,4.25l-1.18,1.31-.17.19-.19-.17c-1.32-1.19-2.46-2.24-3.26-3a7,7,0,0,1-1.22-1.3,6.79,6.79,0,0,1,1.44,1.05c.86.7,2,1.71,3.38,2.88l-.36,0,1.18-1.32c1.47-1.64,2.82-3.1,3.82-4.14A10.53,10.53,0,0,1,255.92,26.69Z"/><path class="cls-38" d="M145,221.69c-.1-.11.66-.95,1.68-1.87a6.42,6.42,0,0,1,2-1.48c.09.11-.66.94-1.69,1.87A6.44,6.44,0,0,1,145,221.69Z"/><path class="cls-38" d="M137.56,228.37c-.09-.1.66-.94,1.69-1.86s1.94-1.59,2-1.48-.66.94-1.68,1.86S137.66,228.48,137.56,228.37Z"/><path class="cls-38" d="M130.13,235.06c-.1-.11.66-.94,1.68-1.87s1.94-1.58,2-1.47-.66.94-1.69,1.86S130.22,235.17,130.13,235.06Z"/><path class="cls-38" d="M122.69,241.75c-.09-.11.66-.94,1.69-1.87a6.33,6.33,0,0,1,2-1.48c.1.11-.66.95-1.68,1.87A6.42,6.42,0,0,1,122.69,241.75Z"/><path class="cls-38" d="M115.26,248.43c-.1-.1.66-.94,1.68-1.86s1.94-1.59,2-1.48-.66.94-1.69,1.87S115.35,248.54,115.26,248.43Z"/><circle class="cls-3" cx="88.32" cy="284.13" r="44.03" transform="translate(-208.51 304.6) rotate(-76.68)"/><path class="cls-38" d="M132.35,284.13s0-.25-.06-.72-.08-1.18-.13-2.09c0-.46-.06-1-.09-1.54s-.18-1.17-.28-1.84-.22-1.38-.34-2.14a23.05,23.05,0,0,0-.58-2.4A41.79,41.79,0,0,0,126,261.72a43.81,43.81,0,0,0-11.15-12.45l-1.9-1.41c-.66-.44-1.36-.83-2.06-1.26s-1.38-.89-2.14-1.24l-2.27-1.09-1.16-.55-1.21-.44-2.47-.9c-.84-.28-1.71-.46-2.58-.69a21.62,21.62,0,0,0-2.65-.6,40.3,40.3,0,0,0-5.54-.64c-1,0-1.9-.13-2.86-.11l-2.9.15c-.48,0-1,0-1.46.09l-1.46.23c-1,.16-2,.27-3,.47a48.28,48.28,0,0,0-11.55,4.23c-.92.5-1.81,1.08-2.72,1.63-.45.28-.93.53-1.36.85l-1.29,1a49.2,49.2,0,0,0-5,4.22l-2.23,2.45-.56.61-.5.67-1,1.34-1,1.35L51.18,261l-.88,1.45-.44.72-.38.77L48,267.07c-.4,1.07-.79,2.15-1.19,3.24a43.32,43.32,0,0,0,0,27.62c.39,1.09.79,2.17,1.18,3.25l1.49,3.08.37.77.45.73.88,1.45.88,1.44,1,1.35,1,1.34.5.66.56.62,2.23,2.45a49.2,49.2,0,0,0,5,4.22l1.29,1c.43.32.91.57,1.36.85.91.55,1.8,1.13,2.72,1.63A48.28,48.28,0,0,0,79.24,327c1,.2,2,.31,3,.48l1.46.22c.49.06,1,.06,1.46.09l2.9.15c1,0,1.91-.07,2.86-.11a40.12,40.12,0,0,0,5.54-.64,21.62,21.62,0,0,0,2.65-.6c.87-.23,1.74-.41,2.58-.69l2.47-.9,1.21-.44,1.16-.55,2.28-1.09c.76-.35,1.43-.84,2.13-1.24s1.4-.83,2.07-1.26l1.89-1.41A43.81,43.81,0,0,0,126,306.53a42.16,42.16,0,0,0,4.88-11.68c.19-.85.48-1.63.57-2.4s.23-1.48.34-2.14.22-1.28.28-1.84.06-1.08.09-1.54c.05-.91.1-1.6.13-2.09s.06-.71.06-.71,0,.24,0,.71,0,1.19-.08,2.09c0,.47,0,1-.06,1.55s-.17,1.18-.26,1.85-.2,1.38-.31,2.15-.37,1.56-.56,2.42a41.9,41.9,0,0,1-4.82,11.78,43.88,43.88,0,0,1-11.18,12.59l-1.9,1.43c-.67.44-1.38.85-2.08,1.28s-1.38.91-2.15,1.26l-2.29,1.11-1.17.55-1.22.45-2.49.92c-.85.28-1.73.46-2.61.7a21.57,21.57,0,0,1-2.67.62,42.68,42.68,0,0,1-5.59.66c-1,0-1.92.13-2.89.12l-2.93-.15c-.49,0-1,0-1.48-.09l-1.47-.23c-1-.16-2-.27-3-.47a47.29,47.29,0,0,1-5.91-1.73,45.23,45.23,0,0,1-5.78-2.53c-.93-.5-1.83-1.09-2.76-1.64-.45-.29-.94-.54-1.37-.86l-1.3-1a49.09,49.09,0,0,1-5-4.26L54.75,313l-.57-.62-.51-.68-1-1.35-1-1.36-.89-1.46L49.85,306l-.45-.73L49,304.5l-1.5-3.12-1.2-3.28a43.79,43.79,0,0,1,0-28l1.2-3.28L49,263.74l.38-.77.44-.74.9-1.46.89-1.46,1-1.36,1-1.36.51-.67.57-.62L57,252.82a49.09,49.09,0,0,1,5-4.26l1.3-1c.44-.32.92-.57,1.37-.86.93-.55,1.83-1.14,2.76-1.64a48.2,48.2,0,0,1,11.69-4.25c1-.21,2-.32,3-.48l1.48-.23c.49-.06,1-.06,1.48-.09l2.93-.14c1,0,1.93.08,2.88.11a42.63,42.63,0,0,1,5.6.66,21.57,21.57,0,0,1,2.67.62c.88.24,1.76.42,2.61.7l2.48.92,1.23.45,1.17.55,2.29,1.11c.76.35,1.44.85,2.15,1.26s1.41.84,2.08,1.28l1.9,1.43a43.88,43.88,0,0,1,11.18,12.59,41.9,41.9,0,0,1,4.82,11.78c.19.86.47,1.64.56,2.42s.21,1.48.31,2.15.2,1.28.26,1.85,0,1.08.06,1.55c0,.91.06,1.6.08,2.09S132.35,284.13,132.35,284.13Z"/><path class="cls-39" d="M110.41,303.83a4.67,4.67,0,0,1-.85.06l-2.44.05-9,.09-29.55.08H66.23v-.28c0-11,.07-20.94.09-28.14,0-3.54.06-6.41.09-8.46,0-1,0-1.72,0-2.29a3.87,3.87,0,0,1,.05-.8,4.23,4.23,0,0,1,.06.8c0,.57,0,1.34.05,2.29,0,2,0,4.92.08,8.46,0,7.2.06,17.1.09,28.14l-.28-.28h2.11l29.55.08,9,.09,2.44,0A4.67,4.67,0,0,1,110.41,303.83Z"/><path class="cls-39" d="M105.53,273.77a10.66,10.66,0,0,1-1.31,1.25l-3.7,3.26C97.37,281,93,284.74,88.15,288.85l-.73.62-.19.16-.18-.17-5.5-5.11h.34L73.82,291l-2.35,1.88a5.77,5.77,0,0,1-.87.62,5.4,5.4,0,0,1,.77-.75l2.24-2,8-6.82.17-.14.17.15,5.53,5.08h-.37l.73-.63c4.85-4.1,9.26-7.79,12.47-10.45l3.82-3.11A11.59,11.59,0,0,1,105.53,273.77Z"/><path class="cls-39" d="M105.53,283a14.41,14.41,0,0,1-.19-2.74c0-1.7-.08-4.05-.09-6.67l.28.27h-.47c-2.73,0-5.21,0-7-.08a16.23,16.23,0,0,1-2.9-.19,14.55,14.55,0,0,1,2.9-.2c1.78-.05,4.26-.08,7-.08h.75v.28c0,2.62,0,5-.09,6.67A13.44,13.44,0,0,1,105.53,283Z"/><circle class="cls-3" cx="44.29" cy="160.81" r="44.03" transform="translate(-122.45 165.26) rotate(-76.13)"/><path class="cls-38" d="M88.32,160.81s0-.24-.06-.71-.08-1.19-.13-2.09c0-.46-.06-1-.09-1.54s-.18-1.18-.28-1.84-.22-1.38-.34-2.14a22.61,22.61,0,0,0-.58-2.41A41.79,41.79,0,0,0,82,138.4,43.79,43.79,0,0,0,70.82,126l-1.9-1.41c-.66-.44-1.36-.84-2.06-1.27s-1.38-.89-2.14-1.23L62.45,121l-1.16-.54L60.08,120l-2.47-.9c-.84-.27-1.71-.45-2.58-.69a23.65,23.65,0,0,0-2.65-.6,41.92,41.92,0,0,0-5.54-.64c-1,0-1.9-.12-2.86-.11l-2.9.15c-.48,0-1,0-1.46.1l-1.46.22c-1,.16-2,.28-2.95.48a47.68,47.68,0,0,0-11.55,4.22c-.92.5-1.81,1.09-2.72,1.63-.45.29-.93.53-1.36.85l-1.29,1a49.2,49.2,0,0,0-5,4.22l-2.23,2.45-.56.62-.5.66-1,1.34-1,1.35-.88,1.44-.88,1.45-.44.73-.38.76c-.49,1-1,2.06-1.48,3.09L2.78,147a43.35,43.35,0,0,0,0,27.63L4,177.86c.5,1,1,2.06,1.49,3.09l.37.77.45.72.88,1.45L8,185.33l1,1.35L10,188l.5.67.56.61,2.23,2.46a49.2,49.2,0,0,0,5,4.22l1.29,1c.43.33.91.57,1.36.86.91.54,1.8,1.13,2.72,1.63a47.68,47.68,0,0,0,11.55,4.22c1,.2,2,.32,2.95.48l1.46.22c.49.07,1,.07,1.46.1l2.9.15c1,0,1.91-.08,2.86-.11a41.72,41.72,0,0,0,5.54-.64,26.08,26.08,0,0,0,2.65-.6c.87-.24,1.74-.42,2.58-.7l2.47-.89,1.21-.45,1.16-.55,2.28-1.09c.76-.34,1.43-.83,2.13-1.23s1.4-.83,2.07-1.27l1.89-1.41A43.79,43.79,0,0,0,82,183.22a42.08,42.08,0,0,0,4.88-11.69c.19-.84.48-1.63.57-2.4s.23-1.48.34-2.14.22-1.28.28-1.84.06-1.08.09-1.54c.05-.9.1-1.6.13-2.09s.06-.71.06-.71,0,.24,0,.71,0,1.19-.08,2.1c0,.46,0,1-.06,1.54s-.17,1.18-.26,1.85-.2,1.39-.31,2.16-.37,1.56-.56,2.41a42,42,0,0,1-4.82,11.79A43.85,43.85,0,0,1,71,196l-1.9,1.43c-.67.45-1.38.85-2.08,1.29s-1.38.9-2.15,1.25L62.62,201l-1.17.56-1.22.45-2.49.91c-.85.28-1.73.47-2.61.71a23.52,23.52,0,0,1-2.67.61,39.48,39.48,0,0,1-5.6.66c-1,0-1.91.13-2.88.12l-2.93-.14c-.49,0-1,0-1.48-.1l-1.47-.22c-1-.16-2-.28-3-.48a47.24,47.24,0,0,1-5.91-1.72,45.23,45.23,0,0,1-5.78-2.53c-.93-.51-1.83-1.1-2.76-1.64-.45-.29-.94-.54-1.37-.87l-1.3-1a50.5,50.5,0,0,1-5-4.27l-2.25-2.47-.57-.63-.51-.67-1-1.36-1-1.36-.89-1.46-.89-1.46L5.37,182,5,181.19l-1.5-3.13-1.2-3.28a43.79,43.79,0,0,1,0-27.95l1.2-3.28c.51-1,1-2.09,1.51-3.12l.38-.78.44-.73.89-1.47.9-1.46,1-1.36,1-1.35.51-.68.57-.62L13,129.5a50.39,50.39,0,0,1,5-4.26l1.3-1c.44-.33.92-.58,1.37-.87.93-.55,1.83-1.13,2.76-1.64a45.23,45.23,0,0,1,5.78-2.53,47.24,47.24,0,0,1,5.91-1.72c1-.2,2-.32,3-.48l1.48-.22c.49-.07,1-.06,1.48-.1l2.93-.14c1,0,1.93.08,2.88.12a39.48,39.48,0,0,1,5.6.66,23.52,23.52,0,0,1,2.67.61c.88.24,1.76.42,2.61.71l2.48.91,1.23.45,1.17.56,2.29,1.11c.76.35,1.44.84,2.15,1.25s1.4.84,2.07,1.28L71,125.66a43.88,43.88,0,0,1,11.18,12.59A42,42,0,0,1,87,150a23.5,23.5,0,0,1,.55,2.42c.12.77.22,1.49.32,2.16s.2,1.28.26,1.84,0,1.09.06,1.55c0,.91.06,1.61.08,2.1S88.32,160.81,88.32,160.81Z"/><path class="cls-42" d="M45.43,141.66l4.77,9.67a1.23,1.23,0,0,0,.94.68l10.66,1.55a1.24,1.24,0,0,1,.69,2.11l-7.72,7.53a1.26,1.26,0,0,0-.36,1.09l1.83,10.63a1.25,1.25,0,0,1-1.8,1.31l-9.54-5a1.25,1.25,0,0,0-1.16,0l-9.54,5a1.25,1.25,0,0,1-1.8-1.31l1.83-10.63a1.26,1.26,0,0,0-.36-1.09l-7.72-7.53a1.24,1.24,0,0,1,.69-2.11L37.5,152a1.23,1.23,0,0,0,.94-.68l4.77-9.67A1.24,1.24,0,0,1,45.43,141.66Z"/><path class="cls-39" d="M45.43,141.66a2.75,2.75,0,0,0-.2-.25,1.22,1.22,0,0,0-.83-.38,1.18,1.18,0,0,0-1.17.76c-.27.57-.58,1.22-.93,1.94L39.74,149l-.78,1.6c-.14.28-.27.56-.41.85a1.44,1.44,0,0,1-.83.66c-1.33.23-2.66.41-4.1.63l-4.48.67-2.36.35a1,1,0,0,0-.56,1.64L34,163a1.53,1.53,0,0,1,.47,1.52l-.24,1.44c-.17,1-.33,1.93-.5,2.92q-.51,3-1,6a1,1,0,0,0,.43,1.1,1,1,0,0,0,.6.15,1.72,1.72,0,0,0,.63-.24l2.83-1.49,5.77-3,.74-.38a1.48,1.48,0,0,1,1-.12,3.85,3.85,0,0,1,.81.36l.72.38L49,173.09,54.63,176a1,1,0,0,0,1.12-.25.93.93,0,0,0,.25-.55,3.17,3.17,0,0,0-.08-.69c-.17-1-.34-2-.51-3-.34-2-.66-3.9-1-5.78l-.24-1.4a1.52,1.52,0,0,1,.53-1.46l2-1.92,3.77-3.66,1.8-1.74a1,1,0,0,0-.14-1.72,3.53,3.53,0,0,0-1.06-.23l-1.13-.17-2.2-.33-4.07-.61-1.87-.28a8.48,8.48,0,0,1-.92-.16,1.42,1.42,0,0,1-.75-.59l-2.57-5.31L46,142.85l-.41-.88a1.87,1.87,0,0,1-.12-.31,1.6,1.6,0,0,1,.17.29c.12.21.26.5.45.85l1.69,3.31,2.64,5.24a1.12,1.12,0,0,0,.6.47c.23.06.57.09.86.13l1.88.27,4.08.57,2.19.31,1.14.16a3.8,3.8,0,0,1,1.2.27,1.42,1.42,0,0,1,.73,1.11,1.48,1.48,0,0,1-.5,1.26l-1.79,1.75L57,161.33l-2,1.92a1,1,0,0,0-.39,1.05l.24,1.4c.32,1.88.66,3.81,1,5.77.17,1,.34,2,.51,3a2.9,2.9,0,0,1,.09.82,1.46,1.46,0,0,1-.37.84,1.49,1.49,0,0,1-1.7.38l-5.63-2.95L45.93,172l-.73-.38a3,3,0,0,0-.67-.31,1,1,0,0,0-.64.08l-.72.37-5.77,3-2.83,1.48a2,2,0,0,1-.83.3,1.46,1.46,0,0,1-.91-.23,1.5,1.5,0,0,1-.66-1.61q.53-3.08,1-6c.17-1,.34-1.95.5-2.92.09-.48.17-1,.25-1.43a1,1,0,0,0-.33-1.1l-7.75-7.6a1.45,1.45,0,0,1-.23-1.4,1.41,1.41,0,0,1,1-.92l2.41-.35,4.48-.64,4-.58a1.06,1.06,0,0,0,.65-.5c.14-.28.27-.55.41-.82l.8-1.6c1-2,1.91-3.8,2.64-5.25.36-.72.69-1.35,1-1.91a1.3,1.3,0,0,1,1.32-.8,1.21,1.21,0,0,1,.86.44A.77.77,0,0,1,45.43,141.66Z"/><circle class="cls-3" cx="44.29" cy="160.81" r="44.03" transform="translate(-122.45 165.26) rotate(-76.13)"/><path class="cls-38" d="M88.32,160.81s0-.24-.06-.71-.08-1.19-.13-2.09c0-.46-.06-1-.09-1.54s-.18-1.18-.28-1.84-.22-1.38-.34-2.14a22.61,22.61,0,0,0-.58-2.41A41.79,41.79,0,0,0,82,138.4,43.79,43.79,0,0,0,70.82,126l-1.9-1.41c-.66-.44-1.36-.84-2.06-1.27s-1.38-.89-2.14-1.23L62.45,121l-1.16-.54L60.08,120l-2.47-.9c-.84-.27-1.71-.45-2.58-.69a23.65,23.65,0,0,0-2.65-.6,41.92,41.92,0,0,0-5.54-.64c-1,0-1.9-.12-2.86-.11l-2.9.15c-.48,0-1,0-1.46.1l-1.46.22c-1,.16-2,.28-2.95.48a47.68,47.68,0,0,0-11.55,4.22c-.92.5-1.81,1.09-2.72,1.63-.45.29-.93.53-1.36.85l-1.29,1a49.2,49.2,0,0,0-5,4.22l-2.23,2.45-.56.62-.5.66-1,1.34-1,1.35-.88,1.44-.88,1.45-.44.73-.38.76c-.49,1-1,2.06-1.48,3.09L2.78,147a43.35,43.35,0,0,0,0,27.63L4,177.86c.5,1,1,2.06,1.49,3.09l.37.77.45.72.88,1.45L8,185.33l1,1.35L10,188l.5.67.56.61,2.23,2.46a49.2,49.2,0,0,0,5,4.22l1.29,1c.43.33.91.57,1.36.86.91.54,1.8,1.13,2.72,1.63a47.68,47.68,0,0,0,11.55,4.22c1,.2,2,.32,2.95.48l1.46.22c.49.07,1,.07,1.46.1l2.9.15c1,0,1.91-.08,2.86-.11a41.72,41.72,0,0,0,5.54-.64,26.08,26.08,0,0,0,2.65-.6c.87-.24,1.74-.42,2.58-.7l2.47-.89,1.21-.45,1.16-.55,2.28-1.09c.76-.34,1.43-.83,2.13-1.23s1.4-.83,2.07-1.27l1.89-1.41A43.79,43.79,0,0,0,82,183.22a42.08,42.08,0,0,0,4.88-11.69c.19-.84.48-1.63.57-2.4s.23-1.48.34-2.14.22-1.28.28-1.84.06-1.08.09-1.54c.05-.9.1-1.6.13-2.09s.06-.71.06-.71,0,.24,0,.71,0,1.19-.08,2.1c0,.46,0,1-.06,1.54s-.17,1.18-.26,1.85-.2,1.39-.31,2.16-.37,1.56-.56,2.41a42,42,0,0,1-4.82,11.79A43.85,43.85,0,0,1,71,196l-1.9,1.43c-.67.45-1.38.85-2.08,1.29s-1.38.9-2.15,1.25L62.62,201l-1.17.56-1.22.45-2.49.91c-.85.28-1.73.47-2.61.71a23.52,23.52,0,0,1-2.67.61,39.48,39.48,0,0,1-5.6.66c-1,0-1.91.13-2.88.12l-2.93-.14c-.49,0-1,0-1.48-.1l-1.47-.22c-1-.16-2-.28-3-.48a47.24,47.24,0,0,1-5.91-1.72,45.23,45.23,0,0,1-5.78-2.53c-.93-.51-1.83-1.1-2.76-1.64-.45-.29-.94-.54-1.37-.87l-1.3-1a50.5,50.5,0,0,1-5-4.27l-2.25-2.47-.57-.63-.51-.67-1-1.36-1-1.36-.89-1.46-.89-1.46L5.37,182,5,181.19l-1.5-3.13-1.2-3.28a43.79,43.79,0,0,1,0-27.95l1.2-3.28c.51-1,1-2.09,1.51-3.12l.38-.78.44-.73.89-1.47.9-1.46,1-1.36,1-1.35.51-.68.57-.62L13,129.5a50.39,50.39,0,0,1,5-4.26l1.3-1c.44-.33.92-.58,1.37-.87.93-.55,1.83-1.13,2.76-1.64a45.23,45.23,0,0,1,5.78-2.53,47.24,47.24,0,0,1,5.91-1.72c1-.2,2-.32,3-.48l1.48-.22c.49-.07,1-.06,1.48-.1l2.93-.14c1,0,1.93.08,2.88.12a39.48,39.48,0,0,1,5.6.66,23.52,23.52,0,0,1,2.67.61c.88.24,1.76.42,2.61.71l2.48.91,1.23.45,1.17.56,2.29,1.11c.76.35,1.44.84,2.15,1.25s1.4.84,2.07,1.28L71,125.66a43.88,43.88,0,0,1,11.18,12.59A42,42,0,0,1,87,150a23.5,23.5,0,0,1,.55,2.42c.12.77.22,1.49.32,2.16s.2,1.28.26,1.84,0,1.09.06,1.55c0,.91.06,1.61.08,2.1S88.32,160.81,88.32,160.81Z"/><path class="cls-42" d="M45.43,141.66l4.77,9.67a1.23,1.23,0,0,0,.94.68l10.66,1.55a1.24,1.24,0,0,1,.69,2.11l-7.72,7.53a1.26,1.26,0,0,0-.36,1.09l1.83,10.63a1.25,1.25,0,0,1-1.8,1.31l-9.54-5a1.25,1.25,0,0,0-1.16,0l-9.54,5a1.25,1.25,0,0,1-1.8-1.31l1.83-10.63a1.26,1.26,0,0,0-.36-1.09l-7.72-7.53a1.24,1.24,0,0,1,.69-2.11L37.5,152a1.23,1.23,0,0,0,.94-.68l4.77-9.67A1.24,1.24,0,0,1,45.43,141.66Z"/><path class="cls-39" d="M45.43,141.66a2.75,2.75,0,0,0-.2-.25,1.22,1.22,0,0,0-.83-.38,1.18,1.18,0,0,0-1.17.76c-.27.57-.58,1.22-.93,1.94L39.74,149l-.78,1.6c-.14.28-.27.56-.41.85a1.44,1.44,0,0,1-.83.66c-1.33.23-2.66.41-4.1.63l-4.48.67-2.36.35a1,1,0,0,0-.56,1.64L34,163a1.53,1.53,0,0,1,.47,1.52l-.24,1.44c-.17,1-.33,1.93-.5,2.92q-.51,3-1,6a1,1,0,0,0,.43,1.1,1,1,0,0,0,.6.15,1.72,1.72,0,0,0,.63-.24l2.83-1.49,5.77-3,.74-.38a1.48,1.48,0,0,1,1-.12,3.85,3.85,0,0,1,.81.36l.72.38L49,173.09,54.63,176a1,1,0,0,0,1.12-.25.93.93,0,0,0,.25-.55,3.17,3.17,0,0,0-.08-.69c-.17-1-.34-2-.51-3-.34-2-.66-3.9-1-5.78l-.24-1.4a1.52,1.52,0,0,1,.53-1.46l2-1.92,3.77-3.66,1.8-1.74a1,1,0,0,0-.14-1.72,3.53,3.53,0,0,0-1.06-.23l-1.13-.17-2.2-.33-4.07-.61-1.87-.28a8.48,8.48,0,0,1-.92-.16,1.42,1.42,0,0,1-.75-.59l-2.57-5.31L46,142.85l-.41-.88a1.87,1.87,0,0,1-.12-.31,1.6,1.6,0,0,1,.17.29c.12.21.26.5.45.85l1.69,3.31,2.64,5.24a1.12,1.12,0,0,0,.6.47c.23.06.57.09.86.13l1.88.27,4.08.57,2.19.31,1.14.16a3.8,3.8,0,0,1,1.2.27,1.42,1.42,0,0,1,.73,1.11,1.48,1.48,0,0,1-.5,1.26l-1.79,1.75L57,161.33l-2,1.92a1,1,0,0,0-.39,1.05l.24,1.4c.32,1.88.66,3.81,1,5.77.17,1,.34,2,.51,3a2.9,2.9,0,0,1,.09.82,1.46,1.46,0,0,1-.37.84,1.49,1.49,0,0,1-1.7.38l-5.63-2.95L45.93,172l-.73-.38a3,3,0,0,0-.67-.31,1,1,0,0,0-.64.08l-.72.37-5.77,3-2.83,1.48a2,2,0,0,1-.83.3,1.46,1.46,0,0,1-.91-.23,1.5,1.5,0,0,1-.66-1.61q.53-3.08,1-6c.17-1,.34-1.95.5-2.92.09-.48.17-1,.25-1.43a1,1,0,0,0-.33-1.1l-7.75-7.6a1.45,1.45,0,0,1-.23-1.4,1.41,1.41,0,0,1,1-.92l2.41-.35,4.48-.64,4-.58a1.06,1.06,0,0,0,.65-.5c.14-.28.27-.55.41-.82l.8-1.6c1-2,1.91-3.8,2.64-5.25.36-.72.69-1.35,1-1.91a1.3,1.3,0,0,1,1.32-.8,1.21,1.21,0,0,1,.86.44A.77.77,0,0,1,45.43,141.66Z"/></g></g></g></svg>