<?xml version="1.0" encoding="UTF-8"?>
<svg width="120" height="40" viewBox="0 0 120 40" fill="none" xmlns="http://www.w3.org/2000/svg">
  <path d="M10 10H20C22.2 10 24 11.8 24 14V16C24 17.7 22.8 19.1 21.2 19.7C22.8 20.3 24 21.7 24 23.4V26C24 28.2 22.2 30 20 30H10V10ZM20 18C21.1 18 22 17.1 22 16V14C22 12.9 21.1 12 20 12H12V18H20ZM20 28C21.1 28 22 27.1 22 26V23.4C22 22.3 21.1 21.4 20 21.4H12V28H20Z" fill="#ffffff"/>
  <path d="M26 10H36V12H28V18H34V20H28V28H26V10Z" fill="#ffffff"/>
  <path d="M38 10H48C50.2 10 52 11.8 52 14V16C52 17.7 50.8 19.1 49.2 19.7C50.8 20.3 52 21.7 52 23.4V26C52 28.2 50.2 30 48 30H38V10ZM48 18C49.1 18 50 17.1 50 16V14C50 12.9 49.1 12 48 12H40V18H48ZM48 28C49.1 28 50 27.1 50 26V23.4C50 22.3 49.1 21.4 48 21.4H40V28H48Z" fill="#ffffff"/>
  <path d="M54 10H64V12H56V18H62V20H56V26H64V28H54V10Z" fill="#ffffff"/>
  <path d="M66 10H76V12H68V18H74V20H68V26H76V28H66V10Z" fill="#ffffff"/>
  <path d="M78 10H88V12H80V18H86V20H80V26H88V28H78V10Z" fill="#ffffff"/>
  <path d="M90 10H100V12H92V18H98V20H92V26H100V28H90V10Z" fill="#ffffff"/>
  <path d="M102 10H112V12H104V18H110V20H104V26H112V28H102V10Z" fill="#ffffff"/>
</svg>
