<?xml version="1.0" encoding="UTF-8"?>
<svg width="120" height="40" viewBox="0 0 120 40" fill="none" xmlns="http://www.w3.org/2000/svg">
  <path d="M20 0C8.954 0 0 8.954 0 20C0 31.046 8.954 40 20 40C31.046 40 40 31.046 40 20C40 8.954 31.046 0 20 0ZM20 36C11.163 36 4 28.837 4 20C4 11.163 11.163 4 20 4C28.837 4 36 11.163 36 20C36 28.837 28.837 36 20 36Z" fill="#00cabb"/>
  <path d="M50 10H60V12H52V18H58V20H52V28H50V10Z" fill="#00cabb"/>
  <path d="M62 10H72C74.2 10 76 11.8 76 14V16C76 17.7 74.8 19.1 73.2 19.7C74.8 20.3 76 21.7 76 23.4V26C76 28.2 74.2 30 72 30H62V10ZM72 18C73.1 18 74 17.1 74 16V14C74 12.9 73.1 12 72 12H64V18H72ZM72 28C73.1 28 74 27.1 74 26V23.4C74 22.3 73.1 21.4 72 21.4H64V28H72Z" fill="#00cabb"/>
  <path d="M80 10H82V28H80V10Z" fill="#00cabb"/>
  <path d="M86 10H88L96 24.1V10H98V28H96L88 13.9V28H86V10Z" fill="#00cabb"/>
  <path d="M102 10H112V12H104V18H110V20H104V26H112V28H102V10Z" fill="#00cabb"/>
  <path d="M114 10H116V26H124V28H114V10Z" fill="#00cabb"/>
</svg>
