<svg width="40" height="40" viewBox="0 0 40 40" fill="none" xmlns="http://www.w3.org/2000/svg">
<circle cx="20" cy="20" r="20" fill="#FF3241" fill-opacity="0.2"/>
<path d="M20 11.6667V28.3334" stroke="white" stroke-width="2" stroke-linecap="round" stroke-linejoin="round"/>
<path d="M26.6667 15H16.6667C15.7384 15 14.8486 15.3512 14.1985 15.9763C13.5484 16.6014 13.1667 17.4493 13.1667 18.3333C13.1667 19.2174 13.5484 20.0652 14.1985 20.6904C14.8486 21.3155 15.7384 21.6667 16.6667 21.6667H23.3334C24.2617 21.6667 25.1515 22.0179 25.8016 22.643C26.4517 23.2681 26.8334 24.116 26.8334 25C26.8334 25.8841 26.4517 26.7319 25.8016 27.357C25.1515 27.9821 24.2617 28.3334 23.3334 28.3334H13.1667" stroke="white" stroke-width="2" stroke-linecap="round" stroke-linejoin="round"/>
</svg>
