<svg width="1418" height="511" viewBox="0 0 1418 511" fill="none" xmlns="http://www.w3.org/2000/svg">
<g style="mix-blend-mode:lighten" clip-path="url(#clip0_180_31612)">
<g opacity="0.25">
<line x1="1.24512" y1="291.213" x2="509.539" y2="291.213" stroke="#323232" stroke-width="1.47332"/>
<line x1="1.24512" y1="26.0172" x2="509.539" y2="26.0172" stroke="#323232" stroke-width="1.47332"/>
<line x1="227.389" y1="510.598" x2="227.389" y2="2.3038" stroke="#323232" stroke-width="1.47332"/>
<line x1="492.59" y1="510.598" x2="492.59" y2="2.3038" stroke="#323232" stroke-width="1.47332"/>
<line x1="1.24512" y1="357.513" x2="509.539" y2="357.513" stroke="#323232" stroke-width="1.47332"/>
<line x1="1.24512" y1="92.3141" x2="509.539" y2="92.3141" stroke="#323232" stroke-width="1.47332"/>
<line x1="161.098" y1="510.199" x2="161.098" y2="1.90536" stroke="#323232" stroke-width="1.47332"/>
<line x1="426.298" y1="510.199" x2="426.298" y2="1.90536" stroke="#323232" stroke-width="1.47332"/>
<line x1="1.24512" y1="423.81" x2="509.539" y2="423.81" stroke="#323232" stroke-width="1.47332"/>
<line x1="1.24512" y1="158.615" x2="509.539" y2="158.615" stroke="#323232" stroke-width="1.47332"/>
<line x1="94.7965" y1="509.801" x2="94.7965" y2="1.50693" stroke="#323232" stroke-width="1.47332"/>
<line x1="359.997" y1="509.801" x2="359.997" y2="1.50693" stroke="#323232" stroke-width="1.47332"/>
<line x1="1.24512" y1="490.107" x2="509.539" y2="490.107" stroke="#323232" stroke-width="1.47332"/>
<line x1="1.24512" y1="224.912" x2="509.539" y2="224.912" stroke="#323232" stroke-width="1.47332"/>
<line x1="28.5006" y1="509.395" x2="28.5006" y2="1.10068" stroke="#323232" stroke-width="1.47332"/>
<line x1="293.696" y1="509.395" x2="293.696" y2="1.10068" stroke="#323232" stroke-width="1.47332"/>
<path d="M286.334 291.215H301.067" stroke="#323232" stroke-width="1.47332"/>
<path d="M293.695 298.578V283.845" stroke="#323232" stroke-width="1.47332"/>
<path d="M220.021 224.914H234.755" stroke="#323232" stroke-width="1.47332"/>
<path d="M227.395 232.281V217.548" stroke="#323232" stroke-width="1.47332"/>
<path d="M286.323 224.914H301.056" stroke="#323232" stroke-width="1.47332"/>
<path d="M293.696 232.281V217.548" stroke="#323232" stroke-width="1.47332"/>
<path d="M286.323 158.617H301.056" stroke="#323232" stroke-width="1.47332"/>
<path d="M293.696 165.984V151.251" stroke="#323232" stroke-width="1.47332"/>
<path d="M286.323 92.3203H301.056" stroke="#323232" stroke-width="1.47332"/>
<path d="M293.696 99.6875V84.9543" stroke="#323232" stroke-width="1.47332"/>
<path d="M352.619 224.914H367.352" stroke="#323232" stroke-width="1.47332"/>
<path d="M359.992 232.281V217.548" stroke="#323232" stroke-width="1.47332"/>
<path d="M352.619 158.617H367.352" stroke="#323232" stroke-width="1.47332"/>
<path d="M359.992 165.984V151.251" stroke="#323232" stroke-width="1.47332"/>
<path d="M352.619 92.3164H367.352" stroke="#323232" stroke-width="1.47332"/>
<path d="M359.992 99.6836V84.9504" stroke="#323232" stroke-width="1.47332"/>
<path d="M418.916 224.906H433.649" stroke="#323232" stroke-width="1.47332"/>
<path d="M426.289 232.281V217.548" stroke="#323232" stroke-width="1.47332"/>
<path d="M418.916 158.605H433.649" stroke="#323232" stroke-width="1.47332"/>
<path d="M426.289 165.973V151.239" stroke="#323232" stroke-width="1.47332"/>
</g>
</g>
<g style="mix-blend-mode:lighten" clip-path="url(#clip1_180_31612)">
<g opacity="0.25">
<line x1="510.917" y1="291.213" x2="1019.21" y2="291.213" stroke="#323232" stroke-width="1.47332"/>
<line x1="510.917" y1="26.0172" x2="1019.21" y2="26.0172" stroke="#323232" stroke-width="1.47332"/>
<line x1="737.061" y1="510.598" x2="737.061" y2="2.3038" stroke="#323232" stroke-width="1.47332"/>
<line x1="1002.26" y1="510.598" x2="1002.26" y2="2.3038" stroke="#323232" stroke-width="1.47332"/>
<line x1="510.917" y1="357.513" x2="1019.21" y2="357.513" stroke="#323232" stroke-width="1.47332"/>
<line x1="510.917" y1="92.3141" x2="1019.21" y2="92.3141" stroke="#323232" stroke-width="1.47332"/>
<line x1="670.77" y1="510.199" x2="670.77" y2="1.90536" stroke="#323232" stroke-width="1.47332"/>
<line x1="935.97" y1="510.199" x2="935.97" y2="1.90536" stroke="#323232" stroke-width="1.47332"/>
<line x1="510.917" y1="423.81" x2="1019.21" y2="423.81" stroke="#323232" stroke-width="1.47332"/>
<line x1="510.917" y1="158.615" x2="1019.21" y2="158.615" stroke="#323232" stroke-width="1.47332"/>
<line x1="604.468" y1="509.801" x2="604.468" y2="1.50693" stroke="#323232" stroke-width="1.47332"/>
<line x1="869.669" y1="509.801" x2="869.669" y2="1.50693" stroke="#323232" stroke-width="1.47332"/>
<line x1="510.917" y1="490.107" x2="1019.21" y2="490.107" stroke="#323232" stroke-width="1.47332"/>
<line x1="510.917" y1="224.912" x2="1019.21" y2="224.912" stroke="#323232" stroke-width="1.47332"/>
<line x1="538.173" y1="509.395" x2="538.173" y2="1.10068" stroke="#323232" stroke-width="1.47332"/>
<line x1="803.368" y1="509.395" x2="803.368" y2="1.10068" stroke="#323232" stroke-width="1.47332"/>
<path d="M796.006 291.215H810.739" stroke="#323232" stroke-width="1.47332"/>
<path d="M803.367 298.578V283.845" stroke="#323232" stroke-width="1.47332"/>
<path d="M729.693 224.914H744.427" stroke="#323232" stroke-width="1.47332"/>
<path d="M737.066 232.281V217.548" stroke="#323232" stroke-width="1.47332"/>
<path d="M795.995 224.914H810.728" stroke="#323232" stroke-width="1.47332"/>
<path d="M803.368 232.281V217.548" stroke="#323232" stroke-width="1.47332"/>
<path d="M795.995 158.617H810.728" stroke="#323232" stroke-width="1.47332"/>
<path d="M803.368 165.984V151.251" stroke="#323232" stroke-width="1.47332"/>
<path d="M795.995 92.3203H810.728" stroke="#323232" stroke-width="1.47332"/>
<path d="M803.368 99.6875V84.9543" stroke="#323232" stroke-width="1.47332"/>
<path d="M862.291 224.914H877.024" stroke="#323232" stroke-width="1.47332"/>
<path d="M869.664 232.281V217.548" stroke="#323232" stroke-width="1.47332"/>
<path d="M862.291 158.617H877.024" stroke="#323232" stroke-width="1.47332"/>
<path d="M869.664 165.984V151.251" stroke="#323232" stroke-width="1.47332"/>
<path d="M862.291 92.3164H877.024" stroke="#323232" stroke-width="1.47332"/>
<path d="M869.664 99.6836V84.9504" stroke="#323232" stroke-width="1.47332"/>
<path d="M928.588 224.906H943.321" stroke="#323232" stroke-width="1.47332"/>
<path d="M935.961 232.281V217.548" stroke="#323232" stroke-width="1.47332"/>
<path d="M928.588 158.605H943.321" stroke="#323232" stroke-width="1.47332"/>
<path d="M935.961 165.973V151.239" stroke="#323232" stroke-width="1.47332"/>
</g>
</g>
<g style="mix-blend-mode:lighten">
<g opacity="0.25">
<line x1="908.589" y1="291.213" x2="1416.88" y2="291.213" stroke="#323232" stroke-width="1.47332"/>
<line x1="908.589" y1="26.0172" x2="1416.88" y2="26.0172" stroke="#323232" stroke-width="1.47332"/>
<line x1="1134.73" y1="510.598" x2="1134.73" y2="2.3038" stroke="#323232" stroke-width="1.47332"/>
<line x1="1399.93" y1="510.598" x2="1399.93" y2="2.3038" stroke="#323232" stroke-width="1.47332"/>
<line x1="908.589" y1="357.513" x2="1416.88" y2="357.513" stroke="#323232" stroke-width="1.47332"/>
<line x1="908.589" y1="92.3141" x2="1416.88" y2="92.3141" stroke="#323232" stroke-width="1.47332"/>
<line x1="1068.44" y1="510.199" x2="1068.44" y2="1.90536" stroke="#323232" stroke-width="1.47332"/>
<line x1="1333.64" y1="510.199" x2="1333.64" y2="1.90536" stroke="#323232" stroke-width="1.47332"/>
<line x1="908.589" y1="423.81" x2="1416.88" y2="423.81" stroke="#323232" stroke-width="1.47332"/>
<line x1="908.589" y1="158.615" x2="1416.88" y2="158.615" stroke="#323232" stroke-width="1.47332"/>
<line x1="1002.14" y1="509.801" x2="1002.14" y2="1.50693" stroke="#323232" stroke-width="1.47332"/>
<line x1="1267.34" y1="509.801" x2="1267.34" y2="1.50693" stroke="#323232" stroke-width="1.47332"/>
<line x1="908.589" y1="490.107" x2="1416.88" y2="490.107" stroke="#323232" stroke-width="1.47332"/>
<line x1="908.589" y1="224.912" x2="1416.88" y2="224.912" stroke="#323232" stroke-width="1.47332"/>
<line x1="935.844" y1="509.395" x2="935.844" y2="1.10068" stroke="#323232" stroke-width="1.47332"/>
<line x1="1201.04" y1="509.395" x2="1201.04" y2="1.10068" stroke="#323232" stroke-width="1.47332"/>
<path d="M1193.68 291.215H1208.41" stroke="#F3EC9E" stroke-width="1.47332"/>
<path d="M1201.04 298.578V283.845" stroke="#F3EC9E" stroke-width="1.47332"/>
<path d="M1127.37 224.914H1142.1" stroke="#F3EC9E" stroke-width="1.47332"/>
<path d="M1134.74 232.281V217.548" stroke="#F3EC9E" stroke-width="1.47332"/>
<path d="M1193.67 224.914H1208.4" stroke="#F3EC9E" stroke-width="1.47332"/>
<path d="M1201.04 232.281V217.548" stroke="#F3EC9E" stroke-width="1.47332"/>
<path d="M1193.67 158.617H1208.4" stroke="#F3EC9E" stroke-width="1.47332"/>
<path d="M1201.04 165.984V151.251" stroke="#F3EC9E" stroke-width="1.47332"/>
<path d="M1193.67 92.3203H1208.4" stroke="#F3EC9E" stroke-width="1.47332"/>
<path d="M1201.04 99.6875V84.9543" stroke="#F3EC9E" stroke-width="1.47332"/>
<path d="M1259.96 224.914H1274.7" stroke="#F3EC9E" stroke-width="1.47332"/>
<path d="M1267.34 232.281V217.548" stroke="#F3EC9E" stroke-width="1.47332"/>
<path d="M1259.96 158.617H1274.7" stroke="#F3EC9E" stroke-width="1.47332"/>
<path d="M1267.34 165.984V151.251" stroke="#F3EC9E" stroke-width="1.47332"/>
<path d="M1259.96 92.3164H1274.7" stroke="#F3EC9E" stroke-width="1.47332"/>
<path d="M1267.34 99.6836V84.9504" stroke="#F3EC9E" stroke-width="1.47332"/>
<path d="M1326.26 224.906H1340.99" stroke="#F3EC9E" stroke-width="1.47332"/>
<path d="M1333.63 232.281V217.548" stroke="#F3EC9E" stroke-width="1.47332"/>
<path d="M1326.26 158.605H1340.99" stroke="#F3EC9E" stroke-width="1.47332"/>
<path d="M1333.63 165.973V151.239" stroke="#F3EC9E" stroke-width="1.47332"/>
</g>
</g>
<defs>
<clipPath id="clip0_180_31612">
<rect width="509.673" height="511" fill="white"/>
</clipPath>
<clipPath id="clip1_180_31612">
<rect width="509.673" height="511" fill="white" transform="translate(509.672)"/>
</clipPath>
</defs>
</svg>
