<svg width="19" height="19" viewBox="0 0 19 19" fill="none" xmlns="http://www.w3.org/2000/svg">
<mask id="mask0_180_31449" style="mask-type:alpha" maskUnits="userSpaceOnUse" x="0" y="0" width="19" height="19">
<rect x="0.5" y="0.5" width="18" height="18" fill="#D9D9D9"/>
</mask>
<g mask="url(#mask0_180_31449)">
<path d="M17.3193 13.5491C16.7308 12.6686 15.7782 12.2629 14.8522 12.3303C14.1515 12.381 13.4565 12.1714 12.9595 11.6742L12.6635 11.3783C11.7675 10.482 11.7675 9.02948 12.6635 8.1332L12.9595 7.83721C13.4565 7.34002 14.1506 7.13049 14.8513 7.1812C15.7782 7.24855 16.7324 6.84198 17.3209 5.95901C17.907 5.07936 17.9136 3.89457 17.3342 3.01077C16.3517 1.5117 14.3194 1.35955 13.1249 2.55514C12.5297 3.14962 12.2704 3.95194 12.3443 4.72932C12.4083 5.40694 12.1665 6.0779 11.6852 6.5593L11.3876 6.85695C10.4915 7.75323 9.03936 7.75323 8.14329 6.85695L7.84737 6.56096C7.35029 6.06377 7.14082 5.36952 7.19152 4.6678C7.25802 3.74159 6.85321 2.78877 5.97293 2.20012C5.09432 1.6123 3.90981 1.60399 3.02454 2.18267C1.5225 3.16375 1.36956 5.19908 2.5657 6.39551C3.16087 6.99081 3.96301 7.25023 4.73938 7.17623C5.41683 7.11221 6.08764 7.35415 6.56893 7.83555L6.86651 8.13402C7.76258 9.0303 7.76258 10.4828 6.86651 11.3791L6.57059 11.6751C6.07351 12.1723 5.37943 12.3818 4.67787 12.3311C3.75187 12.2637 2.80011 12.6695 2.21076 13.55C1.62308 14.4288 1.61477 15.6136 2.19331 16.499C3.17416 18.0014 5.20903 18.1552 6.40518 16.958C7.00034 16.3627 7.25968 15.5612 7.1857 14.7838C7.1217 14.1062 7.36358 13.4352 7.84487 12.9538L8.14245 12.6562C9.03852 11.7599 10.4907 11.7599 11.3868 12.6562L11.6843 12.9538C12.1656 13.4352 12.4075 14.1062 12.3435 14.7838C12.2695 15.5612 12.5297 16.3627 13.124 16.958C14.3202 18.1544 16.3551 18.0014 17.3359 16.499C17.9136 15.6136 17.9061 14.4288 17.3185 13.55L17.3193 13.5491Z" fill="#FF3241"/>
</g>
</svg>
