<svg id="g1539" xmlns="http://www.w3.org/2000/svg" width="149.071" height="133.236" viewBox="0 0 149.071 133.236"><defs><style>.cls-1 {
        fill: #697d7c;
      }

      .cls-2 {
        fill: #677d7c;
      }

      .cls-3 {
        fill: #ff3241;
      }</style></defs><path id="path2899" class="cls-1" d="M334.983,547.667c-11.093-21.974-22.035-44.021-33.328-65.895-3.659-7.093-6.661-16.3-12.732-19.988l-3.01,3.981c2.427.6,4.207,2.677,5.628,5.732,6.309,13.6,2.677,26.77-10.021,34.857,5.689,11.306,11.043,22.265,16.739,33.037a12.261,12.261,0,0,0,5.556,5.5c11.655,4.61,23.5,8.766,36.847,13.656-2.375-4.548-4.065-7.695-5.678-10.882Z" transform="translate(-191.589 -425.313)"/><path id="path2895" class="cls-2" d="M40.5,844.36,27.712,819.02c-5.336,2.2-10.283,4.015-15.03,6.246a8.848,8.848,0,0,1-5.929.95L3.742,830.2C14.212,836.56,26.849,839.36,40.5,844.36Z" transform="translate(47.996 -733.433)"/><path id="path2897" class="cls-3" d="M-323.444,283.576c-6.309-13.6-2.677-26.77,10.021-34.857-5.689-11.306-11.042-22.265-16.738-33.037a12.261,12.261,0,0,0-5.556-5.5c-11.655-4.61-23.5-8.766-36.847-13.655,2.38,4.552,4.065,7.7,5.674,10.885,11.093,21.973,22.034,44.021,33.328,65.895,3.663,7.094,6.666,16.3,12.736,19.989l3.01-3.981c-2.427-.608-4.207-2.672-5.628-5.736Z" transform="translate(372.564 -196.524)"/><path id="path2901" class="cls-3" d="M68.005,358.776l12.79,25.34c5.336-2.2,10.283-4.016,15.03-6.246a8.847,8.847,0,0,1,5.929-.95l3.01-3.981C94.295,366.576,81.658,363.776,68.005,358.776Z" transform="translate(-7.431 -336.468)"/></svg>