<?xml version="1.0" encoding="UTF-8"?><svg width="177px" height="40px" viewBox="0 0 177 40" version="1.1" xmlns="http://www.w3.org/2000/svg" xmlns:xlink="http://www.w3.org/1999/xlink"><title>Group 28</title><defs><polygon id="path-1" points="3.25823772e-14 0 40.2345376 0 40.2345376 39.5630779 3.25823772e-14 39.5630779"/><polygon id="path-3" points="0 0 33.1792632 0 33.1792632 39.9796372 0 39.9796372"/><polygon id="path-5" points="8.14559429e-15 0 27.6151137 0 27.6151137 16.6258002 8.14559429e-15 16.6258002"/><polygon id="path-7" points="0 0 3.71287217 0 3.71287217 16.2812526 0 16.2812526"/><polygon id="path-9" points="0 0 55.2309296 0 55.2309296 39.9796516 0 39.9796516"/></defs><g id="Page-1" stroke="none" stroke-width="1" fill="none" fill-rule="evenodd"><g id="Group-28"><g id="Group-3" transform="translate(136.075876, 0.016713)"><mask id="mask-2" fill="white"><use xlink:href="#path-1"/></mask><g id="Clip-2"/><path d="M3.12854306,18.1490769 C5.31542621,8.14366735 15.1993183,1.80556098 25.2047279,3.99244412 C35.0966447,6.15453657 41.3983532,15.8402465 39.4267049,25.7285809 C39.5519481,25.2958184 39.6687366,24.8586138 39.7664664,24.4120947 C42.1383483,13.5600758 35.2638745,2.84003509 24.4119989,0.46815318 C13.55998,-1.90387203 2.83993926,4.9706018 0.468057352,15.8224774 C-1.84277926,26.3946337 4.62386615,36.8381077 14.9925382,39.5630779 C6.33643023,36.4739854 1.11404839,27.3657698 3.12854306,18.1490769" id="Fill-1" fill="#FFFFFF" mask="url(#mask-2)"/></g><path d="M111.856959,33.1875889 C112.906336,31.6799421 114.173814,30.3842343 115.623282,29.3362901 C117.211749,28.1884666 118.909697,26.9656978 120.670266,25.7020889 C122.473681,24.4075275 124.142539,23.1654134 125.630411,22.0105683 C127.243239,20.7598563 128.60945,19.2069271 129.690926,17.3950569 C130.810806,15.5189889 131.378699,13.469386 131.378699,11.3032812 C131.378699,8.22636913 130.141744,5.53708036 127.702368,3.31021685 C125.297241,1.11373268 122.281661,1.4329881e-05 118.739314,1.4329881e-05 C116.893912,1.4329881e-05 115.206569,0.315128414 113.723999,0.936758653 C112.245729,1.55666931 111.08028,2.28663345 110.259751,3.10687584 C109.475619,3.89201002 108.789218,4.80482344 108.219749,5.82009551 C107.644261,6.84668819 107.3141,7.53738845 107.180546,7.99307867 C107.063614,8.39230915 106.98265,8.72490569 106.94009,8.98026417 L106.739902,10.1769525 L110.193547,11.0186897 L110.749689,9.06395068 L110.765882,8.99760333 C110.815033,8.759584 110.962488,8.33112056 111.384646,7.64170998 C111.75665,7.03426633 112.244869,6.40274847 112.834974,5.76564196 C113.351422,5.20863949 114.132114,4.71626477 115.155125,4.30241781 C116.200919,3.87968632 117.406922,3.6653113 118.739314,3.6653113 C121.353515,3.6653113 123.534952,4.44543002 125.222726,5.98374275 C126.875391,7.49138953 127.713546,9.28104837 127.713546,11.3032812 C127.713546,12.65029 127.369772,13.9610442 126.692112,15.1991459 C125.979487,16.4995826 125.045035,17.6654618 123.914408,18.6642545 C122.707545,19.7305409 121.347783,20.7879428 119.873095,21.8069407 C118.354844,22.855888 116.814525,23.9524105 115.294411,25.0661288 C113.750653,26.1979028 112.320817,27.3828407 111.044741,28.588127 C109.698736,29.8600472 108.579859,31.3639682 107.719349,33.0577602 C106.83233,34.8028531 106.382515,36.6923912 106.382515,38.6736405 L106.382515,39.9796659 L131.378699,39.9796659 L131.378699,36.3142256 L110.338852,36.3142256 C110.650813,35.2374784 111.159237,34.1896775 111.856959,33.1875889" id="Fill-4" fill="#FFFFFF"/><polygon id="Fill-6" fill="#FFFFFF" points="73.7900887 0.537413528 73.4093438 4.29896431e-05 68.8676313 4.29896431e-05 80.7892325 17.3608372 83.0685434 14.1218541"/><polygon id="Fill-8" fill="#FFFFFF" points="89.2234279 21.5437867 86.9269212 24.7575492 96.9885039 39.4365061 97.3686756 39.9796086 101.91741 39.9796086"/><g id="Group-12" transform="translate(68.005402, 0.000000)"><mask id="mask-4" fill="white"><use xlink:href="#path-3"/></mask><g id="Clip-11"/><polygon id="Fill-10" fill="#FFFFFF" mask="url(#mask-4)" points="28.5636086 -1.4329881e-05 1.51223234 37.882889 0 39.9796372 4.61966705 39.9796372 31.6721896 2.09530087 33.1792632 -1.4329881e-05"/></g><polygon id="Fill-13" fill="#FFFFFF" points="39.7752358 23.0815263 36.0623636 23.2486127 36.0623636 39.9796086 63.4929085 39.9796086 63.4929085 36.2664498 39.7752358 36.2664498"/><g id="Group-17" transform="translate(36.062349, 0.000000)"><mask id="mask-6" fill="white"><use xlink:href="#path-5"/></mask><g id="Clip-16"/><polygon id="Fill-15" fill="#FFFFFF" mask="url(#mask-6)" points="8.14559429e-15 -1.4329881e-05 8.14559429e-15 16.5004138 3.71287217 16.6258002 3.71287217 3.71300114 27.6151137 3.71300114 27.6151137 -1.4329881e-05"/></g><path d="M58.5421496,18.4845291 C57.7121628,18.4845291 57.0370821,19.1597531 57.0370821,19.9895965 C57.0370821,20.8195832 57.7121628,21.4948072 58.5421496,21.4948072 C59.3721363,21.4948072 60.0473603,20.8195832 60.0473603,19.9895965 C60.0473603,19.1597531 59.3721363,18.4845291 58.5421496,18.4845291" id="Fill-18" fill="#FFFFFF"/><polygon id="Fill-20" fill="#FFFFFF" points="25.852653 23.7079857 25.852653 39.9797089 29.5655252 39.9797089 29.5655252 23.5408993"/><g id="Group-24" transform="translate(25.852667, 0.000000)"><mask id="mask-8" fill="white"><use xlink:href="#path-7"/></mask><g id="Clip-23"/><polygon id="Fill-22" fill="#FFFFFF" mask="url(#mask-8)" points="3.71287217 16.2812526 3.71287217 -7.16494051e-05 0 -7.16494051e-05 0 16.1560094"/></g><g id="Group-27" transform="translate(0.000000, 0.020348)"><mask id="mask-10" fill="white"><use xlink:href="#path-9"/></mask><g id="Clip-26"/><path d="M55.2309296,19.9148089 L6.28550138,18.5321186 C4.45500238,18.3984208 3.86446799,17.687802 3.71285784,16.881173 L3.71285784,15.6635631 C3.71285784,15.6634198 3.71285784,15.6632765 3.71285784,15.6631332 L3.71285784,15.6631332 L3.71285784,0 L-1.4329881e-05,0 L-1.4329881e-05,18.3545714 L-1.4329881e-05,21.624507 L-1.4329881e-05,39.9796516 L3.71285784,39.9796516 L3.71285784,24.4278616 L3.71285784,24.4280049 C3.71285784,24.4280049 3.71285784,24.427575 3.71285784,24.4274317 L3.71285784,24.0385187 C3.76372892,23.2707237 4.1513522,21.6210678 6.50718464,21.4407979 L55.2309296,20.0642695 L55.2309296,19.9148089 Z" id="Fill-25" fill="#FFFFFF" mask="url(#mask-10)"/></g></g></g></svg>