<svg width="30" height="30" viewBox="0 0 30 30" fill="none" xmlns="http://www.w3.org/2000/svg"><g clip-path="url(#clip0_180_31485)"><path d="M20.0001 14.8305V14.8293C20.0001 12.1601 17.7614 9.996 15.0001 9.996C12.2389 9.996 10.0001 12.1601 10.0001 14.8293C10.0001 17.4985 12.2389 19.6627 15.0001 19.6627C16.3801 19.6627 17.6301 19.1213 18.5351 18.2477C19.4389 17.4007 20.0001 16.2153 20.0001 14.903C20.0001 14.8777 20.0001 14.8523 19.9989 14.8269L20.0001 14.8305ZM22.7001 14.8305C22.6851 18.9135 19.2576 22.2183 15.0314 22.2183C10.7964 22.2183 7.36262 18.899 7.36262 14.8052C7.36262 10.7113 10.7964 7.39204 15.0314 7.39204C17.1489 7.39204 19.0664 8.22217 20.4539 9.56342C21.8401 10.8684 22.7014 12.6894 22.7014 14.7061C22.7014 14.7496 22.7014 14.7943 22.7001 14.8378V14.8318V14.8305ZM24.8089 7.08996V7.09238C24.8089 8.053 24.0026 8.83237 23.0089 8.83237C22.0151 8.83237 21.2089 8.053 21.2089 7.09238C21.2089 6.13175 22.0151 5.35238 23.0089 5.35238C23.5064 5.35238 23.9564 5.54692 24.2814 5.86229C24.6014 6.16558 24.8001 6.5885 24.8001 7.05613V7.09117L24.8089 7.08996ZM15.0089 2.93329L13.5151 2.92363C12.6101 2.91718 11.923 2.91718 11.4539 2.92363C10.9847 2.93007 10.3564 2.949 9.56887 2.98042C8.83762 3.00458 8.14387 3.07467 7.46512 3.18583L7.55637 3.17375C7.02512 3.25833 6.55387 3.37917 6.10262 3.53988L6.15637 3.52296C4.85137 4.0365 3.83512 5.01767 3.31637 6.24654L3.30387 6.27917C3.15512 6.66342 3.03012 7.11896 2.94887 7.58779L2.94262 7.6325C2.84012 8.19921 2.76762 8.86983 2.74387 9.55254L2.74262 9.57792C2.71012 10.34 2.69053 10.9474 2.68387 11.4001C2.6772 11.8528 2.6772 12.517 2.68387 13.3926C2.69053 14.2683 2.69387 14.7496 2.69387 14.8366C2.69387 14.9236 2.69053 15.4049 2.68387 16.2805C2.6772 17.1562 2.6772 17.8204 2.68387 18.2731C2.69053 18.7258 2.71012 19.3332 2.74262 20.0953C2.76762 20.8021 2.84012 21.4728 2.95512 22.1289L2.94262 22.0407C3.03012 22.5542 3.15512 23.0098 3.32137 23.446L3.30387 23.394C3.83512 24.6555 4.85012 25.6379 6.12137 26.1393L6.15512 26.1514C6.55262 26.2952 7.02387 26.416 7.50887 26.4946L7.55512 26.5006C8.14137 26.5997 8.83512 26.6698 9.54012 26.6928L9.56637 26.694C10.3547 26.7254 10.983 26.7443 11.4514 26.7508C11.9197 26.7572 12.6068 26.7572 13.5126 26.7508L14.9976 26.7218L16.4914 26.7314C17.3964 26.7379 18.0835 26.7379 18.5526 26.7314C19.0218 26.725 19.6501 26.706 20.4376 26.6746C21.1689 26.6505 21.8626 26.5804 22.5414 26.4692L22.4501 26.4813C22.9814 26.3967 23.4526 26.2759 23.9039 26.1152L23.8501 26.1321C25.1551 25.6185 26.1714 24.6374 26.6901 23.4085L26.7026 23.3759C26.8514 22.9916 26.9764 22.5361 27.0576 22.0673L27.0639 22.0225C27.1664 21.4558 27.2389 20.7852 27.2626 20.1037L27.2639 20.0783C27.2964 19.3163 27.3159 18.7089 27.3226 18.2562C27.3293 17.8034 27.3293 17.1393 27.3226 16.2636C27.3159 15.388 27.3126 14.9067 27.3126 14.8197C27.3126 14.7327 27.3159 14.2513 27.3226 13.3757C27.3293 12.5001 27.3293 11.8359 27.3226 11.3832C27.3159 10.9304 27.2964 10.3231 27.2639 9.561C27.2389 8.85413 27.1664 8.1835 27.0514 7.52737L27.0639 7.61558C26.9764 7.10204 26.8514 6.6465 26.6851 6.21029L26.7026 6.26225C26.1714 5.00075 25.1564 4.01838 23.8851 3.51692L23.8514 3.50483C23.4539 3.36104 22.9826 3.24021 22.4976 3.16167L22.4514 3.15563C21.8651 3.05654 21.1714 2.98646 20.4664 2.9635L20.4401 2.96229C19.6518 2.93088 19.0234 2.91194 18.5551 2.9055C18.0868 2.89906 17.3997 2.89906 16.4939 2.9055L15.0089 2.93329ZM30.0001 14.8305C30.0001 17.7128 29.9668 19.7078 29.9001 20.8154C29.9064 20.9375 29.9114 21.08 29.9114 21.2226C29.9114 25.6536 26.1951 29.246 21.6114 29.246C21.4626 29.246 21.3151 29.2423 21.1689 29.2351L21.1889 29.2363C20.043 29.3007 17.9793 29.333 14.9976 29.333C12.016 29.333 9.9522 29.3007 8.80637 29.2363C8.68012 29.2423 8.53262 29.2472 8.38512 29.2472C3.80137 29.2472 0.0851172 25.6548 0.0851172 21.2238C0.0851172 21.08 0.0888672 20.9375 0.0963672 20.7961L0.0951172 20.8154C0.0284505 19.7078 -0.00488281 17.7128 -0.00488281 14.8305C-0.00488281 11.9483 0.0284505 9.95331 0.0951172 8.84567C0.0888672 8.72363 0.0838672 8.58104 0.0838672 8.43846C0.0838672 4.0075 3.80012 0.415125 8.38387 0.415125C8.53262 0.415125 8.68012 0.41875 8.82637 0.426L8.80637 0.424792C9.9522 0.360347 12.016 0.328125 14.9976 0.328125C17.9793 0.328125 20.043 0.360347 21.1889 0.424792C21.3151 0.41875 21.4626 0.413917 21.6101 0.413917C26.1939 0.413917 29.9101 4.00629 29.9101 8.43725C29.9101 8.58104 29.9064 8.72363 29.8989 8.865L29.9001 8.84567C29.9668 9.9525 30.0001 11.9475 30.0001 14.8305Z" fill="#636363"/></g><defs><clipPath id="clip0_180_31485"><rect width="30" height="29" fill="white" transform="translate(0 0.332031)"/></clipPath></defs></svg>