<svg width="1427" height="812" viewBox="0 0 1427 812" fill="none" xmlns="http://www.w3.org/2000/svg"><g opacity="0.4"><mask id="mask0_180_32715" style="mask-type:alpha" maskUnits="userSpaceOnUse" x="0" y="0" width="1428" height="812"><g clip-path="url(#clip0_180_32715)"><path d="M64.9996 603.082C64.9996 603.082 192.569 558.76 251.654 562.967C310.738 567.174 337.68 657.43 379.832 638.606C412.064 624.212 493.461 568.326 538.568 584.981C660.074 629.845 665.796 420.085 720.751 430.22C811.217 446.903 735.96 624.356 961.802 561.102C1036.52 540.173 962.086 377.943 1022.44 359.928C1136.33 325.931 1180.13 273.329 1365.58 217.969" stroke="white" stroke-width="0.5" stroke-miterlimit="10"/><path d="M65.0559 603.265C65.0559 603.265 190.648 560.009 249.212 562.472C307.775 564.935 335.866 643.569 380.097 625.085C414.751 610.603 491.548 561.648 537.458 575.948C656.959 613.169 661.144 410.851 718.026 419.927C807.998 434.282 736.08 610.533 955.366 548.389C1027.84 527.869 965.02 368.248 1025.78 350.875C1137.95 318.807 1180.04 274.121 1365.58 217.965" stroke="white" stroke-width="0.5" stroke-miterlimit="10"/><path d="M65.1112 603.457C65.1112 603.457 188.725 561.266 246.769 561.985C304.812 562.703 334.063 629.74 380.361 611.571C417.447 597.018 489.521 554.996 536.347 566.922C653.62 596.788 656.473 401.659 715.301 409.642C804.756 421.781 736.199 596.718 948.93 535.684C1019.15 515.573 967.946 358.55 1029.13 341.83C1139.55 311.654 1179.95 274.921 1365.58 217.969" stroke="white" stroke-width="0.5" stroke-miterlimit="10"/><path d="M65.1722 603.64C65.1722 603.64 186.809 562.514 244.331 561.489C301.854 560.464 332.278 615.926 380.631 598.051C420.156 583.439 487.395 548.375 535.242 557.888C650.093 580.723 651.793 392.497 712.581 399.349C801.503 409.374 736.324 582.895 942.5 522.971C1010.47 503.268 970.872 348.834 1032.48 332.777C1141.14 304.458 1179.86 275.713 1365.59 217.966" stroke="white" stroke-width="0.5" stroke-miterlimit="10"/><path d="M65.2231 603.827C65.2231 603.827 184.882 563.767 241.884 560.997C298.886 558.228 330.489 602.135 380.891 584.534C422.86 569.877 485.167 541.814 534.126 548.858C646.393 565.012 647.091 383.376 709.85 389.06C798.229 397.065 736.438 569.075 936.059 510.262C1001.78 490.968 973.781 339.108 1035.83 323.727C1142.71 297.229 1179.77 276.509 1365.58 217.966" stroke="white" stroke-width="0.5" stroke-miterlimit="10"/><path d="M65.2792 604.022C65.2792 604.022 182.96 565.026 239.442 560.513C295.923 555.999 328.713 588.366 381.156 571.023C425.575 556.333 482.868 535.334 533.016 539.835C642.57 549.67 642.387 374.303 707.125 378.778C794.952 384.849 736.558 555.263 929.624 497.56C993.091 478.674 976.688 329.377 1039.17 314.684C1144.27 289.97 1179.68 277.311 1365.58 217.972" stroke="white" stroke-width="0.5" stroke-miterlimit="10"/><path d="M65.3322 604.202C65.3322 604.202 181.036 566.271 236.997 560.014C292.957 553.756 326.938 574.597 381.418 557.498C428.291 542.787 480.505 528.93 531.903 530.798C638.651 534.679 637.675 365.257 704.398 368.482C791.668 372.7 736.676 541.436 923.185 484.844C984.402 466.366 979.586 319.618 1042.52 305.628C1145.82 282.663 1179.58 278.1 1365.58 217.965" stroke="white" stroke-width="0.5" stroke-miterlimit="10"/><path d="M65.3902 604.392C65.3902 604.392 179.116 567.526 234.556 559.525C289.996 551.523 324.879 559.846 381.685 543.984C431.271 530.137 478.102 522.642 530.794 521.771C634.677 520.053 632.965 356.264 701.674 358.196C788.387 360.633 736.797 527.619 916.752 472.137C975.718 454.069 982.483 309.853 1045.87 296.581C1147.36 275.329 1179.49 278.898 1365.58 217.968" stroke="white" stroke-width="0.5" stroke-miterlimit="10"/><path d="M65.4529 604.579C65.4529 604.579 177.201 568.779 232.12 559.034C287.04 549.288 323.415 547.111 381.957 530.467C433.747 515.741 475.678 516.472 529.691 512.741C630.68 505.766 628.258 347.312 698.956 347.907C785.111 348.632 736.924 513.8 910.323 459.429C967.039 441.768 985.379 300.07 1049.22 287.532C1148.89 267.957 1179.41 279.694 1365.59 217.968" stroke="white" stroke-width="0.5" stroke-miterlimit="10"/><path d="M65.5047 604.768C65.5047 604.768 175.275 570.033 229.674 558.543C284.073 547.054 321.649 533.383 382.217 516.951C436.47 502.232 473.235 510.435 528.576 503.713C626.674 491.797 623.543 338.406 696.227 337.619C781.828 336.693 737.039 499.982 903.883 446.721C958.348 429.469 988.257 290.271 1052.57 278.483C1150.4 260.551 1179.32 280.491 1365.59 217.969" stroke="white" stroke-width="0.5" stroke-miterlimit="10"/><path d="M65.5624 604.958C65.5624 604.958 173.355 571.288 227.234 558.055C281.112 544.821 319.892 519.665 382.484 503.437C439.201 488.732 468.849 487.512 527.468 494.686C625.99 506.744 618.837 329.546 693.503 327.333C778.555 324.813 737.161 486.165 897.449 434.015C949.664 417.171 991.136 280.455 1055.91 269.437C1151.9 253.112 1179.23 281.29 1365.59 217.972" stroke="white" stroke-width="0.5" stroke-miterlimit="10"/><path d="M65.6117 605.134C65.6117 605.134 171.427 572.53 224.785 557.553C278.142 542.575 318.127 505.94 382.742 489.909C441.925 475.225 465.777 481.202 526.351 485.646C622.946 492.732 614.129 320.718 690.772 317.034C775.28 312.971 737.274 472.335 891.008 421.295C940.971 404.86 994.002 270.604 1059.26 260.377C1153.39 245.624 1179.13 282.075 1365.58 217.961" stroke="white" stroke-width="0.5" stroke-miterlimit="10"/><path d="M65.6757 605.327C65.6757 605.327 169.513 573.788 222.35 557.066C275.187 540.345 316.378 492.238 383.015 476.397C444.666 461.741 462.76 475.383 525.249 476.621C619.895 478.497 609.442 311.953 688.055 306.75C772.027 301.192 737.402 458.521 884.58 408.591C932.293 392.565 996.876 260.747 1062.61 251.333C1154.89 238.117 1179.05 282.876 1365.59 217.967" stroke="white" stroke-width="0.5" stroke-miterlimit="10"/><path d="M65.7227 605.512C65.7227 605.512 167.583 575.038 219.899 556.572C272.215 538.106 314.613 478.534 383.271 462.877C447.39 448.254 459.819 470.052 524.13 467.589C616.783 464.04 604.748 303.227 685.321 296.459C768.767 289.449 737.513 444.699 878.136 395.88C923.598 380.262 999.729 250.859 1065.95 242.281C1156.36 230.569 1178.95 283.67 1365.58 217.964" stroke="white" stroke-width="0.5" stroke-miterlimit="10"/><path d="M65.7846 605.706C65.7846 605.706 165.667 576.297 217.463 556.087C269.258 535.877 312.865 464.844 383.542 449.366C450.13 434.783 457.04 465.238 523.025 458.565C613.617 449.405 600.078 294.556 682.601 286.176C765.53 277.754 737.639 430.886 871.706 383.177C914.918 367.968 1002.59 240.955 1069.3 233.237C1157.84 222.995 1178.86 284.471 1365.59 217.97" stroke="url(#paint0_linear_180_32715)" stroke-width="0.5" stroke-miterlimit="10"/><path d="M65.8385 605.888C65.8385 605.888 163.743 577.544 215.018 555.59C266.293 533.636 311.108 451.148 383.804 435.843C452.863 421.305 459.394 477.351 521.912 449.53C603.879 413.055 595.413 285.92 679.874 275.882C762.297 266.085 737.756 417.061 865.268 370.463C906.23 355.662 1005.44 231.013 1072.65 224.183C1159.3 215.377 1178.77 285.262 1365.58 217.965" stroke="white" stroke-width="0.5" stroke-miterlimit="10"/><path d="M65.8901 606.078C65.8901 606.078 161.817 578.8 212.572 555.102C263.326 531.404 309.35 437.464 384.065 422.33C455.595 407.84 457.359 472.379 520.798 440.504C600.413 400.501 590.758 277.341 677.145 265.596C759.072 254.458 737.872 403.246 858.829 357.758C897.54 343.365 1008.29 221.049 1075.99 215.137C1160.76 207.734 1178.68 286.061 1365.58 217.969" stroke="white" stroke-width="0.5" stroke-miterlimit="10"/><path d="M65.9569 606.267C65.9569 606.267 159.906 580.054 210.14 554.612C260.374 529.17 307.608 423.782 384.341 408.814C458.342 394.379 455.45 467.547 519.698 431.476C597.082 388.031 586.133 268.806 674.43 255.309C755.875 242.859 738.003 389.428 852.404 345.05C888.865 331.066 1011.14 211.053 1079.35 206.089C1162.24 200.057 1178.6 286.859 1365.59 217.97" stroke="white" stroke-width="0.5" stroke-miterlimit="10"/><path d="M66.0079 606.448C66.0079 606.448 157.98 581.3 207.693 554.114C257.406 526.927 305.85 410.096 384.601 395.29C461.074 380.912 453.644 462.837 518.583 422.439C593.856 375.613 581.508 260.311 671.7 245.013C752.675 231.279 738.118 375.602 845.964 332.335C880.174 318.759 1013.98 201.014 1082.69 197.033C1163.69 192.34 1178.5 287.648 1365.59 217.964" stroke="white" stroke-width="0.5" stroke-miterlimit="10"/><path d="M66.0595 606.638C66.0595 606.638 156.053 582.556 205.246 553.625C254.439 524.695 304.092 396.423 384.861 381.776C463.807 367.46 451.961 458.258 517.468 413.413C590.754 363.243 576.901 251.871 668.971 234.727C749.488 219.735 738.233 361.785 839.524 319.629C871.483 306.461 1016.82 190.949 1086.04 187.987C1165.15 184.601 1178.41 288.447 1365.58 217.967" stroke="white" stroke-width="0.5" stroke-miterlimit="10"/><path d="M66.1122 606.825C66.1122 606.825 154.129 583.807 202.8 553.133C251.472 522.458 302.374 382.919 385.123 368.258C466.578 354.175 450.407 453.78 516.355 404.382C587.774 350.885 572.312 243.474 666.243 224.438C746.316 208.209 738.35 347.965 833.085 306.919C862.794 294.16 1019.66 180.841 1089.38 178.936C1166.6 176.827 1178.31 289.242 1365.58 217.966" stroke="white" stroke-width="0.5" stroke-miterlimit="10"/><path d="M66.1751 607.011C66.1751 607.011 152.213 585.059 200.365 552.64C248.516 520.222 300.616 369.192 385.394 354.74C469.311 340.672 448.99 449.394 515.252 395.351C584.923 338.527 567.752 235.123 663.524 214.147C743.167 196.704 738.476 334.144 826.657 294.209C854.115 281.858 1022.5 170.69 1092.74 169.886C1168.07 169.022 1178.23 290.037 1365.58 217.965" stroke="white" stroke-width="0.5" stroke-miterlimit="10"/><path d="M66.2254 607.2C66.2254 607.2 150.286 586.313 197.917 552.15C245.548 517.988 298.845 355.469 385.653 341.224C472.031 327.172 447.685 445.087 514.136 386.323C582.175 326.154 563.198 226.821 660.794 203.86C740.02 185.221 738.59 320.327 820.215 281.501C845.423 269.559 1025.34 160.497 1096.08 160.838C1169.54 161.192 1178.13 290.834 1365.58 217.966" stroke="white" stroke-width="0.5" stroke-miterlimit="10"/><path d="M66.2801 607.388C66.2801 607.388 148.363 587.566 195.473 551.66C242.583 515.753 297.079 341.744 385.917 327.708C474.756 313.671 446.507 440.838 513.024 377.294C579.541 313.75 558.67 218.562 658.067 193.572C736.892 173.754 738.709 306.509 813.779 268.793C836.736 257.259 1028.18 150.255 1099.42 151.79C1171.01 153.331 1178.04 291.631 1365.58 217.967" stroke="white" stroke-width="0.5" stroke-miterlimit="10"/></g></mask><g mask="url(#mask0_180_32715)"><path d="M4.99219 99.9844L1067.89 -217.299L1344.12 708.056C1347.28 718.64 1341.26 729.781 1330.68 732.941L306.102 1038.78C295.518 1041.94 284.377 1035.92 281.217 1025.34L4.99219 99.9844Z" fill="#526160"/></g></g><defs><linearGradient id="paint0_linear_180_32715" x1="49.5815" y1="551.425" x2="1349.31" y2="163.447" gradientUnits="userSpaceOnUse"><stop stop-color="#563CC8"/><stop offset="1" stop-color="#D1C6F0"/></linearGradient><clipPath id="clip0_180_32715"><rect width="1356.51" height="441.571" fill="white" transform="translate(0.867188 388.363) rotate(-16.6207)"/></clipPath></defs></svg>