<svg width="441" height="199" viewBox="0 0 441 199" fill="none" xmlns="http://www.w3.org/2000/svg">
<g opacity="0.4">
<mask id="mask0_0_541" style="mask-type:alpha" maskUnits="userSpaceOnUse" x="0" y="0" width="441" height="199">
<g clip-path="url(#clip0_0_541)">
<path d="M0.078125 100.989C0.078125 100.989 43.8514 98.2941 61.8296 107.727C79.808 117.16 79.808 159.608 94.6596 156.913C106.016 154.853 136.508 141.212 148.985 154.218C182.597 189.255 203.842 99.4109 219.987 110.871C246.563 129.737 206.698 196.667 282.78 198.463C307.952 199.058 299.866 119.406 320.3 119.406C358.862 119.406 377.362 102.337 440.156 102.337" stroke="white" stroke-width="0.5" stroke-miterlimit="10"/>
<path d="M0.078125 101.078C0.078125 101.078 43.1377 98.5884 61.116 107.201C79.0943 115.814 80.5298 153.392 95.9963 151.111C108.114 149.325 136.532 138.084 149.478 150.177C183.176 181.655 203.252 94.8262 220.094 106.078C246.733 123.875 208.018 190.715 281.959 192.147C306.393 192.628 301.678 115.6 322.181 115.931C360.027 116.541 377.26 102.67 440.156 102.338" stroke="white" stroke-width="0.5" stroke-miterlimit="10"/>
<path d="M0.078125 101.166C0.078125 101.166 42.4239 98.8813 60.4023 106.674C78.3806 114.466 81.2534 147.186 97.3331 145.308C110.213 143.804 136.52 134.948 149.971 146.134C183.658 174.149 202.654 90.253 220.202 101.284C246.886 118.057 209.338 184.763 281.138 185.829C304.834 186.196 303.488 111.788 324.061 112.454C361.19 113.657 377.158 103.002 440.156 102.338" stroke="white" stroke-width="0.5" stroke-miterlimit="10"/>
<path d="M0.078125 101.253C0.078125 101.253 41.7102 99.1735 59.6886 106.146C77.667 113.118 81.9782 140.99 98.6699 139.504C112.314 138.289 136.472 131.815 150.464 142.091C184.051 166.757 202.047 85.6929 220.31 96.4881C247.024 112.28 210.657 178.81 280.316 179.51C303.276 179.763 305.297 107.969 325.942 108.977C362.351 110.755 377.056 103.333 440.156 102.337" stroke="white" stroke-width="0.5" stroke-miterlimit="10"/>
<path d="M0.078125 101.342C0.078125 101.342 40.9966 99.4677 58.9749 105.619C76.9531 111.772 82.7038 134.806 100.007 133.702C114.415 132.783 136.39 128.696 150.957 138.049C184.36 159.497 201.433 81.15 220.417 91.6947C247.15 106.544 211.977 172.859 279.495 173.193C301.717 173.333 307.106 104.146 327.822 105.502C363.512 107.837 376.954 103.666 440.156 102.338" stroke="white" stroke-width="0.5" stroke-miterlimit="10"/>
<path d="M0.078125 101.429C0.078125 101.429 40.2829 99.7596 58.2612 105.091C76.2395 110.423 83.4298 128.627 101.343 127.898C116.516 127.28 136.277 125.597 151.449 134.005C184.596 152.375 200.814 76.6213 220.525 86.8989C247.266 100.842 213.297 166.905 278.674 166.874C300.158 166.9 308.913 100.314 329.703 102.024C364.671 104.9 376.852 103.996 440.156 102.336" stroke="white" stroke-width="0.5" stroke-miterlimit="10"/>
<path d="M0.078125 101.517C0.078125 101.517 39.5692 100.052 57.5476 104.564C75.5258 109.075 84.1562 122.455 102.68 122.094C118.618 121.784 136.136 122.53 151.942 129.963C184.769 145.399 200.188 72.111 220.632 82.1046C247.372 95.1756 214.617 160.953 277.853 160.557C298.599 160.469 310.72 96.4769 331.584 98.5475C365.83 101.947 376.75 104.328 440.156 102.336" stroke="white" stroke-width="0.5" stroke-miterlimit="10"/>
<path d="M0.078125 101.607C0.078125 101.607 38.8555 100.347 56.8339 104.038C74.8121 107.729 84.8846 115.82 104.017 116.293C120.718 116.705 135.972 119.505 152.435 125.921C184.89 138.571 199.558 67.6201 220.74 77.3113C247.472 89.5417 215.936 155.002 277.031 154.24C297.04 154.038 312.527 92.6333 333.464 95.0723C366.988 98.9776 376.648 104.661 440.156 102.338" stroke="white" stroke-width="0.5" stroke-miterlimit="10"/>
<path d="M0.078125 101.695C0.078125 101.695 38.1418 100.64 56.1201 103.511C74.0984 106.382 85.6092 110.131 105.354 110.49C122.821 110.807 135.789 116.528 152.928 121.879C184.972 131.885 198.924 63.147 220.848 72.5171C247.565 83.936 217.256 149.05 276.21 147.923C295.481 147.607 314.333 88.7812 335.345 91.5963C368.147 95.9908 376.546 104.994 440.156 102.338" stroke="white" stroke-width="0.5" stroke-miterlimit="10"/>
<path d="M0.078125 101.782C0.078125 101.782 37.4282 100.933 55.4064 102.983C73.3847 105.034 86.3356 103.974 106.69 104.686C124.923 105.323 135.591 113.605 153.42 117.836C185.024 125.336 198.286 58.6923 220.955 67.722C247.654 78.3566 218.576 143.097 275.389 141.604C293.922 141.175 316.139 84.9197 337.225 88.1192C369.305 92.9865 376.444 105.325 440.156 102.337" stroke="white" stroke-width="0.5" stroke-miterlimit="10"/>
<path d="M0.078125 101.871C0.078125 101.871 36.7145 101.226 54.6927 102.457C72.6711 103.687 87.0619 97.8226 108.027 98.8832C127.025 99.8442 136.355 103.139 153.913 113.794C183.424 131.701 197.645 54.2584 221.063 62.9279C247.738 72.803 219.895 137.145 274.567 135.286C292.363 134.744 317.944 81.0505 339.106 84.6432C370.463 89.9667 376.342 105.657 440.156 102.337" stroke="white" stroke-width="0.5" stroke-miterlimit="10"/>
<path d="M0.078125 101.958C0.078125 101.958 36.0007 101.519 53.979 101.929C71.9574 102.339 87.7879 91.6731 109.364 93.0795C129.126 94.3674 135.987 100.023 154.406 109.751C183.779 125.262 197.001 49.8442 221.17 58.1327C247.82 67.2718 221.215 131.192 273.746 128.968C290.804 128.312 319.75 77.1708 340.986 81.166C371.621 86.9298 376.24 105.989 440.156 102.337" stroke="white" stroke-width="0.5" stroke-miterlimit="10"/>
<path d="M0.078125 102.046C0.078125 102.046 35.287 101.811 53.2653 101.401C71.2437 100.991 88.5138 85.527 110.701 87.2758C131.227 88.894 135.587 97.1177 154.899 105.708C184.149 118.718 196.355 45.4512 221.278 53.3378C247.9 61.7622 222.535 125.239 272.925 122.65C289.245 121.88 321.557 73.2811 342.867 77.6892C372.781 83.8773 376.138 106.32 440.156 102.336" stroke="white" stroke-width="0.5" stroke-miterlimit="10"/>
<path d="M0.078125 102.135C0.078125 102.135 34.5733 102.106 52.5517 100.876C70.5299 99.6455 89.2395 79.3856 112.037 81.4745C133.328 83.4253 135.17 94.4404 155.392 101.667C184.526 112.078 195.708 41.0816 221.386 48.5452C247.979 56.2748 223.855 119.289 272.103 116.334C287.687 115.45 323.364 69.3828 344.747 74.2146C373.941 80.8111 376.036 106.654 440.156 102.338" stroke="white" stroke-width="0.5" stroke-miterlimit="10"/>
<path d="M0.078125 102.224C0.078125 102.224 33.8596 102.4 51.838 100.349C69.8162 98.2982 89.965 73.245 113.374 75.6717C135.429 77.9579 134.751 91.9999 155.884 97.6244C184.899 105.346 195.06 36.7321 221.493 43.751C248.057 50.8044 225.174 113.337 271.282 110.016C286.128 109.019 325.172 65.4718 346.628 70.7385C375.102 77.728 375.934 106.986 440.156 102.338" stroke="url(#paint0_linear_0_541)" stroke-width="0.5" stroke-miterlimit="10"/>
<path d="M0.078125 102.312C0.078125 102.312 33.146 102.692 51.1243 99.8215C69.1025 96.9505 90.6902 67.1064 114.711 69.8682C137.53 72.4922 134.359 97.5367 156.377 93.5816C185.245 88.3964 194.411 32.4038 221.601 38.9562C248.134 45.3506 226.494 107.384 270.461 103.698C284.569 102.587 326.981 61.548 348.508 67.2619C376.265 74.6294 375.833 107.318 440.156 102.338" stroke="white" stroke-width="0.5" stroke-miterlimit="10"/>
<path d="M0.078125 102.4C0.078125 102.4 32.4323 102.986 50.4106 99.2944C68.3889 95.6031 91.4151 60.9696 116.048 64.0651C139.63 67.0287 134.189 95.1262 156.87 89.5391C185.334 82.5274 193.762 28.0979 221.709 34.1619C248.213 39.9127 227.814 101.432 269.639 97.3805C283.01 96.1552 328.791 57.6111 350.389 63.7855C377.43 71.5161 375.731 107.65 440.156 102.338" stroke="white" stroke-width="0.5" stroke-miterlimit="10"/>
<path d="M0.078125 102.487C0.078125 102.487 31.7186 103.278 49.6968 98.7662C67.6752 94.2547 92.1399 54.8336 117.385 58.2611C141.73 61.5665 134.041 92.7902 157.363 85.4956C185.452 76.7098 193.113 23.8132 221.816 29.3664C248.292 34.4886 229.134 95.4785 268.818 91.0616C281.451 89.7228 330.604 53.6595 352.269 60.3082C378.597 68.3876 375.629 107.981 440.156 102.337" stroke="white" stroke-width="0.5" stroke-miterlimit="10"/>
<path d="M0.078125 102.576C0.078125 102.576 31.0049 103.572 48.9831 98.2399C66.9615 92.9082 92.8644 48.7011 118.721 52.4589C143.83 56.1078 133.917 90.528 157.856 81.4539C185.603 70.9359 192.464 19.5524 221.924 24.5728C248.372 29.08 230.453 89.5269 267.997 84.7448C279.892 83.292 332.419 49.6945 354.15 56.8325C379.767 65.2469 375.527 108.314 440.156 102.338" stroke="white" stroke-width="0.5" stroke-miterlimit="10"/>
<path d="M0.078125 102.663C0.078125 102.663 30.2912 103.864 48.2695 97.7126C66.2478 91.5605 93.5887 42.5687 120.058 46.6553C145.93 50.6496 133.821 88.3325 158.348 77.4111C185.788 65.1929 191.817 15.3129 222.031 19.778C248.455 23.6828 231.773 83.5744 267.175 78.4267C278.333 76.8603 334.237 45.7126 356.03 53.3559C380.939 62.0914 375.425 108.645 440.156 102.337" stroke="white" stroke-width="0.5" stroke-miterlimit="10"/>
<path d="M0.078125 102.751C0.078125 102.751 29.5776 104.157 47.5558 97.1849C65.5341 90.2127 94.3084 36.5162 121.395 40.8519C148.025 45.2702 133.754 86.199 158.841 73.3682C186.009 59.4727 191.17 11.0957 222.139 14.9833C248.539 18.2972 233.093 77.6218 266.354 72.1084C276.774 70.4282 336.057 41.7136 357.911 49.8791C382.114 58.9228 375.323 108.977 440.156 102.337" stroke="white" stroke-width="0.5" stroke-miterlimit="10"/>
<path d="M0.078125 102.84C0.078125 102.84 28.8637 104.452 46.8421 96.6592C64.8205 88.8666 95.0335 30.3628 122.732 35.0501C150.126 39.7923 133.719 84.123 159.334 69.3269C186.267 53.7694 190.525 6.90248 222.247 10.19C248.626 12.9239 234.412 71.6706 265.533 65.792C275.215 63.998 337.882 37.6979 359.791 46.404C383.293 55.7428 375.221 109.31 440.156 102.338" stroke="white" stroke-width="0.5" stroke-miterlimit="10"/>
<path d="M0.078125 102.927C0.078125 102.927 28.1501 104.743 46.1284 96.1304C64.1066 87.5176 95.7585 24.2066 124.068 29.2452C152.226 34.3116 133.715 82.093 159.827 65.2828C186.563 48.0704 189.882 2.72842 222.354 5.39393C248.715 7.55784 235.732 65.7168 264.711 59.4725C273.656 57.565 339.711 33.66 361.672 42.9261C384.477 52.548 375.119 109.641 440.156 102.336" stroke="white" stroke-width="0.5" stroke-miterlimit="10"/>
<path d="M0.078125 103.016C0.078125 103.016 27.4364 105.038 45.4147 95.6046C63.393 86.1716 96.4835 18.0534 125.405 23.4436C154.327 28.8339 133.743 80.1076 160.32 61.2417C186.896 42.3756 189.241 -1.42048 222.462 0.600865C248.807 2.20392 237.052 59.7661 263.89 53.1561C272.098 51.1348 341.545 29.6044 363.552 39.4512C385.664 49.3444 375.017 109.974 440.156 102.338" stroke="white" stroke-width="0.5" stroke-miterlimit="10"/>
</g>
</mask>
<g mask="url(#mask0_0_541)">
<path d="M85 -124H388V230C388 241.046 379.046 250 368 250H105C93.9543 250 85 241.046 85 230V-124Z" fill="#D9D9D9"/>
</g>
</g>
<defs>
<linearGradient id="paint0_linear_0_541" x1="0.078125" y1="76.695" x2="440.156" y2="76.695" gradientUnits="userSpaceOnUse">
<stop stop-color="#563CC8"/>
<stop offset="1" stop-color="#D1C6F0"/>
</linearGradient>
<clipPath id="clip0_0_541">
<rect width="440.112" height="199" fill="white" transform="translate(0.0664062)"/>
</clipPath>
</defs>
</svg>
