<svg width="287" height="306" viewBox="0 0 287 306" fill="none" xmlns="http://www.w3.org/2000/svg">
<g style="mix-blend-mode:overlay" clip-path="url(#clip0_180_33520)">
<circle cx="23.6016" cy="142" r="4" fill="#D9D9D9"/>
<circle cx="286.602" cy="150" r="4" fill="#D9D9D9"/>
<circle cx="66.6016" cy="122" r="2" fill="#D9D9D9"/>
<circle cx="47.6016" cy="2" r="2" fill="#D9D9D9"/>
<circle cx="164.602" cy="126" r="2" fill="#D9D9D9"/>
<circle cx="2" cy="2" r="2" transform="matrix(-1 0 0 1 9.60156 233)" fill="#D9D9D9"/>
<circle cx="2" cy="2" r="2" transform="matrix(-1 0 0 1 272.602 241)" fill="#D9D9D9"/>
<circle cx="171.602" cy="261" r="1" fill="#D9D9D9"/>
<circle cx="216.602" cy="88" r="2" fill="#D9D9D9"/>
<circle cx="224.602" cy="208" r="2" fill="#D1C6F0"/>
<circle cx="2" cy="2" r="2" transform="matrix(-1 0 0 1 78.6016 294)" fill="#D9D9D9"/>
<circle cx="262.602" cy="139" r="1" fill="#D9D9D9"/>
<circle cx="50.6016" cy="193" r="1" fill="#D9D9D9"/>
</g>
<defs>
<clipPath id="clip0_180_33520">
<rect width="285.867" height="306" fill="white" transform="translate(0.601562)"/>
</clipPath>
</defs>
</svg>
