<svg width="57" height="57" viewBox="0 0 57 57" fill="none" xmlns="http://www.w3.org/2000/svg">
<rect width="40" height="40" rx="20" transform="matrix(0.707107 -0.707107 -0.707107 -0.707107 28.2842 56.5685)" fill="transparent"/>
<path d="M33 28.5C33 28.7761 32.7761 29 32.5 29L26 29C25.7239 29 25.5 28.7761 25.5 28.5C25.5 28.2239 25.7239 28 26 28L32 28L32 22C32 21.7239 32.2239 21.5 32.5 21.5C32.7761 21.5 33 21.7239 33 22L33 28.5ZM19.3536 19.3536L19.8536 18.8536L32.5 31.5L32 32L31.5 32.5L18.8536 19.8536L19.3536 19.3536Z" fill="white"/>
</svg>
