<svg width="57" height="57" viewBox="0 0 57 57" fill="none" xmlns="http://www.w3.org/2000/svg">
<g style="mix-blend-mode:hard-light">
<rect x="0.431458" y="28.2842" width="40" height="40" rx="20" transform="rotate(-45 0.431458 28.2842)" fill="transparent"/>
<path d="M35.3851 22.3181C35.3851 21.9297 35.0703 21.6149 34.6819 21.6149L28.3538 21.6149C27.9655 21.6149 27.6507 21.9297 27.6507 22.3181C27.6507 22.7064 27.9655 23.0212 28.3538 23.0212L33.9788 23.0212L33.9788 28.6462C33.9788 29.0345 34.2936 29.3493 34.6819 29.3493C35.0703 29.3493 35.3851 29.0345 35.3851 28.6462L35.3851 22.3181ZM22.7495 34.2505L23.2467 34.7477L35.1791 22.8152L34.6819 22.3181L34.1848 21.8209L22.2523 33.7533L22.7495 34.2505Z" fill="#F7F7F7"/>
</g>
</svg>
