<?xml version="1.0" encoding="UTF-8"?>
<svg width="180" height="45" viewBox="0 0 180 45" fill="none" xmlns="http://www.w3.org/2000/svg">
  <rect width="180" height="45" fill="none"/>
  <path d="M20 10H30C32.2 10 34 11.8 34 14V16C34 17.7 32.8 19.1 31.2 19.7C32.8 20.3 34 21.7 34 23.4V26C34 28.2 32.2 30 30 30H20V10ZM30 18C31.1 18 32 17.1 32 16V14C32 12.9 31.1 12 30 12H22V18H30ZM30 28C31.1 28 32 27.1 32 26V23.4C32 22.3 31.1 21.4 30 21.4H22V28H30Z" fill="#ffffff"/>
  <path d="M36 10H46V12H38V18H44V20H38V28H36V10Z" fill="#ffffff"/>
  <path d="M48 10H58C60.2 10 62 11.8 62 14V16C62 17.7 60.8 19.1 59.2 19.7C60.8 20.3 62 21.7 62 23.4V26C62 28.2 60.2 30 58 30H48V10ZM58 18C59.1 18 60 17.1 60 16V14C60 12.9 59.1 12 58 12H50V18H58ZM58 28C59.1 28 60 27.1 60 26V23.4C60 22.3 59.1 21.4 58 21.4H50V28H58Z" fill="#ffffff"/>
  <path d="M64 10H74V12H66V18H72V20H66V26H74V28H64V10Z" fill="#ffffff"/>
  <path d="M76 10H86V12H78V18H84V20H78V26H86V28H76V10Z" fill="#ffffff"/>
  <path d="M88 10H98V12H90V18H96V20H90V26H98V28H88V10Z" fill="#ffffff"/>
  <path d="M100 10H110V12H102V18H108V20H102V26H110V28H100V10Z" fill="#ffffff"/>
  <path d="M112 10H122V12H114V18H120V20H114V26H122V28H112V10Z" fill="#ffffff"/>
</svg>
