<svg width="40" height="40" viewBox="0 0 40 40" fill="none" xmlns="http://www.w3.org/2000/svg">
<path d="M24.5937 20.0884C24.5937 22.625 22.5366 24.6821 20.0016 24.6821C17.4667 24.6821 15.4079 22.625 15.4079 20.0884C15.4079 17.5518 17.465 15.4963 20.0016 15.4963C22.5383 15.4963 24.5937 17.5534 24.5937 20.0884ZM40 19.2701V20.7299H32.814C32.4916 27.276 27.2645 32.5309 20.7299 32.8975V40H19.2701V32.8975C12.7355 32.5309 7.50838 27.276 7.18598 20.7299H0V19.2701H7.19908C7.60658 12.8075 12.796 7.64422 19.2701 7.28091V0H20.7299V7.28091C27.204 7.64422 32.3934 12.8075 32.8009 19.2701H40ZM31.3706 20.0884C31.3706 16.9462 30.099 14.1085 28.0402 12.0481C25.9799 9.98937 23.1421 8.71779 20 8.71779C16.8579 8.71779 14.0201 9.98937 11.9597 12.0481C9.90097 14.1085 8.62941 16.9462 8.62941 20.0884C8.62941 23.2305 9.90097 26.0683 11.9597 28.1286C14.0201 30.1874 16.8579 31.459 20 31.459C23.1421 31.459 25.9799 30.1874 28.0402 28.1286C30.099 26.0683 31.3706 23.2305 31.3706 20.0884Z" fill="url(#paint0_linear_180_31509)"/>
<defs>
<linearGradient id="paint0_linear_180_31509" x1="0" y1="0" x2="0" y2="40" gradientUnits="userSpaceOnUse">
<stop stop-color="#89101C"/>
<stop offset="1" stop-color="#FF5F68"/>
</linearGradient>
</defs>
</svg>
