<svg width="40" height="28" viewBox="0 0 40 28" fill="none" xmlns="http://www.w3.org/2000/svg">
<path d="M8.6979 23.7761H12.6382V25.0002H8.6979C6.74015 25.0002 4.93217 23.956 3.95261 22.2607L0.733621 16.6842C0.244526 15.8365 0 14.8899 0 13.9447C0 12.9995 0.244526 12.0529 0.733621 11.2052L3.95261 5.62871C4.9308 3.93337 6.74015 2.88924 8.6979 2.88924H12.6382V4.11335H8.6979C7.17841 4.11335 5.77297 4.92393 5.01322 6.24009L1.79424 11.8166C1.41368 12.4747 1.2241 13.2083 1.2241 13.9433C1.2241 14.6783 1.41368 15.412 1.79424 16.0701L5.01322 21.6452C5.77297 22.9614 7.17703 23.772 8.6979 23.772V23.7761ZM39.2663 11.2066L36.0474 5.63009C35.0692 3.93474 33.2598 2.89061 31.3021 2.89061H27.3618V4.11609H31.3021C32.8216 4.11609 34.227 4.92668 34.9868 6.24284L38.2057 11.8193C38.5863 12.4774 38.7759 13.2111 38.7759 13.9461C38.7759 14.6811 38.5863 15.4147 38.2057 16.0728L34.9868 21.648C34.227 22.9641 32.8229 23.7747 31.3021 23.7747H27.3618V24.9988H31.3021C33.2598 24.9988 35.0678 23.9547 36.0474 22.2593L39.2663 16.6842C39.7554 15.8365 40 14.8899 40 13.9447C40 12.9995 39.7554 12.0529 39.265 11.2052L39.2663 11.2066ZM19.3879 19.7933V27.8922H20.6134V19.7933C20.4115 19.8139 20.2081 19.8248 20.0007 19.8248C19.7932 19.8248 19.5899 19.8139 19.3879 19.7933ZM20.6134 8.09893V0H19.3879V8.09893C19.5899 8.07832 19.7932 8.06732 20.0007 8.06732C20.2081 8.06732 20.4115 8.07832 20.6134 8.09893ZM33.9468 14.5588V13.3333H25.8478C25.8684 13.5353 25.8794 13.7386 25.8794 13.9461C25.8794 14.1535 25.8684 14.3569 25.8478 14.5588H33.9468ZM6.05459 13.3333V14.5588H14.1535C14.1329 14.3569 14.1219 14.1535 14.1219 13.9461C14.1219 13.7386 14.1329 13.5353 14.1535 13.3333H6.05459ZM20.0007 9.90417C17.7681 9.90417 15.9588 11.7136 15.9588 13.9461C15.9588 16.1786 17.7681 17.988 20.0007 17.988C22.2332 17.988 24.0426 16.1786 24.0426 13.9461C24.0426 11.7136 22.2332 9.90417 20.0007 9.90417Z" fill="url(#paint0_linear_180_31498)"/>
<defs>
<linearGradient id="paint0_linear_180_31498" x1="0" y1="0" x2="0" y2="27.8922" gradientUnits="userSpaceOnUse">
<stop stop-color="#89101C"/>
<stop offset="1" stop-color="#FF5F68"/>
</linearGradient>
</defs>
</svg>
