<svg width="32" height="32" viewBox="0 0 32 32" fill="none" xmlns="http://www.w3.org/2000/svg">
  <path d="M16 5.83333C19.1867 5.83333 19.5533 5.84667 20.7733 5.9C21.9933 5.95333 22.8 6.16667 23.5067 6.48C24.24 6.80667 24.8533 7.24 25.4667 7.85333C26.0533 8.44 26.5 9.06667 26.82 9.79333C27.1333 10.5 27.3467 11.3067 27.4 12.5267C27.4533 13.7467 27.4667 14.1133 27.4667 17.3C27.4667 20.4867 27.4533 20.8533 27.4 22.0733C27.3467 23.2933 27.1333 24.1 26.82 24.8067C26.4933 25.54 26.06 26.1533 25.4667 26.7667C24.88 27.3533 24.2533 27.8 23.5267 28.12C22.82 28.4333 22.0133 28.6467 20.7933 28.7C19.5733 28.7533 19.2067 28.7667 16.02 28.7667C12.8333 28.7667 12.4667 28.7533 11.2467 28.7C10.0267 28.6467 9.22 28.4333 8.51333 28.12C7.78 27.7933 7.16667 27.36 6.55333 26.7667C5.96667 26.18 5.52 25.5533 5.2 24.8267C4.88667 24.12 4.67333 23.3133 4.62 22.0933C4.56667 20.8733 4.55333 20.5067 4.55333 17.32C4.55333 14.1333 4.56667 13.7667 4.62 12.5467C4.67333 11.3267 4.88667 10.52 5.2 9.81333C5.52667 9.08 5.96 8.46667 6.55333 7.85333C7.14 7.26667 7.76667 6.82 8.49333 6.5C9.2 6.18667 10.0067 5.97333 11.2267 5.92C12.4467 5.86667 12.8133 5.85333 16 5.85333M16 3.5C12.7533 3.5 12.36 3.51333 11.12 3.56667C9.88667 3.62 9.02 3.84 8.26 4.15333C7.46667 4.48 6.79333 4.91333 6.12 5.58667C5.44667 6.26 5.01333 6.93333 4.68667 7.72667C4.37333 8.48667 4.15333 9.35333 4.1 10.5867C4.04667 11.8267 4.03333 12.22 4.03333 15.4667C4.03333 18.7133 4.04667 19.1067 4.1 20.3467C4.15333 21.58 4.37333 22.4467 4.68667 23.2067C5.01333 24 5.44667 24.6733 6.12 25.3467C6.79333 26.02 7.46667 26.4533 8.26 26.78C9.02 27.0933 9.88667 27.3133 11.12 27.3667C12.36 27.42 12.7533 27.4333 16 27.4333C19.2467 27.4333 19.64 27.42 20.88 27.3667C22.1133 27.3133 22.98 27.0933 23.74 26.78C24.5333 26.4533 25.2067 26.02 25.88 25.3467C26.5533 24.6733 26.9867 24 27.3133 23.2067C27.6267 22.4467 27.8467 21.58 27.9 20.3467C27.9533 19.1067 27.9667 18.7133 27.9667 15.4667C27.9667 12.22 27.9533 11.8267 27.9 10.5867C27.8467 9.35333 27.6267 8.48667 27.3133 7.72667C26.9867 6.93333 26.5533 6.26 25.88 5.58667C25.2067 4.91333 24.5333 4.48 23.74 4.15333C22.98 3.84 22.1133 3.62 20.88 3.56667C19.64 3.51333 19.2467 3.5 16 3.5Z" fill="#666666"/>
  <path d="M16 9.83333C12.6 9.83333 9.83333 12.6 9.83333 16C9.83333 19.4 12.6 22.1667 16 22.1667C19.4 22.1667 22.1667 19.4 22.1667 16C22.1667 12.6 19.4 9.83333 16 9.83333ZM16 19.8333C13.8867 19.8333 12.1667 18.1133 12.1667 16C12.1667 13.8867 13.8867 12.1667 16 12.1667C18.1133 12.1667 19.8333 13.8867 19.8333 16C19.8333 18.1133 18.1133 19.8333 16 19.8333Z" fill="#666666"/>
  <path d="M23.7333 9.6C23.7333 10.3733 23.1067 11 22.3333 11C21.56 11 20.9333 10.3733 20.9333 9.6C20.9333 8.82667 21.56 8.2 22.3333 8.2C23.1067 8.2 23.7333 8.82667 23.7333 9.6Z" fill="#666666"/>
</svg>
