<svg width="32" height="32" viewBox="0 0 32 32" fill="none" xmlns="http://www.w3.org/2000/svg">
  <path d="M26.6667 4.66667H5.33333C4.96667 4.66667 4.66667 4.96667 4.66667 5.33333V26.6667C4.66667 27.0333 4.96667 27.3333 5.33333 27.3333H26.6667C27.0333 27.3333 27.3333 27.0333 27.3333 26.6667V5.33333C27.3333 4.96667 27.0333 4.66667 26.6667 4.66667ZM11.3333 24.6667H8V13.3333H11.3333V24.6667ZM9.66667 11.8333C8.6 11.8333 7.66667 10.9 7.66667 9.83333C7.66667 8.76667 8.6 7.83333 9.66667 7.83333C10.7333 7.83333 11.6667 8.76667 11.6667 9.83333C11.6667 10.9 10.7333 11.8333 9.66667 11.8333ZM24.6667 24.6667H21.3333V18.5C21.3333 17.3 21.3333 15.6667 19.6 15.6667C17.8667 15.6667 17.6 17.0333 17.6 18.4333V24.6667H14.3333V13.3333H17.5333V14.8333H17.5667C18.0333 13.9667 19.1667 13.0667 20.8667 13.0667C24.2333 13.0667 24.6667 15.4 24.6667 18.3667V24.6667Z" fill="#666666"/>
</svg>
