<svg width="32" height="32" viewBox="0 0 32 32" fill="none" xmlns="http://www.w3.org/2000/svg">
  <path d="M23.5333 11.5867C23.5467 11.7733 23.5467 11.96 23.5467 12.1467C23.5467 17.5067 19.4933 23.6667 12.0533 23.6667C9.7 23.6667 7.52 22.9733 5.66667 21.7733C6.00667 21.8133 6.33333 21.8267 6.68667 21.8267C8.64 21.8267 10.4467 21.16 11.9 20.0267C10.0733 19.9867 8.54 18.7867 8.02 17.1333C8.28 17.1733 8.54 17.2 8.81333 17.2C9.18667 17.2 9.56 17.1467 9.90667 17.0533C7.99333 16.6667 6.56 14.9733 6.56 12.9467V12.8933C7.10667 13.1933 7.73333 13.3733 8.4 13.4C7.26667 12.6533 6.54 11.3733 6.54 9.93333C6.54 9.16 6.74 8.44667 7.09333 7.82667C9.16 10.3733 12.2533 12.0667 15.7333 12.2533C15.6667 11.9533 15.6267 11.64 15.6267 11.3267C15.6267 9 17.5133 7.1 19.8533 7.1C21.0667 7.1 22.1667 7.6 22.9533 8.4C23.92 8.21333 24.84 7.85333 25.6667 7.36C25.3667 8.36 24.7267 9.16 23.88 9.66667C24.7 9.57333 25.4933 9.34 26.2267 9.01333C25.6667 9.82667 24.9733 10.5467 24.1733 11.1467C23.5333 11.5867 23.5333 11.5867 23.5333 11.5867Z" fill="#666666"/>
</svg>
